# Low-Poly Prehistoric Asset: boulder
mtllib camp_props.mtl
o boulder

v 0.7200 0.0000 0.0000
v 0.4400 0.0000 0.7621
v -0.3400 0.0000 0.5889
v -0.8400 0.0000 0.0000
v -0.3800 0.0000 -0.6582
v 0.4600 0.0000 -0.7967
v 1.2634 0.4000 0.3908
v 0.2423 0.4000 1.0653
v -1.0124 0.4000 0.9378
v -0.9888 0.4000 -0.3059
v -0.2805 0.4000 -1.2335
v 0.8436 0.4000 -0.7815
v 0.8747 0.8500 -0.1773
v 0.7647 0.8500 0.8656
v -0.3172 0.8500 0.9457
v -1.2349 0.8500 0.2503
v -0.6257 0.8500 -0.7082
v 0.3506 0.8500 -1.0453
v 0.5987 1.3000 0.2531
v 0.0681 1.3000 0.5483
v -0.5963 1.3000 0.4507
v -0.5688 1.3000 -0.2405
v -0.0881 1.3000 -0.7095
v 0.4667 1.3000 -0.3527
v 0.0000 -0.0500 0.0000
v 0.0500 1.5500 -0.0500

vn -0.9200 -0.1985 -0.3380
vn -0.2969 0.8425 -0.4495
vn 0.1377 0.7723 -0.6201
vn 0.0788 0.6266 -0.7753
vn 0.7458 -0.2068 -0.6332
vn 0.5150 0.8571 0.0098
vn 0.6966 0.5269 0.4869
vn 0.6328 0.6050 0.4832
vn 0.1597 -0.1900 0.9687
vn -0.2141 0.8190 0.5324
vn -0.6761 0.7030 0.2207
vn -0.7032 0.6648 0.2518
vn -0.5322 0.2603 -0.8056
vn -0.7062 -0.7041 -0.0745
vn 0.1001 -0.1374 -0.9854
vn -0.0695 -0.3361 -0.9393
vn 0.8858 0.4637 0.0168
vn 0.4447 -0.6767 -0.5868
vn 0.7909 -0.0983 0.6039
vn 0.8273 -0.1975 0.5258
vn -0.3697 0.1340 0.9194
vn 0.2483 -0.6490 0.7191
vn -0.8778 -0.3614 0.3143
vn -0.7227 -0.5360 0.4364
vn -0.5239 -0.8500 -0.0553
vn -0.4282 0.4735 -0.7697
vn -0.0486 -0.7526 -0.6567
vn 0.1314 -0.4273 -0.8945
vn 0.2979 -0.8698 -0.3932
vn 0.8326 0.5528 0.0331
vn 0.5948 -0.7095 0.3780
vn 0.6770 -0.2453 0.6939
vn 0.1778 -0.8385 0.5150
vn -0.4538 0.5442 0.7056
vn -0.5995 -0.7139 0.3620
vn -0.9743 -0.0754 0.2123
vn -0.0693 0.9973 -0.0254
vn 0.0167 0.9970 -0.0750
vn 0.0593 0.9970 -0.0504
vn 0.0594 0.9974 0.0415
vn 0.0114 0.9975 0.0692
vn -0.0693 0.9973 0.0226
vn -0.2069 -0.9049 -0.3719
vn 0.0568 -0.9206 -0.3864
vn 0.3706 -0.9287 0.0147
vn 0.2811 -0.9154 0.2881
vn -0.2499 -0.8869 0.3885
vn -0.4576 -0.8835 0.0997

usemtl mat_stone
s 1
f 1//1 2//1 8//1
f 1//2 8//2 7//2
f 2//3 3//3 9//3
f 2//4 9//4 8//4
f 3//5 4//5 10//5
f 3//6 10//6 9//6
f 4//7 5//7 11//7
f 4//8 11//8 10//8
f 5//9 6//9 12//9
f 5//10 12//10 11//10
f 6//11 1//11 7//11
f 6//12 7//12 12//12
f 7//13 8//13 14//13
f 7//14 14//14 13//14
f 8//15 9//15 15//15
f 8//16 15//16 14//16
f 9//17 10//17 16//17
f 9//18 16//18 15//18
f 10//19 11//19 17//19
f 10//20 17//20 16//20
f 11//21 12//21 18//21
f 11//22 18//22 17//22
f 12//23 7//23 13//23
f 12//24 13//24 18//24
f 13//25 14//25 20//25
f 13//26 20//26 19//26
f 14//27 15//27 21//27
f 14//28 21//28 20//28
f 15//29 16//29 22//29
f 15//30 22//30 21//30
f 16//31 17//31 23//31
f 16//32 23//32 22//32
f 17//33 18//33 24//33
f 17//34 24//34 23//34
f 18//35 13//35 19//35
f 18//36 19//36 24//36
f 25//37 2//37 1//37
f 25//38 3//38 2//38
f 25//39 4//39 3//39
f 25//40 5//40 4//40
f 25//41 6//41 5//41
f 25//42 1//42 6//42
f 26//43 19//43 20//43
f 26//44 20//44 21//44
f 26//45 21//45 22//45
f 26//46 22//46 23//46
f 26//47 23//47 24//47
f 26//48 24//48 19//48

