mtllib campfire.mtl
usemtl mat_campfire
v -0.0441 0.9176 -0.3609
v 0.2047 0.9164 -0.3183
v 0.2863 0.6283 -0.2789
v -0.0441 0.9176 -0.3609
v 0.2863 0.6283 -0.2789
v 0.0972 0.4464 -0.3055
v -0.0867 0.2990 -0.1299
v 0.2618 0.3908 0.0314
v -0.0095 0.2920 0.1309
v 0.2863 0.6283 -0.2789
v 0.2618 0.3908 0.0314
v 0.0972 0.4464 -0.3055
v 0.2863 0.6283 -0.2789
v 0.3998 0.9153 -0.0654
v 0.2618 0.3908 0.0314
v 0.2618 0.3908 0.0314
v 0.3490 0.7542 0.2029
v 0.1548 0.7901 0.3159
v -0.3275 1.0086 0.1349
v -0.3045 0.6342 0.2025
v -0.0647 0.6061 0.3552
v -0.0544 0.9164 0.3403
v 0.1548 0.7901 0.3159
v -0.0544 0.9164 0.3403
v -0.0647 0.6061 0.3552
v -0.0867 0.2990 -0.1299
v -0.0095 0.2920 0.1309
v -0.1691 0.3276 0.0545
v -0.3045 0.6342 0.2025
v -0.1691 0.3276 0.0545
v -0.0095 0.2920 0.1309
v -0.3045 0.6342 0.2025
v -0.3275 1.0086 0.1349
v -0.3610 0.6543 -0.0865
v -0.3045 0.6342 0.2025
v -0.3610 0.6543 -0.0865
v -0.1691 0.3276 0.0545
v -0.3275 1.0086 0.1349
v -0.2774 0.9164 -0.2093
v -0.3610 0.6543 -0.0865
v -0.1944 0.6005 -0.3122
v -0.0441 0.9176 -0.3609
v 0.0972 0.4464 -0.3055
v -0.1944 0.6005 -0.3122
v 0.0972 0.4464 -0.3055
v -0.0867 0.2990 -0.1299
v -0.0867 0.2990 -0.1299
v 0.0972 0.4464 -0.3055
v 0.2618 0.3908 0.0314
v 0.2047 0.9164 -0.3183
v 0.3998 0.9153 -0.0654
v 0.2863 0.6283 -0.2789
v 0.2618 0.3908 0.0314
v 0.3998 0.9153 -0.0654
v 0.3490 0.7542 0.2029
v 0.2618 0.3908 0.0314
v 0.1548 0.7901 0.3159
v -0.0095 0.2920 0.1309
v 0.1548 0.7901 0.3159
v -0.0647 0.6061 0.3552
v -0.0095 0.2920 0.1309
v -0.0095 0.2920 0.1309
v -0.0647 0.6061 0.3552
v -0.3045 0.6342 0.2025
v -0.1691 0.3276 0.0545
v -0.3610 0.6543 -0.0865
v -0.0867 0.2990 -0.1299
v -0.3610 0.6543 -0.0865
v -0.2774 0.9164 -0.2093
v -0.1944 0.6005 -0.3122
v -0.0867 0.2990 -0.1299
v -0.3610 0.6543 -0.0865
v -0.1944 0.6005 -0.3122
v -0.2774 0.9164 -0.2093
v -0.0441 0.9176 -0.3609
v -0.1944 0.6005 -0.3122
v -0.1740 0.2848 0.2485
v -0.1399 0.3450 0.1212
v -0.0966 0.2479 0.1209
v -0.1359 0.1979 0.2708
v -0.1359 0.1979 0.2708
v -0.0966 0.2479 0.1209
v -0.0007 0.2077 0.1467
v -0.0528 0.1684 0.3016
v -0.0528 0.1684 0.3016
v -0.0007 0.2077 0.1467
v 0.0916 0.2479 0.1833
v 0.0267 0.2137 0.3229
v 0.0267 0.2137 0.3229
v 0.0916 0.2479 0.1833
v 0.1261 0.3450 0.2095
v 0.0561 0.3071 0.3222
v 0.0561 0.3071 0.3222
v 0.1261 0.3450 0.2095
v 0.0828 0.4420 0.2098
v 0.0180 0.3937 0.2998
v 0.0180 0.3937 0.2998
v 0.0828 0.4420 0.2098
v -0.0131 0.4822 0.1840
v -0.0651 0.4231 0.2690
v -0.0966 0.2479 0.1209
v -0.1399 0.3450 0.1212
v -0.1054 0.4420 0.1473
v -0.0131 0.4822 0.1840
v 0.0828 0.4420 0.2098
v 0.1261 0.3450 0.2095
v 0.0916 0.2479 0.1833
v -0.0007 0.2077 0.1467
v -0.0651 0.4231 0.2690
v -0.0131 0.4822 0.1840
v -0.1054 0.4420 0.1473
v -0.1447 0.3781 0.2477
v -0.1447 0.3781 0.2477
v -0.1054 0.4420 0.1473
v -0.1399 0.3450 0.1212
v -0.1740 0.2848 0.2485
v -0.3390 0.1577 0.7118
v -0.3040 0.0653 0.7234
v -0.2194 0.0257 0.7515
v -0.1348 0.0647 0.7795
v -0.0998 0.1580 0.7912
v -0.1348 0.2499 0.7795
v -0.2194 0.2884 0.7515
v -0.3040 0.2500 0.7234
v -0.2301 0.3132 0.5398
v -0.1447 0.3781 0.2477
v -0.1740 0.2848 0.2485
v -0.2704 0.2325 0.5132
v -0.1449 0.3374 0.5739
v -0.0651 0.4231 0.2690
v -0.1447 0.3781 0.2477
v -0.2301 0.3132 0.5398
v -0.0647 0.2906 0.5955
v 0.0180 0.3937 0.2998
v -0.0651 0.4231 0.2690
v -0.1449 0.3374 0.5739
v -0.0364 0.2003 0.5918
v 0.0561 0.3071 0.3222
v 0.0180 0.3937 0.2998
v -0.0647 0.2906 0.5955
v -0.0767 0.1192 0.5652
v 0.0267 0.2137 0.3229
v 0.0561 0.3071 0.3222
v -0.0364 0.2003 0.5918
v -0.1620 0.0951 0.5311
v -0.0528 0.1684 0.3016
v 0.0267 0.2137 0.3229
v -0.0767 0.1192 0.5652
v -0.2422 0.1428 0.5096
v -0.1359 0.1979 0.2708
v -0.0528 0.1684 0.3016
v -0.1620 0.0951 0.5311
v -0.2704 0.2325 0.5132
v -0.1740 0.2848 0.2485
v -0.1359 0.1979 0.2708
v -0.2422 0.1428 0.5096
v -0.3390 0.1577 0.7118
v -0.2704 0.2325 0.5132
v -0.2422 0.1428 0.5096
v -0.3040 0.0653 0.7234
v -0.3040 0.0653 0.7234
v -0.2422 0.1428 0.5096
v -0.1620 0.0951 0.5311
v -0.2194 0.0257 0.7515
v -0.2194 0.0257 0.7515
v -0.1620 0.0951 0.5311
v -0.0767 0.1192 0.5652
v -0.1348 0.0647 0.7795
v -0.1348 0.0647 0.7795
v -0.0767 0.1192 0.5652
v -0.0364 0.2003 0.5918
v -0.0998 0.1580 0.7912
v -0.0998 0.1580 0.7912
v -0.0364 0.2003 0.5918
v -0.0647 0.2906 0.5955
v -0.1348 0.2499 0.7795
v -0.1348 0.2499 0.7795
v -0.0647 0.2906 0.5955
v -0.1449 0.3374 0.5739
v -0.2194 0.2884 0.7515
v -0.2194 0.2884 0.7515
v -0.1449 0.3374 0.5739
v -0.2301 0.3132 0.5398
v -0.3040 0.2500 0.7234
v -0.3040 0.2500 0.7234
v -0.2301 0.3132 0.5398
v -0.2704 0.2325 0.5132
v -0.3390 0.1577 0.7118
v -0.3425 0.2932 0.0028
v -0.2177 0.3269 -0.0337
v -0.2148 0.2489 0.0017
v -0.3448 0.2043 0.0469
v -0.3448 0.2043 0.0469
v -0.2148 0.2489 0.0017
v -0.1907 0.2166 0.0764
v -0.3338 0.1723 0.1348
v -0.3338 0.1723 0.1348
v -0.1907 0.2166 0.0764
v -0.1595 0.2489 0.1465
v -0.3159 0.2104 0.2152
v -0.3159 0.2104 0.2152
v -0.1595 0.2489 0.1465
v -0.1395 0.3269 0.1709
v -0.3017 0.3033 0.2409
v -0.3017 0.3033 0.2409
v -0.1395 0.3269 0.1709
v -0.1743 0.4359 0.1560
v -0.2995 0.3628 0.1969
v -0.2995 0.3628 0.1969
v -0.1743 0.4359 0.1560
v -0.2115 0.4647 0.0898
v -0.3689 0.4035 0.1168
v -0.2148 0.2489 0.0017
v -0.2177 0.3269 -0.0337
v -0.2296 0.4359 0.0113
v -0.2115 0.4647 0.0898
v -0.1743 0.4359 0.1560
v -0.1395 0.3269 0.1709
v -0.1595 0.2489 0.1465
v -0.1907 0.2166 0.0764
v -0.3689 0.4035 0.1168
v -0.2115 0.4647 0.0898
v -0.2296 0.4359 0.0113
v -0.3570 0.3798 0.0346
v -0.3570 0.3798 0.0346
v -0.2296 0.4359 0.0113
v -0.2177 0.3269 -0.0337
v -0.3425 0.2932 0.0028
v -0.8644 0.1588 0.0932
v -0.8585 0.0497 0.1297
v -0.8444 0.0000 0.2176
v -0.8302 0.0407 0.3056
v -0.8244 0.1459 0.3420
v -0.8302 0.2550 0.3056
v -0.8444 0.3017 0.2176
v -0.8585 0.2614 0.1297
v -0.6615 0.3069 0.1105
v -0.3570 0.3798 0.0346
v -0.3425 0.2932 0.0028
v -0.6565 0.2317 0.0624
v -0.6524 0.3271 0.2018
v -0.3689 0.4035 0.1168
v -0.3570 0.3798 0.0346
v -0.6615 0.3069 0.1105
v -0.6345 0.2502 0.2829
v -0.2995 0.3628 0.1969
v -0.3689 0.4035 0.1168
v -0.6524 0.3271 0.2018
v -0.6183 0.1856 0.3063
v -0.3017 0.3033 0.2409
v -0.2995 0.3628 0.1969
v -0.6345 0.2502 0.2829
v -0.6133 0.1090 0.2582
v -0.3159 0.2104 0.2152
v -0.3017 0.3033 0.2409
v -0.6183 0.1856 0.3063
v -0.6224 0.0896 0.1669
v -0.3338 0.1723 0.1348
v -0.3159 0.2104 0.2152
v -0.6133 0.1090 0.2582
v -0.6403 0.1409 0.0858
v -0.3448 0.2043 0.0469
v -0.3338 0.1723 0.1348
v -0.6224 0.0896 0.1669
v -0.6565 0.2317 0.0624
v -0.3425 0.2932 0.0028
v -0.3448 0.2043 0.0469
v -0.6403 0.1409 0.0858
v -0.8644 0.1588 0.0932
v -0.6565 0.2317 0.0624
v -0.6403 0.1409 0.0858
v -0.8585 0.0497 0.1297
v -0.8585 0.0497 0.1297
v -0.6403 0.1409 0.0858
v -0.6224 0.0896 0.1669
v -0.8444 0.0000 0.2176
v -0.8444 0.0000 0.2176
v -0.6224 0.0896 0.1669
v -0.6133 0.1090 0.2582
v -0.8302 0.0407 0.3056
v -0.8302 0.0407 0.3056
v -0.6133 0.1090 0.2582
v -0.6183 0.1856 0.3063
v -0.8244 0.1459 0.3420
v -0.8244 0.1459 0.3420
v -0.6183 0.1856 0.3063
v -0.6345 0.2502 0.2829
v -0.8302 0.2550 0.3056
v -0.8302 0.2550 0.3056
v -0.6345 0.2502 0.2829
v -0.6524 0.3271 0.2018
v -0.8444 0.3017 0.2176
v -0.8444 0.3017 0.2176
v -0.6524 0.3271 0.2018
v -0.6615 0.3069 0.1105
v -0.8585 0.2614 0.1297
v -0.8585 0.2614 0.1297
v -0.6615 0.3069 0.1105
v -0.6565 0.2317 0.0624
v -0.8644 0.1588 0.0932
v -0.6795 0.1737 -0.2870
v -0.7941 0.1587 -0.3520
v -0.7834 0.0570 -0.3940
v -0.6483 0.0947 -0.3182
v -0.6483 0.0947 -0.3182
v -0.7834 0.0570 -0.3940
v -0.7344 0.0152 -0.4803
v -0.5975 0.0685 -0.3909
v -0.5975 0.0685 -0.3909
v -0.7344 0.0152 -0.4803
v -0.6757 0.0571 -0.5604
v -0.5569 0.1097 -0.4625
v -0.5569 0.1097 -0.4625
v -0.6757 0.0571 -0.5604
v -0.6417 0.1589 -0.5873
v -0.5502 0.1949 -0.4911
v -0.5502 0.1949 -0.4911
v -0.6417 0.1589 -0.5873
v -0.6523 0.2599 -0.5452
v -0.5814 0.2730 -0.4599
v -0.5814 0.2730 -0.4599
v -0.6523 0.2599 -0.5452
v -0.7014 0.3011 -0.4589
v -0.6322 0.2991 -0.3872
v -0.7834 0.0570 -0.3940
v -0.7941 0.1587 -0.3520
v -0.7601 0.2599 -0.3789
v -0.7014 0.3011 -0.4589
v -0.6523 0.2599 -0.5452
v -0.6417 0.1589 -0.5873
v -0.6757 0.0571 -0.5604
v -0.7344 0.0152 -0.4803
v -0.6322 0.2991 -0.3872
v -0.7014 0.3011 -0.4589
v -0.7601 0.2599 -0.3789
v -0.6729 0.2585 -0.3156
v -0.6729 0.2585 -0.3156
v -0.7601 0.2599 -0.3789
v -0.7941 0.1587 -0.3520
v -0.6795 0.1737 -0.2870
v -0.2191 0.3361 -0.0099
v -0.1990 0.2470 -0.0409
v -0.1505 0.2101 -0.1157
v -0.1021 0.2470 -0.1904
v -0.0820 0.3361 -0.2214
v -0.1021 0.4252 -0.1904
v -0.1505 0.4621 -0.1157
v -0.1990 0.4252 -0.0409
v -0.3581 0.3764 -0.1586
v -0.6729 0.2585 -0.3156
v -0.6795 0.1737 -0.2870
v -0.3940 0.2920 -0.1263
v -0.3036 0.4023 -0.2325
v -0.6322 0.2991 -0.3872
v -0.6729 0.2585 -0.3156
v -0.3581 0.3764 -0.1586
v -0.2626 0.3547 -0.3047
v -0.5814 0.2730 -0.4599
v -0.6322 0.2991 -0.3872
v -0.3036 0.4023 -0.2325
v -0.2590 0.2614 -0.3329
v -0.5502 0.1949 -0.4911
v -0.5814 0.2730 -0.4599
v -0.2626 0.3547 -0.3047
v -0.2949 0.1769 -0.3006
v -0.5569 0.1097 -0.4625
v -0.5502 0.1949 -0.4911
v -0.2590 0.2614 -0.3329
v -0.3493 0.1509 -0.2268
v -0.5975 0.0685 -0.3909
v -0.5569 0.1097 -0.4625
v -0.2949 0.1769 -0.3006
v -0.3904 0.1986 -0.1546
v -0.6483 0.0947 -0.3182
v -0.5975 0.0685 -0.3909
v -0.3493 0.1509 -0.2268
v -0.3940 0.2920 -0.1263
v -0.6795 0.1737 -0.2870
v -0.6483 0.0947 -0.3182
v -0.3904 0.1986 -0.1546
v -0.2191 0.3361 -0.0099
v -0.3940 0.2920 -0.1263
v -0.3904 0.1986 -0.1546
v -0.1990 0.2470 -0.0409
v -0.1990 0.2470 -0.0409
v -0.3904 0.1986 -0.1546
v -0.3493 0.1509 -0.2268
v -0.1505 0.2101 -0.1157
v -0.1505 0.2101 -0.1157
v -0.3493 0.1509 -0.2268
v -0.2949 0.1769 -0.3006
v -0.1021 0.2470 -0.1904
v -0.1021 0.2470 -0.1904
v -0.2949 0.1769 -0.3006
v -0.2590 0.2614 -0.3329
v -0.0820 0.3361 -0.2214
v -0.0820 0.3361 -0.2214
v -0.2590 0.2614 -0.3329
v -0.2626 0.3547 -0.3047
v -0.1021 0.4252 -0.1904
v -0.1021 0.4252 -0.1904
v -0.2626 0.3547 -0.3047
v -0.3036 0.4023 -0.2325
v -0.1505 0.4621 -0.1157
v -0.1505 0.4621 -0.1157
v -0.3036 0.4023 -0.2325
v -0.3581 0.3764 -0.1586
v -0.1990 0.4252 -0.0409
v -0.1990 0.4252 -0.0409
v -0.3581 0.3764 -0.1586
v -0.3940 0.2920 -0.1263
v -0.2191 0.3361 -0.0099
v 0.0102 0.1957 -0.6860
v 0.0232 0.1677 -0.7941
v 0.0572 0.0878 -0.7849
v 0.0502 0.1133 -0.6701
v 0.0502 0.1133 -0.6701
v 0.0572 0.0878 -0.7849
v 0.1354 0.0516 -0.7794
v 0.1359 0.0869 -0.6501
v 0.1359 0.0869 -0.6501
v 0.1354 0.0516 -0.7794
v 0.2120 0.0793 -0.7808
v 0.2171 0.1283 -0.6379
v 0.2171 0.1283 -0.6379
v 0.2120 0.0793 -0.7808
v 0.2422 0.1539 -0.7883
v 0.2462 0.2138 -0.6405
v 0.2462 0.2138 -0.6405
v 0.2422 0.1539 -0.7883
v 0.2153 0.2705 -0.7663
v 0.2062 0.2667 -0.6565
v 0.2062 0.2667 -0.6565
v 0.2153 0.2705 -0.7663
v 0.1400 0.3054 -0.7590
v 0.1060 0.3271 -0.6288
v 0.0572 0.0878 -0.7849
v 0.0232 0.1677 -0.7941
v 0.0605 0.2796 -0.7704
v 0.1400 0.3054 -0.7590
v 0.2153 0.2705 -0.7663
v 0.2422 0.1539 -0.7883
v 0.2120 0.0793 -0.7808
v 0.1354 0.0516 -0.7794
v 0.1060 0.3271 -0.6288
v 0.1400 0.3054 -0.7590
v 0.0605 0.2796 -0.7704
v 0.0342 0.2917 -0.6646
v 0.0342 0.2917 -0.6646
v 0.0605 0.2796 -0.7704
v 0.0232 0.1677 -0.7941
v 0.0102 0.1957 -0.6860
v -0.0891 0.3368 -0.2295
v -0.0532 0.2328 -0.2223
v 0.0337 0.1896 -0.2048
v 0.1205 0.2328 -0.1872
v 0.1565 0.3368 -0.1800
v 0.1205 0.4409 -0.1872
v 0.0337 0.4840 -0.2048
v -0.0532 0.4409 -0.2223
v 0.0030 0.3837 -0.3804
v 0.0342 0.2917 -0.6646
v 0.0102 0.1957 -0.6860
v -0.0397 0.3035 -0.3999
v 0.0910 0.4086 -0.3579
v 0.1060 0.3271 -0.6288
v 0.0342 0.2917 -0.6646
v 0.0030 0.3837 -0.3804
v 0.1729 0.3360 -0.3455
v 0.2062 0.2667 -0.6565
v 0.1060 0.3271 -0.6288
v 0.0910 0.4086 -0.3579
v 0.2007 0.2695 -0.3505
v 0.2462 0.2138 -0.6405
v 0.2062 0.2667 -0.6565
v 0.1729 0.3360 -0.3455
v 0.1580 0.1862 -0.3699
v 0.2171 0.1283 -0.6379
v 0.2462 0.2138 -0.6405
v 0.2007 0.2695 -0.3505
v 0.0700 0.1602 -0.3924
v 0.1359 0.0869 -0.6501
v 0.2171 0.1283 -0.6379
v 0.1580 0.1862 -0.3699
v -0.0119 0.2075 -0.4048
v 0.0502 0.1133 -0.6701
v 0.1359 0.0869 -0.6501
v 0.0700 0.1602 -0.3924
v -0.0397 0.3035 -0.3999
v 0.0102 0.1957 -0.6860
v 0.0502 0.1133 -0.6701
v -0.0119 0.2075 -0.4048
v -0.0891 0.3368 -0.2295
v -0.0397 0.3035 -0.3999
v -0.0119 0.2075 -0.4048
v -0.0532 0.2328 -0.2223
v -0.0532 0.2328 -0.2223
v -0.0119 0.2075 -0.4048
v 0.0700 0.1602 -0.3924
v 0.0337 0.1896 -0.2048
v 0.0337 0.1896 -0.2048
v 0.0700 0.1602 -0.3924
v 0.1580 0.1862 -0.3699
v 0.1205 0.2328 -0.1872
v 0.1205 0.2328 -0.1872
v 0.1580 0.1862 -0.3699
v 0.2007 0.2695 -0.3505
v 0.1565 0.3368 -0.1800
v 0.1565 0.3368 -0.1800
v 0.2007 0.2695 -0.3505
v 0.1729 0.3360 -0.3455
v 0.1205 0.4409 -0.1872
v 0.1205 0.4409 -0.1872
v 0.1729 0.3360 -0.3455
v 0.0910 0.4086 -0.3579
v 0.0337 0.4840 -0.2048
v 0.0337 0.4840 -0.2048
v 0.0910 0.4086 -0.3579
v 0.0030 0.3837 -0.3804
v -0.0532 0.4409 -0.2223
v -0.0532 0.4409 -0.2223
v 0.0030 0.3837 -0.3804
v -0.0397 0.3035 -0.3999
v -0.0891 0.3368 -0.2295
v 0.5825 0.1900 -0.4162
v 0.6997 0.1751 -0.4763
v 0.7290 0.0711 -0.4444
v 0.5914 0.1080 -0.3730
v 0.5914 0.1080 -0.3730
v 0.7290 0.0711 -0.4444
v 0.7742 0.0266 -0.3560
v 0.6243 0.0798 -0.2907
v 0.6243 0.0798 -0.2907
v 0.7742 0.0266 -0.3560
v 0.8089 0.0686 -0.2630
v 0.6619 0.1211 -0.2174
v 0.6619 0.1211 -0.2174
v 0.8089 0.0686 -0.2630
v 0.8127 0.1704 -0.2198
v 0.6821 0.2062 -0.1962
v 0.6821 0.2062 -0.1962
v 0.8127 0.1704 -0.2198
v 0.7834 0.2712 -0.2517
v 0.6732 0.2840 -0.2394
v 0.6732 0.2840 -0.2394
v 0.7834 0.2712 -0.2517
v 0.7382 0.3138 -0.3401
v 0.6403 0.3119 -0.3217
v 0.7290 0.0711 -0.4444
v 0.6997 0.1751 -0.4763
v 0.7035 0.2751 -0.4332
v 0.7382 0.3138 -0.3401
v 0.7834 0.2712 -0.2517
v 0.8127 0.1704 -0.2198
v 0.8089 0.0686 -0.2630
v 0.7742 0.0266 -0.3560
v 0.6403 0.3119 -0.3217
v 0.7382 0.3138 -0.3401
v 0.7035 0.2751 -0.4332
v 0.6027 0.2745 -0.3950
v 0.6027 0.2745 -0.3950
v 0.7035 0.2751 -0.4332
v 0.6997 0.1751 -0.4763
v 0.5825 0.1900 -0.4162
v 0.1415 0.3353 -0.1923
v 0.1564 0.2462 -0.1586
v 0.1923 0.2093 -0.0770
v 0.2283 0.2462 0.0045
v 0.2431 0.3353 0.0383
v 0.2283 0.4244 0.0045
v 0.1923 0.4613 -0.0770
v 0.1564 0.4244 -0.1586
v 0.3422 0.3760 -0.2269
v 0.6027 0.2745 -0.3950
v 0.5825 0.1900 -0.4162
v 0.3349 0.2967 -0.2747
v 0.3740 0.4014 -0.1409
v 0.6403 0.3119 -0.3217
v 0.6027 0.2745 -0.3950
v 0.3422 0.3760 -0.2269
v 0.4119 0.3539 -0.0669
v 0.6732 0.2840 -0.2394
v 0.6403 0.3119 -0.3217
v 0.3740 0.4014 -0.1409
v 0.4335 0.2605 -0.0484
v 0.6821 0.2062 -0.1962
v 0.6732 0.2840 -0.2394
v 0.4119 0.3539 -0.0669
v 0.4262 0.1760 -0.0962
v 0.6619 0.1211 -0.2174
v 0.6821 0.2062 -0.1962
v 0.4335 0.2605 -0.0484
v 0.3943 0.1501 -0.1822
v 0.6243 0.0798 -0.2907
v 0.6619 0.1211 -0.2174
v 0.4262 0.1760 -0.0962
v 0.3565 0.1983 -0.2562
v 0.5914 0.1080 -0.3730
v 0.6243 0.0798 -0.2907
v 0.3943 0.1501 -0.1822
v 0.3349 0.2967 -0.2747
v 0.5825 0.1900 -0.4162
v 0.5914 0.1080 -0.3730
v 0.3565 0.1983 -0.2562
v 0.1415 0.3353 -0.1923
v 0.3349 0.2967 -0.2747
v 0.3565 0.1983 -0.2562
v 0.1564 0.2462 -0.1586
v 0.1564 0.2462 -0.1586
v 0.3565 0.1983 -0.2562
v 0.3943 0.1501 -0.1822
v 0.1923 0.2093 -0.0770
v 0.1923 0.2093 -0.0770
v 0.3943 0.1501 -0.1822
v 0.4262 0.1760 -0.0962
v 0.2283 0.2462 0.0045
v 0.2283 0.2462 0.0045
v 0.4262 0.1760 -0.0962
v 0.4335 0.2605 -0.0484
v 0.2431 0.3353 0.0383
v 0.2431 0.3353 0.0383
v 0.4335 0.2605 -0.0484
v 0.4119 0.3539 -0.0669
v 0.2283 0.4244 0.0045
v 0.2283 0.4244 0.0045
v 0.4119 0.3539 -0.0669
v 0.3740 0.4014 -0.1409
v 0.1923 0.4613 -0.0770
v 0.1923 0.4613 -0.0770
v 0.3740 0.4014 -0.1409
v 0.3422 0.3760 -0.2269
v 0.1564 0.4244 -0.1586
v 0.1564 0.4244 -0.1586
v 0.3422 0.3760 -0.2269
v 0.3349 0.2967 -0.2747
v 0.1415 0.3353 -0.1923
v 0.1862 0.2942 0.2876
v 0.1007 0.3268 0.1897
v 0.1317 0.2488 0.1722
v 0.2272 0.2042 0.2712
v 0.2272 0.2042 0.2712
v 0.1317 0.2488 0.1722
v 0.1894 0.2166 0.1190
v 0.3024 0.1723 0.2243
v 0.3024 0.1723 0.2243
v 0.1894 0.2166 0.1190
v 0.2399 0.2488 0.0613
v 0.3679 0.2103 0.1744
v 0.3679 0.2103 0.1744
v 0.2399 0.2488 0.0613
v 0.2537 0.3268 0.0329
v 0.3853 0.3047 0.1507
v 0.3853 0.3047 0.1507
v 0.2537 0.3268 0.0329
v 0.2548 0.4359 0.0707
v 0.3443 0.3628 0.1672
v 0.3443 0.3628 0.1672
v 0.2548 0.4359 0.0707
v 0.2102 0.4646 0.1322
v 0.3008 0.4034 0.2638
v 0.1317 0.2488 0.1722
v 0.1007 0.3268 0.1897
v 0.1466 0.4359 0.1816
v 0.2102 0.4646 0.1322
v 0.2548 0.4359 0.0707
v 0.2537 0.3268 0.0329
v 0.2399 0.2488 0.0613
v 0.1894 0.2166 0.1190
v 0.3008 0.4034 0.2638
v 0.2102 0.4646 0.1322
v 0.1466 0.4359 0.1816
v 0.2211 0.3797 0.2874
v 0.2211 0.3797 0.2874
v 0.1466 0.4359 0.1816
v 0.1007 0.3268 0.1897
v 0.1862 0.2942 0.2876
v 0.4873 0.1615 0.7234
v 0.5179 0.0515 0.7028
v 0.5918 0.0011 0.6531
v 0.6657 0.0407 0.6033
v 0.6963 0.1458 0.5827
v 0.6657 0.2549 0.6033
v 0.5918 0.3024 0.6531
v 0.5179 0.2640 0.7028
v 0.4178 0.3080 0.5321
v 0.2211 0.3797 0.2874
v 0.1862 0.2942 0.2876
v 0.3721 0.2343 0.5476
v 0.4969 0.3270 0.4855
v 0.3008 0.4034 0.2638
v 0.2211 0.3797 0.2874
v 0.4178 0.3080 0.5321
v 0.5630 0.2506 0.4352
v 0.3443 0.3628 0.1672
v 0.3008 0.4034 0.2638
v 0.4969 0.3270 0.4855
v 0.5774 0.1869 0.4107
v 0.3853 0.3047 0.1507
v 0.3443 0.3628 0.1672
v 0.5630 0.2506 0.4352
v 0.5317 0.1090 0.4263
v 0.3679 0.2103 0.1744
v 0.3853 0.3047 0.1507
v 0.5774 0.1869 0.4107
v 0.4526 0.0895 0.4728
v 0.3024 0.1723 0.2243
v 0.3679 0.2103 0.1744
v 0.5317 0.1090 0.4263
v 0.3865 0.1425 0.5231
v 0.2272 0.2042 0.2712
v 0.3024 0.1723 0.2243
v 0.4526 0.0895 0.4728
v 0.3721 0.2343 0.5476
v 0.1862 0.2942 0.2876
v 0.2272 0.2042 0.2712
v 0.3865 0.1425 0.5231
v 0.4873 0.1615 0.7234
v 0.3721 0.2343 0.5476
v 0.3865 0.1425 0.5231
v 0.5179 0.0515 0.7028
v 0.5179 0.0515 0.7028
v 0.3865 0.1425 0.5231
v 0.4526 0.0895 0.4728
v 0.5918 0.0011 0.6531
v 0.5918 0.0011 0.6531
v 0.4526 0.0895 0.4728
v 0.5317 0.1090 0.4263
v 0.6657 0.0407 0.6033
v 0.6657 0.0407 0.6033
v 0.5317 0.1090 0.4263
v 0.5774 0.1869 0.4107
v 0.6963 0.1458 0.5827
v 0.6963 0.1458 0.5827
v 0.5774 0.1869 0.4107
v 0.5630 0.2506 0.4352
v 0.6657 0.2549 0.6033
v 0.6657 0.2549 0.6033
v 0.5630 0.2506 0.4352
v 0.4969 0.3270 0.4855
v 0.5918 0.3024 0.6531
v 0.5918 0.3024 0.6531
v 0.4969 0.3270 0.4855
v 0.4178 0.3080 0.5321
v 0.5179 0.2640 0.7028
v 0.5179 0.2640 0.7028
v 0.4178 0.3080 0.5321
v 0.3721 0.2343 0.5476
v 0.4873 0.1615 0.7234
v 0.3490 0.7542 0.2029
v 0.3998 0.9153 -0.0654
v 0.3368 1.1804 -0.0197
v 0.3129 1.1033 0.1225
v 0.3490 0.7542 0.2029
v 0.3129 1.1033 0.1225
v 0.2106 1.1307 0.1712
v 0.1548 0.7901 0.3159
v 0.2047 0.9164 -0.0995
v 0.2299 1.1903 -0.0298
v 0.3368 1.1804 -0.0197
v 0.3998 0.9153 -0.0654
v 0.2047 0.9164 -0.0995
v 0.3998 0.9153 -0.0654
v 0.2047 0.9164 -0.3183
v 0.1071 1.4257 -0.1976
v -0.0441 0.9176 -0.3609
v 0.1071 1.4257 -0.1976
v 0.2047 0.9164 -0.3183
v -0.0544 0.9164 0.3403
v -0.1111 1.3068 0.2184
v -0.2723 1.2606 0.1095
v -0.3275 1.0086 0.1349
v -0.3275 1.0086 0.1349
v -0.2723 1.2606 0.1095
v -0.2340 1.3090 -0.0845
v -0.2774 0.9164 -0.2093
v 0.1071 1.4257 -0.1976
v -0.0441 0.9176 -0.3609
v 0.1227 1.0745 0.0449
v 0.1071 1.4257 -0.1976
v 0.1227 1.0745 0.0449
v 0.2047 0.9164 -0.0995
v -0.0996 1.6761 0.0677
v -0.1111 1.3068 0.2184
v -0.0468 1.3251 0.0544
v 0.1548 0.7901 0.3159
v 0.0997 1.1184 0.2365
v -0.0544 0.9164 0.3403
v 0.1227 1.0745 0.0449
v -0.0544 0.9164 0.3403
v 0.0997 1.1184 0.2365
v 0.1227 1.0745 0.0449
v 0.0997 1.1184 0.2365
v 0.2047 0.9164 -0.0995
v 0.2025 1.3319 0.0414
v 0.2299 1.1903 -0.0298
v 0.2106 1.1307 0.1712
v 0.1548 0.7901 0.3159
v 0.2047 0.9164 -0.0995
v 0.0997 1.1184 0.2365
v -0.0996 1.6761 0.0677
v -0.0468 1.3251 0.0544
v -0.2340 1.3090 -0.0845
v -0.1125 1.5300 -0.1925
v -0.2340 1.3090 -0.0845
v 0.1227 1.0745 0.0449
v -0.2774 0.9164 -0.2093
v -0.1125 1.5300 -0.1925
v -0.0441 0.9176 -0.3609
v 0.1227 1.0745 0.0449
v -0.0441 0.9176 -0.3609
v -0.1125 1.5300 -0.1925
v -0.2723 1.2606 0.1095
v -0.1111 1.3068 0.2184
v -0.0996 1.6761 0.0677
v -0.0468 1.3251 0.0544
v -0.1111 1.3068 0.2184
v -0.0544 0.9164 0.3403
v 0.1227 1.0745 0.0449
v -0.2340 1.3090 -0.0845
v -0.2723 1.2606 0.1095
v -0.0996 1.6761 0.0677
v -0.1125 1.5300 -0.1925
v -0.2774 0.9164 -0.2093
v -0.2340 1.3090 -0.0845
v 0.3129 1.1033 0.1225
v 0.3368 1.1804 -0.0197
v 0.2025 1.3319 0.0414
v 0.2106 1.1307 0.1712
v 0.3129 1.1033 0.1225
v 0.2025 1.3319 0.0414
v 0.3368 1.1804 -0.0197
v 0.2299 1.1903 -0.0298
v 0.2025 1.3319 0.0414
v 0.2106 1.1307 0.1712
v 0.2299 1.1903 -0.0298
v 0.2047 0.9164 -0.0995
v 0.1548 0.7901 0.3159
v 0.1334 1.6766 -0.0885
v 0.1740 1.5302 -0.0675
v 0.1403 1.5827 0.0215
v 0.1867 1.7508 -0.0264
v 0.2519 1.6090 -0.0423
v 0.1334 1.6766 -0.0885
v 0.1403 1.5827 0.0215
v 0.1867 1.7508 -0.0264
v 0.1334 1.6766 -0.0885
v 0.2519 1.6090 -0.0423
v 0.1740 1.5302 -0.0675
v 0.1334 1.6766 -0.0885
v 0.1867 1.7508 -0.0264
v 0.1403 1.5827 0.0215
v 0.1740 1.5302 -0.0675
v 0.2519 1.6090 -0.0423
v 0.0041 1.8988 0.0293
v -0.0434 1.9119 -0.0394
v -0.0292 1.9961 0.0487
v -0.0214 1.8825 0.0705
v -0.0714 1.9133 0.0502
v -0.0399 1.8374 -0.0092
v -0.0434 1.9119 -0.0394
v -0.0399 1.8374 -0.0092
v -0.0714 1.9133 0.0502
v -0.0434 1.9119 -0.0394
v 0.0041 1.8988 0.0293
v -0.0399 1.8374 -0.0092
v -0.0214 1.8825 0.0705
v -0.0399 1.8374 -0.0092
v 0.0041 1.8988 0.0293
v -0.0468 1.3251 0.0544
v 0.1227 1.0745 0.0449
v -0.2340 1.3090 -0.0845
v -0.0434 1.9119 -0.0394
v -0.0714 1.9133 0.0502
v -0.0292 1.9961 0.0487
v -0.0714 1.9133 0.0502
v -0.0214 1.8825 0.0705
v -0.0292 1.9961 0.0487
v -0.0214 1.8825 0.0705
v 0.0041 1.8988 0.0293
v -0.0292 1.9961 0.0487
v 0.2478 2.2684 -0.0184
v 0.1965 2.2331 -0.0741
v 0.1853 2.3485 -0.0382
v 0.2312 2.2680 0.0294
v 0.1737 2.2699 0.0080
v 0.2258 2.1876 -0.0158
v 0.1965 2.2331 -0.0741
v 0.2258 2.1876 -0.0158
v 0.1737 2.2699 0.0080
v 0.1965 2.2331 -0.0741
v 0.2478 2.2684 -0.0184
v 0.2258 2.1876 -0.0158
v 0.2312 2.2680 0.0294
v 0.2258 2.1876 -0.0158
v 0.2478 2.2684 -0.0184
v 0.1965 2.2331 -0.0741
v 0.1737 2.2699 0.0080
v 0.1853 2.3485 -0.0382
v 0.1737 2.2699 0.0080
v 0.2312 2.2680 0.0294
v 0.1853 2.3485 -0.0382
v 0.2312 2.2680 0.0294
v 0.2478 2.2684 -0.0184
v 0.1853 2.3485 -0.0382
v -0.0510 2.5906 0.0663
v -0.0769 2.5851 0.0077
v -0.0666 2.6672 0.0510
v -0.0765 2.5917 0.0957
v -0.1077 2.6117 0.0664
v -0.0864 2.5399 0.0479
v -0.0769 2.5851 0.0077
v -0.0864 2.5399 0.0479
v -0.1077 2.6117 0.0664
v -0.0769 2.5851 0.0077
v -0.0510 2.5906 0.0663
v -0.0864 2.5399 0.0479
v -0.0765 2.5917 0.0957
v -0.0864 2.5399 0.0479
v -0.0510 2.5906 0.0663
v -0.0769 2.5851 0.0077
v -0.1077 2.6117 0.0664
v -0.0666 2.6672 0.0510
v -0.1077 2.6117 0.0664
v -0.0765 2.5917 0.0957
v -0.0666 2.6672 0.0510
v -0.0765 2.5917 0.0957
v -0.0510 2.5906 0.0663
v -0.0666 2.6672 0.0510
v -0.2259 0.4546 -0.2430
v -0.0331 0.4511 -0.2790
v -0.0850 0.5829 -0.3972
v -0.2599 0.5777 -0.3296
v -0.2259 0.4546 -0.2430
v -0.0902 0.3789 -0.1724
v -0.0331 0.4511 -0.2790
v -0.0331 0.4511 -0.2790
v -0.0902 0.3789 -0.1724
v -0.1507 0.3545 -0.3694
v -0.0902 0.3789 -0.1724
v -0.2259 0.4546 -0.2430
v -0.1507 0.3545 -0.3694
v -0.2599 0.5777 -0.3296
v -0.0850 0.5829 -0.3972
v -0.1831 0.7826 -0.4340
v -0.0331 0.4511 -0.2790
v -0.1507 0.3545 -0.3694
v -0.2066 0.4838 -0.4612
v -0.0850 0.5829 -0.3972
v -0.1507 0.3545 -0.3694
v -0.2259 0.4546 -0.2430
v -0.2599 0.5777 -0.3296
v -0.2066 0.4838 -0.4612
v -0.0850 0.5829 -0.3972
v -0.2066 0.4838 -0.4612
v -0.1831 0.7826 -0.4340
v -0.2066 0.4838 -0.4612
v -0.2599 0.5777 -0.3296
v -0.1831 0.7826 -0.4340
v -0.1091 0.4395 0.2395
v -0.2268 0.4371 0.1229
v -0.2989 0.5219 0.2320
v -0.1673 0.5236 0.3203
v -0.1091 0.4395 0.2395
v -0.1173 0.3952 0.1025
v -0.2268 0.4371 0.1229
v -0.2268 0.4371 0.1229
v -0.1173 0.3952 0.1025
v -0.2184 0.3365 0.2333
v -0.1173 0.3952 0.1025
v -0.1091 0.4395 0.2395
v -0.2184 0.3365 0.2333
v -0.1673 0.5236 0.3203
v -0.2989 0.5219 0.2320
v -0.3022 0.6759 0.3440
v -0.2268 0.4371 0.1229
v -0.2184 0.3365 0.2333
v -0.2703 0.4240 0.3323
v -0.2989 0.5219 0.2320
v -0.2184 0.3365 0.2333
v -0.1091 0.4395 0.2395
v -0.1673 0.5236 0.3203
v -0.2703 0.4240 0.3323
v -0.2989 0.5219 0.2320
v -0.2703 0.4240 0.3323
v -0.3022 0.6759 0.3440
v -0.2703 0.4240 0.3323
v -0.1673 0.5236 0.3203
v -0.3022 0.6759 0.3440
v 0.2538 0.4761 0.1498
v -0.0282 0.4574 0.1978
v 0.0277 0.6819 0.3363
v 0.2860 0.6781 0.2446
v 0.2538 0.4761 0.1498
v 0.0676 0.3340 0.0637
v -0.0282 0.4574 0.1978
v -0.0282 0.4574 0.1978
v 0.0676 0.3340 0.0637
v 0.1499 0.3548 0.3550
v 0.0676 0.3340 0.0637
v 0.2538 0.4761 0.1498
v 0.1499 0.3548 0.3550
v 0.2860 0.6781 0.2446
v 0.0277 0.6819 0.3363
v 0.1468 0.9891 0.3418
v -0.0282 0.4574 0.1978
v 0.1499 0.3548 0.3550
v 0.2129 0.5696 0.4561
v 0.0277 0.6819 0.3363
v 0.1499 0.3548 0.3550
v 0.2538 0.4761 0.1498
v 0.2860 0.6781 0.2446
v 0.2129 0.5696 0.4561
v 0.0277 0.6819 0.3363
v 0.2129 0.5696 0.4561
v 0.1468 0.9891 0.3418
v 0.2129 0.5696 0.4561
v 0.2860 0.6781 0.2446
v 0.1468 0.9891 0.3418
v 0.2915 0.4341 -0.0636
v 0.1838 0.4238 0.1174
v 0.2977 0.5819 0.1545
v 0.3686 0.5780 -0.0343
v 0.2915 0.4341 -0.0636
v 0.1488 0.3369 -0.0016
v 0.1838 0.4238 0.1174
v 0.1838 0.4238 0.1174
v 0.1488 0.3369 -0.0016
v 0.3520 0.3387 0.0907
v 0.1488 0.3369 -0.0016
v 0.2915 0.4341 -0.0636
v 0.3520 0.3387 0.0907
v 0.3686 0.5780 -0.0343
v 0.2977 0.5819 0.1545
v 0.3705 0.8050 0.0938
v 0.1838 0.4238 0.1174
v 0.3520 0.3387 0.0907
v 0.4479 0.4911 0.1059
v 0.2977 0.5819 0.1545
v 0.3520 0.3387 0.0907
v 0.2915 0.4341 -0.0636
v 0.3686 0.5780 -0.0343
v 0.4479 0.4911 0.1059
v 0.2977 0.5819 0.1545
v 0.4479 0.4911 0.1059
v 0.3705 0.8050 0.0938
v 0.4479 0.4911 0.1059
v 0.3686 0.5780 -0.0343
v 0.3705 0.8050 0.0938
vt 0.7178 0.3745
vt 0.6720 0.3745
vt 0.6738 0.3080
vt 0.5535 0.1282
vt 0.5094 0.0618
vt 0.5535 0.0187
vt 0.3049 0.5735
vt 0.3625 0.4985
vt 0.3698 0.5735
vt 0.0191 0.5921
vt 0.0446 0.5029
vt 0.0716 0.5921
vt 0.2949 0.0846
vt 0.3576 0.0187
vt 0.3576 0.1320
vt 0.2522 0.5284
vt 0.2069 0.4376
vt 0.2522 0.4042
vt 0.1943 0.1825
vt 0.1943 0.2703
vt 0.1399 0.3016
vt 0.1280 0.2321
vt 0.1761 0.6754
vt 0.1280 0.6550
vt 0.1761 0.6038
vt 0.7500 0.2319
vt 0.7500 0.2968
vt 0.7200 0.2644
vt 0.6832 0.1251
vt 0.6522 0.0414
vt 0.6832 0.0187
vt 0.3676 0.1051
vt 0.3831 0.0187
vt 0.4384 0.1051
vt 0.0899 0.4067
vt 0.0191 0.4067
vt 0.0690 0.3198
vt 0.5710 0.4073
vt 0.5230 0.3584
vt 0.5710 0.3080
vt 0.4610 0.3784
vt 0.5131 0.3080
vt 0.5131 0.4175
vt 0.4443 0.5161
vt 0.4443 0.5854
vt 0.3821 0.5503
vt 0.1936 0.4061
vt 0.1280 0.3778
vt 0.1936 0.3115
vt 0.5322 0.4274
vt 0.5322 0.5056
vt 0.4610 0.4491
vt 0.4995 0.0187
vt 0.4995 0.1320
vt 0.4483 0.1035
vt 0.0191 0.3099
vt 0.0338 0.1866
vt 0.0948 0.3099
vt 0.3522 0.2981
vt 0.3049 0.2443
vt 0.3522 0.1605
vt 0.4784 0.1605
vt 0.4784 0.2569
vt 0.4164 0.2471
vt 0.0815 0.5964
vt 0.1172 0.5029
vt 0.1172 0.6103
vt 0.4610 0.5591
vt 0.5153 0.5155
vt 0.5153 0.6001
vt 0.6196 0.3080
vt 0.6196 0.4154
vt 0.5809 0.3877
vt 0.4511 0.5062
vt 0.3821 0.5062
vt 0.4204 0.4274
vt 0.5800 0.9435
vt 0.5760 0.9180
vt 0.6014 0.9251
vt 0.6014 0.9546
vt 0.9147 0.4113
vt 0.9121 0.3711
vt 0.9366 0.3733
vt 0.9366 0.4146
vt 0.2966 0.8914
vt 0.2966 0.9327
vt 0.2720 0.9350
vt 0.2762 0.8966
vt 0.4379 0.1150
vt 0.4379 0.1463
vt 0.4118 0.1499
vt 0.4150 0.1209
vt 0.7161 0.4163
vt 0.7113 0.3876
vt 0.7331 0.3914
vt 0.7331 0.4174
vt 0.4191 0.2966
vt 0.4164 0.2668
vt 0.4418 0.2683
vt 0.4418 0.2969
vt 0.6655 0.4746
vt 0.6655 0.4484
vt 0.6794 0.4288
vt 0.6989 0.4274
vt 0.7128 0.4450
vt 0.7128 0.4712
vt 0.6989 0.4907
vt 0.6794 0.4921
vt 0.9499 0.5130
vt 0.9456 0.4847
vt 0.9692 0.4892
vt 0.9692 0.5202
vt 0.9660 0.4441
vt 0.9660 0.4694
vt 0.9452 0.4539
vt 0.9484 0.4274
vt 0.2235 0.7103
vt 0.2235 0.7349
vt 0.2126 0.7531
vt 0.1970 0.7538
vt 0.1860 0.7368
vt 0.1860 0.7123
vt 0.1970 0.6943
vt 0.2125 0.6935
vt 0.2573 0.7925
vt 0.2573 0.8511
vt 0.2345 0.8428
vt 0.2359 0.7860
vt 0.5322 0.7121
vt 0.5322 0.7909
vt 0.5123 0.7855
vt 0.5099 0.7115
vt 0.7779 0.1323
vt 0.7779 0.2114
vt 0.7556 0.2162
vt 0.7567 0.1374
vt 0.8497 0.4894
vt 0.8520 0.4406
vt 0.8722 0.4274
vt 0.8722 0.4828
vt 0.7007 0.8131
vt 0.7007 0.8658
vt 0.6790 0.8749
vt 0.6789 0.8212
vt 0.1860 0.8357
vt 0.1887 0.7704
vt 0.2086 0.7637
vt 0.2086 0.8330
vt 0.8371 0.2798
vt 0.8357 0.2144
vt 0.8579 0.2151
vt 0.8579 0.2804
vt 0.8754 0.8293
vt 0.8777 0.7725
vt 0.8970 0.7700
vt 0.8970 0.8254
vt 0.4974 0.9520
vt 0.4970 0.9087
vt 0.5190 0.9080
vt 0.5190 0.9520
vt 0.8745 0.1288
vt 0.8745 0.1872
vt 0.8540 0.1833
vt 0.8525 0.1245
vt 0.8921 0.3080
vt 0.8921 0.3668
vt 0.8694 0.3663
vt 0.8698 0.3101
vt 0.7345 0.9427
vt 0.7359 0.9036
vt 0.7590 0.9006
vt 0.7590 0.9391
vt 0.2345 0.9599
vt 0.2349 0.9240
vt 0.2583 0.9219
vt 0.2583 0.9537
vt 0.9070 0.8202
vt 0.9083 0.7723
vt 0.9299 0.7700
vt 0.9299 0.8179
vt 0.2032 0.5879
vt 0.2022 0.5400
vt 0.2242 0.5432
vt 0.2242 0.5939
vt 0.9019 0.7320
vt 0.9035 0.6901
vt 0.9235 0.7003
vt 0.9235 0.7436
vt 0.1595 0.9500
vt 0.1609 0.9177
vt 0.1755 0.9280
vt 0.1755 0.9633
vt 0.9557 0.6969
vt 0.9557 0.7326
vt 0.9350 0.7299
vt 0.9334 0.6901
vt 0.9591 0.2565
vt 0.9595 0.2166
vt 0.9757 0.2144
vt 0.9757 0.2578
vt 0.6789 0.9328
vt 0.6823 0.8895
vt 0.7026 0.8848
vt 0.7026 0.9289
vt 0.9686 0.9093
vt 0.9686 0.9531
vt 0.9512 0.9534
vt 0.9540 0.9172
vt 0.8702 0.8943
vt 0.8702 0.9305
vt 0.8501 0.9310
vt 0.8424 0.8899
vt 0.2493 0.7109
vt 0.2359 0.6970
vt 0.2345 0.6677
vt 0.2499 0.6534
vt 0.2700 0.6538
vt 0.2860 0.6773
vt 0.2848 0.6970
vt 0.2696 0.7109
vt 0.6680 0.8043
vt 0.6680 0.8460
vt 0.6531 0.8450
vt 0.6541 0.8108
vt 0.6782 0.4174
vt 0.6720 0.3844
vt 0.7013 0.3850
vt 0.7013 0.4173
vt 0.6704 0.5858
vt 0.6539 0.6058
vt 0.6307 0.6075
vt 0.6146 0.5895
vt 0.6148 0.5627
vt 0.6313 0.5427
vt 0.6542 0.5417
vt 0.6704 0.5596
vt 0.7973 0.6901
vt 0.7973 0.7667
vt 0.7741 0.7670
vt 0.7757 0.6913
vt 0.0998 0.4020
vt 0.1037 0.3264
vt 0.1176 0.3198
vt 0.1176 0.3996
vt 0.7457 0.1323
vt 0.7457 0.2220
vt 0.7188 0.2139
vt 0.7194 0.1382
vt 0.2819 0.8121
vt 0.2797 0.7278
vt 0.2948 0.7208
vt 0.2948 0.8106
vt 0.7440 0.1059
vt 0.7445 0.0290
vt 0.7663 0.0187
vt 0.7663 0.1030
vt 0.8227 0.2010
vt 0.8261 0.1268
vt 0.8426 0.1245
vt 0.8426 0.2022
vt 0.7955 0.5424
vt 0.7955 0.6178
vt 0.7722 0.6160
vt 0.7720 0.5417
vt 0.8054 0.6173
vt 0.8083 0.5417
vt 0.8249 0.5543
vt 0.8249 0.6239
vt 0.3049 0.8639
vt 0.3067 0.8120
vt 0.3249 0.8215
vt 0.3249 0.8788
vt 0.0958 0.7720
vt 0.0958 0.8305
vt 0.0725 0.8270
vt 0.0713 0.7673
vt 0.7755 0.9169
vt 0.7741 0.8572
vt 0.7939 0.8597
vt 0.7934 0.9169
vt 0.6030 0.7858
vt 0.5985 0.8425
vt 0.5761 0.8425
vt 0.5760 0.7913
vt 0.9345 0.1245
vt 0.9345 0.1772
vt 0.9214 0.1771
vt 0.9144 0.1294
vt 0.1880 0.8938
vt 0.1860 0.8456
vt 0.2130 0.8458
vt 0.2130 0.8940
vt 0.9513 0.3101
vt 0.9539 0.3581
vt 0.9360 0.3581
vt 0.9360 0.3080
vt 0.8881 0.6282
vt 0.8876 0.6740
vt 0.8660 0.6740
vt 0.8618 0.6223
vt 0.6680 0.9288
vt 0.6680 0.9556
vt 0.6412 0.9608
vt 0.6457 0.9298
vt 0.9478 0.4089
vt 0.9465 0.3711
vt 0.9658 0.3735
vt 0.9658 0.4130
vt 0.4533 0.9395
vt 0.4513 0.9000
vt 0.4778 0.9030
vt 0.4760 0.9395
vt 0.7000 0.9427
vt 0.7000 0.9791
vt 0.6789 0.9758
vt 0.6803 0.9435
vt 0.9121 0.1100
vt 0.9078 0.0779
vt 0.9334 0.0874
vt 0.9334 0.1144
vt 0.7434 0.4128
vt 0.7430 0.3876
vt 0.7606 0.3891
vt 0.7606 0.4129
vt 0.5960 0.4758
vt 0.5960 0.4485
vt 0.6135 0.4284
vt 0.6381 0.4274
vt 0.6556 0.4457
vt 0.6556 0.4729
vt 0.6381 0.4931
vt 0.6134 0.4942
vt 0.5395 0.2727
vt 0.5630 0.2687
vt 0.5633 0.2953
vt 0.5371 0.2953
vt 0.7387 0.9805
vt 0.7345 0.9547
vt 0.7547 0.9527
vt 0.7547 0.9843
vt 0.6803 0.5860
vt 0.6803 0.5626
vt 0.6944 0.5442
vt 0.7145 0.5417
vt 0.7287 0.5564
vt 0.7287 0.5798
vt 0.7145 0.5982
vt 0.6944 0.6008
vt 0.8258 0.2144
vt 0.8258 0.2981
vt 0.8094 0.2968
vt 0.8069 0.2199
vt 0.5322 0.6100
vt 0.5322 0.6970
vt 0.5099 0.7016
vt 0.5103 0.6180
vt 0.5422 0.8520
vt 0.5448 0.7956
vt 0.5646 0.7858
vt 0.5646 0.8474
vt 0.3049 0.7947
vt 0.3065 0.7257
vt 0.3277 0.7304
vt 0.3277 0.8021
vt 0.1280 0.8424
vt 0.1315 0.7675
vt 0.1457 0.7655
vt 0.1457 0.8467
vt 0.7995 0.0223
vt 0.7995 0.0943
vt 0.7768 0.0937
vt 0.7762 0.0187
vt 0.8655 0.7700
vt 0.8655 0.8307
vt 0.8437 0.8271
vt 0.8424 0.7719
vt 0.8311 0.0187
vt 0.8311 0.0856
vt 0.8100 0.0928
vt 0.8094 0.0282
vt 0.6146 0.9166
vt 0.6151 0.8721
vt 0.6380 0.8660
vt 0.6380 0.9117
vt 0.0194 0.9410
vt 0.0191 0.9009
vt 0.0423 0.9016
vt 0.0423 0.9449
vt 0.3613 0.8158
vt 0.3613 0.8714
vt 0.3383 0.8663
vt 0.3377 0.8122
vt 0.3086 0.9428
vt 0.3072 0.8887
vt 0.3249 0.8930
vt 0.3249 0.9435
vt 0.8869 0.8871
vt 0.8873 0.8407
vt 0.9086 0.8518
vt 0.9086 0.8970
vt 0.4743 0.9494
vt 0.4743 0.9810
vt 0.4514 0.9795
vt 0.4513 0.9511
vt 0.9115 0.4748
vt 0.9122 0.4309
vt 0.9353 0.4274
vt 0.9353 0.4732
vt 0.9330 0.6701
vt 0.9317 0.6244
vt 0.9512 0.6223
vt 0.9512 0.6716
vt 0.5732 0.2973
vt 0.5748 0.2718
vt 0.5962 0.2687
vt 0.5962 0.2959
vt 0.8703 0.5063
vt 0.8703 0.5308
vt 0.8519 0.5264
vt 0.8497 0.4993
vt 0.6655 0.5292
vt 0.6669 0.5021
vt 0.6866 0.5020
vt 0.6866 0.5314
vt 0.1031 0.4473
vt 0.1050 0.4119
vt 0.1176 0.4214
vt 0.1176 0.4591
vt 0.4032 0.9148
vt 0.4032 0.9525
vt 0.3779 0.9361
vt 0.3865 0.9147
vt 0.6196 0.5045
vt 0.6196 0.5289
vt 0.6015 0.5304
vt 0.5960 0.5041
vt 0.3823 0.7199
vt 0.3821 0.7011
vt 0.3947 0.6744
vt 0.4114 0.6699
vt 0.4252 0.6809
vt 0.4252 0.7106
vt 0.4129 0.7263
vt 0.3951 0.7303
vt 0.8754 0.1119
vt 0.8749 0.0851
vt 0.8944 0.0904
vt 0.8944 0.1128
vt 0.8366 0.3820
vt 0.8576 0.3857
vt 0.8576 0.4153
vt 0.8384 0.4069
vt 0.6932 0.0377
vt 0.7052 0.0187
vt 0.7221 0.0188
vt 0.7341 0.0379
vt 0.7341 0.0649
vt 0.7221 0.0839
vt 0.7052 0.0838
vt 0.6932 0.0647
vt 0.7744 0.8473
vt 0.7741 0.7902
vt 0.7953 0.7769
vt 0.7953 0.8393
vt 0.8982 0.2664
vt 0.9018 0.2168
vt 0.9206 0.2144
vt 0.9206 0.2660
vt 0.8128 0.1323
vt 0.8128 0.2022
vt 0.7909 0.1987
vt 0.7878 0.1346
vt 0.8900 0.6063
vt 0.8904 0.5432
vt 0.9070 0.5417
vt 0.9070 0.6116
vt 0.8407 0.7465
vt 0.8424 0.6901
vt 0.8629 0.6974
vt 0.8629 0.7548
vt 0.2720 0.8814
vt 0.2740 0.8265
vt 0.2948 0.8220
vt 0.2948 0.8804
vt 0.8883 0.2144
vt 0.8883 0.2788
vt 0.8706 0.2746
vt 0.8678 0.2147
vt 0.3600 0.7257
vt 0.3600 0.7967
vt 0.3377 0.8023
vt 0.3386 0.7379
vt 0.5379 0.9075
vt 0.5412 0.8701
vt 0.5646 0.8619
vt 0.5646 0.9018
vt 0.9084 0.9107
vt 0.9084 0.9517
vt 0.8884 0.9485
vt 0.8869 0.9069
vt 0.9413 0.9093
vt 0.9413 0.9510
vt 0.9185 0.9515
vt 0.9188 0.9124
vt 0.1280 0.8955
vt 0.1306 0.8566
vt 0.1520 0.8667
vt 0.1520 0.9078
vt 0.5760 0.8915
vt 0.5846 0.8524
vt 0.5977 0.8644
vt 0.5977 0.9081
vt 0.9151 0.5283
vt 0.9115 0.4847
vt 0.9357 0.4914
vt 0.9357 0.5289
vt 0.9612 0.0233
vt 0.9612 0.0638
vt 0.9448 0.0571
vt 0.9411 0.0187
vt 0.0713 0.9322
vt 0.0761 0.8939
vt 0.0983 0.8912
vt 0.0983 0.9279
vt 0.9472 0.1139
vt 0.9433 0.0816
vt 0.9654 0.0755
vt 0.9654 0.1144
vt 0.7611 0.6448
vt 0.7611 0.6796
vt 0.7344 0.6802
vt 0.7380 0.6439
vt 0.9627 0.8460
vt 0.9627 0.8875
vt 0.9453 0.8788
vt 0.9461 0.8407
vt 0.1900 0.9418
vt 0.1860 0.9039
vt 0.2123 0.9117
vt 0.2123 0.9429
vt 0.9661 0.7216
vt 0.9656 0.6901
vt 0.9846 0.6951
vt 0.9846 0.7221
vt 0.8679 0.9637
vt 0.8424 0.9725
vt 0.8439 0.9458
vt 0.8679 0.9409
vt 0.1923 0.5471
vt 0.1921 0.5746
vt 0.1734 0.5939
vt 0.1470 0.5939
vt 0.1281 0.5752
vt 0.1280 0.5484
vt 0.1469 0.5288
vt 0.1736 0.5280
vt 0.9629 0.2918
vt 0.9591 0.2677
vt 0.9773 0.2721
vt 0.9773 0.2980
vt 0.3405 0.9659
vt 0.3377 0.9400
vt 0.3636 0.9334
vt 0.3625 0.9659
vt 0.6531 0.6756
vt 0.6306 0.6747
vt 0.6146 0.6573
vt 0.6146 0.6335
vt 0.6306 0.6174
vt 0.6531 0.6183
vt 0.6690 0.6358
vt 0.6690 0.6595
vt 0.7638 0.5140
vt 0.7612 0.4336
vt 0.7824 0.4274
vt 0.7824 0.5020
vt 0.8800 0.5432
vt 0.8800 0.6123
vt 0.8650 0.6077
vt 0.8618 0.5417
vt 0.8072 0.7601
vt 0.8080 0.6915
vt 0.8308 0.6901
vt 0.8308 0.7593
vt 0.1556 0.8385
vt 0.1592 0.7658
vt 0.1734 0.7655
vt 0.1734 0.8449
vt 0.8042 0.3745
vt 0.8046 0.3080
vt 0.8267 0.3102
vt 0.8267 0.3829
vt 0.8844 0.1863
vt 0.8877 0.1293
vt 0.9045 0.1245
vt 0.9045 0.1847
vt 0.0422 0.8329
vt 0.0422 0.8906
vt 0.0191 0.8910
vt 0.0191 0.8340
vt 0.8398 0.4274
vt 0.8398 0.5020
vt 0.8216 0.5039
vt 0.8192 0.4365
vt 0.4032 0.8483
vt 0.4032 0.8998
vt 0.3813 0.9048
vt 0.3835 0.8494
vt 0.2583 0.8614
vt 0.2577 0.9120
vt 0.2346 0.9120
vt 0.2345 0.8610
vt 0.6680 0.8660
vt 0.6680 0.9170
vt 0.6479 0.9189
vt 0.6493 0.8698
vt 0.8594 0.3152
vt 0.8594 0.3721
vt 0.8378 0.3617
vt 0.8366 0.3080
vt 0.9342 0.5454
vt 0.9342 0.5992
vt 0.9169 0.5917
vt 0.9178 0.5417
vt 0.9312 0.0238
vt 0.9312 0.0680
vt 0.9082 0.0626
vt 0.9078 0.0187
vt 0.9570 0.7779
vt 0.9570 0.8218
vt 0.9399 0.8154
vt 0.9420 0.7700
vt 0.8749 0.0752
vt 0.8774 0.0268
vt 0.8979 0.0187
vt 0.8979 0.0702
vt 0.8304 0.9202
vt 0.8304 0.9530
vt 0.8101 0.9467
vt 0.8072 0.9116
vt 0.6313 0.9338
vt 0.6313 0.9694
vt 0.6153 0.9683
vt 0.6129 0.9288
vt 0.4131 0.9500
vt 0.4148 0.9105
vt 0.4353 0.9087
vt 0.4353 0.9520
vt 0.9492 0.2144
vt 0.9492 0.2564
vt 0.9347 0.2659
vt 0.9306 0.2239
vt 0.3629 0.8813
vt 0.3661 0.9235
vt 0.3377 0.9235
vt 0.3471 0.8875
vt 0.1496 0.9230
vt 0.1496 0.9602
vt 0.1354 0.9594
vt 0.1280 0.9177
vt 0.3406 0.6587
vt 0.3555 0.6730
vt 0.3555 0.7024
vt 0.3393 0.7158
vt 0.3198 0.7144
vt 0.3050 0.6900
vt 0.3049 0.6707
vt 0.3196 0.6577
vt 0.9652 0.5417
vt 0.9652 0.5841
vt 0.9443 0.5804
vt 0.9442 0.5455
vt 0.0752 0.9768
vt 0.0713 0.9421
vt 0.0925 0.9462
vt 0.0925 0.9790
vt 0.3822 0.6412
vt 0.3821 0.6142
vt 0.3987 0.5953
vt 0.4223 0.5958
vt 0.4390 0.6150
vt 0.4390 0.6418
vt 0.4222 0.6600
vt 0.3987 0.6598
vt 0.8519 0.5433
vt 0.8519 0.6225
vt 0.8378 0.6210
vt 0.8348 0.5417
vt 0.5760 0.7759
vt 0.5784 0.7004
vt 0.5989 0.6942
vt 0.5989 0.7734
vt 0.7621 0.5417
vt 0.7621 0.6315
vt 0.7420 0.6219
vt 0.7386 0.5470
vt 0.7923 0.5196
vt 0.7940 0.4345
vt 0.8093 0.4274
vt 0.8093 0.5172
vt 0.2779 0.3744
vt 0.2748 0.2959
vt 0.2929 0.2855
vt 0.2929 0.3707
vt 0.7711 0.3870
vt 0.7724 0.3122
vt 0.7943 0.3080
vt 0.7943 0.3862
vt 0.4778 0.7645
vt 0.4778 0.8398
vt 0.4625 0.8388
vt 0.4579 0.7641
vt 0.5424 0.7743
vt 0.5422 0.6942
vt 0.5661 0.7005
vt 0.5661 0.7759
vt 0.0465 0.7679
vt 0.0465 0.8230
vt 0.0232 0.8185
vt 0.0191 0.7591
vt 0.8825 0.4870
vt 0.8821 0.4274
vt 0.9016 0.4315
vt 0.9016 0.4919
vt 0.8650 0.0187
vt 0.8650 0.0785
vt 0.8418 0.0778
vt 0.8410 0.0205
vt 0.8282 0.8412
vt 0.8282 0.8987
vt 0.8131 0.9017
vt 0.8072 0.8492
vt 0.6146 0.8561
vt 0.6244 0.8043
vt 0.6413 0.8074
vt 0.6432 0.8561
vt 0.9085 0.3563
vt 0.9020 0.3080
vt 0.9261 0.3080
vt 0.9261 0.3561
vt 0.9218 0.6256
vt 0.9218 0.6721
vt 0.8987 0.6718
vt 0.8980 0.6223
vt 0.9190 0.8902
vt 0.9185 0.8407
vt 0.9354 0.8444
vt 0.9354 0.8994
vt 0.5861 0.5318
vt 0.5422 0.4929
vt 0.5620 0.4274
vt 0.5861 0.4464
vt 0.2345 0.6435
vt 0.2427 0.5727
vt 0.2712 0.5714
vt 0.2908 0.6435
vt 0.1635 0.6853
vt 0.1635 0.7556
vt 0.1430 0.7554
vt 0.1280 0.6900
vt 0.2385 0.0312
vt 0.2069 0.0237
vt 0.2850 0.0187
vt 0.2850 0.1506
vt 0.4065 0.1605
vt 0.4065 0.2953
vt 0.3621 0.1721
vt 0.2649 0.2855
vt 0.2649 0.3818
vt 0.2254 0.3943
vt 0.2069 0.3446
vt 0.1280 0.4776
vt 0.1480 0.4175
vt 0.1832 0.4160
vt 0.1832 0.5181
vt 0.2069 0.2472
vt 0.2949 0.1605
vt 0.2949 0.2756
vt 0.5966 0.1468
vt 0.5634 0.0589
vt 0.5966 0.0187
vt 0.1142 0.7000
vt 0.0815 0.6320
vt 0.1142 0.6202
vt 0.6578 0.2914
vt 0.6858 0.2319
vt 0.7100 0.2914
vt 0.7513 0.4274
vt 0.7513 0.5108
vt 0.7227 0.4500
vt 0.4303 0.7800
vt 0.4465 0.7402
vt 0.4465 0.8295
vt 0.4883 0.2608
vt 0.5272 0.2520
vt 0.5272 0.2953
vt 0.3819 0.3903
vt 0.3049 0.3532
vt 0.3819 0.3080
vt 0.6071 0.2580
vt 0.5603 0.1843
vt 0.6071 0.1605
vt 0.4511 0.4099
vt 0.3918 0.4099
vt 0.3927 0.3080
vt 0.1280 0.1726
vt 0.1609 0.0187
vt 0.1970 0.1726
vt 0.0191 0.0781
vt 0.1181 0.0187
vt 0.1181 0.1767
vt 0.4610 0.6239
vt 0.5000 0.6100
vt 0.5000 0.6955
vt 0.0586 0.4216
vt 0.0930 0.4166
vt 0.0930 0.4929
vt 0.0191 0.4699
vt 0.6170 0.1775
vt 0.6479 0.1605
vt 0.6479 0.2723
vt 0.2908 0.4042
vt 0.2908 0.5615
vt 0.2621 0.4635
vt 0.8920 0.7561
vt 0.8728 0.7323
vt 0.8920 0.6901
vt 0.4131 0.8534
vt 0.4381 0.8483
vt 0.4381 0.8988
vt 0.7084 0.1443
vt 0.6932 0.1305
vt 0.7084 0.0938
vt 0.3049 0.4546
vt 0.3049 0.4113
vt 0.3706 0.4002
vt 0.3706 0.4886
vt 0.4760 0.2980
vt 0.4517 0.2696
vt 0.4760 0.2668
vt 0.7957 0.9268
vt 0.7957 0.9653
vt 0.7741 0.9410
vt 0.2959 0.9761
vt 0.2720 0.9519
vt 0.2959 0.9449
vt 0.9847 0.3404
vt 0.9638 0.3394
vt 0.9847 0.3080
vt 0.7614 0.8417
vt 0.7614 0.8816
vt 0.7375 0.8906
vt 0.7345 0.8634
vt 0.6504 0.5296
vt 0.6295 0.5296
vt 0.6461 0.5041
vt 0.1170 0.4921
vt 0.1031 0.4891
vt 0.1170 0.4690
vt 0.2522 0.5564
vt 0.2343 0.5564
vt 0.2507 0.5383
vt 0.7887 0.4152
vt 0.7711 0.4039
vt 0.7887 0.3969
vt 0.1162 0.7673
vt 0.1162 0.7860
vt 0.1057 0.7692
vt 0.6065 0.0818
vt 0.6423 0.0187
vt 0.6423 0.1202
vt 0.8042 0.3967
vt 0.8224 0.3929
vt 0.8224 0.4159
vt 0.6309 0.2976
vt 0.6170 0.2936
vt 0.6309 0.2822
vt 0.7073 0.5254
vt 0.6965 0.5254
vt 0.7028 0.5020
vt 0.8606 0.1133
vt 0.8410 0.1133
vt 0.8578 0.0884
vt 0.1047 0.2671
vt 0.1155 0.2628
vt 0.1155 0.2869
vt 0.6259 0.1501
vt 0.6065 0.1501
vt 0.6199 0.1301
vt 0.7762 0.1134
vt 0.7935 0.1042
vt 0.7935 0.1221
vt 0.4439 0.6989
vt 0.4439 0.7217
vt 0.4351 0.7038
vt 0.1175 0.2166
vt 0.1047 0.2013
vt 0.1175 0.1866
vt 0.1047 0.2368
vt 0.1159 0.2265
vt 0.1159 0.2529
vt 0.7259 0.1220
vt 0.7183 0.1177
vt 0.7259 0.0938
vt 0.4511 0.6890
vt 0.4351 0.6890
vt 0.4479 0.6699
vt 0.4877 0.7692
vt 0.4981 0.7641
vt 0.4981 0.7833
vt 0.1177 0.8126
vt 0.1057 0.8106
vt 0.1177 0.7960
vt 0.6358 0.1479
vt 0.6473 0.1368
vt 0.6473 0.1501
vt 0.8119 0.1042
vt 0.8119 0.1209
vt 0.8034 0.1077
vt 0.8192 0.5161
vt 0.8357 0.5138
vt 0.8357 0.5313
vt 0.7107 0.8204
vt 0.7197 0.8131
vt 0.7197 0.8319
vt 0.6664 0.1501
vt 0.6572 0.1501
vt 0.6610 0.1351
vt 0.1085 0.7099
vt 0.1142 0.7574
vt 0.0713 0.7574
vt 0.0745 0.7121
vt 0.1054 0.8404
vt 0.1054 0.8813
vt 0.0713 0.8740
vt 0.4018 0.1499
vt 0.3676 0.1474
vt 0.4018 0.1150
vt 0.4203 0.7988
vt 0.4203 0.8384
vt 0.3813 0.8320
vt 0.7141 0.8032
vt 0.6789 0.7735
vt 0.7141 0.7520
vt 0.6146 0.7459
vt 0.6525 0.7534
vt 0.6525 0.7944
vt 0.6190 0.7899
vt 0.4203 0.7889
vt 0.3828 0.7764
vt 0.3821 0.7402
vt 0.4203 0.7482
vt 0.7711 0.2486
vt 0.7970 0.2270
vt 0.7970 0.2981
vt 0.7642 0.7643
vt 0.7345 0.7379
vt 0.7642 0.6901
vt 0.8209 0.6731
vt 0.8183 0.6338
vt 0.8483 0.6451
vt 0.8483 0.6802
vt 0.9778 0.6617
vt 0.9611 0.6320
vt 0.9778 0.6223
vt 0.9444 0.1403
vt 0.9646 0.1245
vt 0.9646 0.1679
vt 0.5379 0.9254
vt 0.5634 0.9174
vt 0.5634 0.9544
vt 0.5322 0.8442
vt 0.4970 0.8442
vt 0.5154 0.8008
vt 0.8699 0.3806
vt 0.9021 0.3767
vt 0.9021 0.4094
vt 0.8694 0.4146
vt 0.8424 0.8800
vt 0.8448 0.8431
vt 0.8770 0.8407
vt 0.8770 0.8763
vt 0.8072 0.7915
vt 0.8325 0.7700
vt 0.8325 0.8313
vt 0.7617 0.8318
vt 0.7345 0.8088
vt 0.7617 0.7742
vt 0.6022 0.5419
vt 0.6047 0.6071
vt 0.5422 0.6071
vt 0.5478 0.5417
vt 0.6146 0.6942
vt 0.6648 0.6855
vt 0.6648 0.7360
vt 0.7245 0.6802
vt 0.6789 0.6764
vt 0.7245 0.6174
vt 0.7089 0.2220
vt 0.6578 0.2220
vt 0.6752 0.1605
vt 0.4883 0.1821
vt 0.5504 0.1605
vt 0.5504 0.2421
vt 0.3675 0.6478
vt 0.3049 0.6431
vt 0.3087 0.5865
vt 0.3675 0.5834
vt 0.5422 0.6171
vt 0.5911 0.6285
vt 0.5911 0.6842
vt 0.5484 0.6772
vt 0.6295 0.3570
vt 0.6621 0.3080
vt 0.6621 0.4114
vt 0.0624 0.6826
vt 0.0191 0.6826
vt 0.0418 0.6021
vt 0.6848 0.7371
vt 0.6789 0.6901
vt 0.7246 0.7006
vt 0.7246 0.7421
vt 0.5146 0.8541
vt 0.5259 0.8981
vt 0.4970 0.8981
vt 0.4871 0.8901
vt 0.4513 0.8794
vt 0.4871 0.8541
vt 0.2698 0.7761
vt 0.2345 0.7506
vt 0.2698 0.7208
vt 0.0606 0.7492
vt 0.0191 0.7492
vt 0.0331 0.6925
vt 0.5000 0.7542
vt 0.4585 0.7507
vt 0.4579 0.7059
vt 0.5000 0.7054
vt 0.8084 0.6339
vt 0.8084 0.6799
vt 0.7741 0.6802
vt 0.7742 0.6352
vt 0.7278 0.3335
vt 0.7612 0.3080
vt 0.7612 0.3766
vt 0.2224 0.6836
vt 0.1860 0.6571
vt 0.2224 0.6038
vn 0.1676 -0.0869 -0.9820
vn 0.1676 -0.0869 -0.9820
vn 0.1676 -0.0869 -0.9820
vn 0.1928 -0.0574 -0.9796
vn 0.1928 -0.0574 -0.9796
vn 0.1928 -0.0574 -0.9796
vn 0.3023 -0.9462 -0.1150
vn 0.3023 -0.9462 -0.1150
vn 0.3023 -0.9462 -0.1150
vn 0.6581 -0.6220 -0.4242
vn 0.6581 -0.6220 -0.4242
vn 0.6581 -0.6220 -0.4242
vn 0.9517 -0.2754 -0.1358
vn 0.9517 -0.2754 -0.1358
vn 0.9517 -0.2754 -0.1358
vn 0.3783 -0.4676 0.7989
vn 0.3783 -0.4676 0.7989
vn 0.3783 -0.4676 0.7989
vn -0.5560 0.0892 0.8264
vn -0.5560 0.0892 0.8264
vn -0.5560 0.0892 0.8264
vn -0.5560 0.0892 0.8264
vn 0.1414 0.0426 0.9890
vn 0.1414 0.0426 0.9890
vn 0.1414 0.0426 0.9890
vn -0.2376 -0.9704 0.0442
vn -0.2376 -0.9704 0.0442
vn -0.2376 -0.9704 0.0442
vn -0.4581 -0.5423 0.7043
vn -0.4581 -0.5423 0.7043
vn -0.4581 -0.5423 0.7043
vn -0.9815 -0.0258 0.1899
vn -0.9815 -0.0258 0.1899
vn -0.9815 -0.0258 0.1899
vn -0.8789 -0.4559 0.1400
vn -0.8789 -0.4559 0.1400
vn -0.8789 -0.4559 0.1400
vn -0.9570 0.2133 -0.1965
vn -0.9570 0.2133 -0.1965
vn -0.9570 0.2133 -0.1965
vn -0.0460 -0.1303 -0.9904
vn -0.0460 -0.1303 -0.9904
vn -0.0460 -0.1303 -0.9904
vn -0.2824 -0.5682 -0.7729
vn -0.2824 -0.5682 -0.7729
vn -0.2824 -0.5682 -0.7729
vn 0.3797 -0.8649 -0.3282
vn 0.3797 -0.8649 -0.3282
vn 0.3797 -0.8649 -0.3282
vn 0.7843 0.1394 -0.6045
vn 0.7843 0.1394 -0.6045
vn 0.7843 0.1394 -0.6045
vn 0.9681 -0.2483 0.0342
vn 0.9681 -0.2483 0.0342
vn 0.9681 -0.2483 0.0342
vn 0.4455 -0.4371 0.7813
vn 0.4455 -0.4371 0.7813
vn 0.4455 -0.4371 0.7813
vn 0.5032 -0.4417 0.7427
vn 0.5032 -0.4417 0.7427
vn 0.5032 -0.4417 0.7427
vn -0.4901 -0.5619 0.6664
vn -0.4901 -0.5619 0.6664
vn -0.4901 -0.5619 0.6664
vn -0.7795 -0.5700 -0.2599
vn -0.7795 -0.5700 -0.2599
vn -0.7795 -0.5700 -0.2599
vn -0.8067 -0.0194 -0.5907
vn -0.8067 -0.0194 -0.5907
vn -0.8067 -0.0194 -0.5907
vn -0.7415 -0.5208 -0.4231
vn -0.7415 -0.5208 -0.4231
vn -0.7415 -0.5208 -0.4231
vn -0.5408 0.1288 -0.8312
vn -0.5408 0.1288 -0.8312
vn -0.5408 0.1288 -0.8312
vn -0.8270 -0.4118 -0.3828
vn -0.8270 -0.4118 -0.3828
vn -0.8270 -0.4118 -0.3828
vn -0.8270 -0.4118 -0.3828
vn -0.2457 -0.9078 -0.3399
vn -0.2457 -0.9078 -0.3399
vn -0.2457 -0.9078 -0.3399
vn -0.2457 -0.9078 -0.3399
vn 0.4561 -0.8890 -0.0410
vn 0.4561 -0.8890 -0.0410
vn 0.4561 -0.8890 -0.0410
vn 0.4561 -0.8890 -0.0410
vn 0.8664 -0.3397 0.3661
vn 0.8664 -0.3397 0.3661
vn 0.8664 -0.3397 0.3661
vn 0.8664 -0.3397 0.3661
vn 0.6881 0.3792 0.6187
vn 0.6881 0.3792 0.6187
vn 0.6881 0.3792 0.6187
vn 0.6881 0.3792 0.6187
vn 0.1294 0.8044 0.5798
vn 0.1294 0.8044 0.5798
vn 0.1294 0.8044 0.5798
vn 0.1294 0.8044 0.5798
vn 0.3116 0.1420 -0.9395
vn 0.3116 0.1420 -0.9395
vn 0.3116 0.1420 -0.9395
vn 0.3116 0.1420 -0.9395
vn 0.3116 0.1420 -0.9395
vn 0.3116 0.1420 -0.9395
vn 0.3116 0.1420 -0.9395
vn 0.3116 0.1420 -0.9395
vn -0.5023 0.8137 0.2926
vn -0.5023 0.8137 0.2926
vn -0.5023 0.8137 0.2926
vn -0.5023 0.8137 0.2926
vn -0.9360 0.3305 -0.1214
vn -0.9360 0.3305 -0.1214
vn -0.9360 0.3305 -0.1214
vn -0.9360 0.3305 -0.1214
vn -0.3148 -0.0000 0.9492
vn -0.3148 -0.0000 0.9492
vn -0.3148 -0.0000 0.9492
vn -0.3148 -0.0000 0.9492
vn -0.3148 -0.0000 0.9492
vn -0.3148 -0.0000 0.9492
vn -0.3148 -0.0000 0.9492
vn -0.3148 -0.0000 0.9492
vn -0.8964 0.3900 -0.2107
vn -0.8964 0.3900 -0.2107
vn -0.8964 0.3900 -0.2107
vn -0.8964 0.3900 -0.2107
vn -0.4165 0.9022 0.1123
vn -0.4165 0.9022 0.1123
vn -0.4165 0.9022 0.1123
vn -0.4165 0.9022 0.1123
vn 0.2977 0.8847 0.3588
vn 0.2977 0.8847 0.3588
vn 0.2977 0.8847 0.3588
vn 0.2977 0.8847 0.3588
vn 0.8457 0.3586 0.3953
vn 0.8457 0.3586 0.3953
vn 0.8457 0.3586 0.3953
vn 0.8457 0.3586 0.3953
vn 0.9012 -0.3884 0.1924
vn 0.9012 -0.3884 0.1924
vn 0.9012 -0.3884 0.1924
vn 0.9012 -0.3884 0.1924
vn 0.4216 -0.8975 -0.1292
vn 0.4216 -0.8975 -0.1292
vn 0.4216 -0.8975 -0.1292
vn 0.4216 -0.8975 -0.1292
vn -0.2942 -0.8786 -0.3763
vn -0.2942 -0.8786 -0.3763
vn -0.2942 -0.8786 -0.3763
vn -0.2942 -0.8786 -0.3763
vn -0.8373 -0.3580 -0.4133
vn -0.8373 -0.3580 -0.4133
vn -0.8373 -0.3580 -0.4133
vn -0.8373 -0.3580 -0.4133
vn -0.8643 -0.3173 -0.3904
vn -0.8643 -0.3173 -0.3904
vn -0.8643 -0.3173 -0.3904
vn -0.8643 -0.3173 -0.3904
vn -0.3392 -0.8589 -0.3837
vn -0.3392 -0.8589 -0.3837
vn -0.3392 -0.8589 -0.3837
vn -0.3392 -0.8589 -0.3837
vn 0.3931 -0.9065 -0.1539
vn 0.3931 -0.9065 -0.1539
vn 0.3931 -0.9065 -0.1539
vn 0.3931 -0.9065 -0.1539
vn 0.8921 -0.4213 0.1633
vn 0.8921 -0.4213 0.1633
vn 0.8921 -0.4213 0.1633
vn 0.8921 -0.4213 0.1633
vn 0.8714 0.3190 0.3726
vn 0.8714 0.3190 0.3726
vn 0.8714 0.3190 0.3726
vn 0.8714 0.3190 0.3726
vn 0.3443 0.8698 0.3534
vn 0.3443 0.8698 0.3534
vn 0.3443 0.8698 0.3534
vn 0.3443 0.8698 0.3534
vn -0.3834 0.9149 0.1266
vn -0.3834 0.9149 0.1266
vn -0.3834 0.9149 0.1266
vn -0.3834 0.9149 0.1266
vn -0.8874 0.4256 -0.1773
vn -0.8874 0.4256 -0.1773
vn -0.8874 0.4256 -0.1773
vn -0.8874 0.4256 -0.1773
vn -0.1549 -0.4255 -0.8916
vn -0.1549 -0.4255 -0.8916
vn -0.1549 -0.4255 -0.8916
vn -0.1549 -0.4255 -0.8916
vn 0.1477 -0.9086 -0.3907
vn 0.1477 -0.9086 -0.3907
vn 0.1477 -0.9086 -0.3907
vn 0.1477 -0.9086 -0.3907
vn 0.3683 -0.8825 0.2925
vn 0.3683 -0.8825 0.2925
vn 0.3683 -0.8825 0.2925
vn 0.3683 -0.8825 0.2925
vn 0.4303 -0.3323 0.8393
vn 0.4303 -0.3323 0.8393
vn 0.4303 -0.3323 0.8393
vn 0.4303 -0.3323 0.8393
vn 0.2276 0.3604 0.9046
vn 0.2276 0.3604 0.9046
vn 0.2276 0.3604 0.9046
vn 0.2276 0.3604 0.9046
vn -0.2444 0.7948 0.5555
vn -0.2444 0.7948 0.5555
vn -0.2444 0.7948 0.5555
vn -0.2444 0.7948 0.5555
vn 0.9300 0.0942 -0.3554
vn 0.9300 0.0942 -0.3554
vn 0.9300 0.0942 -0.3554
vn 0.9300 0.0942 -0.3554
vn 0.9300 0.0942 -0.3554
vn 0.9300 0.0942 -0.3554
vn 0.9300 0.0942 -0.3554
vn 0.9300 0.0942 -0.3554
vn -0.4071 0.8728 -0.2693
vn -0.4071 0.8728 -0.2693
vn -0.4071 0.8728 -0.2693
vn -0.4071 0.8728 -0.2693
vn -0.3219 0.3081 -0.8952
vn -0.3219 0.3081 -0.8952
vn -0.3219 0.3081 -0.8952
vn -0.3219 0.3081 -0.8952
vn -0.9873 -0.0000 0.1588
vn -0.9873 -0.0000 0.1588
vn -0.9873 -0.0000 0.1588
vn -0.9873 -0.0000 0.1588
vn -0.9873 -0.0000 0.1588
vn -0.9873 -0.0000 0.1588
vn -0.9873 -0.0000 0.1588
vn -0.9873 -0.0000 0.1588
vn -0.2781 0.3978 -0.8743
vn -0.2781 0.3978 -0.8743
vn -0.2781 0.3978 -0.8743
vn -0.2781 0.3978 -0.8743
vn -0.2998 0.9237 -0.2387
vn -0.2998 0.9237 -0.2387
vn -0.2998 0.9237 -0.2387
vn -0.2998 0.9237 -0.2387
vn -0.0711 0.7872 0.6126
vn -0.0711 0.7872 0.6126
vn -0.0711 0.7872 0.6126
vn -0.0711 0.7872 0.6126
vn 0.0339 0.4802 0.8765
vn 0.0339 0.4802 0.8765
vn 0.0339 0.4802 0.8765
vn 0.0339 0.4802 0.8765
vn 0.2944 -0.3944 0.8705
vn 0.2944 -0.3944 0.8705
vn 0.2944 -0.3944 0.8705
vn 0.2944 -0.3944 0.8705
vn 0.3194 -0.9126 0.2554
vn 0.3194 -0.9126 0.2554
vn 0.3194 -0.9126 0.2554
vn 0.3194 -0.9126 0.2554
vn 0.1629 -0.8739 -0.4580
vn 0.1629 -0.8739 -0.4580
vn 0.1629 -0.8739 -0.4580
vn 0.1629 -0.8739 -0.4580
vn -0.0778 -0.3555 -0.9314
vn -0.0778 -0.3555 -0.9314
vn -0.0778 -0.3555 -0.9314
vn -0.0778 -0.3555 -0.9314
vn -0.0550 -0.2917 -0.9549
vn -0.0550 -0.2917 -0.9549
vn -0.0550 -0.2917 -0.9549
vn -0.0550 -0.2917 -0.9549
vn 0.2219 -0.8182 -0.5304
vn 0.2219 -0.8182 -0.5304
vn 0.2219 -0.8182 -0.5304
vn 0.2219 -0.8182 -0.5304
vn 0.3766 -0.8919 0.2503
vn 0.3766 -0.8919 0.2503
vn 0.3766 -0.8919 0.2503
vn 0.3766 -0.8919 0.2503
vn 0.2750 -0.4063 0.8714
vn 0.2750 -0.4063 0.8714
vn 0.2750 -0.4063 0.8714
vn 0.2750 -0.4063 0.8714
vn 0.1070 0.3359 0.9358
vn 0.1070 0.3359 0.9358
vn 0.1070 0.3359 0.9358
vn 0.1070 0.3359 0.9358
vn 0.0154 0.8086 0.5881
vn 0.0154 0.8086 0.5881
vn 0.0154 0.8086 0.5881
vn 0.0154 0.8086 0.5881
vn -0.1968 0.9364 -0.2905
vn -0.1968 0.9364 -0.2905
vn -0.1968 0.9364 -0.2905
vn -0.1968 0.9364 -0.2905
vn -0.2307 0.4186 -0.8784
vn -0.2307 0.4186 -0.8784
vn -0.2307 0.4186 -0.8784
vn -0.2307 0.4186 -0.8784
vn -0.3764 -0.4214 0.8251
vn -0.3764 -0.4214 0.8251
vn -0.3764 -0.4214 0.8251
vn -0.3764 -0.4214 0.8251
vn 0.0487 -0.9069 0.4186
vn 0.0487 -0.9069 0.4186
vn 0.0487 -0.9069 0.4186
vn 0.0487 -0.9069 0.4186
vn 0.4765 -0.8642 -0.1619
vn 0.4765 -0.8642 -0.1619
vn 0.4765 -0.8642 -0.1619
vn 0.4765 -0.8642 -0.1619
vn 0.7114 -0.3376 -0.6164
vn 0.7114 -0.3376 -0.6164
vn 0.7114 -0.3376 -0.6164
vn 0.7114 -0.3376 -0.6164
vn 0.6188 0.4170 -0.6657
vn 0.6188 0.4170 -0.6657
vn 0.6188 0.4170 -0.6657
vn 0.6188 0.4170 -0.6657
vn 0.2185 0.9403 -0.2609
vn 0.2185 0.9403 -0.2609
vn 0.2185 0.9403 -0.2609
vn 0.2185 0.9403 -0.2609
vn -0.8315 0.1362 -0.5386
vn -0.8315 0.1362 -0.5386
vn -0.8315 0.1362 -0.5386
vn -0.8315 0.1362 -0.5386
vn -0.8315 0.1362 -0.5386
vn -0.8315 0.1362 -0.5386
vn -0.8315 0.1362 -0.5386
vn -0.8315 0.1362 -0.5386
vn -0.2582 0.9109 0.3218
vn -0.2582 0.9109 0.3218
vn -0.2582 0.9109 0.3218
vn -0.2582 0.9109 0.3218
vn -0.5199 0.3465 0.7808
vn -0.5199 0.3465 0.7808
vn -0.5199 0.3465 0.7808
vn -0.5199 0.3465 0.7808
vn 0.8393 -0.0000 0.5437
vn 0.8393 -0.0000 0.5437
vn 0.8393 -0.0000 0.5437
vn 0.8393 -0.0000 0.5437
vn 0.8393 -0.0000 0.5437
vn 0.8393 -0.0000 0.5437
vn 0.8393 -0.0000 0.5437
vn 0.8393 -0.0000 0.5437
vn -0.5467 0.4020 0.7345
vn -0.5467 0.4020 0.7345
vn -0.5467 0.4020 0.7345
vn -0.5467 0.4020 0.7345
vn -0.3892 0.9072 0.1599
vn -0.3892 0.9072 0.1599
vn -0.3892 0.9072 0.1599
vn -0.3892 0.9072 0.1599
vn -0.0286 0.8835 -0.4675
vn -0.0286 0.8835 -0.4675
vn -0.0286 0.8835 -0.4675
vn -0.0286 0.8835 -0.4675
vn 0.3518 0.3696 -0.8600
vn 0.3518 0.3696 -0.8600
vn 0.3518 0.3696 -0.8600
vn 0.3518 0.3696 -0.8600
vn 0.5292 -0.4011 -0.7477
vn 0.5292 -0.4011 -0.7477
vn 0.5292 -0.4011 -0.7477
vn 0.5292 -0.4011 -0.7477
vn 0.3775 -0.9096 -0.1734
vn 0.3775 -0.9096 -0.1734
vn 0.3775 -0.9096 -0.1734
vn 0.3775 -0.9096 -0.1734
vn 0.0238 -0.8843 0.4662
vn 0.0238 -0.8843 0.4662
vn 0.0238 -0.8843 0.4662
vn 0.0238 -0.8843 0.4662
vn -0.3608 -0.3680 0.8570
vn -0.3608 -0.3680 0.8570
vn -0.3608 -0.3680 0.8570
vn -0.3608 -0.3680 0.8570
vn -0.4417 -0.3281 0.8350
vn -0.4417 -0.3281 0.8350
vn -0.4417 -0.3281 0.8350
vn -0.4417 -0.3281 0.8350
vn -0.0363 -0.8755 0.4819
vn -0.0363 -0.8755 0.4819
vn -0.0363 -0.8755 0.4819
vn -0.0363 -0.8755 0.4819
vn 0.3755 -0.9179 -0.1281
vn 0.3755 -0.9179 -0.1281
vn 0.3755 -0.9179 -0.1281
vn 0.3755 -0.9179 -0.1281
vn 0.5824 -0.4375 -0.6851
vn 0.5824 -0.4375 -0.6851
vn 0.5824 -0.4375 -0.6851
vn 0.5824 -0.4375 -0.6851
vn 0.4234 0.3289 -0.8442
vn 0.4234 0.3289 -0.8442
vn 0.4234 0.3289 -0.8442
vn 0.4234 0.3289 -0.8442
vn 0.0048 0.8682 -0.4961
vn 0.0048 0.8682 -0.4961
vn 0.0048 0.8682 -0.4961
vn 0.0048 0.8682 -0.4961
vn -0.3986 0.9107 0.1087
vn -0.3986 0.9107 0.1087
vn -0.3986 0.9107 0.1087
vn -0.3986 0.9107 0.1087
vn -0.5946 0.4379 0.6744
vn -0.5946 0.4379 0.6744
vn -0.5946 0.4379 0.6744
vn -0.5946 0.4379 0.6744
vn -0.9108 -0.4125 0.0176
vn -0.9108 -0.4125 0.0176
vn -0.9108 -0.4125 0.0176
vn -0.9108 -0.4125 0.0176
vn -0.3773 -0.9009 0.2143
vn -0.3773 -0.9009 0.2143
vn -0.3773 -0.9009 0.2143
vn -0.3773 -0.9009 0.2143
vn 0.3711 -0.8891 0.2678
vn 0.3711 -0.8891 0.2678
vn 0.3711 -0.8891 0.2678
vn 0.3711 -0.8891 0.2678
vn 0.9352 -0.3402 0.0984
vn 0.9352 -0.3402 0.0984
vn 0.9352 -0.3402 0.0984
vn 0.9352 -0.3402 0.0984
vn 0.9277 0.3682 -0.0617
vn 0.9277 0.3682 -0.0617
vn 0.9277 0.3682 -0.0617
vn 0.9277 0.3682 -0.0617
vn 0.4803 0.8769 0.0209
vn 0.4803 0.8769 0.0209
vn 0.4803 0.8769 0.0209
vn 0.4803 0.8769 0.0209
vn 0.0313 0.0770 -0.9965
vn 0.0313 0.0770 -0.9965
vn 0.0313 0.0770 -0.9965
vn 0.0313 0.0770 -0.9965
vn 0.0313 0.0770 -0.9965
vn 0.0313 0.0770 -0.9965
vn 0.0313 0.0770 -0.9965
vn 0.0313 0.0770 -0.9965
vn -0.3094 0.9270 -0.2119
vn -0.3094 0.9270 -0.2119
vn -0.3094 0.9270 -0.2119
vn -0.3094 0.9270 -0.2119
vn -0.9191 0.3207 -0.2288
vn -0.9191 0.3207 -0.2288
vn -0.9191 0.3207 -0.2288
vn -0.9191 0.3207 -0.2288
vn -0.1979 -0.0000 0.9802
vn -0.1979 -0.0000 0.9802
vn -0.1979 -0.0000 0.9802
vn -0.1979 -0.0000 0.9802
vn -0.1979 -0.0000 0.9802
vn -0.1979 -0.0000 0.9802
vn -0.1979 -0.0000 0.9802
vn -0.1979 -0.0000 0.9802
vn -0.8805 0.3941 -0.2633
vn -0.8805 0.3941 -0.2633
vn -0.8805 0.3941 -0.2633
vn -0.8805 0.3941 -0.2633
vn -0.2357 0.9218 -0.3077
vn -0.2357 0.9218 -0.3077
vn -0.2357 0.9218 -0.3077
vn -0.2357 0.9218 -0.3077
vn 0.5729 0.8037 -0.1607
vn 0.5729 0.8037 -0.1607
vn 0.5729 0.8037 -0.1607
vn 0.5729 0.8037 -0.1607
vn 0.8694 0.4940 0.0114
vn 0.8694 0.4940 0.0114
vn 0.8694 0.4940 0.0114
vn 0.8694 0.4940 0.0114
vn 0.8826 -0.4000 0.2469
vn 0.8826 -0.4000 0.2469
vn 0.8826 -0.4000 0.2469
vn 0.8826 -0.4000 0.2469
vn 0.3000 -0.9063 0.2976
vn 0.3000 -0.9063 0.2976
vn 0.3000 -0.9063 0.2976
vn 0.3000 -0.9063 0.2976
vn -0.4249 -0.8871 0.1802
vn -0.4249 -0.8871 0.1802
vn -0.4249 -0.8871 0.1802
vn -0.4249 -0.8871 0.1802
vn -0.9320 -0.3576 -0.0584
vn -0.9320 -0.3576 -0.0584
vn -0.9320 -0.3576 -0.0584
vn -0.9320 -0.3576 -0.0584
vn -0.9347 -0.2999 -0.1905
vn -0.9347 -0.2999 -0.1905
vn -0.9347 -0.2999 -0.1905
vn -0.9347 -0.2999 -0.1905
vn -0.4761 -0.8789 0.0300
vn -0.4761 -0.8789 0.0300
vn -0.4761 -0.8789 0.0300
vn -0.4761 -0.8789 0.0300
vn 0.3059 -0.9188 0.2493
vn 0.3059 -0.9188 0.2493
vn 0.3059 -0.9188 0.2493
vn 0.3059 -0.9188 0.2493
vn 0.8536 -0.4048 0.3279
vn 0.8536 -0.4048 0.3279
vn 0.8536 -0.4048 0.3279
vn 0.8536 -0.4048 0.3279
vn 0.9325 0.3495 0.0909
vn 0.9325 0.3495 0.0909
vn 0.9325 0.3495 0.0909
vn 0.9325 0.3495 0.0909
vn 0.5773 0.7782 -0.2472
vn 0.5773 0.7782 -0.2472
vn 0.5773 0.7782 -0.2472
vn 0.5773 0.7782 -0.2472
vn -0.2316 0.8616 -0.4516
vn -0.2316 0.8616 -0.4516
vn -0.2316 0.8616 -0.4516
vn -0.2316 0.8616 -0.4516
vn -0.8299 0.4089 -0.3796
vn -0.8299 0.4089 -0.3796
vn -0.8299 0.4089 -0.3796
vn -0.8299 0.4089 -0.3796
vn -0.4825 -0.4117 -0.7731
vn -0.4825 -0.4117 -0.7731
vn -0.4825 -0.4117 -0.7731
vn -0.4825 -0.4117 -0.7731
vn -0.3817 -0.9003 -0.2091
vn -0.3817 -0.9003 -0.2091
vn -0.3817 -0.9003 -0.2091
vn -0.3817 -0.9003 -0.2091
vn -0.1255 -0.8640 0.4877
vn -0.1255 -0.8640 0.4877
vn -0.1255 -0.8640 0.4877
vn -0.1255 -0.8640 0.4877
vn 0.1250 -0.3379 0.9328
vn 0.1250 -0.3379 0.9328
vn 0.1250 -0.3379 0.9328
vn 0.1250 -0.3379 0.9328
vn 0.2163 0.4175 0.8826
vn 0.2163 0.4175 0.8826
vn 0.2163 0.4175 0.8826
vn 0.2163 0.4175 0.8826
vn 0.0995 0.9351 0.3400
vn 0.0995 0.9351 0.3400
vn 0.0995 0.9351 0.3400
vn 0.0995 0.9351 0.3400
vn 0.9075 0.1357 -0.3974
vn 0.9075 0.1357 -0.3974
vn 0.9075 0.1357 -0.3974
vn 0.9075 0.1357 -0.3974
vn 0.9075 0.1357 -0.3974
vn 0.9075 0.1357 -0.3974
vn 0.9075 0.1357 -0.3974
vn 0.9075 0.1357 -0.3974
vn -0.1169 0.9215 -0.3703
vn -0.1169 0.9215 -0.3703
vn -0.1169 0.9215 -0.3703
vn -0.1169 0.9215 -0.3703
vn -0.3661 0.3490 -0.8627
vn -0.3661 0.3490 -0.8627
vn -0.3661 0.3490 -0.8627
vn -0.3661 0.3490 -0.8627
vn -0.9151 -0.0000 0.4032
vn -0.9151 -0.0000 0.4032
vn -0.9151 -0.0000 0.4032
vn -0.9151 -0.0000 0.4032
vn -0.9151 -0.0000 0.4032
vn -0.9151 -0.0000 0.4032
vn -0.9151 -0.0000 0.4032
vn -0.9151 -0.0000 0.4032
vn -0.3445 0.4130 -0.8431
vn -0.3445 0.4130 -0.8431
vn -0.3445 0.4130 -0.8431
vn -0.3445 0.4130 -0.8431
vn 0.0722 0.9167 -0.3929
vn 0.0722 0.9167 -0.3929
vn 0.0722 0.9167 -0.3929
vn 0.0722 0.9167 -0.3929
vn 0.4208 0.8768 0.2327
vn 0.4208 0.8768 0.2327
vn 0.4208 0.8768 0.2327
vn 0.4208 0.8768 0.2327
vn 0.5571 0.3678 0.7446
vn 0.5571 0.3678 0.7446
vn 0.5571 0.3678 0.7446
vn 0.5571 0.3678 0.7446
vn 0.3739 -0.4011 0.8362
vn 0.3739 -0.4011 0.8362
vn 0.3739 -0.4011 0.8362
vn 0.3739 -0.4011 0.8362
vn -0.0456 -0.9131 0.4053
vn -0.0456 -0.9131 0.4053
vn -0.0456 -0.9131 0.4053
vn -0.0456 -0.9131 0.4053
vn -0.4186 -0.8761 -0.2392
vn -0.4186 -0.8761 -0.2392
vn -0.4186 -0.8761 -0.2392
vn -0.4186 -0.8761 -0.2392
vn -0.5496 -0.3524 -0.7575
vn -0.5496 -0.3524 -0.7575
vn -0.5496 -0.3524 -0.7575
vn -0.5496 -0.3524 -0.7575
vn -0.4514 -0.3202 -0.8329
vn -0.4514 -0.3202 -0.8329
vn -0.4514 -0.3202 -0.8329
vn -0.4514 -0.3202 -0.8329
vn -0.3828 -0.8747 -0.2974
vn -0.3828 -0.8747 -0.2974
vn -0.3828 -0.8747 -0.2974
vn -0.3828 -0.8747 -0.2974
vn -0.0990 -0.9179 0.3842
vn -0.0990 -0.9179 0.3842
vn -0.0990 -0.9179 0.3842
vn -0.0990 -0.9179 0.3842
vn 0.2531 -0.4375 0.8628
vn 0.2531 -0.4375 0.8628
vn 0.2531 -0.4375 0.8628
vn 0.2531 -0.4375 0.8628
vn 0.4733 0.3289 0.8172
vn 0.4733 0.3289 0.8172
vn 0.4733 0.3289 0.8172
vn 0.4733 0.3289 0.8172
vn 0.4121 0.8682 0.2763
vn 0.4121 0.8682 0.2763
vn 0.4121 0.8682 0.2763
vn 0.4121 0.8682 0.2763
vn 0.1278 0.9114 -0.3911
vn 0.1278 0.9114 -0.3911
vn 0.1278 0.9114 -0.3911
vn 0.1278 0.9114 -0.3911
vn -0.2394 0.4485 -0.8611
vn -0.2394 0.4485 -0.8611
vn -0.2394 0.4485 -0.8611
vn -0.2394 0.4485 -0.8611
vn -0.7439 -0.4232 0.5173
vn -0.7439 -0.4232 0.5173
vn -0.7439 -0.4232 0.5173
vn -0.7439 -0.4232 0.5173
vn -0.4167 -0.9086 0.0298
vn -0.4167 -0.9086 0.0298
vn -0.4167 -0.9086 0.0298
vn -0.4167 -0.9086 0.0298
vn 0.1110 -0.8825 -0.4571
vn 0.1110 -0.8825 -0.4571
vn 0.1110 -0.8825 -0.4571
vn 0.1110 -0.8825 -0.4571
vn 0.5835 -0.3297 -0.7422
vn 0.5835 -0.3297 -0.7422
vn 0.5835 -0.3297 -0.7422
vn 0.5835 -0.3297 -0.7422
vn 0.7243 0.3632 -0.5860
vn 0.7243 0.3632 -0.5860
vn 0.7243 0.3632 -0.5860
vn 0.7243 0.3632 -0.5860
vn 0.6067 0.7948 -0.0111
vn 0.6067 0.7948 -0.0111
vn 0.6067 0.7948 -0.0111
vn 0.6067 0.7948 -0.0111
vn -0.7127 0.0942 -0.6951
vn -0.7127 0.0942 -0.6951
vn -0.7127 0.0942 -0.6951
vn -0.7127 0.0942 -0.6951
vn -0.7127 0.0942 -0.6951
vn -0.7127 0.0942 -0.6951
vn -0.7127 0.0942 -0.6951
vn -0.7127 0.0942 -0.6951
vn -0.0737 0.8728 0.4825
vn -0.0737 0.8728 0.4825
vn -0.0737 0.8728 0.4825
vn -0.0737 0.8728 0.4825
vn -0.6776 0.3098 0.6670
vn -0.6776 0.3098 0.6670
vn -0.6776 0.3098 0.6670
vn -0.6776 0.3098 0.6670
vn 0.5583 -0.0000 0.8296
vn 0.5583 -0.0000 0.8296
vn 0.5583 -0.0000 0.8296
vn 0.5583 -0.0000 0.8296
vn 0.5583 -0.0000 0.8296
vn 0.5583 -0.0000 0.8296
vn 0.5583 -0.0000 0.8296
vn 0.5583 -0.0000 0.8296
vn -0.6755 0.4034 0.6172
vn -0.6755 0.4034 0.6172
vn -0.6755 0.4034 0.6172
vn -0.6755 0.4034 0.6172
vn -0.0869 0.9260 0.3673
vn -0.0869 0.9260 0.3673
vn -0.0869 0.9260 0.3673
vn -0.0869 0.9260 0.3673
vn 0.5848 0.7882 -0.1917
vn 0.5848 0.7882 -0.1917
vn 0.5848 0.7882 -0.1917
vn 0.5848 0.7882 -0.1917
vn 0.7793 0.4872 -0.3941
vn 0.7793 0.4872 -0.3941
vn 0.7793 0.4872 -0.3941
vn 0.7793 0.4872 -0.3941
vn 0.6699 -0.3890 -0.6324
vn 0.6699 -0.3890 -0.6324
vn 0.6699 -0.3890 -0.6324
vn 0.6699 -0.3890 -0.6324
vn 0.0978 -0.9126 -0.3971
vn 0.0978 -0.9126 -0.3971
vn 0.0978 -0.9126 -0.3971
vn 0.0978 -0.9126 -0.3971
vn -0.4884 -0.8712 0.0505
vn -0.4884 -0.8712 0.0505
vn -0.4884 -0.8712 0.0505
vn -0.4884 -0.8712 0.0505
vn -0.8127 -0.3520 0.4644
vn -0.8127 -0.3520 0.4644
vn -0.8127 -0.3520 0.4644
vn -0.8127 -0.3520 0.4644
vn -0.8438 -0.2893 0.4520
vn -0.8438 -0.2893 0.4520
vn -0.8438 -0.2893 0.4520
vn -0.8438 -0.2893 0.4520
vn -0.5798 -0.8142 0.0300
vn -0.5798 -0.8142 0.0300
vn -0.5798 -0.8142 0.0300
vn -0.5798 -0.8142 0.0300
vn 0.0662 -0.8942 -0.4428
vn 0.0662 -0.8942 -0.4428
vn 0.0662 -0.8942 -0.4428
vn 0.0662 -0.8942 -0.4428
vn 0.6761 -0.4037 -0.6164
vn 0.6761 -0.4037 -0.6164
vn 0.6761 -0.4037 -0.6164
vn 0.6761 -0.4037 -0.6164
vn 0.8050 0.3374 -0.4880
vn 0.8050 0.3374 -0.4880
vn 0.8050 0.3374 -0.4880
vn 0.8050 0.3374 -0.4880
vn 0.5279 0.8079 -0.2619
vn 0.5279 0.8079 -0.2619
vn 0.5279 0.8079 -0.2619
vn 0.5279 0.8079 -0.2619
vn -0.1714 0.9416 0.2897
vn -0.1714 0.9416 0.2897
vn -0.1714 0.9416 0.2897
vn -0.1714 0.9416 0.2897
vn -0.6996 0.4219 0.5767
vn -0.6996 0.4219 0.5767
vn -0.6996 0.4219 0.5767
vn -0.6996 0.4219 0.5767
vn 0.9480 0.1681 0.2701
vn 0.9480 0.1681 0.2701
vn 0.9480 0.1681 0.2701
vn 0.9480 0.1681 0.2701
vn 0.5044 0.2547 0.8250
vn 0.5044 0.2547 0.8250
vn 0.5044 0.2547 0.8250
vn 0.5044 0.2547 0.8250
vn 0.1490 0.2173 -0.9647
vn 0.1490 0.2173 -0.9647
vn 0.1490 0.2173 -0.9647
vn 0.1490 0.2173 -0.9647
vn 0.8675 0.4975 0.0000
vn 0.8675 0.4975 0.0000
vn 0.8675 0.4975 0.0000
vn 0.8675 0.4975 0.0000
vn 0.1642 0.2571 -0.9523
vn 0.1642 0.2571 -0.9523
vn 0.1642 0.2571 -0.9523
vn -0.5635 0.1834 0.8055
vn -0.5635 0.1834 0.8055
vn -0.5635 0.1834 0.8055
vn -0.5635 0.1834 0.8055
vn -0.9692 0.1749 -0.1733
vn -0.9692 0.1749 -0.1733
vn -0.9692 0.1749 -0.1733
vn -0.9692 0.1749 -0.1733
vn -0.9325 0.1761 0.3152
vn -0.9325 0.1761 0.3152
vn -0.9325 0.1761 0.3152
vn 0.9329 0.2319 0.2757
vn 0.9329 0.2319 0.2757
vn 0.9329 0.2319 0.2757
vn 0.9190 0.1241 0.3743
vn 0.9190 0.1241 0.3743
vn 0.9190 0.1241 0.3743
vn 0.2703 0.2689 0.9245
vn 0.2703 0.2689 0.9245
vn 0.2703 0.2689 0.9245
vn -0.8268 0.5184 -0.2182
vn -0.8268 0.5184 -0.2182
vn -0.8268 0.5184 -0.2182
vn 0.8885 0.4589 0.0019
vn 0.8885 0.4589 0.0019
vn 0.8885 0.4589 0.0019
vn -0.9835 -0.1245 -0.1310
vn -0.9835 -0.1245 -0.1310
vn -0.9835 -0.1245 -0.1310
vn 0.9625 0.2047 0.1779
vn 0.9625 0.2047 0.1779
vn 0.9625 0.2047 0.1779
vn 0.5849 0.1184 -0.8024
vn 0.5849 0.1184 -0.8024
vn 0.5849 0.1184 -0.8024
vn -0.0273 0.4508 0.8922
vn -0.0273 0.4508 0.8922
vn -0.0273 0.4508 0.8922
vn -0.5378 0.1672 -0.8263
vn -0.5378 0.1672 -0.8263
vn -0.5378 0.1672 -0.8263
vn 0.8699 0.2188 -0.4421
vn 0.8699 0.2188 -0.4421
vn 0.8699 0.2188 -0.4421
vn -0.5916 0.3204 0.7399
vn -0.5916 0.3204 0.7399
vn -0.5916 0.3204 0.7399
vn 0.7603 0.3627 0.5389
vn 0.7603 0.3627 0.5389
vn 0.7603 0.3627 0.5389
vn 0.7603 0.3627 0.5389
vn -0.9229 0.3747 -0.0883
vn -0.9229 0.3747 -0.0883
vn -0.9229 0.3747 -0.0883
vn -0.8519 0.2417 -0.4647
vn -0.8519 0.2417 -0.4647
vn -0.8519 0.2417 -0.4647
vn 0.7591 0.5102 0.4043
vn 0.7591 0.5102 0.4043
vn 0.7591 0.5102 0.4043
vn 0.4782 0.4896 0.7291
vn 0.4782 0.4896 0.7291
vn 0.4782 0.4896 0.7291
vn 0.1256 0.4647 -0.8765
vn 0.1256 0.4647 -0.8765
vn 0.1256 0.4647 -0.8765
vn -0.9898 0.1214 -0.0744
vn -0.9898 0.1214 -0.0744
vn -0.9898 0.1214 -0.0744
vn -0.9898 0.1214 -0.0744
vn -0.9395 -0.2877 -0.1861
vn -0.9395 -0.2877 -0.1861
vn -0.9395 -0.2877 -0.1861
vn 0.4963 0.3194 -0.8073
vn 0.4963 0.3194 -0.8073
vn 0.4963 0.3194 -0.8073
vn -0.8747 0.3399 0.3454
vn -0.8747 0.3399 0.3454
vn -0.8747 0.3399 0.3454
vn 0.3428 -0.0399 -0.9386
vn 0.3428 -0.0399 -0.9386
vn 0.3428 -0.0399 -0.9386
vn 0.5205 -0.1854 0.8335
vn 0.5205 -0.1854 0.8335
vn 0.5205 -0.1854 0.8335
vn 0.5205 -0.1854 0.8335
vn 0.7962 0.3679 -0.4804
vn 0.7962 0.3679 -0.4804
vn 0.7962 0.3679 -0.4804
vn -0.5935 -0.6339 0.4958
vn -0.5935 -0.6339 0.4958
vn -0.5935 -0.6339 0.4958
vn -0.9426 -0.1629 -0.2915
vn -0.9426 -0.1629 -0.2915
vn -0.9426 -0.1629 -0.2915
vn 0.7880 -0.1988 -0.5826
vn 0.7880 -0.1988 -0.5826
vn 0.7880 -0.1988 -0.5826
vn 0.7345 -0.6493 0.1973
vn 0.7345 -0.6493 0.1973
vn 0.7345 -0.6493 0.1973
vn 0.5279 0.3857 -0.7567
vn 0.5279 0.3857 -0.7567
vn 0.5279 0.3857 -0.7567
vn -0.8588 0.4325 -0.2747
vn -0.8588 0.4325 -0.2747
vn -0.8588 0.4325 -0.2747
vn -0.2847 0.1621 0.9448
vn -0.2847 0.1621 0.9448
vn -0.2847 0.1621 0.9448
vn 0.8083 0.1636 0.5656
vn 0.8083 0.1636 0.5656
vn 0.8083 0.1636 0.5656
vn 0.6059 0.2892 -0.7411
vn 0.6059 0.2892 -0.7411
vn 0.6059 0.2892 -0.7411
vn -0.3252 -0.4465 0.8336
vn -0.3252 -0.4465 0.8336
vn -0.3252 -0.4465 0.8336
vn -0.8441 -0.5361 0.0052
vn -0.8441 -0.5361 0.0052
vn -0.8441 -0.5361 0.0052
vn 0.7845 -0.2325 -0.5749
vn 0.7845 -0.2325 -0.5749
vn 0.7845 -0.2325 -0.5749
vn 0.9174 -0.2401 0.3175
vn 0.9174 -0.2401 0.3175
vn 0.9174 -0.2401 0.3175
vn -0.9646 -0.0115 -0.2633
vn -0.9646 -0.0115 -0.2633
vn -0.9646 -0.0115 -0.2633
vn -0.2837 0.5170 0.8076
vn -0.2837 0.5170 0.8076
vn -0.2837 0.5170 0.8076
vn 0.7287 0.6335 0.2601
vn 0.7287 0.6335 0.2601
vn 0.7287 0.6335 0.2601
vn 0.9061 0.1028 -0.4103
vn 0.9061 0.1028 -0.4103
vn 0.9061 0.1028 -0.4103
vn -0.7512 -0.3646 0.5502
vn -0.7512 -0.3646 0.5502
vn -0.7512 -0.3646 0.5502
vn -0.9018 -0.1657 -0.3992
vn -0.9018 -0.1657 -0.3992
vn -0.9018 -0.1657 -0.3992
vn 0.8268 -0.4608 -0.3225
vn 0.8268 -0.4608 -0.3225
vn 0.8268 -0.4608 -0.3225
vn 0.5884 -0.6058 0.5355
vn 0.5884 -0.6058 0.5355
vn 0.5884 -0.6058 0.5355
vn -0.7313 0.3881 -0.5608
vn -0.7313 0.3881 -0.5608
vn -0.7313 0.3881 -0.5608
vn -0.3953 0.5054 0.7670
vn -0.3953 0.5054 0.7670
vn -0.3953 0.5054 0.7670
vn 0.7295 0.2739 0.6267
vn 0.7295 0.2739 0.6267
vn 0.7295 0.2739 0.6267
vn 0.2024 0.6541 0.7289
vn 0.2024 0.6541 0.7289
vn 0.2024 0.6541 0.7289
vn 0.2024 0.6541 0.7289
vn 0.1269 0.7884 0.6020
vn 0.1269 0.7884 0.6020
vn 0.1269 0.7884 0.6020
vn 0.6838 -0.7195 -0.1213
vn 0.6838 -0.7195 -0.1213
vn 0.6838 -0.7195 -0.1213
vn -0.5730 -0.7732 0.2717
vn -0.5730 -0.7732 0.2717
vn -0.5730 -0.7732 0.2717
vn 0.3323 0.3261 0.8850
vn 0.3323 0.3261 0.8850
vn 0.3323 0.3261 0.8850
vn 0.6706 -0.2766 -0.6884
vn 0.6706 -0.2766 -0.6884
vn 0.6706 -0.2766 -0.6884
vn 0.6706 -0.2766 -0.6884
vn -0.8993 -0.4159 -0.1351
vn -0.8993 -0.4159 -0.1351
vn -0.8993 -0.4159 -0.1351
vn -0.8993 -0.4159 -0.1351
vn 0.4344 0.0477 -0.8995
vn 0.4344 0.0477 -0.8995
vn 0.4344 0.0477 -0.8995
vn -0.8912 0.1103 -0.4400
vn -0.8912 0.1103 -0.4400
vn -0.8912 0.1103 -0.4400
vn 0.3680 0.8057 -0.4641
vn 0.3680 0.8057 -0.4641
vn 0.3680 0.8057 -0.4641
vn 0.3680 0.8057 -0.4641
vn 0.2889 0.9056 -0.3105
vn 0.2889 0.9056 -0.3105
vn 0.2889 0.9056 -0.3105
vn -0.3801 -0.6980 -0.6069
vn -0.3801 -0.6980 -0.6069
vn -0.3801 -0.6980 -0.6069
vn 0.6672 -0.7195 0.1929
vn 0.6672 -0.7195 0.1929
vn 0.6672 -0.7195 0.1929
vn 0.4692 0.5258 -0.7095
vn 0.4692 0.5258 -0.7095
vn 0.4692 0.5258 -0.7095
vn -0.8961 -0.3907 -0.2104
vn -0.8961 -0.3907 -0.2104
vn -0.8961 -0.3907 -0.2104
vn -0.8961 -0.3907 -0.2104
vn 0.4733 -0.4743 0.7423
vn 0.4733 -0.4743 0.7423
vn 0.4733 -0.4743 0.7423
vn 0.4733 -0.4743 0.7423
vn -0.9797 -0.1310 0.1516
vn -0.9797 -0.1310 0.1516
vn -0.9797 -0.1310 0.1516
vn 0.1426 -0.0276 0.9894
vn 0.1426 -0.0276 0.9894
vn 0.1426 -0.0276 0.9894
vn -0.2294 0.5032 -0.8332
vn -0.2294 0.5032 -0.8332
vn -0.2294 0.5032 -0.8332
vn -0.2294 0.5032 -0.8332
vn -0.1681 0.6626 -0.7298
vn -0.1681 0.6626 -0.7298
vn -0.1681 0.6626 -0.7298
vn -0.6307 -0.7409 0.2310
vn -0.6307 -0.7409 0.2310
vn -0.6307 -0.7409 0.2310
vn 0.6378 -0.7598 -0.1260
vn 0.6378 -0.7598 -0.1260
vn 0.6378 -0.7598 -0.1260
vn -0.3293 0.1443 -0.9331
vn -0.3293 0.1443 -0.9331
vn -0.3293 0.1443 -0.9331
vn -0.6681 -0.2089 0.7142
vn -0.6681 -0.2089 0.7142
vn -0.6681 -0.2089 0.7142
vn -0.6681 -0.2089 0.7142
vn 0.9238 -0.3140 0.2192
vn 0.9238 -0.3140 0.2192
vn 0.9238 -0.3140 0.2192
vn 0.9238 -0.3140 0.2192
vn -0.4636 0.1642 0.8707
vn -0.4636 0.1642 0.8707
vn -0.4636 0.1642 0.8707
vn 0.8667 0.2537 0.4295
vn 0.8667 0.2537 0.4295
vn 0.8667 0.2537 0.4295
vn -0.7532 0.5543 -0.3543
vn -0.7532 0.5543 -0.3543
vn -0.7532 0.5543 -0.3543
vn -0.7532 0.5543 -0.3543
vn -0.6256 0.7061 -0.3318
vn -0.6256 0.7061 -0.3318
vn -0.6256 0.7061 -0.3318
vn -0.2743 -0.7362 0.6187
vn -0.2743 -0.7362 0.6187
vn -0.2743 -0.7362 0.6187
vn 0.2707 -0.7677 -0.5809
vn 0.2707 -0.7677 -0.5809
vn 0.2707 -0.7677 -0.5809
vn -0.9149 0.2041 -0.3482
vn -0.9149 0.2041 -0.3482
vn -0.9149 0.2041 -0.3482
vn 0.1010 -0.2310 0.9677
vn 0.1010 -0.2310 0.9677
vn 0.1010 -0.2310 0.9677
vn 0.1010 -0.2310 0.9677
vn 0.7444 -0.3491 -0.5692
vn 0.7444 -0.3491 -0.5692
vn 0.7444 -0.3491 -0.5692
vn 0.7444 -0.3491 -0.5692
vn 0.3741 0.1275 0.9186
vn 0.3741 0.1275 0.9186
vn 0.3741 0.1275 0.9186
vn 0.9012 0.2074 -0.3807
vn 0.9012 0.2074 -0.3807
vn 0.9012 0.2074 -0.3807
f 78/78/78 80/80/80 77/77/77
f 80/80/80 78/78/78 79/79/79
f 83/83/83 84/84/84 81/81/81
f 81/81/81 82/82/82 83/83/83
f 87/87/87 88/88/88 85/85/85
f 85/85/85 86/86/86 87/87/87
f 91/91/91 92/92/92 89/89/89
f 89/89/89 90/90/90 91/91/91
f 95/95/95 96/96/96 93/93/93
f 93/93/93 94/94/94 95/95/95
f 98/98/98 100/100/100 97/97/97
f 100/100/100 98/98/98 99/99/99
f 102/102/102 108/108/108 101/101/101
f 108/108/108 106/106/106 107/107/107
f 106/106/106 104/104/104 105/105/105
f 104/104/104 102/102/102 103/103/103
f 102/102/102 106/106/106 108/108/108
f 106/106/106 102/102/102 104/104/104
f 110/110/110 112/112/112 109/109/109
f 112/112/112 110/110/110 111/111/111
f 114/114/114 116/116/116 113/113/113
f 116/116/116 114/114/114 115/115/115
f 123/123/123 124/124/124 117/117/117
f 117/117/117 118/118/118 119/119/119
f 119/119/119 120/120/120 121/121/121
f 121/121/121 122/122/122 123/123/123
f 123/123/123 117/117/117 119/119/119
f 119/119/119 121/121/121 123/123/123
f 126/126/126 128/128/128 125/125/125
f 128/128/128 126/126/126 127/127/127
f 130/130/130 132/132/132 129/129/129
f 132/132/132 130/130/130 131/131/131
f 134/134/134 136/136/136 133/133/133
f 136/136/136 134/134/134 135/135/135
f 139/139/139 140/140/140 137/137/137
f 137/137/137 138/138/138 139/139/139
f 143/143/143 144/144/144 141/141/141
f 141/141/141 142/142/142 143/143/143
f 147/147/147 148/148/148 145/145/145
f 145/145/145 146/146/146 147/147/147
f 151/151/151 152/152/152 149/149/149
f 149/149/149 150/150/150 151/151/151
f 154/154/154 156/156/156 153/153/153
f 156/156/156 154/154/154 155/155/155
f 158/158/158 160/160/160 157/157/157
f 160/160/160 158/158/158 159/159/159
f 163/163/163 164/164/164 161/161/161
f 161/161/161 162/162/162 163/163/163
f 167/167/167 168/168/168 165/165/165
f 165/165/165 166/166/166 167/167/167
f 171/171/171 172/172/172 169/169/169
f 169/169/169 170/170/170 171/171/171
f 175/175/175 176/176/176 173/173/173
f 173/173/173 174/174/174 175/175/175
f 178/178/178 180/180/180 177/177/177
f 180/180/180 178/178/178 179/179/179
f 182/182/182 184/184/184 181/181/181
f 184/184/184 182/182/182 183/183/183
f 186/186/186 188/188/188 185/185/185
f 188/188/188 186/186/186 187/187/187
f 190/190/190 192/192/192 189/189/189
f 192/192/192 190/190/190 191/191/191
f 195/195/195 196/196/196 193/193/193
f 193/193/193 194/194/194 195/195/195
f 199/199/199 200/200/200 197/197/197
f 197/197/197 198/198/198 199/199/199
f 203/203/203 204/204/204 201/201/201
f 201/201/201 202/202/202 203/203/203
f 207/207/207 208/208/208 205/205/205
f 205/205/205 206/206/206 207/207/207
f 210/210/210 212/212/212 209/209/209
f 212/212/212 210/210/210 211/211/211
f 219/219/219 220/220/220 213/213/213
f 213/213/213 214/214/214 215/215/215
f 215/215/215 216/216/216 217/217/217
f 217/217/217 218/218/218 219/219/219
f 219/219/219 213/213/213 215/215/215
f 215/215/215 217/217/217 219/219/219
f 222/222/222 224/224/224 221/221/221
f 224/224/224 222/222/222 223/223/223
f 226/226/226 228/228/228 225/225/225
f 228/228/228 226/226/226 227/227/227
f 230/230/230 236/236/236 229/229/229
f 236/236/236 234/234/234 235/235/235
f 234/234/234 232/232/232 233/233/233
f 232/232/232 230/230/230 231/231/231
f 230/230/230 234/234/234 236/236/236
f 234/234/234 230/230/230 232/232/232
f 238/238/238 240/240/240 237/237/237
f 240/240/240 238/238/238 239/239/239
f 242/242/242 244/244/244 241/241/241
f 244/244/244 242/242/242 243/243/243
f 246/246/246 248/248/248 245/245/245
f 248/248/248 246/246/246 247/247/247
f 251/251/251 252/252/252 249/249/249
f 249/249/249 250/250/250 251/251/251
f 255/255/255 256/256/256 253/253/253
f 253/253/253 254/254/254 255/255/255
f 259/259/259 260/260/260 257/257/257
f 257/257/257 258/258/258 259/259/259
f 263/263/263 264/264/264 261/261/261
f 261/261/261 262/262/262 263/263/263
f 266/266/266 268/268/268 265/265/265
f 268/268/268 266/266/266 267/267/267
f 270/270/270 272/272/272 269/269/269
f 272/272/272 270/270/270 271/271/271
f 275/275/275 276/276/276 273/273/273
f 273/273/273 274/274/274 275/275/275
f 279/279/279 280/280/280 277/277/277
f 277/277/277 278/278/278 279/279/279
f 283/283/283 284/284/284 281/281/281
f 281/281/281 282/282/282 283/283/283
f 287/287/287 288/288/288 285/285/285
f 285/285/285 286/286/286 287/287/287
f 290/290/290 292/292/292 289/289/289
f 292/292/292 290/290/290 291/291/291
f 294/294/294 296/296/296 293/293/293
f 296/296/296 294/294/294 295/295/295
f 298/298/298 300/300/300 297/297/297
f 300/300/300 298/298/298 299/299/299
f 303/303/303 304/304/304 301/301/301
f 301/301/301 302/302/302 303/303/303
f 307/307/307 308/308/308 305/305/305
f 305/305/305 306/306/306 307/307/307
f 311/311/311 312/312/312 309/309/309
f 309/309/309 310/310/310 311/311/311
f 314/314/314 316/316/316 313/313/313
f 316/316/316 314/314/314 315/315/315
f 319/319/319 320/320/320 317/317/317
f 317/317/317 318/318/318 319/319/319
f 322/322/322 324/324/324 321/321/321
f 324/324/324 322/322/322 323/323/323
f 326/326/326 332/332/332 325/325/325
f 332/332/332 330/330/330 331/331/331
f 330/330/330 328/328/328 329/329/329
f 328/328/328 326/326/326 327/327/327
f 326/326/326 330/330/330 332/332/332
f 330/330/330 326/326/326 328/328/328
f 334/334/334 336/336/336 333/333/333
f 336/336/336 334/334/334 335/335/335
f 339/339/339 340/340/340 337/337/337
f 337/337/337 338/338/338 339/339/339
f 347/347/347 348/348/348 341/341/341
f 341/341/341 342/342/342 343/343/343
f 343/343/343 344/344/344 345/345/345
f 345/345/345 346/346/346 347/347/347
f 347/347/347 341/341/341 343/343/343
f 343/343/343 345/345/345 347/347/347
f 351/351/351 352/352/352 349/349/349
f 349/349/349 350/350/350 351/351/351
f 354/354/354 356/356/356 353/353/353
f 356/356/356 354/354/354 355/355/355
f 358/358/358 360/360/360 357/357/357
f 360/360/360 358/358/358 359/359/359
f 362/362/362 364/364/364 361/361/361
f 364/364/364 362/362/362 363/363/363
f 366/366/366 368/368/368 365/365/365
f 368/368/368 366/366/366 367/367/367
f 371/371/371 372/372/372 369/369/369
f 369/369/369 370/370/370 371/371/371
f 375/375/375 376/376/376 373/373/373
f 373/373/373 374/374/374 375/375/375
f 379/379/379 380/380/380 377/377/377
f 377/377/377 378/378/378 379/379/379
f 383/383/383 384/384/384 381/381/381
f 381/381/381 382/382/382 383/383/383
f 387/387/387 388/388/388 385/385/385
f 385/385/385 386/386/386 387/387/387
f 391/391/391 392/392/392 389/389/389
f 389/389/389 390/390/390 391/391/391
f 394/394/394 396/396/396 393/393/393
f 396/396/396 394/394/394 395/395/395
f 398/398/398 400/400/400 397/397/397
f 400/400/400 398/398/398 399/399/399
f 402/402/402 404/404/404 401/401/401
f 404/404/404 402/402/402 403/403/403
f 406/406/406 408/408/408 405/405/405
f 408/408/408 406/406/406 407/407/407
f 411/411/411 412/412/412 409/409/409
f 409/409/409 410/410/410 411/411/411
f 414/414/414 416/416/416 413/413/413
f 416/416/416 414/414/414 415/415/415
f 419/419/419 420/420/420 417/417/417
f 417/417/417 418/418/418 419/419/419
f 423/423/423 424/424/424 421/421/421
f 421/421/421 422/422/422 423/423/423
f 427/427/427 428/428/428 425/425/425
f 425/425/425 426/426/426 427/427/427
f 431/431/431 432/432/432 429/429/429
f 429/429/429 430/430/430 431/431/431
f 434/434/434 436/436/436 433/433/433
f 436/436/436 434/434/434 435/435/435
f 438/438/438 444/444/444 437/437/437
f 444/444/444 442/442/442 443/443/443
f 442/442/442 440/440/440 441/441/441
f 440/440/440 438/438/438 439/439/439
f 438/438/438 442/442/442 444/444/444
f 442/442/442 438/438/438 440/440/440
f 446/446/446 448/448/448 445/445/445
f 448/448/448 446/446/446 447/447/447
f 450/450/450 452/452/452 449/449/449
f 452/452/452 450/450/450 451/451/451
f 459/459/459 460/460/460 453/453/453
f 453/453/453 454/454/454 455/455/455
f 455/455/455 456/456/456 457/457/457
f 457/457/457 458/458/458 459/459/459
f 459/459/459 453/453/453 455/455/455
f 455/455/455 457/457/457 459/459/459
f 462/462/462 464/464/464 461/461/461
f 464/464/464 462/462/462 463/463/463
f 466/466/466 468/468/468 465/465/465
f 468/468/468 466/466/466 467/467/467
f 470/470/470 472/472/472 469/469/469
f 472/472/472 470/470/470 471/471/471
f 475/475/475 476/476/476 473/473/473
f 473/473/473 474/474/474 475/475/475
f 479/479/479 480/480/480 477/477/477
f 477/477/477 478/478/478 479/479/479
f 483/483/483 484/484/484 481/481/481
f 481/481/481 482/482/482 483/483/483
f 487/487/487 488/488/488 485/485/485
f 485/485/485 486/486/486 487/487/487
f 490/490/490 492/492/492 489/489/489
f 492/492/492 490/490/490 491/491/491
f 494/494/494 496/496/496 493/493/493
f 496/496/496 494/494/494 495/495/495
f 499/499/499 500/500/500 497/497/497
f 497/497/497 498/498/498 499/499/499
f 503/503/503 504/504/504 501/501/501
f 501/501/501 502/502/502 503/503/503
f 507/507/507 508/508/508 505/505/505
f 505/505/505 506/506/506 507/507/507
f 511/511/511 512/512/512 509/509/509
f 509/509/509 510/510/510 511/511/511
f 514/514/514 516/516/516 513/513/513
f 516/516/516 514/514/514 515/515/515
f 518/518/518 520/520/520 517/517/517
f 520/520/520 518/518/518 519/519/519
f 522/522/522 524/524/524 521/521/521
f 524/524/524 522/522/522 523/523/523
f 526/526/526 528/528/528 525/525/525
f 528/528/528 526/526/526 527/527/527
f 531/531/531 532/532/532 529/529/529
f 529/529/529 530/530/530 531/531/531
f 535/535/535 536/536/536 533/533/533
f 533/533/533 534/534/534 535/535/535
f 539/539/539 540/540/540 537/537/537
f 537/537/537 538/538/538 539/539/539
f 543/543/543 544/544/544 541/541/541
f 541/541/541 542/542/542 543/543/543
f 546/546/546 548/548/548 545/545/545
f 548/548/548 546/546/546 547/547/547
f 555/555/555 556/556/556 549/549/549
f 549/549/549 550/550/550 551/551/551
f 551/551/551 552/552/552 553/553/553
f 553/553/553 554/554/554 555/555/555
f 555/555/555 549/549/549 551/551/551
f 551/551/551 553/553/553 555/555/555
f 558/558/558 560/560/560 557/557/557
f 560/560/560 558/558/558 559/559/559
f 562/562/562 564/564/564 561/561/561
f 564/564/564 562/562/562 563/563/563
f 566/566/566 572/572/572 565/565/565
f 572/572/572 570/570/570 571/571/571
f 570/570/570 568/568/568 569/569/569
f 568/568/568 566/566/566 567/567/567
f 566/566/566 570/570/570 572/572/572
f 570/570/570 566/566/566 568/568/568
f 574/574/574 576/576/576 573/573/573
f 576/576/576 574/574/574 575/575/575
f 578/578/578 580/580/580 577/577/577
f 580/580/580 578/578/578 579/579/579
f 582/582/582 584/584/584 581/581/581
f 584/584/584 582/582/582 583/583/583
f 587/587/587 588/588/588 585/585/585
f 585/585/585 586/586/586 587/587/587
f 591/591/591 592/592/592 589/589/589
f 589/589/589 590/590/590 591/591/591
f 595/595/595 596/596/596 593/593/593
f 593/593/593 594/594/594 595/595/595
f 599/599/599 600/600/600 597/597/597
f 597/597/597 598/598/598 599/599/599
f 602/602/602 604/604/604 601/601/601
f 604/604/604 602/602/602 603/603/603
f 606/606/606 608/608/608 605/605/605
f 608/608/608 606/606/606 607/607/607
f 611/611/611 612/612/612 609/609/609
f 609/609/609 610/610/610 611/611/611
f 615/615/615 616/616/616 613/613/613
f 613/613/613 614/614/614 615/615/615
f 619/619/619 620/620/620 617/617/617
f 617/617/617 618/618/618 619/619/619
f 623/623/623 624/624/624 621/621/621
f 621/621/621 622/622/622 623/623/623
f 626/626/626 628/628/628 625/625/625
f 628/628/628 626/626/626 627/627/627
f 630/630/630 632/632/632 629/629/629
f 632/632/632 630/630/630 631/631/631
f 634/634/634 636/636/636 633/633/633
f 636/636/636 634/634/634 635/635/635
f 638/638/638 640/640/640 637/637/637
f 640/640/640 638/638/638 639/639/639
f 643/643/643 644/644/644 641/641/641
f 641/641/641 642/642/642 643/643/643
f 647/647/647 648/648/648 645/645/645
f 645/645/645 646/646/646 647/647/647
f 650/650/650 652/652/652 649/649/649
f 652/652/652 650/650/650 651/651/651
f 654/654/654 656/656/656 653/653/653
f 656/656/656 654/654/654 655/655/655
f 658/658/658 660/660/660 657/657/657
f 660/660/660 658/658/658 659/659/659
f 662/662/662 668/668/668 661/661/661
f 668/668/668 666/666/666 667/667/667
f 666/666/666 664/664/664 665/665/665
f 664/664/664 662/662/662 663/663/663
f 662/662/662 666/666/666 668/668/668
f 666/666/666 662/662/662 664/664/664
f 670/670/670 672/672/672 669/669/669
f 672/672/672 670/670/670 671/671/671
f 674/674/674 676/676/676 673/673/673
f 676/676/676 674/674/674 675/675/675
f 683/683/683 684/684/684 677/677/677
f 677/677/677 678/678/678 679/679/679
f 679/679/679 680/680/680 681/681/681
f 681/681/681 682/682/682 683/683/683
f 683/683/683 677/677/677 679/679/679
f 679/679/679 681/681/681 683/683/683
f 686/686/686 688/688/688 685/685/685
f 688/688/688 686/686/686 687/687/687
f 690/690/690 692/692/692 689/689/689
f 692/692/692 690/690/690 691/691/691
f 694/694/694 696/696/696 693/693/693
f 696/696/696 694/694/694 695/695/695
f 699/699/699 700/700/700 697/697/697
f 697/697/697 698/698/698 699/699/699
f 703/703/703 704/704/704 701/701/701
f 701/701/701 702/702/702 703/703/703
f 707/707/707 708/708/708 705/705/705
f 705/705/705 706/706/706 707/707/707
f 711/711/711 712/712/712 709/709/709
f 709/709/709 710/710/710 711/711/711
f 714/714/714 716/716/716 713/713/713
f 716/716/716 714/714/714 715/715/715
f 718/718/718 720/720/720 717/717/717
f 720/720/720 718/718/718 719/719/719
f 723/723/723 724/724/724 721/721/721
f 721/721/721 722/722/722 723/723/723
f 727/727/727 728/728/728 725/725/725
f 725/725/725 726/726/726 727/727/727
f 731/731/731 732/732/732 729/729/729
f 729/729/729 730/730/730 731/731/731
f 735/735/735 736/736/736 733/733/733
f 733/733/733 734/734/734 735/735/735
f 738/738/738 740/740/740 737/737/737
f 740/740/740 738/738/738 739/739/739
f 742/742/742 744/744/744 741/741/741
f 744/744/744 742/742/742 743/743/743
f 746/746/746 748/748/748 745/745/745
f 748/748/748 746/746/746 747/747/747
f 931/931/931 932/932/932 929/929/929
f 929/929/929 930/930/930 931/931/931
f 933/933/933 934/934/934 935/935/935
f 936/936/936 937/937/937 938/938/938
f 939/939/939 940/940/940 941/941/941
f 942/942/942 943/943/943 944/944/944
f 946/946/946 948/948/948 945/945/945
f 948/948/948 946/946/946 947/947/947
f 950/950/950 952/952/952 949/949/949
f 952/952/952 950/950/950 951/951/951
f 953/953/953 954/954/954 955/955/955
f 956/956/956 957/957/957 958/958/958
f 960/960/960 962/962/962 959/959/959
f 962/962/962 960/960/960 961/961/961
f 963/963/963 964/964/964 965/965/965
f 966/966/966 967/967/967 968/968/968
f 969/969/969 970/970/970 971/971/971
f 972/972/972 973/973/973 974/974/974
f 976/976/976 978/978/978 975/975/975
f 978/978/978 976/976/976 977/977/977
f 981/981/981 982/982/982 979/979/979
f 979/979/979 980/980/980 981/981/981
f 983/983/983 984/984/984 985/985/985
f 986/986/986 987/987/987 988/988/988
f 990/990/990 992/992/992 989/989/989
f 992/992/992 990/990/990 991/991/991
f 993/993/993 994/994/994 995/995/995
f 996/996/996 997/997/997 998/998/998
f 999/999/999 1000/1000/1000 1001/1001/1001
f 1002/1002/1002 1003/1003/1003 1004/1004/1004
f 1007/1007/1007 1008/1008/1008 1005/1005/1005
f 1005/1005/1005 1006/1006/1006 1007/1007/1007
f 1011/1011/1011 1012/1012/1012 1009/1009/1009
f 1009/1009/1009 1010/1010/1010 1011/1011/1011
f 1013/1013/1013 1014/1014/1014 1015/1015/1015
f 1016/1016/1016 1017/1017/1017 1018/1018/1018
f 1020/1020/1020 1022/1022/1022 1019/1019/1019
f 1022/1022/1022 1020/1020/1020 1021/1021/1021
f 1023/1023/1023 1024/1024/1024 1025/1025/1025
f 1026/1026/1026 1027/1027/1027 1028/1028/1028
f 1029/1029/1029 1030/1030/1030 1031/1031/1031
f 1032/1032/1032 1033/1033/1033 1034/1034/1034
f 1037/1037/1037 1038/1038/1038 1035/1035/1035
f 1035/1035/1035 1036/1036/1036 1037/1037/1037
f 1041/1041/1041 1042/1042/1042 1039/1039/1039
f 1039/1039/1039 1040/1040/1040 1041/1041/1041
f 1043/1043/1043 1044/1044/1044 1045/1045/1045
f 1046/1046/1046 1047/1047/1047 1048/1048/1048
