# Low-Poly Prehistoric Asset: mammoth_bone
mtllib camp_props.mtl
o mammoth_bone

v -0.8000 0.1200 0.0000
v -0.8000 0.0600 0.1039
v -0.8000 -0.0600 0.1039
v -0.8000 -0.1200 0.0000
v -0.8000 -0.0600 -0.1039
v -0.8000 0.0600 -0.1039
v -0.4000 0.1000 0.0000
v -0.4000 0.0500 0.0866
v -0.4000 -0.0500 0.0866
v -0.4000 -0.1000 0.0000
v -0.4000 -0.0500 -0.0866
v -0.4000 0.0500 -0.0866
v 0.0000 0.0900 0.0000
v 0.0000 0.0450 0.0779
v 0.0000 -0.0450 0.0779
v 0.0000 -0.0900 0.0000
v 0.0000 -0.0450 -0.0779
v 0.0000 0.0450 -0.0779
v 0.4000 0.1000 0.0000
v 0.4000 0.0500 0.0866
v 0.4000 -0.0500 0.0866
v 0.4000 -0.1000 0.0000
v 0.4000 -0.0500 -0.0866
v 0.4000 0.0500 -0.0866
v 0.8000 0.1200 0.0000
v 0.8000 0.0600 0.1039
v 0.8000 -0.0600 0.1039
v 0.8000 -0.1200 0.0000
v 0.8000 -0.0600 -0.1039
v 0.8000 0.0600 -0.1039
v -0.8800 0.1260 -0.1600
v -1.0000 0.1800 -0.1600
v -0.8800 0.0630 -0.0509
v -1.0000 0.0900 -0.0041
v -0.8800 -0.0630 -0.0509
v -1.0000 -0.0900 -0.0041
v -0.8800 -0.1260 -0.1600
v -1.0000 -0.1800 -0.1600
v -0.8800 -0.0630 -0.2691
v -1.0000 -0.0900 -0.3159
v -0.8800 0.0630 -0.2691
v -1.0000 0.0900 -0.3159
v -1.0800 0.0000 -0.1600
v -0.8800 0.1260 0.1600
v -1.0000 0.1800 0.1600
v -0.8800 0.0630 0.2691
v -1.0000 0.0900 0.3159
v -0.8800 -0.0630 0.2691
v -1.0000 -0.0900 0.3159
v -0.8800 -0.1260 0.1600
v -1.0000 -0.1800 0.1600
v -0.8800 -0.0630 0.0509
v -1.0000 -0.0900 0.0041
v -0.8800 0.0630 0.0509
v -1.0000 0.0900 0.0041
v -1.0800 0.0000 0.1600
v 0.8800 0.1260 -0.1600
v 1.0000 0.1800 -0.1600
v 0.8800 0.0630 -0.0509
v 1.0000 0.0900 -0.0041
v 0.8800 -0.0630 -0.0509
v 1.0000 -0.0900 -0.0041
v 0.8800 -0.1260 -0.1600
v 1.0000 -0.1800 -0.1600
v 0.8800 -0.0630 -0.2691
v 1.0000 -0.0900 -0.3159
v 0.8800 0.0630 -0.2691
v 1.0000 0.0900 -0.3159
v 1.0800 0.0000 -0.1600
v 0.8800 0.1260 0.1600
v 1.0000 0.1800 0.1600
v 0.8800 0.0630 0.2691
v 1.0000 0.0900 0.3159
v 0.8800 -0.0630 0.2691
v 1.0000 -0.0900 0.3159
v 0.8800 -0.1260 0.1600
v 1.0000 -0.1800 0.1600
v 0.8800 -0.0630 0.0509
v 1.0000 -0.0900 0.0041
v 0.8800 0.0630 0.0509
v 1.0000 0.0900 0.0041
v 1.0800 0.0000 0.1600

vn -0.0433 -0.8652 -0.4995
vn -0.0432 -0.8652 -0.4996
vn -0.0432 0.0000 -0.9991
vn -0.0432 -0.0000 -0.9991
vn -0.0432 0.8652 -0.4995
vn -0.0433 0.8652 -0.4996
vn -0.0433 0.8652 0.4995
vn -0.0432 0.8652 0.4996
vn -0.0432 0.0000 0.9991
vn -0.0432 0.0000 0.9991
vn -0.0432 -0.8652 0.4995
vn -0.0433 -0.8652 0.4996
vn -0.0216 -0.8657 -0.5001
vn -0.0217 -0.8658 -0.4999
vn -0.0217 0.0000 -0.9998
vn -0.0217 -0.0000 -0.9998
vn -0.0217 0.8657 -0.5001
vn -0.0216 0.8658 -0.4999
vn -0.0216 0.8657 0.5001
vn -0.0217 0.8658 0.4999
vn -0.0217 0.0000 0.9998
vn -0.0217 0.0000 0.9998
vn -0.0217 -0.8657 0.5001
vn -0.0216 -0.8658 0.4999
vn 0.0216 -0.8658 -0.4999
vn 0.0217 -0.8657 -0.5001
vn 0.0217 0.0000 -0.9998
vn 0.0217 0.0000 -0.9998
vn 0.0217 0.8658 -0.4999
vn 0.0216 0.8657 -0.5001
vn 0.0216 0.8658 0.4999
vn 0.0217 0.8657 0.5001
vn 0.0217 0.0000 0.9998
vn 0.0217 -0.0000 0.9998
vn 0.0217 -0.8658 0.4999
vn 0.0216 -0.8657 0.5001
vn 0.0433 -0.8652 -0.4996
vn 0.0432 -0.8652 -0.4995
vn 0.0432 0.0000 -0.9991
vn 0.0432 0.0000 -0.9991
vn 0.0432 0.8652 -0.4996
vn 0.0433 0.8652 -0.4995
vn 0.0433 0.8652 0.4996
vn 0.0432 0.8652 0.4995
vn 0.0432 0.0000 0.9991
vn 0.0432 -0.0000 0.9991
vn 0.0432 -0.8652 0.4996
vn 0.0433 -0.8652 0.4995
vn 0.3631 0.8069 0.4658
vn 0.3632 0.8068 0.4659
vn 0.3633 0.0000 0.9317
vn 0.3633 0.0000 0.9317
vn 0.3632 -0.8069 0.4658
vn 0.3631 -0.8069 0.4659
vn 0.3631 -0.8069 -0.4658
vn 0.3632 -0.8068 -0.4659
vn 0.3633 0.0000 -0.9317
vn 0.3633 0.0000 -0.9317
vn 0.3632 0.8069 -0.4658
vn 0.3631 0.8069 -0.4659
vn 0.8897 -0.3954 -0.2283
vn 0.8897 0.0000 -0.4565
vn 0.8897 0.3954 -0.2283
vn 0.8897 0.3954 0.2283
vn 0.8897 0.0000 0.4565
vn 0.8897 -0.3954 0.2283
vn 0.3631 0.8069 0.4658
vn 0.3632 0.8068 0.4659
vn 0.3633 0.0000 0.9317
vn 0.3633 0.0000 0.9317
vn 0.3632 -0.8069 0.4658
vn 0.3631 -0.8069 0.4659
vn 0.3631 -0.8069 -0.4658
vn 0.3632 -0.8068 -0.4659
vn 0.3633 0.0000 -0.9317
vn 0.3633 0.0000 -0.9317
vn 0.3632 0.8069 -0.4658
vn 0.3631 0.8069 -0.4659
vn 0.8897 -0.3954 -0.2283
vn 0.8897 0.0000 -0.4565
vn 0.8897 0.3954 -0.2283
vn 0.8897 0.3954 0.2283
vn 0.8897 0.0000 0.4565
vn 0.8897 -0.3954 0.2283
vn 0.3631 -0.8069 -0.4658
vn 0.3632 -0.8068 -0.4659
vn 0.3633 0.0000 -0.9317
vn 0.3633 0.0000 -0.9317
vn 0.3632 0.8069 -0.4658
vn 0.3631 0.8069 -0.4659
vn 0.3631 0.8069 0.4658
vn 0.3632 0.8068 0.4659
vn 0.3633 0.0000 0.9317
vn 0.3633 -0.0000 0.9317
vn 0.3632 -0.8069 0.4658
vn 0.3631 -0.8069 0.4659
vn -0.8897 -0.3954 -0.2283
vn -0.8897 0.0000 -0.4565
vn -0.8897 0.3954 -0.2283
vn -0.8897 0.3954 0.2283
vn -0.8897 0.0000 0.4565
vn -0.8897 -0.3954 0.2283
vn 0.3631 -0.8069 -0.4658
vn 0.3632 -0.8068 -0.4659
vn 0.3633 0.0000 -0.9317
vn 0.3633 0.0000 -0.9317
vn 0.3632 0.8069 -0.4658
vn 0.3631 0.8069 -0.4659
vn 0.3631 0.8069 0.4658
vn 0.3632 0.8068 0.4659
vn 0.3633 0.0000 0.9317
vn 0.3633 -0.0000 0.9317
vn 0.3632 -0.8069 0.4658
vn 0.3631 -0.8069 0.4659
vn -0.8897 -0.3954 -0.2283
vn -0.8897 0.0000 -0.4565
vn -0.8897 0.3954 -0.2283
vn -0.8897 0.3954 0.2283
vn -0.8897 0.0000 0.4565
vn -0.8897 -0.3954 0.2283

usemtl mat_accent
s 1
f 1//1 7//1 8//1
f 1//2 8//2 2//2
f 2//3 8//3 9//3
f 2//4 9//4 3//4
f 3//5 9//5 10//5
f 3//6 10//6 4//6
f 4//7 10//7 11//7
f 4//8 11//8 5//8
f 5//9 11//9 12//9
f 5//10 12//10 6//10
f 6//11 12//11 7//11
f 6//12 7//12 1//12
f 7//13 13//13 14//13
f 7//14 14//14 8//14
f 8//15 14//15 15//15
f 8//16 15//16 9//16
f 9//17 15//17 16//17
f 9//18 16//18 10//18
f 10//19 16//19 17//19
f 10//20 17//20 11//20
f 11//21 17//21 18//21
f 11//22 18//22 12//22
f 12//23 18//23 13//23
f 12//24 13//24 7//24
f 13//25 19//25 20//25
f 13//26 20//26 14//26
f 14//27 20//27 21//27
f 14//28 21//28 15//28
f 15//29 21//29 22//29
f 15//30 22//30 16//30
f 16//31 22//31 23//31
f 16//32 23//32 17//32
f 17//33 23//33 24//33
f 17//34 24//34 18//34
f 18//35 24//35 19//35
f 18//36 19//36 13//36
f 19//37 25//37 26//37
f 19//38 26//38 20//38
f 20//39 26//39 27//39
f 20//40 27//40 21//40
f 21//41 27//41 28//41
f 21//42 28//42 22//42
f 22//43 28//43 29//43
f 22//44 29//44 23//44
f 23//45 29//45 30//45
f 23//46 30//46 24//46
f 24//47 30//47 25//47
f 24//48 25//48 19//48
f 31//49 32//49 34//49
f 31//50 34//50 33//50
f 33//51 34//51 36//51
f 33//52 36//52 35//52
f 35//53 36//53 38//53
f 35//54 38//54 37//54
f 37//55 38//55 40//55
f 37//56 40//56 39//56
f 39//57 40//57 42//57
f 39//58 42//58 41//58
f 41//59 42//59 32//59
f 41//60 32//60 31//60
f 43//61 32//61 34//61
f 43//62 34//62 36//62
f 43//63 36//63 38//63
f 43//64 38//64 40//64
f 43//65 40//65 42//65
f 43//66 42//66 32//66
f 44//67 45//67 47//67
f 44//68 47//68 46//68
f 46//69 47//69 49//69
f 46//70 49//70 48//70
f 48//71 49//71 51//71
f 48//72 51//72 50//72
f 50//73 51//73 53//73
f 50//74 53//74 52//74
f 52//75 53//75 55//75
f 52//76 55//76 54//76
f 54//77 55//77 45//77
f 54//78 45//78 44//78
f 56//79 45//79 47//79
f 56//80 47//80 49//80
f 56//81 49//81 51//81
f 56//82 51//82 53//82
f 56//83 53//83 55//83
f 56//84 55//84 45//84
f 57//85 58//85 60//85
f 57//86 60//86 59//86
f 59//87 60//87 62//87
f 59//88 62//88 61//88
f 61//89 62//89 64//89
f 61//90 64//90 63//90
f 63//91 64//91 66//91
f 63//92 66//92 65//92
f 65//93 66//93 68//93
f 65//94 68//94 67//94
f 67//95 68//95 58//95
f 67//96 58//96 57//96
f 69//97 60//97 58//97
f 69//98 62//98 60//98
f 69//99 64//99 62//99
f 69//100 66//100 64//100
f 69//101 68//101 66//101
f 69//102 58//102 68//102
f 70//103 71//103 73//103
f 70//104 73//104 72//104
f 72//105 73//105 75//105
f 72//106 75//106 74//106
f 74//107 75//107 77//107
f 74//108 77//108 76//108
f 76//109 77//109 79//109
f 76//110 79//110 78//110
f 78//111 79//111 81//111
f 78//112 81//112 80//112
f 80//113 81//113 71//113
f 80//114 71//114 70//114
f 82//115 73//115 71//115
f 82//116 75//116 73//116
f 82//117 77//117 75//117
f 82//118 79//118 77//118
f 82//119 81//119 79//119
f 82//120 71//120 81//120

