# Low-Poly Prehistoric Asset: palm_tree
mtllib camp_props.mtl
o palm_tree

v 0.4200 0.0000 0.0000
v 0.2100 0.0000 0.3637
v -0.2100 0.0000 0.3637
v -0.4200 0.0000 0.0000
v -0.2100 0.0000 -0.3637
v 0.2100 0.0000 -0.3637
v 0.4100 1.0000 0.0200
v 0.2300 1.0000 0.3318
v -0.1300 1.0000 0.3318
v -0.3100 1.0000 0.0200
v -0.1300 1.0000 -0.2918
v 0.2300 1.0000 -0.2918
v 0.4800 2.2000 0.0600
v 0.3200 2.2000 0.3371
v 0.0000 2.2000 0.3371
v -0.1600 2.2000 0.0600
v -0.0000 2.2000 -0.2171
v 0.3200 2.2000 -0.2171
v 0.5600 3.4000 0.1200
v 0.4200 3.4000 0.3625
v 0.1400 3.4000 0.3625
v 0.0000 3.4000 0.1200
v 0.1400 3.4000 -0.1225
v 0.4200 3.4000 -0.1225
v 0.6500 4.4000 0.1800
v 0.5250 4.4000 0.3965
v 0.2750 4.4000 0.3965
v 0.1500 4.4000 0.1800
v 0.2750 4.4000 -0.0365
v 0.5250 4.4000 -0.0365
v 0.7000 5.2000 0.2200
v 0.5900 5.2000 0.4105
v 0.3700 5.2000 0.4105
v 0.2600 5.2000 0.2200
v 0.3700 5.2000 0.0295
v 0.5900 5.2000 0.0295
v 0.4800 5.5000 0.2200
v 0.4800 5.3000 0.2200
v 1.8800 5.8000 0.7700
v 1.8800 5.8000 -0.3300
v 1.8800 5.9000 0.2200
v 3.2800 5.0000 0.6050
v 3.2800 5.0000 -0.1650
v 3.2800 5.0800 0.2200
v 4.0800 4.0000 0.2200
v 0.4800 5.3000 0.2200
v 0.7037 5.8000 1.7074
v 1.6563 5.8000 1.1574
v 1.1800 5.9000 1.4324
v 1.5466 5.0000 2.8374
v 2.2134 5.0000 2.4524
v 1.8800 5.0800 2.6449
v 2.2800 4.0000 3.3377
v 0.4800 5.3000 0.2200
v -0.6963 5.8000 1.1574
v 0.2563 5.8000 1.7074
v -0.2200 5.9000 1.4324
v -1.2534 5.0000 2.4524
v -0.5866 5.0000 2.8374
v -0.9200 5.0800 2.6449
v -1.3200 4.0000 3.3377
v 0.4800 5.3000 0.2200
v -0.9200 5.8000 -0.3300
v -0.9200 5.8000 0.7700
v -0.9200 5.9000 0.2200
v -2.3200 5.0000 -0.1650
v -2.3200 5.0000 0.6050
v -2.3200 5.0800 0.2200
v -3.1200 4.0000 0.2200
v 0.4800 5.3000 0.2200
v 0.2563 5.8000 -1.2674
v -0.6963 5.8000 -0.7174
v -0.2200 5.9000 -0.9924
v -0.5866 5.0000 -2.3974
v -1.2534 5.0000 -2.0124
v -0.9200 5.0800 -2.2049
v -1.3200 4.0000 -2.8977
v 0.4800 5.3000 0.2200
v 1.6563 5.8000 -0.7174
v 0.7037 5.8000 -1.2674
v 1.1800 5.9000 -0.9924
v 2.2134 5.0000 -2.0124
v 1.5466 5.0000 -2.3974
v 1.8800 5.0800 -2.2049
v 2.2800 4.0000 -2.8977

vn 0.8660 -0.0013 0.5000
vn 0.8660 -0.0014 0.5000
vn 0.0000 0.0319 0.9995
vn 0.0000 0.0319 0.9995
vn -0.8629 0.0849 0.4982
vn -0.8629 0.0850 0.4982
vn -0.8613 0.1047 -0.4972
vn -0.8613 0.1047 -0.4973
vn 0.0000 0.0717 -0.9974
vn 0.0000 0.0717 -0.9974
vn 0.8659 0.0186 -0.4999
vn 0.8659 0.0187 -0.4999
vn 0.8641 -0.0670 0.4989
vn 0.8641 -0.0670 0.4988
vn 0.0000 -0.0044 1.0000
vn 0.0000 -0.0044 1.0000
vn -0.8624 0.0912 0.4980
vn -0.8624 0.0912 0.4979
vn -0.8593 0.1240 -0.4962
vn -0.8594 0.1240 -0.4961
vn 0.0000 0.0621 -0.9981
vn 0.0000 0.0621 -0.9981
vn 0.8655 -0.0338 -0.4998
vn 0.8656 -0.0338 -0.4997
vn 0.8631 -0.0825 0.4983
vn 0.8631 -0.0825 0.4983
vn 0.0000 -0.0212 0.9998
vn 0.0000 -0.0212 0.9998
vn -0.8625 0.0901 0.4979
vn -0.8625 0.0901 0.4980
vn -0.8576 0.1391 -0.4951
vn -0.8576 0.1391 -0.4952
vn 0.0000 0.0786 -0.9969
vn 0.0000 0.0786 -0.9969
vn 0.8656 -0.0327 -0.4997
vn 0.8655 -0.0327 -0.4998
vn 0.8610 -0.1073 0.4971
vn 0.8610 -0.1073 0.4971
vn 0.0000 -0.0340 0.9994
vn 0.0000 -0.0340 0.9994
vn -0.8617 0.0994 0.4975
vn -0.8617 0.0994 0.4975
vn -0.8552 0.1579 -0.4937
vn -0.8552 0.1579 -0.4937
vn 0.0000 0.0857 -0.9963
vn 0.0000 0.0857 -0.9963
vn 0.8650 -0.0479 -0.4994
vn 0.8650 -0.0479 -0.4994
vn 0.8633 -0.0789 0.4985
vn 0.8633 -0.0789 0.4985
vn 0.0000 -0.0175 0.9998
vn 0.0000 -0.0175 0.9998
vn -0.8622 0.0937 0.4979
vn -0.8622 0.0937 0.4978
vn -0.8571 0.1426 -0.4949
vn -0.8572 0.1426 -0.4949
vn 0.0000 0.0822 -0.9966
vn 0.0000 0.0822 -0.9966
vn 0.8656 -0.0291 -0.4998
vn 0.8657 -0.0291 -0.4998
vn -0.3885 0.9066 0.1648
vn 0.3885 -0.9066 -0.1648
vn -0.3885 0.9066 -0.1648
vn 0.3885 -0.9066 0.1648
vn 0.5039 0.8457 0.1757
vn 0.4993 0.8525 0.1550
vn -0.4975 -0.8493 -0.1765
vn -0.5038 -0.8499 -0.1545
vn 0.4975 0.8493 -0.1765
vn 0.5038 0.8499 -0.1545
vn -0.5039 -0.8457 0.1757
vn -0.4993 -0.8525 0.1550
vn 0.7975 0.5907 0.1227
vn -0.7975 -0.5907 -0.1227
vn 0.7975 0.5907 -0.1227
vn -0.7975 -0.5907 0.1227
vn -0.3370 0.9066 -0.2541
vn 0.3370 -0.9066 0.2541
vn -0.0515 0.9066 -0.4189
vn 0.0515 -0.9066 0.4189
vn 0.0998 0.8457 0.5243
vn 0.1154 0.8525 0.5099
vn -0.0959 -0.8493 -0.5190
vn -0.1181 -0.8499 -0.5136
vn 0.4016 0.8493 0.3426
vn 0.3857 0.8499 0.3591
vn -0.4042 -0.8457 -0.3486
vn -0.3839 -0.8525 -0.3549
vn 0.2925 0.5907 0.7520
vn -0.2925 -0.5907 -0.7520
vn 0.5051 0.5907 0.6293
vn -0.5051 -0.5907 -0.6293
vn 0.0515 0.9066 -0.4189
vn -0.0515 -0.9066 0.4189
vn 0.3370 0.9066 -0.2541
vn -0.3370 -0.9066 0.2541
vn -0.4042 0.8457 0.3486
vn -0.3839 0.8525 0.3549
vn 0.4016 -0.8493 -0.3426
vn 0.3857 -0.8499 -0.3591
vn -0.0959 0.8493 0.5190
vn -0.1181 0.8499 0.5136
vn 0.0998 -0.8457 -0.5243
vn 0.1154 -0.8525 -0.5099
vn -0.5051 0.5907 0.6293
vn 0.5051 -0.5907 -0.6293
vn -0.2925 0.5907 0.7520
vn 0.2925 -0.5907 -0.7520
vn 0.3885 0.9066 -0.1648
vn -0.3885 -0.9066 0.1648
vn 0.3885 0.9066 0.1648
vn -0.3885 -0.9066 -0.1648
vn -0.5039 0.8457 -0.1757
vn -0.4993 0.8525 -0.1550
vn 0.4975 -0.8493 0.1765
vn 0.5038 -0.8499 0.1545
vn -0.4975 0.8493 0.1765
vn -0.5038 0.8499 0.1545
vn 0.5039 -0.8457 -0.1757
vn 0.4993 -0.8525 -0.1550
vn -0.7975 0.5907 -0.1227
vn 0.7975 -0.5907 0.1227
vn -0.7975 0.5907 0.1227
vn 0.7975 -0.5907 -0.1227
vn 0.3370 0.9066 0.2541
vn -0.3370 -0.9066 -0.2541
vn 0.0515 0.9066 0.4189
vn -0.0515 -0.9066 -0.4189
vn -0.0998 0.8457 -0.5243
vn -0.1154 0.8525 -0.5099
vn 0.0959 -0.8493 0.5190
vn 0.1181 -0.8499 0.5136
vn -0.4016 0.8493 -0.3426
vn -0.3857 0.8499 -0.3591
vn 0.4042 -0.8457 0.3486
vn 0.3839 -0.8525 0.3549
vn -0.2925 0.5907 -0.7520
vn 0.2925 -0.5907 0.7520
vn -0.5051 0.5907 -0.6293
vn 0.5051 -0.5907 0.6293
vn -0.0515 0.9066 0.4189
vn 0.0515 -0.9066 -0.4189
vn -0.3370 0.9066 0.2541
vn 0.3370 -0.9066 -0.2541
vn 0.4042 0.8457 -0.3486
vn 0.3839 0.8525 -0.3549
vn -0.4016 -0.8493 0.3426
vn -0.3857 -0.8499 0.3591
vn 0.0959 0.8493 -0.5190
vn 0.1181 0.8499 -0.5136
vn -0.0998 -0.8457 0.5243
vn -0.1154 -0.8525 0.5099
vn 0.5051 0.5907 -0.6293
vn -0.5051 -0.5907 0.6293
vn 0.2925 0.5907 -0.7520
vn -0.2925 -0.5907 0.7520

usemtl mat_wood
s 1
f 1//1 7//1 8//1
f 1//2 8//2 2//2
f 2//3 8//3 9//3
f 2//4 9//4 3//4
f 3//5 9//5 10//5
f 3//6 10//6 4//6
f 4//7 10//7 11//7
f 4//8 11//8 5//8
f 5//9 11//9 12//9
f 5//10 12//10 6//10
f 6//11 12//11 7//11
f 6//12 7//12 1//12
f 7//13 13//13 14//13
f 7//14 14//14 8//14
f 8//15 14//15 15//15
f 8//16 15//16 9//16
f 9//17 15//17 16//17
f 9//18 16//18 10//18
f 10//19 16//19 17//19
f 10//20 17//20 11//20
f 11//21 17//21 18//21
f 11//22 18//22 12//22
f 12//23 18//23 13//23
f 12//24 13//24 7//24
f 13//25 19//25 20//25
f 13//26 20//26 14//26
f 14//27 20//27 21//27
f 14//28 21//28 15//28
f 15//29 21//29 22//29
f 15//30 22//30 16//30
f 16//31 22//31 23//31
f 16//32 23//32 17//32
f 17//33 23//33 24//33
f 17//34 24//34 18//34
f 18//35 24//35 19//35
f 18//36 19//36 13//36
f 19//37 25//37 26//37
f 19//38 26//38 20//38
f 20//39 26//39 27//39
f 20//40 27//40 21//40
f 21//41 27//41 28//41
f 21//42 28//42 22//42
f 22//43 28//43 29//43
f 22//44 29//44 23//44
f 23//45 29//45 30//45
f 23//46 30//46 24//46
f 24//47 30//47 25//47
f 24//48 25//48 19//48
f 25//49 31//49 32//49
f 25//50 32//50 26//50
f 26//51 32//51 33//51
f 26//52 33//52 27//52
f 27//53 33//53 34//53
f 27//54 34//54 28//54
f 28//55 34//55 35//55
f 28//56 35//56 29//56
f 29//57 35//57 36//57
f 29//58 36//58 30//58
f 30//59 36//59 31//59
f 30//60 31//60 25//60

usemtl mat_hair
s 1
f 38//61 39//61 41//61
f 41//62 39//62 38//62
f 38//63 41//63 40//63
f 40//64 41//64 38//64
f 39//65 42//65 44//65
f 39//66 44//66 41//66
f 41//67 44//67 42//67
f 41//68 42//68 39//68
f 41//69 44//69 43//69
f 41//70 43//70 40//70
f 40//71 43//71 44//71
f 40//72 44//72 41//72
f 42//73 45//73 44//73
f 44//74 45//74 42//74
f 44//75 45//75 43//75
f 43//76 45//76 44//76
f 46//77 47//77 49//77
f 49//78 47//78 46//78
f 46//79 49//79 48//79
f 48//80 49//80 46//80
f 47//81 50//81 52//81
f 47//82 52//82 49//82
f 49//83 52//83 50//83
f 49//84 50//84 47//84
f 49//85 52//85 51//85
f 49//86 51//86 48//86
f 48//87 51//87 52//87
f 48//88 52//88 49//88
f 50//89 53//89 52//89
f 52//90 53//90 50//90
f 52//91 53//91 51//91
f 51//92 53//92 52//92
f 54//93 55//93 57//93
f 57//94 55//94 54//94
f 54//95 57//95 56//95
f 56//96 57//96 54//96
f 55//97 58//97 60//97
f 55//98 60//98 57//98
f 57//99 60//99 58//99
f 57//100 58//100 55//100
f 57//101 60//101 59//101
f 57//102 59//102 56//102
f 56//103 59//103 60//103
f 56//104 60//104 57//104
f 58//105 61//105 60//105
f 60//106 61//106 58//106
f 60//107 61//107 59//107
f 59//108 61//108 60//108
f 62//109 63//109 65//109
f 65//110 63//110 62//110
f 62//111 65//111 64//111
f 64//112 65//112 62//112
f 63//113 66//113 68//113
f 63//114 68//114 65//114
f 65//115 68//115 66//115
f 65//116 66//116 63//116
f 65//117 68//117 67//117
f 65//118 67//118 64//118
f 64//119 67//119 68//119
f 64//120 68//120 65//120
f 66//121 69//121 68//121
f 68//122 69//122 66//122
f 68//123 69//123 67//123
f 67//124 69//124 68//124
f 70//125 71//125 73//125
f 73//126 71//126 70//126
f 70//127 73//127 72//127
f 72//128 73//128 70//128
f 71//129 74//129 76//129
f 71//130 76//130 73//130
f 73//131 76//131 74//131
f 73//132 74//132 71//132
f 73//133 76//133 75//133
f 73//134 75//134 72//134
f 72//135 75//135 76//135
f 72//136 76//136 73//136
f 74//137 77//137 76//137
f 76//138 77//138 74//138
f 76//139 77//139 75//139
f 75//140 77//140 76//140
f 78//141 79//141 81//141
f 81//142 79//142 78//142
f 78//143 81//143 80//143
f 80//144 81//144 78//144
f 79//145 82//145 84//145
f 79//146 84//146 81//146
f 81//147 84//147 82//147
f 81//148 82//148 79//148
f 81//149 84//149 83//149
f 81//150 83//150 80//150
f 80//151 83//151 84//151
f 80//152 84//152 81//152
f 82//153 85//153 84//153
f 84//154 85//154 82//154
f 84//155 85//155 83//155
f 83//156 85//156 84//156

