# Low-Poly Prehistoric Asset: primitive_crate
mtllib camp_props.mtl
o primitive_crate

v -0.4500 0.0000 -0.4500
v 0.4500 0.0000 -0.4500
v 0.4500 0.9000 -0.4500
v -0.4500 0.9000 -0.4500
v -0.4500 0.0000 0.4500
v 0.4500 0.0000 0.4500
v 0.4500 0.9000 0.4500
v -0.4500 0.9000 0.4500
v -0.4650 0.3600 -0.4650
v 0.4650 0.3600 -0.4650
v 0.4650 0.5400 -0.4650
v -0.4650 0.5400 -0.4650
v -0.4650 0.3600 0.4650
v 0.4650 0.3600 0.4650
v 0.4650 0.5400 0.4650
v -0.4650 0.5400 0.4650

vn 0.0000 0.0000 -1.0000
vn 0.0000 0.0000 -1.0000
vn 0.0000 -0.0000 1.0000
vn 0.0000 0.0000 1.0000
vn -1.0000 0.0000 0.0000
vn -1.0000 0.0000 0.0000
vn 1.0000 0.0000 0.0000
vn 1.0000 0.0000 0.0000
vn 0.0000 1.0000 0.0000
vn 0.0000 1.0000 0.0000
vn 0.0000 -1.0000 0.0000
vn 0.0000 -1.0000 0.0000
vn 0.0000 0.0000 -1.0000
vn 0.0000 0.0000 -1.0000
vn 0.0000 -0.0000 1.0000
vn 0.0000 0.0000 1.0000
vn -1.0000 0.0000 0.0000
vn -1.0000 0.0000 0.0000
vn 1.0000 0.0000 0.0000
vn 1.0000 0.0000 0.0000

usemtl mat_wood
s 1
f 1//1 4//1 3//1
f 1//2 3//2 2//2
f 6//3 7//3 8//3
f 6//4 8//4 5//4
f 5//5 8//5 4//5
f 5//6 4//6 1//6
f 2//7 3//7 7//7
f 2//8 7//8 6//8
f 4//9 8//9 7//9
f 4//10 7//10 3//10
f 1//11 2//11 6//11
f 1//12 6//12 5//12

usemtl mat_clothing
s 1
f 9//13 12//13 11//13
f 9//14 11//14 10//14
f 14//15 15//15 16//15
f 14//16 16//16 13//16
f 13//17 16//17 12//17
f 13//18 12//18 9//18
f 10//19 11//19 15//19
f 10//20 15//20 14//20

