# Low-Poly Prehistoric Asset: primitive_hut
mtllib camp_props.mtl
o primitive_hut

v 0.0000 3.2000 -1.5000
v 0.0000 3.2000 1.5000
v -2.4000 0.0000 -1.5000
v 2.4000 0.0000 -1.5000
v -2.4000 0.0000 1.5000
v 2.4000 0.0000 1.5000

vn 0.0000 1.0000 0.0000
vn 0.0000 1.0000 0.0000
vn -0.8000 0.6000 0.0000
vn -0.8000 0.6000 0.0000
vn 0.8000 0.6000 -0.0000
vn 0.8000 0.6000 0.0000
vn 0.0000 0.0000 1.0000
vn 0.0000 1.0000 0.0000
vn 0.0000 1.0000 0.0000
vn 0.0000 1.0000 0.0000
vn 0.0000 1.0000 0.0000

usemtl mat_wood
s 1
f 1//1 2//1 2//1
f 1//2 2//2 1//2
f 3//8 4//8 4//8
f 3//9 4//9 3//9
f 5//10 6//10 6//10
f 5//11 6//11 5//11

usemtl mat_clothing
s 1
f 3//3 5//3 2//3
f 3//4 2//4 1//4
f 1//5 2//5 6//5
f 1//6 6//6 4//6
f 5//7 6//7 2//7

