# Low-Poly Prehistoric Asset: primitive_barrel
mtllib camp_props.mtl
o primitive_barrel

v 0.4000 0.0000 0.0000
v 0.2828 0.0000 0.2828
v 0.0000 0.0000 0.4000
v -0.2828 0.0000 0.2828
v -0.4000 0.0000 0.0000
v -0.2828 0.0000 -0.2828
v -0.0000 0.0000 -0.4000
v 0.2828 0.0000 -0.2828
v 0.4800 0.2500 0.0000
v 0.3394 0.2500 0.3394
v 0.0000 0.2500 0.4800
v -0.3394 0.2500 0.3394
v -0.4800 0.2500 0.0000
v -0.3394 0.2500 -0.3394
v -0.0000 0.2500 -0.4800
v 0.3394 0.2500 -0.3394
v 0.5200 0.5500 0.0000
v 0.3677 0.5500 0.3677
v 0.0000 0.5500 0.5200
v -0.3677 0.5500 0.3677
v -0.5200 0.5500 0.0000
v -0.3677 0.5500 -0.3677
v -0.0000 0.5500 -0.5200
v 0.3677 0.5500 -0.3677
v 0.4800 0.8500 0.0000
v 0.3394 0.8500 0.3394
v 0.0000 0.8500 0.4800
v -0.3394 0.8500 0.3394
v -0.4800 0.8500 0.0000
v -0.3394 0.8500 -0.3394
v -0.0000 0.8500 -0.4800
v 0.3394 0.8500 -0.3394
v 0.4000 1.1000 0.0000
v 0.2828 1.1000 0.2828
v 0.0000 1.1000 0.4000
v -0.2828 1.1000 0.2828
v -0.4000 1.1000 0.0000
v -0.2828 1.1000 -0.2828
v -0.0000 1.1000 -0.4000
v 0.2828 1.1000 -0.2828
v 0.0000 0.0000 0.0000
v 0.0000 1.1000 0.0000
v 0.4900 0.2200 0.0000
v 0.4900 0.2800 0.0000
v 0.3465 0.2200 0.3465
v 0.3465 0.2800 0.3465
v 0.0000 0.2200 0.4900
v 0.0000 0.2800 0.4900
v -0.3465 0.2200 0.3465
v -0.3465 0.2800 0.3465
v -0.4900 0.2200 0.0000
v -0.4900 0.2800 0.0000
v -0.3465 0.2200 -0.3465
v -0.3465 0.2800 -0.3465
v -0.0000 0.2200 -0.4900
v -0.0000 0.2800 -0.4900
v 0.3465 0.2200 -0.3465
v 0.3465 0.2800 -0.3465
v 0.4900 0.8200 0.0000
v 0.4900 0.8800 0.0000
v 0.3465 0.8200 0.3465
v 0.3465 0.8800 0.3465
v 0.0000 0.8200 0.4900
v 0.0000 0.8800 0.4900
v -0.3465 0.8200 0.3465
v -0.3465 0.8800 0.3465
v -0.4900 0.8200 0.0000
v -0.4900 0.8800 0.0000
v -0.3465 0.8200 -0.3465
v -0.3465 0.8800 -0.3465
v -0.0000 0.8200 -0.4900
v -0.0000 0.8800 -0.4900
v 0.3465 0.8200 -0.3465
v 0.3465 0.8800 -0.3465

vn -0.8859 0.2837 -0.3671
vn -0.8860 0.2835 -0.3670
vn -0.3671 0.2835 -0.8859
vn -0.3670 0.2837 -0.8859
vn 0.3671 0.2837 -0.8859
vn 0.3670 0.2835 -0.8860
vn 0.8859 0.2835 -0.3671
vn 0.8859 0.2837 -0.3670
vn 0.8859 0.2837 0.3671
vn 0.8860 0.2835 0.3670
vn 0.3671 0.2835 0.8859
vn 0.3670 0.2837 0.8859
vn -0.3671 0.2837 0.8859
vn -0.3670 0.2835 0.8860
vn -0.8859 0.2835 0.3671
vn -0.8859 0.2837 0.3670
vn -0.9169 0.1223 -0.3798
vn -0.9170 0.1223 -0.3798
vn -0.3798 0.1223 -0.9169
vn -0.3798 0.1223 -0.9169
vn 0.3798 0.1223 -0.9169
vn 0.3798 0.1223 -0.9170
vn 0.9169 0.1223 -0.3798
vn 0.9169 0.1223 -0.3798
vn 0.9169 0.1223 0.3798
vn 0.9170 0.1223 0.3798
vn 0.3798 0.1223 0.9169
vn 0.3798 0.1223 0.9169
vn -0.3798 0.1223 0.9169
vn -0.3798 0.1223 0.9170
vn -0.9169 0.1223 0.3798
vn -0.9169 0.1223 0.3798
vn -0.9169 -0.1223 -0.3798
vn -0.9169 -0.1223 -0.3798
vn -0.3798 -0.1223 -0.9170
vn -0.3798 -0.1223 -0.9169
vn 0.3798 -0.1223 -0.9169
vn 0.3798 -0.1223 -0.9169
vn 0.9170 -0.1223 -0.3798
vn 0.9169 -0.1223 -0.3798
vn 0.9169 -0.1223 0.3798
vn 0.9169 -0.1223 0.3798
vn 0.3798 -0.1223 0.9170
vn 0.3798 -0.1223 0.9169
vn -0.3798 -0.1223 0.9169
vn -0.3798 -0.1223 0.9169
vn -0.9170 -0.1223 0.3798
vn -0.9169 -0.1223 0.3798
vn -0.8859 -0.2837 -0.3670
vn -0.8859 -0.2835 -0.3671
vn -0.3670 -0.2835 -0.8860
vn -0.3671 -0.2837 -0.8859
vn 0.3670 -0.2837 -0.8859
vn 0.3671 -0.2835 -0.8859
vn 0.8860 -0.2835 -0.3670
vn 0.8859 -0.2837 -0.3671
vn 0.8859 -0.2837 0.3670
vn 0.8859 -0.2835 0.3671
vn 0.3670 -0.2835 0.8860
vn 0.3671 -0.2837 0.8859
vn -0.3670 -0.2837 0.8859
vn -0.3671 -0.2835 0.8859
vn -0.8860 -0.2835 0.3670
vn -0.8859 -0.2837 0.3671
vn 0.0000 1.0000 0.0000
vn 0.0000 -1.0000 0.0000
vn 0.0000 1.0000 0.0000
vn 0.0000 -1.0000 0.0000
vn 0.0000 1.0000 -0.0000
vn 0.0000 -1.0000 0.0000
vn 0.0000 1.0000 0.0000
vn 0.0000 -1.0000 0.0000
vn 0.0000 1.0000 0.0000
vn -0.0000 -1.0000 0.0000
vn 0.0000 1.0000 0.0000
vn 0.0000 -1.0000 0.0000
vn 0.0000 1.0000 0.0000
vn 0.0000 -1.0000 -0.0000
vn -0.0000 1.0000 0.0000
vn 0.0000 -1.0000 0.0000
vn -0.9239 0.0000 -0.3826
vn -0.9239 0.0000 -0.3826
vn -0.3826 0.0000 -0.9239
vn -0.3826 0.0000 -0.9239
vn 0.3826 0.0000 -0.9239
vn 0.3826 0.0000 -0.9239
vn 0.9239 0.0000 -0.3826
vn 0.9239 0.0000 -0.3826
vn 0.9239 0.0000 0.3826
vn 0.9239 -0.0000 0.3826
vn 0.3826 0.0000 0.9239
vn 0.3826 -0.0000 0.9239
vn -0.3826 0.0000 0.9239
vn -0.3826 0.0000 0.9239
vn -0.9239 0.0000 0.3826
vn -0.9239 0.0000 0.3826
vn -0.9239 0.0000 -0.3826
vn -0.9239 0.0000 -0.3826
vn -0.3826 0.0000 -0.9239
vn -0.3826 0.0000 -0.9239
vn 0.3826 0.0000 -0.9239
vn 0.3826 0.0000 -0.9239
vn 0.9239 0.0000 -0.3826
vn 0.9239 0.0000 -0.3826
vn 0.9239 0.0000 0.3826
vn 0.9239 -0.0000 0.3826
vn 0.3826 0.0000 0.9239
vn 0.3826 -0.0000 0.9239
vn -0.3826 0.0000 0.9239
vn -0.3826 0.0000 0.9239
vn -0.9239 0.0000 0.3826
vn -0.9239 0.0000 0.3826

usemtl mat_wood
s 1
f 1//1 2//1 10//1
f 1//2 10//2 9//2
f 2//3 3//3 11//3
f 2//4 11//4 10//4
f 3//5 4//5 12//5
f 3//6 12//6 11//6
f 4//7 5//7 13//7
f 4//8 13//8 12//8
f 5//9 6//9 14//9
f 5//10 14//10 13//10
f 6//11 7//11 15//11
f 6//12 15//12 14//12
f 7//13 8//13 16//13
f 7//14 16//14 15//14
f 8//15 1//15 9//15
f 8//16 9//16 16//16
f 9//17 10//17 18//17
f 9//18 18//18 17//18
f 10//19 11//19 19//19
f 10//20 19//20 18//20
f 11//21 12//21 20//21
f 11//22 20//22 19//22
f 12//23 13//23 21//23
f 12//24 21//24 20//24
f 13//25 14//25 22//25
f 13//26 22//26 21//26
f 14//27 15//27 23//27
f 14//28 23//28 22//28
f 15//29 16//29 24//29
f 15//30 24//30 23//30
f 16//31 9//31 17//31
f 16//32 17//32 24//32
f 17//33 18//33 26//33
f 17//34 26//34 25//34
f 18//35 19//35 27//35
f 18//36 27//36 26//36
f 19//37 20//37 28//37
f 19//38 28//38 27//38
f 20//39 21//39 29//39
f 20//40 29//40 28//40
f 21//41 22//41 30//41
f 21//42 30//42 29//42
f 22//43 23//43 31//43
f 22//44 31//44 30//44
f 23//45 24//45 32//45
f 23//46 32//46 31//46
f 24//47 17//47 25//47
f 24//48 25//48 32//48
f 25//49 26//49 34//49
f 25//50 34//50 33//50
f 26//51 27//51 35//51
f 26//52 35//52 34//52
f 27//53 28//53 36//53
f 27//54 36//54 35//54
f 28//55 29//55 37//55
f 28//56 37//56 36//56
f 29//57 30//57 38//57
f 29//58 38//58 37//58
f 30//59 31//59 39//59
f 30//60 39//60 38//60
f 31//61 32//61 40//61
f 31//62 40//62 39//62
f 32//63 25//63 33//63
f 32//64 33//64 40//64
f 41//65 2//65 1//65
f 42//66 33//66 34//66
f 41//67 3//67 2//67
f 42//68 34//68 35//68
f 41//69 4//69 3//69
f 42//70 35//70 36//70
f 41//71 5//71 4//71
f 42//72 36//72 37//72
f 41//73 6//73 5//73
f 42//74 37//74 38//74
f 41//75 7//75 6//75
f 42//76 38//76 39//76
f 41//77 8//77 7//77
f 42//78 39//78 40//78
f 41//79 1//79 8//79
f 42//80 40//80 33//80

usemtl mat_stone
s 1
f 43//81 45//81 46//81
f 43//82 46//82 44//82
f 45//83 47//83 48//83
f 45//84 48//84 46//84
f 47//85 49//85 50//85
f 47//86 50//86 48//86
f 49//87 51//87 52//87
f 49//88 52//88 50//88
f 51//89 53//89 54//89
f 51//90 54//90 52//90
f 53//91 55//91 56//91
f 53//92 56//92 54//92
f 55//93 57//93 58//93
f 55//94 58//94 56//94
f 57//95 43//95 44//95
f 57//96 44//96 58//96
f 59//97 61//97 62//97
f 59//98 62//98 60//98
f 61//99 63//99 64//99
f 61//100 64//100 62//100
f 63//101 65//101 66//101
f 63//102 66//102 64//102
f 65//103 67//103 68//103
f 65//104 68//104 66//104
f 67//105 69//105 70//105
f 67//106 70//106 68//106
f 69//107 71//107 72//107
f 69//108 72//108 70//108
f 71//109 73//109 74//109
f 71//110 74//110 72//110
f 73//111 59//111 60//111
f 73//112 60//112 74//112

