# Prehistoric Asset: stone_wheel
mtllib items.mtl
o stone_wheel

v 0.3650 0.0700 0.0000
v 0.3650 -0.0700 0.0000
v 0.1275 0.0700 0.0000
v 0.1275 -0.0700 0.0000
v 0.2927 0.0700 0.1690
v 0.2927 -0.0700 0.1690
v 0.0987 0.0700 0.0570
v 0.0987 -0.0700 0.0570
v 0.1790 0.0700 0.3100
v 0.1790 -0.0700 0.3100
v 0.0620 0.0700 0.1074
v 0.0620 -0.0700 0.1074
v 0.0000 0.0700 0.3320
v 0.0000 -0.0700 0.3320
v 0.0000 0.0700 0.1110
v 0.0000 -0.0700 0.1110
v -0.1810 0.0700 0.3135
v -0.1810 -0.0700 0.3135
v -0.0630 0.0700 0.1091
v -0.0630 -0.0700 0.1091
v -0.2944 0.0700 0.1700
v -0.2944 -0.0700 0.1700
v -0.0996 0.0700 0.0575
v -0.0996 -0.0700 0.0575
v -0.3660 0.0700 0.0000
v -0.3660 -0.0700 0.0000
v -0.1280 0.0700 0.0000
v -0.1280 -0.0700 0.0000
v -0.2910 0.0700 -0.1680
v -0.2910 -0.0700 -0.1680
v -0.0979 0.0700 -0.0565
v -0.0979 -0.0700 -0.0565
v -0.1800 0.0700 -0.3118
v -0.1800 -0.0700 -0.3118
v -0.0625 0.0700 -0.1083
v -0.0625 -0.0700 -0.1083
v -0.0000 0.0700 -0.3350
v -0.0000 -0.0700 -0.3350
v -0.0000 0.0700 -0.1125
v -0.0000 -0.0700 -0.1125
v 0.1815 0.0700 -0.3144
v 0.1815 -0.0700 -0.3144
v 0.0632 0.0700 -0.1096
v 0.0632 -0.0700 -0.1096
v 0.2936 0.0700 -0.1695
v 0.2936 -0.0700 -0.1695
v 0.0992 0.0700 -0.0573
v 0.0992 -0.0700 -0.0573

vn -0.9194 0.0000 -0.3933
vn -0.9194 0.0000 -0.3933
vn 0.8925 0.0000 0.4510
vn 0.8925 0.0000 0.4510
vn 0.0000 -1.0000 0.0000
vn 0.0000 -1.0000 0.0000
vn 0.0000 1.0000 -0.0000
vn 0.0000 1.0000 0.0000
vn -0.7784 0.0000 -0.6277
vn -0.7784 0.0000 -0.6277
vn 0.8084 0.0000 0.5886
vn 0.8084 0.0000 0.5886
vn -0.0000 -1.0000 0.0000
vn 0.0000 -1.0000 0.0000
vn 0.0000 1.0000 -0.0000
vn 0.0000 1.0000 0.0000
vn -0.1220 0.0000 -0.9925
vn -0.1220 0.0000 -0.9925
vn 0.0580 0.0000 0.9983
vn 0.0580 0.0000 0.9983
vn -0.0000 -1.0000 0.0000
vn 0.0000 -1.0000 0.0000
vn 0.0000 1.0000 0.0000
vn 0.0000 1.0000 -0.0000
vn 0.1017 0.0000 -0.9948
vn 0.1017 0.0000 -0.9948
vn -0.0301 0.0000 0.9995
vn -0.0301 0.0000 0.9995
vn 0.0000 -1.0000 0.0000
vn 0.0000 -1.0000 -0.0000
vn 0.0000 1.0000 0.0000
vn 0.0000 1.0000 -0.0000
vn 0.7846 0.0000 -0.6200
vn 0.7846 0.0000 -0.6200
vn -0.8157 0.0000 0.5785
vn -0.8157 0.0000 0.5785
vn 0.0000 -1.0000 -0.0000
vn 0.0000 -1.0000 0.0000
vn 0.0000 1.0000 0.0000
vn 0.0000 1.0000 0.0000
vn 0.9216 0.0000 -0.3882
vn 0.9216 0.0000 -0.3882
vn -0.8966 0.0000 0.4428
vn -0.8966 0.0000 0.4428
vn 0.0000 -1.0000 -0.0000
vn 0.0000 -1.0000 0.0000
vn 0.0000 1.0000 0.0000
vn 0.0000 1.0000 0.0000
vn 0.9131 0.0000 0.4077
vn 0.9131 -0.0000 0.4077
vn -0.8826 0.0000 -0.4702
vn -0.8826 -0.0000 -0.4702
vn 0.0000 -1.0000 0.0000
vn 0.0000 -1.0000 0.0000
vn 0.0000 1.0000 0.0000
vn 0.0000 1.0000 0.0000
vn 0.7916 0.0000 0.6110
vn 0.7916 -0.0000 0.6110
vn -0.8256 0.0000 -0.5642
vn -0.8256 -0.0000 -0.5642
vn 0.0000 -1.0000 0.0000
vn 0.0000 -1.0000 0.0000
vn 0.0000 1.0000 0.0000
vn 0.0000 1.0000 0.0000
vn 0.1278 0.0000 0.9918
vn 0.1278 -0.0000 0.9918
vn -0.0670 0.0000 -0.9977
vn -0.0670 -0.0000 -0.9977
vn 0.0000 -1.0000 0.0000
vn 0.0000 -1.0000 0.0000
vn 0.0000 1.0000 0.0000
vn 0.0000 1.0000 0.0000
vn -0.1128 0.0000 0.9936
vn -0.1128 0.0000 0.9936
vn 0.0458 0.0000 -0.9989
vn 0.0458 0.0000 -0.9989
vn 0.0000 -1.0000 0.0000
vn 0.0000 -1.0000 0.0000
vn -0.0000 1.0000 0.0000
vn 0.0000 1.0000 0.0000
vn -0.7909 0.0000 0.6119
vn -0.7909 0.0000 0.6119
vn 0.8237 0.0000 -0.5670
vn 0.8237 0.0000 -0.5670
vn 0.0000 -1.0000 0.0000
vn 0.0000 -1.0000 0.0000
vn -0.0000 1.0000 0.0000
vn 0.0000 1.0000 0.0000
vn -0.9216 0.0000 0.3882
vn -0.9216 0.0000 0.3882
vn 0.8966 0.0000 -0.4428
vn 0.8966 0.0000 -0.4428
vn 0.0000 -1.0000 0.0000
vn 0.0000 -1.0000 0.0000
vn 0.0000 1.0000 0.0000
vn -0.0000 1.0000 0.0000

usemtl mat_stone
s 1
f 2//1 6//1 5//1
f 2//2 5//2 1//2
f 3//3 7//3 8//3
f 3//4 8//4 4//4
f 1//5 5//5 7//5
f 1//6 7//6 3//6
f 4//7 8//7 6//7
f 4//8 6//8 2//8
f 6//9 10//9 9//9
f 6//10 9//10 5//10
f 7//11 11//11 12//11
f 7//12 12//12 8//12
f 5//13 9//13 11//13
f 5//14 11//14 7//14
f 8//15 12//15 10//15
f 8//16 10//16 6//16
f 10//17 14//17 13//17
f 10//18 13//18 9//18
f 11//19 15//19 16//19
f 11//20 16//20 12//20
f 9//21 13//21 15//21
f 9//22 15//22 11//22
f 12//23 16//23 14//23
f 12//24 14//24 10//24
f 14//25 18//25 17//25
f 14//26 17//26 13//26
f 15//27 19//27 20//27
f 15//28 20//28 16//28
f 13//29 17//29 19//29
f 13//30 19//30 15//30
f 16//31 20//31 18//31
f 16//32 18//32 14//32
f 18//33 22//33 21//33
f 18//34 21//34 17//34
f 19//35 23//35 24//35
f 19//36 24//36 20//36
f 17//37 21//37 23//37
f 17//38 23//38 19//38
f 20//39 24//39 22//39
f 20//40 22//40 18//40
f 22//41 26//41 25//41
f 22//42 25//42 21//42
f 23//43 27//43 28//43
f 23//44 28//44 24//44
f 21//45 25//45 27//45
f 21//46 27//46 23//46
f 24//47 28//47 26//47
f 24//48 26//48 22//48
f 26//49 30//49 29//49
f 26//50 29//50 25//50
f 27//51 31//51 32//51
f 27//52 32//52 28//52
f 25//53 29//53 31//53
f 25//54 31//54 27//54
f 28//55 32//55 30//55
f 28//56 30//56 26//56
f 30//57 34//57 33//57
f 30//58 33//58 29//58
f 31//59 35//59 36//59
f 31//60 36//60 32//60
f 29//61 33//61 35//61
f 29//62 35//62 31//62
f 32//63 36//63 34//63
f 32//64 34//64 30//64
f 34//65 38//65 37//65
f 34//66 37//66 33//66
f 35//67 39//67 40//67
f 35//68 40//68 36//68
f 33//69 37//69 39//69
f 33//70 39//70 35//70
f 36//71 40//71 38//71
f 36//72 38//72 34//72
f 38//73 42//73 41//73
f 38//74 41//74 37//74
f 39//75 43//75 44//75
f 39//76 44//76 40//76
f 37//77 41//77 43//77
f 37//78 43//78 39//78
f 40//79 44//79 42//79
f 40//80 42//80 38//80
f 42//81 46//81 45//81
f 42//82 45//82 41//82
f 43//83 47//83 48//83
f 43//84 48//84 44//84
f 41//85 45//85 47//85
f 41//86 47//86 43//86
f 44//87 48//87 46//87
f 44//88 46//88 42//88
f 46//89 2//89 1//89
f 46//90 1//90 45//90
f 47//91 3//91 4//91
f 47//92 4//92 48//92
f 45//93 1//93 3//93
f 45//94 3//94 47//94
f 48//95 4//95 2//95
f 48//96 2//96 46//96

