# Quaternius Wood Log
mtllib wood_log.mtl
v 0.8283 0.3347 -0.1494
v 0.7963 0.2212 -0.1713
v 0.8236 0.2208 -0.2000
v 0.8002 0.3169 -0.1288
v 0.7543 0.0366 -0.0685
v 0.7731 0.0760 0.0419
v 0.7961 0.0479 0.0538
v 0.7380 0.0665 -0.0608
v 0.8331 0.2585 0.1516
v 0.8288 0.1360 0.1421
v 0.8006 0.1500 0.1160
v 0.8042 0.2529 0.1240
v 0.8333 0.3882 -0.0380
v 0.8002 0.3169 -0.1288
v 0.8283 0.3347 -0.1494
v 0.8044 0.3618 -0.0352
v 0.7543 0.0366 -0.0685
v 0.7644 0.1100 -0.1763
v 0.7465 0.1282 -0.1513
v 0.7380 0.0665 -0.0608
v 0.8006 0.1500 0.1160
v 0.7961 0.0479 0.0538
v 0.7731 0.0760 0.0419
v 0.8288 0.1360 0.1421
v 0.8333 0.3882 -0.0380
v 0.8375 0.3798 0.0410
v 0.8079 0.3548 0.0311
v 0.8044 0.3618 -0.0352
v 0.7644 0.1100 -0.1763
v 0.7963 0.2212 -0.1713
v 0.7465 0.1282 -0.1513
v 0.8236 0.2208 -0.2000
v 0.8340 0.3226 0.1032
v 0.8331 0.2585 0.1516
v 0.8042 0.2529 0.1240
v 0.8050 0.3067 0.0834
v 0.8340 0.3226 0.1032
v 0.8079 0.3548 0.0311
v 0.8375 0.3798 0.0410
v 0.8050 0.3067 0.0834
v 0.8370 0.4105 0.0469
v 0.5589 0.3869 0.1035
v 0.8349 0.3410 0.1285
v -0.8221 0.3816 -0.1761
v -0.8451 0.4568 -0.0697
v -0.8358 0.3948 -0.1979
v -0.8301 0.4354 -0.0649
v -0.7791 0.1134 -0.2372
v -0.7873 0.0760 -0.0885
v -0.7729 0.1375 -0.2102
v -0.7957 0.0425 -0.0969
v -0.8506 0.4217 0.0684
v -0.8378 0.3046 0.1272
v -0.8539 0.3060 0.1517
v -0.8349 0.4050 0.0550
v -0.8024 0.2609 -0.2598
v -0.7791 0.1134 -0.2372
v -0.7729 0.1375 -0.2102
v -0.7931 0.2654 -0.2299
v -0.8474 0.4418 -0.0107
v -0.8349 0.4050 0.0550
v -0.8506 0.4217 0.0684
v -0.8322 0.4224 -0.0137
v -0.8373 0.1811 0.1181
v -0.8539 0.3060 0.1517
v -0.8378 0.3046 0.1272
v -0.8533 0.1637 0.1412
v -0.8318 0.4147 -0.0551
v -0.8474 0.4418 -0.0107
v -0.8470 0.4329 -0.0584
v -0.8322 0.4224 -0.0137
v -0.8451 0.4568 -0.0697
v -0.8371 0.4187 -0.2189
v -0.8358 0.3948 -0.1979
v -0.8481 0.4921 -0.0673
v -0.7700 0.0858 -0.2653
v -0.7957 0.0425 -0.0969
v -0.7791 0.1134 -0.2372
v -0.7897 0.0020 -0.0994
v -0.8474 0.4418 -0.0107
v -0.8503 0.4639 -0.0538
v -0.8470 0.4329 -0.0584
v -0.8509 0.4743 0.0026
v -0.7897 0.0020 -0.0994
v -0.8200 0.0230 0.0723
v -0.8214 0.0603 0.0482
v -0.7957 0.0425 -0.0969
v -0.8214 0.0603 0.0482
v -0.8579 0.1454 0.1823
v -0.8533 0.1637 0.1412
v -0.8200 0.0230 0.0723
v -0.8358 0.3948 -0.1979
v -0.7976 0.2603 -0.2921
v -0.8024 0.2609 -0.2598
v -0.8371 0.4187 -0.2189
v -0.8506 0.4217 0.0684
v -0.8509 0.4743 0.0026
v -0.8474 0.4418 -0.0107
v -0.8546 0.4506 0.0962
v -0.8470 0.4329 -0.0584
v -0.8451 0.4568 -0.0697
v -0.8301 0.4354 -0.0649
v -0.8318 0.4147 -0.0551
v -0.8096 0.0914 0.0375
v -0.8533 0.1637 0.1412
v -0.8373 0.1811 0.1181
v -0.8214 0.0603 0.0482
v -0.7957 0.0425 -0.0969
v -0.8214 0.0603 0.0482
v -0.8096 0.0914 0.0375
v -0.7873 0.0760 -0.0885
v -0.8024 0.2609 -0.2598
v -0.8221 0.3816 -0.1761
v -0.8358 0.3948 -0.1979
v -0.7931 0.2654 -0.2299
v -0.0893 0.0861 -0.1709
v 0.1810 0.1129 -0.1716
v 0.1833 0.1111 -0.1427
v 0.1810 0.1129 -0.1716
v 0.5712 0.0911 -0.1856
v 0.1833 0.1111 -0.1427
v 0.8340 0.3226 0.1032
v 0.8375 0.3798 0.0410
v 0.8349 0.3410 0.1285
v 0.8370 0.4105 0.0469
v -0.5263 0.4491 -0.0427
v -0.8481 0.4921 -0.0673
v -0.8503 0.4639 -0.0538
v -0.5331 0.3849 0.0873
v -0.1139 0.3460 0.1501
v -0.1337 0.3477 0.0903
v -0.1139 0.3460 0.1501
v 0.1751 0.3871 0.1231
v -0.1337 0.3477 0.0903
v -0.1330 0.3777 0.0995
v -0.5331 0.3849 0.0873
v -0.1337 0.3477 0.0903
v 0.1751 0.3871 0.1231
v -0.1330 0.3777 0.0995
v -0.1337 0.3477 0.0903
v 0.5712 0.0911 -0.1856
v 0.1847 0.0755 -0.1610
v 0.1833 0.1111 -0.1427
v 0.1847 0.0755 -0.1610
v -0.0893 0.0861 -0.1709
v 0.1833 0.1111 -0.1427
v 0.7543 0.0366 -0.0685
v 0.7963 0.0206 0.0692
v 0.7541 0.0061 -0.0757
v 0.7961 0.0479 0.0538
v 0.7631 0.0944 -0.2034
v 0.7543 0.0366 -0.0685
v 0.7541 0.0061 -0.0757
v 0.7644 0.1100 -0.1763
v 0.7631 0.0944 -0.2034
v 0.8236 0.2208 -0.2000
v 0.7644 0.1100 -0.1763
v 0.8225 0.2255 -0.2310
v 0.8225 0.2255 -0.2310
v 0.8280 0.3567 -0.1718
v 0.8283 0.3347 -0.1494
v 0.8236 0.2208 -0.2000
v 0.8280 0.3567 -0.1718
v 0.8331 0.4193 -0.0420
v 0.8333 0.3882 -0.0380
v 0.8283 0.3347 -0.1494
v 0.8333 0.3882 -0.0380
v 0.8370 0.4105 0.0469
v 0.8375 0.3798 0.0410
v 0.8331 0.4193 -0.0420
v 0.8339 0.2671 0.1817
v 0.8340 0.3226 0.1032
v 0.8349 0.3410 0.1285
v 0.8331 0.2585 0.1516
v 0.8339 0.2671 0.1817
v 0.8293 0.1237 0.1709
v 0.8288 0.1360 0.1421
v 0.8331 0.2585 0.1516
v 0.8293 0.1237 0.1709
v 0.7961 0.0479 0.0538
v 0.8288 0.1360 0.1421
v 0.7963 0.0206 0.0692
v -0.8585 0.3137 0.1947
v -0.8546 0.4506 0.0962
v -0.8506 0.4217 0.0684
v -0.8539 0.3060 0.1517
v -0.7976 0.2603 -0.2921
v -0.7700 0.0858 -0.2653
v -0.7791 0.1134 -0.2372
v -0.8024 0.2609 -0.2598
v -0.8503 0.4639 -0.0538
v -0.8509 0.4743 0.0026
v -0.5263 0.4491 -0.0427
v -0.8503 0.4639 -0.0538
v -0.8481 0.4921 -0.0673
v -0.8451 0.4568 -0.0697
v -0.8470 0.4329 -0.0584
v -0.8533 0.1637 0.1412
v -0.8585 0.3137 0.1947
v -0.8539 0.3060 0.1517
v -0.8579 0.1454 0.1823
v 0.1700 0.2154 -0.2006
v -0.0893 0.0861 -0.1709
v -0.0200 0.2440 -0.1936
v 0.1810 0.1129 -0.1716
v 0.1810 0.1129 -0.1716
v 0.5741 0.2290 -0.2243
v 0.5712 0.0911 -0.1856
v 0.1700 0.2154 -0.2006
v 0.2275 0.3578 -0.1435
v 0.5741 0.2290 -0.2243
v 0.1700 0.2154 -0.2006
v 0.5782 0.3600 -0.1650
v 0.2275 0.3578 -0.1435
v 0.5815 0.4226 -0.0352
v 0.5782 0.3600 -0.1650
v 0.2259 0.4239 -0.0152
v 0.2259 0.4239 -0.0152
v 0.5589 0.3869 0.1035
v 0.5815 0.4226 -0.0352
v 0.1751 0.3871 0.1231
v 0.2215 0.0280 0.0954
v 0.5770 0.1283 0.1770
v 0.2223 0.1331 0.1954
v 0.5730 0.0256 0.0763
v 0.5589 0.3869 0.1035
v 0.2249 0.2752 0.2069
v 0.5807 0.2712 0.1881
v 0.1751 0.3871 0.1231
v 0.5807 0.2712 0.1881
v 0.2249 0.2752 0.2069
v 0.5770 0.1283 0.1770
v 0.2223 0.1331 0.1954
v 0.5542 0.0000 -0.0661
v 0.2215 0.0280 0.0954
v 0.2177 0.0045 -0.0448
v 0.5730 0.0256 0.0763
v 0.2177 0.0045 -0.0448
v 0.5712 0.0911 -0.1856
v 0.5542 0.0000 -0.0661
v 0.1847 0.0755 -0.1610
v -0.8200 0.0230 0.0723
v -0.5350 0.1404 0.1804
v -0.8579 0.1454 0.1823
v -0.5306 0.0345 0.0729
v 0.1751 0.3871 0.1231
v -0.1067 0.2704 0.2068
v 0.2249 0.2752 0.2069
v -0.1139 0.3460 0.1501
v -0.5356 0.2888 0.1931
v -0.8585 0.3137 0.1947
v -0.8579 0.1454 0.1823
v -0.5350 0.1404 0.1804
v -0.5356 0.2888 0.1931
v -0.8546 0.4506 0.0962
v -0.8585 0.3137 0.1947
v -0.5331 0.3849 0.0873
v -0.8509 0.4743 0.0026
v -0.5331 0.3849 0.0873
v -0.5263 0.4491 -0.0427
v -0.8546 0.4506 0.0962
v -0.8481 0.4921 -0.0673
v -0.5263 0.4491 -0.0427
v -0.5207 0.3835 -0.1798
v -0.8371 0.4187 -0.2189
v -0.8371 0.4187 -0.2189
v -0.5205 0.2472 -0.2327
v -0.7976 0.2603 -0.2921
v -0.5207 0.3835 -0.1798
v -0.7700 0.0858 -0.2653
v -0.5205 0.2472 -0.2327
v -0.5196 0.1031 -0.2031
v -0.7976 0.2603 -0.2921
v -0.7897 0.0020 -0.0994
v -0.5196 0.1031 -0.2031
v -0.5245 0.0206 -0.0790
v -0.7700 0.0858 -0.2653
v -0.7897 0.0020 -0.0994
v -0.5306 0.0345 0.0729
v -0.8200 0.0230 0.0723
v -0.5245 0.0206 -0.0790
v 0.1700 0.2154 -0.2006
v -0.0926 0.3568 -0.1451
v 0.2275 0.3578 -0.1435
v -0.0200 0.2440 -0.1936
v -0.0926 0.3568 -0.1451
v 0.2259 0.4239 -0.0152
v 0.2275 0.3578 -0.1435
v -0.0979 0.4199 -0.0156
v -0.0979 0.4199 -0.0156
v 0.1751 0.3871 0.1231
v 0.2259 0.4239 -0.0152
v -0.1330 0.3777 0.0995
v -0.1019 0.0332 0.0909
v 0.2223 0.1331 0.1954
v -0.1061 0.1320 0.1936
v 0.2215 0.0280 0.0954
v 0.2249 0.2752 0.2069
v -0.1067 0.2704 0.2068
v 0.2223 0.1331 0.1954
v -0.1061 0.1320 0.1936
v 0.2177 0.0045 -0.0448
v -0.1019 0.0332 0.0909
v -0.0962 0.0146 -0.0504
v 0.2215 0.0280 0.0954
v 0.1847 0.0755 -0.1610
v -0.0962 0.0146 -0.0504
v -0.0893 0.0861 -0.1709
v 0.2177 0.0045 -0.0448
v 0.5712 0.0911 -0.1856
v 0.7541 0.0061 -0.0757
v 0.5542 0.0000 -0.0661
v 0.7631 0.0944 -0.2034
v 0.7541 0.0061 -0.0757
v 0.5730 0.0256 0.0763
v 0.5542 0.0000 -0.0661
v 0.7963 0.0206 0.0692
v 0.5807 0.2712 0.1881
v 0.5770 0.1283 0.1770
v 0.8293 0.1237 0.1709
v 0.8339 0.2671 0.1817
v 0.8349 0.3410 0.1285
v 0.5807 0.2712 0.1881
v 0.8339 0.2671 0.1817
v 0.5589 0.3869 0.1035
v 0.7963 0.0206 0.0692
v 0.5770 0.1283 0.1770
v 0.5730 0.0256 0.0763
v 0.8293 0.1237 0.1709
v 0.5815 0.4226 -0.0352
v 0.8370 0.4105 0.0469
v 0.8331 0.4193 -0.0420
v 0.5589 0.3869 0.1035
v 0.8280 0.3567 -0.1718
v 0.5815 0.4226 -0.0352
v 0.8331 0.4193 -0.0420
v 0.5782 0.3600 -0.1650
v 0.5782 0.3600 -0.1650
v 0.8225 0.2255 -0.2310
v 0.5741 0.2290 -0.2243
v 0.8280 0.3567 -0.1718
v -0.5306 0.0345 0.0729
v -0.0962 0.0146 -0.0504
v -0.1019 0.0332 0.0909
v -0.5245 0.0206 -0.0790
v -0.5245 0.0206 -0.0790
v -0.0893 0.0861 -0.1709
v -0.0962 0.0146 -0.0504
v -0.5196 0.1031 -0.2031
v 0.7631 0.0944 -0.2034
v 0.5741 0.2290 -0.2243
v 0.8225 0.2255 -0.2310
v 0.5712 0.0911 -0.1856
v -0.5205 0.2472 -0.2327
v -0.0893 0.0861 -0.1709
v -0.5196 0.1031 -0.2031
v -0.0200 0.2440 -0.1936
v -0.5205 0.2472 -0.2327
v -0.0926 0.3568 -0.1451
v -0.0200 0.2440 -0.1936
v -0.5207 0.3835 -0.1798
v -0.5263 0.4491 -0.0427
v -0.0979 0.4199 -0.0156
v -0.0926 0.3568 -0.1451
v -0.5207 0.3835 -0.1798
v -0.1330 0.3777 0.0995
v -0.5263 0.4491 -0.0427
v -0.5331 0.3849 0.0873
v -0.0979 0.4199 -0.0156
v -0.5356 0.2888 0.1931
v -0.1067 0.2704 0.2068
v -0.1139 0.3460 0.1501
v -0.5331 0.3849 0.0873
v -0.1061 0.1320 0.1936
v -0.5356 0.2888 0.1931
v -0.5350 0.1404 0.1804
v -0.1067 0.2704 0.2068
v -0.5306 0.0345 0.0729
v -0.1061 0.1320 0.1936
v -0.5350 0.1404 0.1804
v -0.1019 0.0332 0.0909
v 0.7963 0.2212 -0.1713
v 0.8079 0.3548 0.0311
v 0.7465 0.1282 -0.1513
v 0.8002 0.3169 -0.1288
v 0.8044 0.3618 -0.0352
v 0.8050 0.3067 0.0834
v 0.7465 0.1282 -0.1513
v 0.8079 0.3548 0.0311
v 0.7380 0.0665 -0.0608
v 0.8042 0.2529 0.1240
v 0.7380 0.0665 -0.0608
v 0.8050 0.3067 0.0834
v 0.8006 0.1500 0.1160
v 0.7731 0.0760 0.0419
v -0.8221 0.3816 -0.1761
v -0.8318 0.4147 -0.0551
v -0.8301 0.4354 -0.0649
v -0.8349 0.4050 0.0550
v -0.8322 0.4224 -0.0137
v -0.8373 0.1811 0.1181
v -0.7873 0.0760 -0.0885
v -0.8096 0.0914 0.0375
v -0.7729 0.1375 -0.2102
v -0.8373 0.1811 0.1181
v -0.7931 0.2654 -0.2299
v -0.7729 0.1375 -0.2102
v -0.8378 0.3046 0.1272
v -0.8221 0.3816 -0.1761
v -0.8378 0.3046 0.1272
v -0.8349 0.4050 0.0550
v -0.7931 0.2654 -0.2299
vn 0.6839 -0.3196 0.6559
vn 0.6839 -0.3196 0.6559
vn 0.6839 -0.3196 0.6559
vn 0.6839 -0.3196 0.6559
vn 0.7955 0.5148 -0.3197
vn 0.7955 0.5148 -0.3197
vn 0.7955 0.5148 -0.3197
vn 0.7955 0.5148 -0.3197
vn 0.6866 0.0323 -0.7263
vn 0.6866 0.0323 -0.7263
vn 0.6866 0.0323 -0.7263
vn 0.6866 0.0323 -0.7263
vn 0.6584 -0.6899 0.3011
vn 0.6584 -0.6899 0.3011
vn 0.6584 -0.6899 0.3011
vn 0.6584 -0.6899 0.3011
vn 0.8599 0.3805 0.3402
vn 0.8599 0.3805 0.3402
vn 0.8599 0.3805 0.3402
vn 0.8599 0.3805 0.3402
vn 0.7235 0.3359 -0.6031
vn 0.7235 0.3359 -0.6031
vn 0.7235 0.3359 -0.6031
vn 0.7235 0.3359 -0.6031
vn 0.6635 -0.7395 -0.1135
vn 0.6635 -0.7395 -0.1135
vn 0.6635 -0.7395 -0.1135
vn 0.6635 -0.7395 -0.1135
vn 0.7029 -0.2310 0.6727
vn 0.7029 -0.2310 0.6727
vn 0.7029 -0.2310 0.6727
vn 0.7029 -0.2310 0.6727
vn 0.6580 -0.4601 -0.5961
vn 0.6580 -0.4601 -0.5961
vn 0.6580 -0.4601 -0.5961
vn 0.6580 -0.4601 -0.5961
vn 0.6516 -0.5760 -0.4936
vn 0.6516 -0.5760 -0.4936
vn 0.6516 -0.5760 -0.4936
vn 0.6516 -0.5760 -0.4936
vn 0.0676 0.7585 0.6482
vn 0.0676 0.7585 0.6482
vn 0.0676 0.7585 0.6482
vn -0.8242 -0.5309 0.1970
vn -0.8242 -0.5309 0.1970
vn -0.8242 -0.5309 0.1970
vn -0.8242 -0.5309 0.1970
vn -0.9703 0.2416 0.0073
vn -0.9703 0.2416 0.0073
vn -0.9703 0.2416 0.0073
vn -0.9703 0.2416 0.0073
vn -0.7949 -0.3395 -0.5029
vn -0.7949 -0.3395 -0.5029
vn -0.7949 -0.3395 -0.5029
vn -0.7949 -0.3395 -0.5029
vn -0.9458 -0.1021 0.3082
vn -0.9458 -0.1021 0.3082
vn -0.9458 -0.1021 0.3082
vn -0.9458 -0.1021 0.3082
vn -0.7866 -0.5902 -0.1814
vn -0.7866 -0.5902 -0.1814
vn -0.7866 -0.5902 -0.1814
vn -0.7866 -0.5902 -0.1814
vn -0.8340 0.0376 -0.5505
vn -0.8340 0.0376 -0.5505
vn -0.8340 0.0376 -0.5505
vn -0.8340 0.0376 -0.5505
vn -0.7734 -0.6245 0.1088
vn -0.7734 -0.6245 0.1088
vn -0.7734 -0.6245 0.1088
vn -0.7734 -0.6245 0.1088
vn -0.9961 -0.0823 -0.0325
vn -0.9961 -0.0823 -0.0325
vn -0.9961 -0.0823 -0.0325
vn -0.9961 -0.0823 -0.0325
vn -0.9740 -0.1339 -0.1828
vn -0.9740 -0.1339 -0.1828
vn -0.9740 -0.1339 -0.1828
vn -0.9740 -0.1339 -0.1828
vn -0.9940 -0.1093 0.0111
vn -0.9940 -0.1093 0.0111
vn -0.9940 -0.1093 0.0111
vn -0.9940 -0.1093 0.0111
vn -0.9783 -0.1361 -0.1563
vn -0.9783 -0.1361 -0.1563
vn -0.9783 -0.1361 -0.1563
vn -0.9783 -0.1361 -0.1563
vn -0.9741 -0.1463 -0.1723
vn -0.9741 -0.1463 -0.1723
vn -0.9741 -0.1463 -0.1723
vn -0.9741 -0.1463 -0.1723
vn -0.9739 -0.1769 -0.1419
vn -0.9739 -0.1769 -0.1419
vn -0.9739 -0.1769 -0.1419
vn -0.9739 -0.1769 -0.1419
vn -0.9950 -0.0802 -0.0602
vn -0.9950 -0.0802 -0.0602
vn -0.9950 -0.0802 -0.0602
vn -0.9950 -0.0802 -0.0602
vn -0.2811 -0.3941 -0.8750
vn -0.2811 -0.3941 -0.8750
vn -0.2811 -0.3941 -0.8750
vn -0.2811 -0.3941 -0.8750
vn -0.8637 0.1620 -0.4773
vn -0.8637 0.1620 -0.4773
vn -0.8637 0.1620 -0.4773
vn -0.8637 0.1620 -0.4773
vn -0.9371 0.2857 -0.2006
vn -0.9371 0.2857 -0.2006
vn -0.9371 0.2857 -0.2006
vn -0.9371 0.2857 -0.2006
vn -0.8713 -0.3674 0.3254
vn -0.8713 -0.3674 0.3254
vn -0.8713 -0.3674 0.3254
vn -0.8713 -0.3674 0.3254
vn 0.0986 -0.9927 -0.0697
vn 0.0986 -0.9927 -0.0697
vn 0.0986 -0.9927 -0.0697
vn -0.0579 -0.9966 -0.0578
vn -0.0579 -0.9966 -0.0578
vn -0.0579 -0.9966 -0.0578
vn 0.9996 -0.0209 0.0204
vn 0.9996 -0.0209 0.0204
vn 0.9996 -0.0209 0.0204
vn 0.9996 -0.0209 0.0204
vn -0.0113 0.4308 0.9024
vn -0.0113 0.4308 0.9024
vn -0.0113 0.4308 0.9024
vn 0.0926 0.9957 -0.0014
vn 0.0926 0.9957 -0.0014
vn 0.0926 0.9957 -0.0014
vn -0.1338 0.9883 0.0729
vn -0.1338 0.9883 0.0729
vn -0.1338 0.9883 0.0729
vn -0.0346 -0.2947 0.9550
vn -0.0346 -0.2947 0.9550
vn -0.0346 -0.2947 0.9550
vn -0.0639 -0.2937 0.9538
vn -0.0639 -0.2937 0.9538
vn -0.0639 -0.2937 0.9538
vn -0.0747 0.4543 -0.8877
vn -0.0747 0.4543 -0.8877
vn -0.0747 0.4543 -0.8877
vn 0.0496 0.4590 -0.8871
vn 0.0496 0.4590 -0.8871
vn 0.0496 0.4590 -0.8871
vn 0.9542 -0.0416 -0.2963
vn 0.9542 -0.0416 -0.2963
vn 0.9542 -0.0416 -0.2963
vn 0.9542 -0.0416 -0.2963
vn 0.9973 -0.0625 0.0384
vn 0.9973 -0.0625 0.0384
vn 0.9973 -0.0625 0.0384
vn 0.9973 -0.0625 0.0384
vn 0.9006 -0.4325 0.0428
vn 0.9006 -0.4325 0.0428
vn 0.9006 -0.4325 0.0428
vn 0.9006 -0.4325 0.0428
vn 0.9990 -0.0239 -0.0388
vn 0.9990 -0.0239 -0.0388
vn 0.9990 -0.0239 -0.0388
vn 0.9990 -0.0239 -0.0388
vn 0.9992 -0.0084 -0.0381
vn 0.9992 -0.0084 -0.0381
vn 0.9992 -0.0084 -0.0381
vn 0.9992 -0.0084 -0.0381
vn 0.9988 0.0130 -0.0470
vn 0.9988 0.0130 -0.0470
vn 0.9988 0.0130 -0.0470
vn 0.9988 0.0130 -0.0470
vn 0.9995 -0.0267 -0.0177
vn 0.9995 -0.0267 -0.0177
vn 0.9995 -0.0267 -0.0177
vn 0.9995 -0.0267 -0.0177
vn 0.9992 -0.0318 -0.0249
vn 0.9992 -0.0318 -0.0249
vn 0.9992 -0.0318 -0.0249
vn 0.9992 -0.0318 -0.0249
vn 0.9715 -0.1683 -0.1667
vn 0.9715 -0.1683 -0.1667
vn 0.9715 -0.1683 -0.1667
vn 0.9715 -0.1683 -0.1667
vn -0.9942 -0.0430 -0.0988
vn -0.9942 -0.0430 -0.0988
vn -0.9942 -0.0430 -0.0988
vn -0.9942 -0.0430 -0.0988
vn -0.9742 -0.1757 -0.1419
vn -0.9742 -0.1757 -0.1419
vn -0.9742 -0.1757 -0.1419
vn -0.9742 -0.1757 -0.1419
vn 0.0511 0.9820 -0.1818
vn 0.0511 0.9820 -0.1818
vn 0.0511 0.9820 -0.1818
vn -0.9553 -0.0607 -0.2893
vn -0.9553 -0.0607 -0.2893
vn -0.9553 -0.0607 -0.2893
vn -0.9553 -0.0607 -0.2893
vn -0.9942 0.0043 -0.1072
vn -0.9942 0.0043 -0.1072
vn -0.9942 0.0043 -0.1072
vn -0.9942 0.0043 -0.1072
vn -0.0173 -0.1910 -0.9814
vn -0.0173 -0.1910 -0.9814
vn -0.0173 -0.1910 -0.9814
vn -0.0173 -0.1910 -0.9814
vn -0.0484 -0.2725 -0.9609
vn -0.0484 -0.2725 -0.9609
vn -0.0484 -0.2725 -0.9609
vn -0.0484 -0.2725 -0.9609
vn -0.0630 0.4032 -0.9130
vn -0.0630 0.4032 -0.9130
vn -0.0630 0.4032 -0.9130
vn -0.0630 0.4032 -0.9130
vn -0.0272 0.8946 -0.4460
vn -0.0272 0.8946 -0.4460
vn -0.0272 0.8946 -0.4460
vn -0.0272 0.8946 -0.4460
vn 0.0157 0.9663 0.2568
vn 0.0157 0.9663 0.2568
vn 0.0157 0.9663 0.2568
vn 0.0157 0.9663 0.2568
vn 0.0311 -0.6946 0.7187
vn 0.0311 -0.6946 0.7187
vn 0.0311 -0.6946 0.7187
vn 0.0311 -0.6946 0.7187
vn 0.0447 0.6032 0.7963
vn 0.0447 0.6032 0.7963
vn 0.0447 0.6032 0.7963
vn 0.0447 0.6032 0.7963
vn 0.0511 -0.0799 0.9955
vn 0.0511 -0.0799 0.9955
vn 0.0511 -0.0799 0.9955
vn 0.0511 -0.0799 0.9955
vn 0.0002 -0.9853 0.1709
vn 0.0002 -0.9853 0.1709
vn 0.0002 -0.9853 0.1709
vn 0.0002 -0.9853 0.1709
vn -0.0232 -0.8245 -0.5654
vn -0.0232 -0.8245 -0.5654
vn -0.0232 -0.8245 -0.5654
vn -0.0232 -0.8245 -0.5654
vn 0.0088 -0.6887 0.7250
vn 0.0088 -0.6887 0.7250
vn 0.0088 -0.6887 0.7250
vn 0.0088 -0.6887 0.7250
vn -0.0094 0.5979 0.8015
vn -0.0094 0.5979 0.8015
vn -0.0094 0.5979 0.8015
vn -0.0094 0.5979 0.8015
vn 0.0017 -0.0794 0.9968
vn 0.0017 -0.0794 0.9968
vn 0.0017 -0.0794 0.9968
vn 0.0017 -0.0794 0.9968
vn 0.1042 0.6544 0.7490
vn 0.1042 0.6544 0.7490
vn 0.1042 0.6544 0.7490
vn 0.1042 0.6544 0.7490
vn 0.1599 0.9160 0.3680
vn 0.1599 0.9160 0.3680
vn 0.1599 0.9160 0.3680
vn 0.1599 0.9160 0.3680
vn 0.1517 0.8941 -0.4214
vn 0.1517 0.8941 -0.4214
vn 0.1517 0.8941 -0.4214
vn 0.1517 0.8941 -0.4214
vn 0.1818 0.4075 -0.8949
vn 0.1818 0.4075 -0.8949
vn 0.1818 0.4075 -0.8949
vn 0.1818 0.4075 -0.8949
vn 0.2233 -0.1507 -0.9630
vn 0.2233 -0.1507 -0.9630
vn 0.2233 -0.1507 -0.9630
vn 0.2233 -0.1507 -0.9630
vn 0.1377 -0.8643 -0.4837
vn 0.1377 -0.8643 -0.4837
vn 0.1377 -0.8643 -0.4837
vn 0.1377 -0.8643 -0.4837
vn 0.0497 -0.9924 0.1123
vn 0.0497 -0.9924 0.1123
vn 0.0497 -0.9924 0.1123
vn 0.0497 -0.9924 0.1123
vn 0.0108 0.3828 -0.9238
vn 0.0108 0.3828 -0.9238
vn 0.0108 0.3828 -0.9238
vn 0.0108 0.3828 -0.9238
vn -0.0055 0.8939 -0.4483
vn -0.0055 0.8939 -0.4483
vn -0.0055 0.8939 -0.4483
vn -0.0055 0.8939 -0.4483
vn -0.0312 0.9571 0.2881
vn -0.0312 0.9571 0.2881
vn -0.0312 0.9571 0.2881
vn -0.0312 0.9571 0.2881
vn -0.0113 -0.7049 0.7092
vn -0.0113 -0.7049 0.7092
vn -0.0113 -0.7049 0.7092
vn -0.0113 -0.7049 0.7092
vn -0.0022 -0.0876 0.9962
vn -0.0022 -0.0876 0.9962
vn -0.0022 -0.0876 0.9962
vn -0.0022 -0.0876 0.9962
vn -0.0262 -0.9887 0.1473
vn -0.0262 -0.9887 0.1473
vn -0.0262 -0.9887 0.1473
vn -0.0262 -0.9887 0.1473
vn -0.0166 -0.8576 -0.5141
vn -0.0166 -0.8576 -0.5141
vn -0.0166 -0.8576 -0.5141
vn -0.0166 -0.8576 -0.5141
vn -0.0216 -0.8081 -0.5886
vn -0.0216 -0.8081 -0.5886
vn -0.0216 -0.8081 -0.5886
vn -0.0216 -0.8081 -0.5886
vn 0.0082 -0.9906 0.1364
vn 0.0082 -0.9906 0.1364
vn 0.0082 -0.9906 0.1364
vn 0.0082 -0.9906 0.1364
vn 0.0234 -0.0768 0.9968
vn 0.0234 -0.0768 0.9968
vn 0.0234 -0.0768 0.9968
vn 0.0234 -0.0768 0.9968
vn 0.0274 0.5896 0.8073
vn 0.0274 0.5896 0.8073
vn 0.0274 0.5896 0.8073
vn 0.0274 0.5896 0.8073
vn 0.0057 -0.7018 0.7124
vn 0.0057 -0.7018 0.7124
vn 0.0057 -0.7018 0.7124
vn 0.0057 -0.7018 0.7124
vn -0.0149 0.9817 0.1900
vn -0.0149 0.9817 0.1900
vn -0.0149 0.9817 0.1900
vn -0.0149 0.9817 0.1900
vn 0.0001 0.9007 -0.4344
vn 0.0001 0.9007 -0.4344
vn 0.0001 0.9007 -0.4344
vn 0.0001 0.9007 -0.4344
vn -0.0190 0.4126 -0.9107
vn -0.0190 0.4126 -0.9107
vn -0.0190 0.4126 -0.9107
vn -0.0190 0.4126 -0.9107
vn -0.0144 -0.9939 0.1090
vn -0.0144 -0.9939 0.1090
vn -0.0144 -0.9939 0.1090
vn -0.0144 -0.9939 0.1090
vn 0.0149 -0.8467 -0.5318
vn 0.0149 -0.8467 -0.5318
vn 0.0149 -0.8467 -0.5318
vn 0.0149 -0.8467 -0.5318
vn -0.0541 -0.2273 -0.9723
vn -0.0541 -0.2273 -0.9723
vn -0.0541 -0.2273 -0.9723
vn -0.0541 -0.2273 -0.9723
vn 0.0711 -0.1858 -0.9800
vn 0.0711 -0.1858 -0.9800
vn 0.0711 -0.1858 -0.9800
vn 0.0711 -0.1858 -0.9800
vn 0.0854 0.3969 -0.9139
vn 0.0854 0.3969 -0.9139
vn 0.0854 0.3969 -0.9139
vn 0.0854 0.3969 -0.9139
vn 0.0896 0.8984 -0.4300
vn 0.0896 0.8984 -0.4300
vn 0.0896 0.8984 -0.4300
vn 0.0896 0.8984 -0.4300
vn 0.0211 0.9157 0.4014
vn 0.0211 0.9157 0.4014
vn 0.0211 0.9157 0.4014
vn 0.0211 0.9157 0.4014
vn -0.0191 0.6873 0.7262
vn -0.0191 0.6873 0.7262
vn -0.0191 0.6873 0.7262
vn -0.0191 0.6873 0.7262
vn -0.0340 -0.0903 0.9953
vn -0.0340 -0.0903 0.9953
vn -0.0340 -0.0903 0.9953
vn -0.0340 -0.0903 0.9953
vn -0.0335 -0.7165 0.6968
vn -0.0335 -0.7165 0.6968
vn -0.0335 -0.7165 0.6968
vn -0.0335 -0.7165 0.6968
vn 0.9583 -0.2603 0.1178
vn 0.9583 -0.2603 0.1178
vn 0.9583 -0.2603 0.1178
vn 0.9583 -0.2603 0.1178
vn 0.9583 -0.2603 0.1178
vn 0.9742 -0.2098 -0.0831
vn 0.9742 -0.2098 -0.0831
vn 0.9742 -0.2098 -0.0831
vn 0.9742 -0.2098 -0.0831
vn 0.9595 -0.0731 -0.2720
vn 0.9595 -0.0731 -0.2720
vn 0.9595 -0.0731 -0.2720
vn 0.9595 -0.0731 -0.2720
vn 0.9595 -0.0731 -0.2720
vn -0.9970 -0.0558 -0.0541
vn -0.9970 -0.0558 -0.0541
vn -0.9970 -0.0558 -0.0541
vn -0.9970 -0.0558 -0.0541
vn -0.9970 -0.0558 -0.0541
vn -0.9767 -0.1321 -0.1692
vn -0.9767 -0.1321 -0.1692
vn -0.9767 -0.1321 -0.1692
vn -0.9767 -0.1321 -0.1692
vn -0.9854 -0.0871 -0.1462
vn -0.9854 -0.0871 -0.1462
vn -0.9854 -0.0871 -0.1462
vn -0.9854 -0.0871 -0.1462
vn -0.9885 -0.1262 -0.0832
vn -0.9885 -0.1262 -0.0832
vn -0.9885 -0.1262 -0.0832
vn -0.9885 -0.1262 -0.0832
usemtl Wood
f 1//1 2//2 3//3
f 2//2 1//1 4//4
f 5//5 6//6 7//7
f 6//6 5//5 8//8
f 9//9 10//10 11//11
f 11//11 12//12 9//9
f 13//13 14//14 15//15
f 14//14 13//13 16//16
f 17//17 18//18 19//19
f 19//19 20//20 17//17
f 21//21 22//22 23//23
f 22//22 21//21 24//24
f 25//25 26//26 27//27
f 25//25 27//27 28//28
f 29//29 30//30 31//31
f 30//30 29//29 32//32
f 33//33 34//34 35//35
f 35//35 36//36 33//33
f 37//37 38//38 39//39
f 38//38 37//37 40//40
f 41//41 42//42 43//43
f 44//44 45//45 46//46
f 45//45 44//44 47//47
f 48//48 49//49 50//50
f 49//49 48//48 51//51
f 52//52 53//53 54//54
f 53//53 52//52 55//55
f 56//56 57//57 58//58
f 58//58 59//59 56//56
f 60//60 61//61 62//62
f 61//61 60//60 63//63
f 64//64 65//65 66//66
f 65//65 64//64 67//67
f 68//68 69//69 70//70
f 69//69 68//68 71//71
f 72//72 73//73 74//74
f 73//73 72//72 75//75
f 76//76 77//77 78//78
f 77//77 76//76 79//79
f 80//80 81//81 82//82
f 81//81 80//80 83//83
f 84//84 85//85 86//86
f 86//86 87//87 84//84
f 88//88 89//89 90//90
f 89//89 88//88 91//91
f 92//92 93//93 94//94
f 93//93 92//92 95//95
f 96//96 97//97 98//98
f 97//97 96//96 99//99
f 100//100 101//101 102//102
f 102//102 103//103 100//100
f 104//104 105//105 106//106
f 105//105 104//104 107//107
f 108//108 109//109 110//110
f 110//110 111//111 108//108
f 112//112 113//113 114//114
f 113//113 112//112 115//115
f 116//116 117//117 118//118
f 119//119 120//120 121//121
f 122//122 123//123 124//124
f 125//125 124//124 123//123
f 126//126 127//127 128//128
f 129//129 130//130 131//131
f 132//132 133//133 134//134
f 135//135 136//136 137//137
f 138//138 139//139 140//140
f 141//141 142//142 143//143
f 144//144 145//145 146//146
f 147//147 148//148 149//149
f 148//148 147//147 150//150
f 151//151 152//152 153//153
f 152//152 151//151 154//154
f 155//155 156//156 157//157
f 156//156 155//155 158//158
f 159//159 160//160 161//161
f 159//159 161//161 162//162
f 163//163 164//164 165//165
f 165//165 166//166 163//163
f 167//167 168//168 169//169
f 168//168 167//167 170//170
f 171//171 172//172 173//173
f 172//172 171//171 174//174
f 175//175 176//176 177//177
f 177//177 178//178 175//175
f 179//179 180//180 181//181
f 180//180 179//179 182//182
f 183//183 184//184 185//185
f 183//183 185//185 186//186
f 187//187 188//188 189//189
f 189//189 190//190 187//187
f 191//191 192//192 193//193
f 194//194 195//195 196//196
f 197//197 194//194 196//196
f 198//198 199//199 200//200
f 199//199 198//198 201//201
f 202//202 203//203 204//204
f 203//203 202//202 205//205
f 206//206 207//207 208//208
f 207//207 206//206 209//209
f 210//210 211//211 212//212
f 211//211 210//210 213//213
f 214//214 215//215 216//216
f 215//215 214//214 217//217
f 218//218 219//219 220//220
f 221//221 219//219 218//218
f 222//222 223//223 224//224
f 223//223 222//222 225//225
f 226//226 227//227 228//228
f 227//227 226//226 229//229
f 230//230 231//231 232//232
f 233//233 232//232 231//231
f 234//234 235//235 236//236
f 235//235 234//234 237//237
f 238//238 239//239 240//240
f 239//239 238//238 241//241
f 242//242 243//243 244//244
f 243//243 242//242 245//245
f 246//246 247//247 248//248
f 247//247 246//246 249//249
f 250//250 251//251 252//252
f 250//250 252//252 253//253
f 254//254 255//255 256//256
f 255//255 254//254 257//257
f 258//258 259//259 260//260
f 259//259 258//258 261//261
f 262//262 263//263 264//264
f 264//264 265//265 262//262
f 266//266 267//267 268//268
f 267//267 266//266 269//269
f 270//270 271//271 272//272
f 271//271 270//270 273//273
f 274//274 275//275 276//276
f 275//275 274//274 277//277
f 278//278 279//279 280//280
f 279//279 278//278 281//281
f 282//282 283//283 284//284
f 283//283 282//282 285//285
f 286//286 287//287 288//288
f 287//287 286//286 289//289
f 290//290 291//291 292//292
f 293//293 291//291 290//290
f 294//294 295//295 296//296
f 295//295 294//294 297//297
f 298//298 299//299 300//300
f 301//301 300//300 299//299
f 302//302 303//303 304//304
f 303//303 302//302 305//305
f 306//306 307//307 308//308
f 309//309 307//307 306//306
f 310//310 311//311 312//312
f 311//311 310//310 313//313
f 314//314 315//315 316//316
f 315//315 314//314 317//317
f 318//318 319//319 320//320
f 321//321 318//318 320//320
f 322//322 323//323 324//324
f 323//323 322//322 325//325
f 326//326 327//327 328//328
f 327//327 326//326 329//329
f 330//330 331//331 332//332
f 333//333 331//331 330//330
f 334//334 335//335 336//336
f 335//335 334//334 337//337
f 338//338 339//339 340//340
f 339//339 338//338 341//341
f 342//342 343//343 344//344
f 343//343 342//342 345//345
f 346//346 347//347 348//348
f 347//347 346//346 349//349
f 350//350 351//351 352//352
f 351//351 350//350 353//353
f 354//354 355//355 356//356
f 355//355 354//354 357//357
f 358//358 359//359 360//360
f 359//359 358//358 361//361
f 362//362 363//363 364//364
f 364//364 365//365 362//362
f 366//366 367//367 368//368
f 367//367 366//366 369//369
f 370//370 371//371 372//372
f 372//372 373//373 370//370
f 374//374 375//375 376//376
f 375//375 374//374 377//377
f 378//378 379//379 380//380
f 379//379 378//378 381//381
usemtl LightWood
f 382//382 383//383 384//384
f 385//385 383//383 382//382
f 383//383 385//385 386//386
f 387//387 388//388 389//389
f 388//388 387//387 390//390
f 391//391 392//392 393//393
f 394//394 392//392 391//391
f 392//392 394//394 395//395
f 396//396 397//397 398//398
f 397//397 399//399 400//400
f 399//399 397//397 396//396
f 401//401 402//402 403//403
f 402//402 401//401 404//404
f 405//405 406//406 407//407
f 406//406 405//405 408//408
f 409//409 410//410 411//411
f 412//412 410//410 409//409
