# How to Fish Style Low-Poly Caveman
mtllib caveman.mtl
o HowToFishCaveman

v 0.0000 1.0500 0.2200
v 0.2546 1.0500 0.1556
v 0.3600 1.0500 0.0000
v 0.2546 1.0500 -0.1556
v 0.0000 1.0500 -0.2200
v -0.2546 1.0500 -0.1556
v -0.3600 1.0500 -0.0000
v -0.2546 1.0500 0.1556
v 0.0000 0.8500 0.2400
v 0.2687 0.8500 0.1697
v 0.3800 0.8500 0.0000
v 0.2687 0.8500 -0.1697
v 0.0000 0.8500 -0.2400
v -0.2687 0.8500 -0.1697
v -0.3800 0.8500 -0.0000
v -0.2687 0.8500 0.1697
v 0.0000 0.6000 0.2100
v 0.2333 0.6000 0.1485
v 0.3300 0.6000 0.0000
v 0.2333 0.6000 -0.1485
v 0.0000 0.6000 -0.2100
v -0.2333 0.6000 -0.1485
v -0.3300 0.6000 -0.0000
v -0.2333 0.6000 0.1485
v 0.0000 0.4000 0.2200
v 0.2404 0.4000 0.1556
v 0.3400 0.4000 0.0000
v 0.2404 0.4000 -0.1556
v 0.0000 0.4000 -0.2200
v -0.2404 0.4000 -0.1556
v -0.3400 0.4000 -0.0000
v -0.2404 0.4000 0.1556
v -0.1800 0.4000 0.2200
v 0.1800 0.4000 0.2200
v 0.1500 0.0800 0.2500
v -0.1500 0.0800 0.2500
v -0.1800 0.9000 0.2400
v -0.1800 1.0600 0.1000
v -0.1800 0.8800 -0.2200
v -0.2300 0.9000 0.2400
v -0.2300 1.0600 0.1000
v -0.2300 0.8800 -0.2200
v 0.1800 0.9000 0.2400
v 0.1800 1.0600 0.1000
v 0.1800 0.8800 -0.2200
v 0.2300 0.9000 0.2400
v 0.2300 1.0600 0.1000
v 0.2300 0.8800 -0.2200
v -0.1468 0.9320 0.2381
v -0.1468 0.9020 0.2681
v -0.1168 0.9020 0.2381
v -0.1468 0.9020 0.2081
v -0.1768 0.9020 0.2381
v -0.1468 0.8720 0.2381
v -0.0768 0.9560 0.2693
v -0.0768 0.9260 0.2993
v -0.0468 0.9260 0.2693
v -0.0768 0.9260 0.2393
v -0.1068 0.9260 0.2693
v -0.0768 0.8960 0.2693
v 0.0000 0.9800 0.2800
v 0.0000 0.9500 0.3100
v 0.0300 0.9500 0.2800
v 0.0000 0.9500 0.2500
v -0.0300 0.9500 0.2800
v 0.0000 0.9200 0.2800
v 0.0768 0.9560 0.2693
v 0.0768 0.9260 0.2993
v 0.1068 0.9260 0.2693
v 0.0768 0.9260 0.2393
v 0.0468 0.9260 0.2693
v 0.0768 0.8960 0.2693
v 0.1468 0.9320 0.2381
v 0.1468 0.9020 0.2681
v 0.1768 0.9020 0.2381
v 0.1468 0.9020 0.2081
v 0.1168 0.9020 0.2381
v 0.1468 0.8720 0.2381
v 0.0000 1.0200 0.1800
v 0.1273 1.0200 0.1273
v 0.1800 1.0200 0.0000
v 0.1273 1.0200 -0.1273
v 0.0000 1.0200 -0.1800
v -0.1273 1.0200 -0.1273
v -0.1800 1.0200 -0.0000
v -0.1273 1.0200 0.1273
v 0.0000 1.2200 0.1800
v 0.1202 1.2200 0.1302
v 0.1700 1.2200 0.0100
v 0.1202 1.2200 -0.1102
v 0.0000 1.2200 -0.1600
v -0.1202 1.2200 -0.1102
v -0.1700 1.2200 0.0100
v -0.1202 1.2200 0.1302
v 0.0000 1.4200 0.2500
v 0.1414 1.4200 0.1856
v 0.2000 1.4200 0.0300
v 0.1414 1.4200 -0.1256
v 0.0000 1.4200 -0.1900
v -0.1414 1.4200 -0.1256
v -0.2000 1.4200 0.0300
v -0.1414 1.4200 0.1856
v 0.0000 1.6200 0.3100
v 0.1768 1.6200 0.2338
v 0.2500 1.6200 0.0500
v 0.1768 1.6200 -0.1338
v 0.0000 1.6200 -0.2100
v -0.1768 1.6200 -0.1338
v -0.2500 1.6200 0.0500
v -0.1768 1.6200 0.2338
v 0.0000 1.7800 0.3000
v 0.1838 1.7800 0.2238
v 0.2600 1.7800 0.0400
v 0.1838 1.7800 -0.1438
v 0.0000 1.7800 -0.2200
v -0.1838 1.7800 -0.1438
v -0.2600 1.7800 0.0400
v -0.1838 1.7800 0.2238
v 0.0000 1.9400 0.2700
v 0.1768 1.9400 0.1968
v 0.2500 1.9400 0.0200
v 0.1768 1.9400 -0.1568
v 0.0000 1.9400 -0.2300
v -0.1768 1.9400 -0.1568
v -0.2500 1.9400 0.0200
v -0.1768 1.9400 0.1968
v 0.0000 2.0700 0.2000
v 0.1414 2.0700 0.1414
v 0.2000 2.0700 0.0000
v 0.1414 2.0700 -0.1414
v 0.0000 2.0700 -0.2000
v -0.1414 2.0700 -0.1414
v -0.2000 2.0700 -0.0000
v -0.1414 2.0700 0.1414
v 0.0000 2.1500 0.0000
v 0.0000 1.7800 0.3100
v 0.0000 1.7100 0.3700
v -0.0600 1.6800 0.2900
v 0.0600 1.6800 0.2900
v -0.1100 1.5500 0.2700
v 0.1100 1.5500 0.2700
v 0.1000 1.5200 0.2600
v -0.1000 1.5200 0.2600
v -0.0700 1.5300 0.2800
v -0.0700 1.5900 0.3000
v -0.0950 1.5300 0.2750
v 0.0700 1.5300 0.2800
v 0.0700 1.5900 0.3000
v 0.0950 1.5300 0.2750
v -0.1400 1.8850 0.2600
v -0.1400 1.8572 0.3272
v -0.0818 1.8572 0.2936
v -0.0818 1.8572 0.2264
v -0.1400 1.8572 0.1928
v -0.1982 1.8572 0.2264
v -0.1982 1.8572 0.2936
v -0.1400 1.7900 0.3550
v -0.0577 1.7900 0.3075
v -0.0577 1.7900 0.2125
v -0.1400 1.7900 0.1650
v -0.2223 1.7900 0.2125
v -0.2223 1.7900 0.3075
v -0.1400 1.7228 0.3272
v -0.0818 1.7228 0.2936
v -0.0818 1.7228 0.2264
v -0.1400 1.7228 0.1928
v -0.1982 1.7228 0.2264
v -0.1982 1.7228 0.2936
v -0.1400 1.6950 0.2600
v -0.1900 1.8250 0.3531
v -0.1200 1.8250 0.3531
v -0.1200 1.7550 0.3531
v -0.1900 1.7550 0.3531
v 0.1400 1.8850 0.2600
v 0.1400 1.8572 0.3272
v 0.1982 1.8572 0.2936
v 0.1982 1.8572 0.2264
v 0.1400 1.8572 0.1928
v 0.0818 1.8572 0.2264
v 0.0818 1.8572 0.2936
v 0.1400 1.7900 0.3550
v 0.2223 1.7900 0.3075
v 0.2223 1.7900 0.2125
v 0.1400 1.7900 0.1650
v 0.0577 1.7900 0.2125
v 0.0577 1.7900 0.3075
v 0.1400 1.7228 0.3272
v 0.1982 1.7228 0.2936
v 0.1982 1.7228 0.2264
v 0.1400 1.7228 0.1928
v 0.0818 1.7228 0.2264
v 0.0818 1.7228 0.2936
v 0.1400 1.6950 0.2600
v 0.1200 1.8250 0.3531
v 0.1900 1.8250 0.3531
v 0.1900 1.7550 0.3531
v 0.1200 1.7550 0.3531
v 0.0000 2.3000 -0.0200
v 0.0000 2.2200 0.1186
v 0.1318 2.2200 0.0228
v 0.0814 2.2200 -0.1321
v -0.0814 2.2200 -0.1321
v -0.1318 2.2200 0.0228
v 0.0000 2.0600 0.1186
v 0.1318 2.0600 0.0228
v 0.0814 2.0600 -0.1321
v -0.0814 2.0600 -0.1321
v -0.1318 2.0600 0.0228
v 0.0000 1.9800 -0.0200
v 0.0000 2.3500 -0.0300
v 0.0000 2.2950 0.0653
v 0.0906 2.2950 -0.0006
v 0.0560 2.2950 -0.1071
v -0.0560 2.2950 -0.1071
v -0.0906 2.2950 -0.0006
v 0.0000 2.1850 0.0653
v 0.0906 2.1850 -0.0006
v 0.0560 2.1850 -0.1071
v -0.0560 2.1850 -0.1071
v -0.0906 2.1850 -0.0006
v 0.0000 2.1300 -0.0300
v -0.2400 2.2200 -0.0600
v 0.2400 2.2200 -0.0600
v -0.2400 2.2485 -0.0393
v 0.2400 2.2485 -0.0393
v -0.2400 2.2376 -0.0057
v 0.2400 2.2376 -0.0057
v -0.2400 2.2024 -0.0057
v 0.2400 2.2024 -0.0057
v -0.2400 2.1915 -0.0393
v 0.2400 2.1915 -0.0393
v -0.2400 2.2200 -0.0300
v 0.2400 2.2200 -0.0300
v -0.2400 2.2700 -0.0300
v -0.2400 2.2450 0.0133
v -0.1967 2.2450 -0.0300
v -0.2400 2.2450 -0.0733
v -0.2833 2.2450 -0.0300
v -0.2400 2.1950 0.0133
v -0.1967 2.1950 -0.0300
v -0.2400 2.1950 -0.0733
v -0.2833 2.1950 -0.0300
v -0.2400 2.1700 -0.0300
v 0.2400 2.2700 -0.0300
v 0.2400 2.2450 0.0133
v 0.2833 2.2450 -0.0300
v 0.2400 2.2450 -0.0733
v 0.1967 2.2450 -0.0300
v 0.2400 2.1950 0.0133
v 0.2833 2.1950 -0.0300
v 0.2400 2.1950 -0.0733
v 0.1967 2.1950 -0.0300
v 0.2400 2.1700 -0.0300
v -0.3313 0.9628 0.0000
v -0.4111 0.5860 0.0200
v -0.4056 0.9801 0.1045
v -0.4718 0.6001 0.1055
v -0.5274 0.9972 0.0646
v -0.5715 0.6141 0.0728
v -0.5284 0.9906 -0.0646
v -0.5723 0.6086 -0.0328
v -0.4073 0.9693 -0.1045
v -0.4732 0.5913 -0.0655
v -0.4400 0.9800 0.0000
v -0.5000 0.6000 0.0200
v -0.3509 0.8051 0.0100
v -0.3609 0.7251 0.0100
v -0.4332 0.8154 0.1241
v -0.4432 0.7354 0.1241
v -0.5663 0.8320 0.0805
v -0.5763 0.7520 0.0805
v -0.5663 0.8320 -0.0605
v -0.5763 0.7520 -0.0605
v -0.4332 0.8154 -0.1041
v -0.4432 0.7354 -0.1041
v -0.4700 0.8200 0.0100
v -0.4800 0.7400 0.0100
v -0.4102 0.5947 0.0200
v -0.4401 0.2553 0.0600
v -0.4717 0.6083 0.1050
v -0.4948 0.2674 0.1356
v -0.5723 0.6104 0.0725
v -0.5843 0.2693 0.1067
v -0.5730 0.5981 -0.0325
v -0.5849 0.2583 0.0133
v -0.4728 0.5884 -0.0650
v -0.4958 0.2497 -0.0156
v -0.5000 0.6000 0.0200
v -0.5200 0.2600 0.0600
v -0.5300 0.2400 0.0800
v -0.5300 0.1900 0.1666
v -0.4476 0.1900 0.1068
v -0.4791 0.1900 0.0099
v -0.5809 0.1900 0.0099
v -0.6124 0.1900 0.1068
v -0.5300 0.0900 0.1666
v -0.4476 0.0900 0.1068
v -0.4791 0.0900 0.0099
v -0.5809 0.0900 0.0099
v -0.6124 0.0900 0.1068
v -0.5300 0.0400 0.0800
v -0.5900 0.2150 0.1300
v -0.5900 0.1700 0.1750
v -0.5450 0.1700 0.1300
v -0.5900 0.1700 0.0850
v -0.6350 0.1700 0.1300
v -0.5900 0.1250 0.1300
v 0.5487 0.9972 0.0000
v 0.5889 0.6140 0.0200
v 0.4727 0.9907 0.1045
v 0.5268 0.6087 0.1055
v 0.3516 0.9694 0.0646
v 0.4277 0.5914 0.0728
v 0.3526 0.9628 -0.0646
v 0.4285 0.5859 -0.0328
v 0.4744 0.9799 -0.1045
v 0.5282 0.5999 -0.0655
v 0.4400 0.9800 0.0000
v 0.5000 0.6000 0.0200
v 0.5891 0.8349 0.0100
v 0.5991 0.7549 0.0100
v 0.5068 0.8246 0.1241
v 0.5168 0.7446 0.1241
v 0.3737 0.8080 0.0805
v 0.3837 0.7280 0.0805
v 0.3737 0.8080 -0.0605
v 0.3837 0.7280 -0.0605
v 0.5068 0.8246 -0.1041
v 0.5168 0.7446 -0.1041
v 0.4700 0.8200 0.0100
v 0.4800 0.7400 0.0100
v 0.5898 0.6053 0.0200
v 0.5999 0.2647 0.0600
v 0.5272 0.6116 0.1050
v 0.5442 0.2703 0.1356
v 0.4270 0.6019 0.0725
v 0.4551 0.2617 0.1067
v 0.4277 0.5896 -0.0325
v 0.4557 0.2507 0.0133
v 0.5283 0.5917 -0.0650
v 0.5452 0.2526 -0.0156
v 0.5000 0.6000 0.0200
v 0.5200 0.2600 0.0600
v 0.5300 0.2400 0.0800
v 0.5300 0.1900 0.1666
v 0.6124 0.1900 0.1068
v 0.5809 0.1900 0.0099
v 0.4791 0.1900 0.0099
v 0.4476 0.1900 0.1068
v 0.5300 0.0900 0.1666
v 0.6124 0.0900 0.1068
v 0.5809 0.0900 0.0099
v 0.4791 0.0900 0.0099
v 0.4476 0.0900 0.1068
v 0.5300 0.0400 0.0800
v 0.5900 0.2150 0.1300
v 0.5900 0.1700 0.1750
v 0.6350 0.1700 0.1300
v 0.5900 0.1700 0.0850
v 0.5450 0.1700 0.1300
v 0.5900 0.1250 0.1300
v -0.0700 0.3800 0.0000
v -0.0900 0.0200 0.0200
v -0.1598 0.3869 0.1234
v -0.1660 0.0258 0.1245
v -0.3052 0.3842 0.0763
v -0.2890 0.0236 0.0846
v -0.3052 0.3758 -0.0763
v -0.2890 0.0164 -0.0446
v -0.1598 0.3731 -0.1234
v -0.1660 0.0142 -0.0845
v -0.2000 0.3800 0.0000
v -0.2000 0.0200 0.0200
v -0.0900 0.0200 0.0200
v -0.1100 -0.3400 0.0000
v -0.1660 0.0142 0.1245
v -0.1722 -0.3447 0.0855
v -0.2890 0.0164 0.0846
v -0.2728 -0.3429 0.0528
v -0.2890 0.0236 -0.0446
v -0.2728 -0.3371 -0.0528
v -0.1660 0.0258 -0.0845
v -0.1722 -0.3353 -0.0855
v -0.2000 0.0200 0.0200
v -0.2000 -0.3400 0.0000
v -0.3000 -0.4200 -0.0800
v -0.1000 -0.4200 -0.0800
v -0.1000 -0.4200 0.2600
v -0.3000 -0.4200 0.2600
v -0.2800 -0.3000 0.0000
v -0.1200 -0.3000 0.0000
v -0.2000 -0.3800 0.2800
v 0.3300 0.3800 0.0000
v 0.3100 0.0200 0.0200
v 0.2402 0.3869 0.1234
v 0.2340 0.0258 0.1245
v 0.0948 0.3842 0.0763
v 0.1110 0.0236 0.0846
v 0.0948 0.3758 -0.0763
v 0.1110 0.0164 -0.0446
v 0.2402 0.3731 -0.1234
v 0.2340 0.0142 -0.0845
v 0.2000 0.3800 0.0000
v 0.2000 0.0200 0.0200
v 0.3100 0.0200 0.0200
v 0.2900 -0.3400 0.0000
v 0.2340 0.0142 0.1245
v 0.2278 -0.3447 0.0855
v 0.1110 0.0164 0.0846
v 0.1272 -0.3429 0.0528
v 0.1110 0.0236 -0.0446
v 0.1272 -0.3371 -0.0528
v 0.2340 0.0258 -0.0845
v 0.2278 -0.3353 -0.0855
v 0.2000 0.0200 0.0200
v 0.2000 -0.3400 0.0000
v 0.1000 -0.4200 -0.0800
v 0.3000 -0.4200 -0.0800
v 0.3000 -0.4200 0.2600
v 0.1000 -0.4200 0.2600
v 0.1200 -0.3000 0.0000
v 0.2800 -0.3000 0.0000
v 0.2000 -0.3800 0.2800

vn 0.2519 0.0963 0.9629
vn 0.2443 0.0853 0.9659
vn 0.8322 0.0972 0.5458
vn 0.8251 0.0825 0.5589
vn 0.8333 0.0833 -0.5465
vn 0.8240 0.0974 -0.5582
vn 0.2522 0.0857 -0.9639
vn 0.2441 0.0965 -0.9649
vn -0.2519 0.0963 -0.9629
vn -0.2443 0.0853 -0.9659
vn -0.8322 0.0972 -0.5458
vn -0.8251 0.0825 -0.5589
vn -0.8333 0.0833 0.5465
vn -0.8240 0.0974 0.5582
vn -0.2522 0.0857 0.9639
vn -0.2441 0.0965 0.9649
vn 0.2532 -0.1153 0.9605
vn 0.2514 -0.1171 0.9608
vn 0.8268 -0.1627 0.5384
vn 0.8247 -0.1649 0.5409
vn 0.8265 -0.1653 -0.5382
vn 0.8251 -0.1627 -0.5411
vn 0.2531 -0.1173 -0.9603
vn 0.2514 -0.1153 -0.9610
vn -0.2532 -0.1153 -0.9605
vn -0.2514 -0.1171 -0.9608
vn -0.8268 -0.1627 -0.5384
vn -0.8247 -0.1649 -0.5409
vn -0.8265 -0.1653 0.5382
vn -0.8251 -0.1627 0.5411
vn -0.2531 -0.1173 0.9603
vn -0.2514 -0.1153 0.9610
vn 0.2585 0.0482 0.9648
vn 0.2547 0.0433 0.9661
vn 0.8412 0.0490 0.5385
vn 0.8373 0.0419 0.5452
vn 0.8415 0.0421 -0.5386
vn 0.8370 0.0491 -0.5450
vn 0.2585 0.0434 -0.9650
vn 0.2546 0.0483 -0.9658
vn -0.2585 0.0482 -0.9648
vn -0.2547 0.0433 -0.9661
vn -0.8412 0.0490 -0.5385
vn -0.8373 0.0419 -0.5452
vn -0.8415 0.0421 0.5386
vn -0.8370 0.0491 0.5450
vn -0.2585 0.0434 0.9650
vn -0.2546 0.0483 0.9658
vn 0.0000 -0.0933 -0.9956
vn 0.0000 -0.0933 -0.9956
vn 0.0000 0.6585 0.7526
vn 0.0000 0.6585 0.7526
vn 0.0000 0.8716 -0.4903
vn 0.0000 0.8716 -0.4903
vn 0.0000 -0.6585 -0.7526
vn 0.0000 -0.6585 -0.7526
vn 0.0000 -0.8716 0.4903
vn 0.0000 -0.8716 0.4903
vn 0.5774 0.5774 0.5774
vn 0.5774 0.5774 -0.5774
vn -0.5774 0.5774 -0.5774
vn -0.5774 0.5774 0.5774
vn 0.5774 -0.5774 0.5774
vn 0.5774 -0.5774 -0.5774
vn -0.5774 -0.5774 -0.5774
vn -0.5774 -0.5774 0.5774
vn 0.5774 0.5774 0.5774
vn 0.5774 0.5774 -0.5774
vn -0.5774 0.5774 -0.5774
vn -0.5774 0.5774 0.5774
vn 0.5774 -0.5774 0.5774
vn 0.5774 -0.5774 -0.5774
vn -0.5774 -0.5774 -0.5774
vn -0.5774 -0.5774 0.5774
vn 0.5774 0.5774 0.5774
vn 0.5774 0.5774 -0.5774
vn -0.5774 0.5774 -0.5774
vn -0.5774 0.5774 0.5774
vn 0.5774 -0.5774 0.5774
vn 0.5774 -0.5774 -0.5774
vn -0.5774 -0.5774 -0.5774
vn -0.5774 -0.5774 0.5774
vn 0.5774 0.5774 0.5774
vn 0.5774 0.5774 -0.5774
vn -0.5774 0.5774 -0.5774
vn -0.5774 0.5774 0.5774
vn 0.5774 -0.5774 0.5774
vn 0.5774 -0.5774 -0.5774
vn -0.5774 -0.5774 -0.5774
vn -0.5774 -0.5774 0.5774
vn 0.5774 0.5774 0.5774
vn 0.5774 0.5774 -0.5774
vn -0.5774 0.5774 -0.5774
vn -0.5774 0.5774 0.5774
vn 0.5774 -0.5774 0.5774
vn 0.5774 -0.5774 -0.5774
vn -0.5774 -0.5774 -0.5774
vn -0.5774 -0.5774 0.5774
vn -0.3828 0.0000 -0.9238
vn -0.3825 -0.0002 -0.9240
vn -0.9235 -0.0272 -0.3826
vn -0.9236 -0.0271 -0.3824
vn -0.9219 -0.0652 0.3819
vn -0.9220 -0.0654 0.3817
vn -0.3811 -0.0922 0.9199
vn -0.3809 -0.0920 0.9200
vn 0.3811 -0.0920 0.9199
vn 0.3809 -0.0922 0.9200
vn 0.9219 -0.0654 0.3819
vn 0.9220 -0.0652 0.3817
vn 0.9235 -0.0270 -0.3826
vn 0.9236 -0.0272 -0.3824
vn 0.3828 -0.0002 -0.9238
vn 0.3825 0.0000 -0.9240
vn -0.3949 0.3035 -0.8671
vn -0.3670 0.2842 -0.8857
vn -0.9182 0.1931 -0.3458
vn -0.9097 0.1742 -0.3769
vn -0.9307 0.1046 0.3505
vn -0.9164 0.1264 0.3797
vn -0.4118 0.1133 0.9042
vn -0.3791 0.1373 0.9151
vn 0.4107 0.1353 0.9017
vn 0.3804 0.1110 0.9181
vn 0.9285 0.1253 0.3497
vn 0.9192 0.0998 0.3808
vn 0.9217 0.1730 -0.3471
vn 0.9052 0.1998 -0.3750
vn 0.3974 0.2838 -0.8726
vn 0.3642 0.3077 -0.8790
vn -0.3816 0.2656 -0.8854
vn -0.3978 0.2809 -0.8734
vn -0.9005 0.2458 -0.3586
vn -0.9037 0.2599 -0.3403
vn -0.9118 0.1916 0.3631
vn -0.9210 0.1772 0.3469
vn -0.3935 0.1071 0.9131
vn -0.4128 0.0906 0.9063
vn 0.3941 0.0914 0.9145
vn 0.4120 0.1100 0.9045
vn 0.9144 0.1768 0.3642
vn 0.9179 0.1949 0.3457
vn 0.8971 0.2600 -0.3573
vn 0.9078 0.2431 -0.3419
vn 0.3800 0.2797 -0.8817
vn 0.3998 0.2634 -0.8779
vn -0.3823 -0.0576 -0.9222
vn -0.3955 -0.0400 -0.9176
vn -0.9236 0.0165 -0.3829
vn -0.9285 0.0349 -0.3698
vn -0.9207 0.0814 0.3817
vn -0.9272 0.0636 0.3692
vn -0.3819 0.0743 0.9212
vn -0.3951 0.0573 0.9168
vn 0.3823 0.0576 0.9222
vn 0.3947 0.0745 0.9158
vn 0.9219 0.0642 0.3822
vn 0.9260 0.0809 0.3688
vn 0.9232 0.0338 -0.3828
vn 0.9289 0.0175 -0.3699
vn 0.3827 -0.0409 -0.9230
vn 0.3951 -0.0573 -0.9168
vn -0.3769 -0.1707 -0.9104
vn -0.3774 -0.1701 -0.9103
vn -0.9189 -0.1044 -0.3804
vn -0.9187 -0.1050 -0.3809
vn -0.9239 -0.0099 0.3825
vn -0.9237 -0.0093 0.3830
vn -0.3819 0.0582 0.9224
vn -0.3823 0.0576 0.9222
vn 0.3819 0.0577 0.9224
vn 0.3823 0.0582 0.9222
vn 0.9239 -0.0093 0.3825
vn 0.9237 -0.0099 0.3830
vn 0.9188 -0.1050 -0.3804
vn 0.9187 -0.1045 -0.3809
vn 0.3770 -0.1701 -0.9105
vn 0.3774 -0.1707 -0.9102
vn -0.3428 -0.4454 -0.8271
vn -0.3424 -0.4457 -0.8271
vn -0.8533 -0.3831 -0.3536
vn -0.8536 -0.3827 -0.3534
vn -0.8857 -0.2842 0.3671
vn -0.8857 -0.2846 0.3667
vn -0.3744 -0.2090 0.9034
vn -0.3741 -0.2085 0.9036
vn 0.3744 -0.2085 0.9035
vn 0.3741 -0.2089 0.9036
vn 0.8856 -0.2846 0.3670
vn 0.8858 -0.2843 0.3668
vn 0.8535 -0.3827 -0.3537
vn 0.8535 -0.3830 -0.3534
vn 0.3427 -0.4457 -0.8270
vn 0.3425 -0.4454 -0.8272
vn 0.1521 0.9177 0.3671
vn 0.3671 0.9177 0.1521
vn 0.3671 0.9177 -0.1521
vn 0.1521 0.9177 -0.3671
vn -0.1521 0.9177 -0.3671
vn -0.3671 0.9177 -0.1521
vn -0.3671 0.9177 0.1521
vn -0.1521 0.9177 0.3671
vn 0.8009 -0.3897 -0.4546
vn -0.8009 -0.3897 -0.4546
vn 0.0000 0.9363 -0.3511
vn 0.0000 0.3162 -0.9487
vn 0.0000 0.3162 -0.9487
vn -0.1864 -0.3107 0.9321
vn -0.1864 0.3107 -0.9321
vn 0.2155 0.9023 0.3733
vn 0.4310 0.9023 0.0000
vn 0.2155 0.9023 -0.3733
vn -0.2155 0.9023 -0.3733
vn -0.4310 0.9023 0.0000
vn -0.2155 0.9023 0.3733
vn 0.4706 0.3373 0.8153
vn 0.4707 0.3374 0.8152
vn 0.9413 0.3376 0.0000
vn 0.9413 0.3376 0.0000
vn 0.4706 0.3374 -0.8153
vn 0.4707 0.3373 -0.8153
vn -0.4706 0.3373 -0.8153
vn -0.4707 0.3374 -0.8152
vn -0.9413 0.3376 0.0000
vn -0.9413 0.3376 0.0000
vn -0.4706 0.3374 0.8153
vn -0.4707 0.3373 0.8153
vn 0.4707 -0.3373 0.8153
vn 0.4706 -0.3374 0.8153
vn 0.9413 -0.3376 0.0000
vn 0.9413 -0.3376 0.0000
vn 0.4707 -0.3374 -0.8152
vn 0.4706 -0.3373 -0.8153
vn -0.4707 -0.3373 -0.8153
vn -0.4706 -0.3374 -0.8153
vn -0.9413 -0.3376 0.0000
vn -0.9413 -0.3376 0.0000
vn -0.4707 -0.3374 0.8152
vn -0.4706 -0.3373 0.8153
vn 0.2155 -0.9023 0.3733
vn 0.4310 -0.9023 0.0000
vn 0.2155 -0.9023 -0.3733
vn -0.2155 -0.9023 -0.3733
vn -0.4310 -0.9023 -0.0000
vn -0.2155 -0.9023 0.3733
vn 0.0000 0.0000 -1.0000
vn 0.0000 0.0000 -1.0000
vn 0.2155 0.9023 0.3733
vn 0.4310 0.9023 0.0000
vn 0.2155 0.9023 -0.3733
vn -0.2155 0.9023 -0.3733
vn -0.4310 0.9023 0.0000
vn -0.2155 0.9023 0.3733
vn 0.4706 0.3373 0.8153
vn 0.4707 0.3374 0.8152
vn 0.9413 0.3376 0.0000
vn 0.9413 0.3376 0.0000
vn 0.4706 0.3374 -0.8153
vn 0.4707 0.3373 -0.8153
vn -0.4706 0.3373 -0.8153
vn -0.4707 0.3374 -0.8152
vn -0.9413 0.3376 0.0000
vn -0.9413 0.3376 0.0000
vn -0.4706 0.3374 0.8153
vn -0.4707 0.3373 0.8153
vn 0.4707 -0.3373 0.8153
vn 0.4706 -0.3374 0.8153
vn 0.9413 -0.3376 0.0000
vn 0.9413 -0.3376 0.0000
vn 0.4707 -0.3374 -0.8152
vn 0.4706 -0.3373 -0.8153
vn -0.4707 -0.3373 -0.8153
vn -0.4706 -0.3374 -0.8153
vn -0.9413 -0.3376 0.0000
vn -0.9413 -0.3376 0.0000
vn -0.4707 -0.3374 0.8152
vn -0.4706 -0.3373 0.8153
vn 0.2155 -0.9023 0.3733
vn 0.4310 -0.9023 0.0000
vn 0.2155 -0.9023 -0.3733
vn -0.2155 -0.9023 -0.3733
vn -0.4310 -0.9023 -0.0000
vn -0.2155 -0.9023 0.3733
vn 0.0000 0.0000 -1.0000
vn 0.0000 0.0000 -1.0000
vn 0.3415 0.8140 0.4698
vn 0.5524 0.8140 -0.1797
vn 0.0000 0.8140 -0.5809
vn -0.5524 0.8140 -0.1797
vn -0.3415 0.8140 0.4698
vn 0.5880 0.0000 0.8089
vn 0.5880 0.0000 0.8089
vn 0.9509 0.0000 -0.3094
vn 0.9509 0.0000 -0.3094
vn 0.0000 -0.0000 -1.0000
vn -0.0000 0.0000 -1.0000
vn -0.9509 -0.0000 -0.3094
vn -0.9509 0.0000 -0.3094
vn -0.5880 0.0000 0.8089
vn -0.5880 0.0000 0.8089
vn 0.3415 -0.8140 0.4698
vn 0.5524 -0.8140 -0.1797
vn 0.0000 -0.8140 -0.5809
vn -0.5524 -0.8140 -0.1797
vn -0.3415 -0.8140 0.4698
vn 0.3417 0.8140 0.4698
vn 0.5524 0.8140 -0.1795
vn 0.0000 0.8141 -0.5807
vn -0.5524 0.8140 -0.1795
vn -0.3417 0.8140 0.4698
vn 0.5882 0.0000 0.8087
vn 0.5882 0.0000 0.8087
vn 0.9511 0.0000 -0.3090
vn 0.9511 0.0000 -0.3090
vn 0.0000 -0.0000 -1.0000
vn -0.0000 0.0000 -1.0000
vn -0.9511 -0.0000 -0.3090
vn -0.9511 0.0000 -0.3090
vn -0.5882 0.0000 0.8087
vn -0.5882 0.0000 0.8087
vn 0.3417 -0.8140 0.4698
vn 0.5524 -0.8140 -0.1795
vn 0.0000 -0.8141 -0.5807
vn -0.5524 -0.8140 -0.1795
vn -0.3417 -0.8140 0.4698
vn 0.0000 -0.5877 0.8091
vn 0.0000 -0.5877 0.8091
vn 0.0000 -0.9512 -0.3086
vn 0.0000 -0.9512 -0.3086
vn 0.0000 0.0000 -1.0000
vn 0.0000 0.0000 -1.0000
vn 0.0000 0.9512 -0.3086
vn 0.0000 0.9512 -0.3086
vn -0.0000 0.5877 0.8091
vn 0.0000 0.5877 0.8091
vn -1.0000 0.0000 0.0000
vn 1.0000 0.0000 0.0000
vn -1.0000 0.0000 0.0000
vn 1.0000 -0.0000 0.0000
vn -1.0000 0.0000 0.0000
vn 1.0000 0.0000 -0.0000
vn -1.0000 -0.0000 0.0000
vn 1.0000 0.0000 0.0000
vn -1.0000 0.0000 -0.0000
vn 1.0000 0.0000 0.0000
vn 0.4472 0.7746 0.4472
vn 0.4472 0.7746 -0.4472
vn -0.4472 0.7746 -0.4472
vn -0.4472 0.7746 0.4472
vn 0.7071 0.0000 0.7071
vn 0.7071 0.0000 0.7071
vn 0.7071 0.0000 -0.7071
vn 0.7071 0.0000 -0.7071
vn -0.7071 -0.0000 -0.7071
vn -0.7071 0.0000 -0.7071
vn -0.7071 0.0000 0.7071
vn -0.7071 0.0000 0.7071
vn 0.4472 -0.7746 0.4472
vn 0.4472 -0.7746 -0.4472
vn -0.4472 -0.7746 -0.4472
vn -0.4472 -0.7746 0.4472
vn 0.4472 0.7746 0.4472
vn 0.4472 0.7746 -0.4472
vn -0.4472 0.7746 -0.4472
vn -0.4472 0.7746 0.4472
vn 0.7071 0.0000 0.7071
vn 0.7071 0.0000 0.7071
vn 0.7071 0.0000 -0.7071
vn 0.7071 0.0000 -0.7071
vn -0.7071 -0.0000 -0.7071
vn -0.7071 0.0000 -0.7071
vn -0.7071 0.0000 0.7071
vn -0.7071 0.0000 0.7071
vn 0.4472 -0.7746 0.4472
vn 0.4472 -0.7746 -0.4472
vn -0.4472 -0.7746 -0.4472
vn -0.4472 -0.7746 0.4472
vn -0.7968 0.1375 -0.5884
vn -0.7964 0.1372 -0.5890
vn 0.3041 -0.0555 -0.9510
vn 0.3038 -0.0553 -0.9511
vn 0.9934 -0.1144 -0.0016
vn 0.9934 -0.1143 -0.0018
vn 0.3197 0.0421 0.9466
vn 0.3193 0.0420 0.9467
vn -0.7873 0.1975 0.5841
vn -0.7869 0.1977 0.5846
vn 0.1561 0.9864 -0.0523
vn -0.1553 -0.9865 0.0524
vn 0.1556 0.9864 -0.0522
vn -0.1557 -0.9864 0.0525
vn 0.1560 0.9864 -0.0516
vn -0.1557 -0.9864 0.0526
vn 0.1563 0.9863 -0.0521
vn -0.1551 -0.9865 0.0518
vn 0.1561 0.9864 -0.0522
vn -0.1554 -0.9865 0.0517
vn -0.8026 0.1003 -0.5880
vn -0.8026 0.1003 -0.5880
vn 0.3067 -0.0383 -0.9510
vn 0.3067 -0.0383 -0.9510
vn 0.9923 -0.1240 0.0000
vn 0.9923 -0.1240 0.0000
vn 0.3067 -0.0383 0.9510
vn 0.3067 -0.0383 0.9510
vn -0.8026 0.1003 0.5880
vn -0.8026 0.1003 0.5880
vn 0.1241 0.9923 -0.0000
vn -0.1241 -0.9923 0.0000
vn 0.1237 0.9923 0.0001
vn -0.1237 -0.9923 -0.0001
vn 0.1237 0.9923 0.0000
vn -0.1237 -0.9923 0.0000
vn 0.1237 0.9923 -0.0001
vn -0.1237 -0.9923 0.0001
vn 0.1241 0.9923 0.0000
vn -0.1241 -0.9923 -0.0000
vn -0.8100 0.0022 -0.5864
vn -0.8100 0.0022 -0.5864
vn 0.3035 -0.1056 -0.9470
vn 0.3037 -0.1056 -0.9469
vn 0.9994 -0.0354 -0.0023
vn 0.9994 -0.0353 -0.0025
vn 0.3166 0.1158 0.9415
vn 0.3166 0.1158 0.9415
vn -0.8021 0.1392 0.5807
vn -0.8023 0.1391 0.5805
vn 0.0585 0.9915 -0.1163
vn -0.0583 -0.9915 0.1165
vn 0.0582 0.9915 -0.1162
vn -0.0587 -0.9914 0.1166
vn 0.0580 0.9915 -0.1165
vn -0.0583 -0.9914 0.1171
vn 0.0581 0.9915 -0.1167
vn -0.0579 -0.9915 0.1166
vn 0.0585 0.9915 -0.1166
vn -0.0583 -0.9915 0.1164
vn 0.3411 0.8141 0.4700
vn 0.5524 0.8140 -0.1796
vn 0.0000 0.8141 -0.5807
vn -0.5524 0.8140 -0.1796
vn -0.3411 0.8141 0.4700
vn 0.5874 0.0000 0.8093
vn 0.5874 0.0000 0.8093
vn 0.9510 0.0000 -0.3092
vn 0.9510 0.0000 -0.3092
vn 0.0000 -0.0000 -1.0000
vn -0.0000 0.0000 -1.0000
vn -0.9510 -0.0000 -0.3092
vn -0.9510 0.0000 -0.3092
vn -0.5874 0.0000 0.8093
vn -0.5874 0.0000 0.8093
vn 0.3411 -0.8141 0.4700
vn 0.5524 -0.8140 -0.1796
vn 0.0000 -0.8141 -0.5807
vn -0.5524 -0.8140 -0.1796
vn -0.3411 -0.8141 0.4700
vn 0.5774 0.5774 0.5774
vn 0.5774 0.5774 -0.5774
vn -0.5774 0.5774 -0.5774
vn -0.5774 0.5774 0.5774
vn 0.5774 -0.5774 0.5774
vn 0.5774 -0.5774 -0.5774
vn -0.5774 -0.5774 -0.5774
vn -0.5774 -0.5774 0.5774
vn -0.8004 -0.1147 -0.5884
vn -0.8000 -0.1148 -0.5889
vn 0.3066 0.0409 -0.9509
vn 0.3062 0.0410 -0.9511
vn 0.9803 0.1973 -0.0028
vn 0.9804 0.1972 -0.0025
vn 0.2910 0.1385 0.9466
vn 0.2907 0.1383 0.9468
vn -0.8099 -0.0547 0.5840
vn -0.8095 -0.0544 0.5846
vn -0.1561 0.9864 -0.0522
vn 0.1554 -0.9865 0.0517
vn -0.1563 0.9863 -0.0521
vn 0.1551 -0.9865 0.0518
vn -0.1560 0.9864 -0.0516
vn 0.1557 -0.9864 0.0526
vn -0.1556 0.9864 -0.0522
vn 0.1557 -0.9864 0.0525
vn -0.1561 0.9864 -0.0523
vn 0.1553 -0.9865 0.0524
vn -0.8026 -0.1003 -0.5880
vn -0.8026 -0.1003 -0.5880
vn 0.3067 0.0383 -0.9510
vn 0.3067 0.0383 -0.9510
vn 0.9923 0.1240 0.0000
vn 0.9923 0.1240 0.0000
vn 0.3067 0.0383 0.9510
vn 0.3067 0.0383 0.9510
vn -0.8026 -0.1003 0.5880
vn -0.8026 -0.1003 0.5880
vn -0.1241 0.9923 0.0000
vn 0.1241 -0.9923 -0.0000
vn -0.1237 0.9923 -0.0001
vn 0.1237 -0.9923 0.0001
vn -0.1237 0.9923 0.0000
vn 0.1237 -0.9923 0.0000
vn -0.1237 0.9923 0.0001
vn 0.1237 -0.9923 -0.0001
vn -0.1241 0.9923 -0.0000
vn 0.1241 -0.9923 0.0000
vn -0.8049 -0.0927 -0.5861
vn -0.8050 -0.0926 -0.5860
vn 0.3138 -0.0693 -0.9469
vn 0.3138 -0.0693 -0.9469
vn 0.9966 0.0820 -0.0033
vn 0.9966 0.0819 -0.0030
vn 0.3008 0.1521 0.9415
vn 0.3010 0.1521 0.9414
vn -0.8127 0.0441 0.5810
vn -0.8127 0.0441 0.5810
vn -0.0585 0.9915 -0.1166
vn 0.0583 -0.9915 0.1164
vn -0.0581 0.9915 -0.1167
vn 0.0579 -0.9915 0.1166
vn -0.0580 0.9915 -0.1165
vn 0.0583 -0.9914 0.1171
vn -0.0582 0.9915 -0.1162
vn 0.0587 -0.9914 0.1166
vn -0.0585 0.9915 -0.1163
vn 0.0583 -0.9915 0.1165
vn 0.3411 0.8141 0.4700
vn 0.5524 0.8140 -0.1796
vn 0.0000 0.8141 -0.5807
vn -0.5524 0.8140 -0.1796
vn -0.3411 0.8141 0.4700
vn 0.5874 0.0000 0.8093
vn 0.5874 0.0000 0.8093
vn 0.9510 0.0000 -0.3092
vn 0.9510 0.0000 -0.3092
vn 0.0000 -0.0000 -1.0000
vn -0.0000 0.0000 -1.0000
vn -0.9510 -0.0000 -0.3092
vn -0.9510 0.0000 -0.3092
vn -0.5874 0.0000 0.8093
vn -0.5874 0.0000 0.8093
vn 0.3411 -0.8141 0.4700
vn 0.5524 -0.8140 -0.1796
vn 0.0000 -0.8141 -0.5807
vn -0.5524 -0.8140 -0.1796
vn -0.3411 -0.8141 0.4700
vn 0.5774 0.5774 0.5774
vn 0.5774 0.5774 -0.5774
vn -0.5774 0.5774 -0.5774
vn -0.5774 0.5774 0.5774
vn 0.5774 -0.5774 0.5774
vn 0.5774 -0.5774 -0.5774
vn -0.5774 -0.5774 -0.5774
vn -0.5774 -0.5774 0.5774
vn -0.8084 0.0122 -0.5886
vn -0.8082 0.0121 -0.5888
vn 0.3087 -0.0082 -0.9511
vn 0.3083 -0.0080 -0.9513
vn 0.9990 0.0448 -0.0025
vn 0.9990 0.0448 -0.0025
vn 0.3087 0.0974 0.9462
vn 0.3083 0.0972 0.9463
vn -0.8084 0.0772 0.5836
vn -0.8082 0.0773 0.5838
vn 0.0000 0.9984 -0.0558
vn 0.0000 -0.9985 0.0554
vn -0.0005 0.9984 -0.0557
vn -0.0001 -0.9985 0.0555
vn 0.0000 0.9985 -0.0550
vn -0.0000 -0.9985 0.0556
vn 0.0005 0.9984 -0.0557
vn 0.0001 -0.9985 0.0555
vn 0.0000 0.9984 -0.0558
vn 0.0000 -0.9985 0.0554
vn -0.8083 0.0773 -0.5837
vn -0.8083 0.0774 -0.5836
vn 0.3092 0.0975 -0.9460
vn 0.3087 0.0977 -0.9461
vn 0.9990 0.0448 0.0025
vn 0.9990 0.0448 0.0025
vn 0.3092 -0.0077 0.9510
vn 0.3087 -0.0079 0.9511
vn -0.8083 0.0122 0.5887
vn -0.8084 0.0122 0.5886
vn -0.0000 0.9985 0.0554
vn 0.0000 -0.9985 -0.0549
vn -0.0001 0.9985 0.0555
vn -0.0000 -0.9985 -0.0549
vn -0.0000 0.9985 0.0556
vn -0.0000 -0.9985 -0.0548
vn 0.0001 0.9985 0.0555
vn 0.0000 -0.9985 -0.0549
vn -0.0000 0.9985 0.0554
vn 0.0000 -0.9985 -0.0549
vn 0.0000 -1.0000 0.0000
vn 0.0000 -1.0000 0.0000
vn 0.0000 0.5547 -0.8321
vn 0.0000 0.5547 -0.8321
vn -0.4076 0.8406 0.3566
vn 0.4076 0.8406 0.3566
vn -0.0000 0.9615 0.2747
vn 0.0000 -0.4472 0.8944
vn -0.8084 0.0122 -0.5886
vn -0.8082 0.0121 -0.5888
vn 0.3087 -0.0082 -0.9511
vn 0.3083 -0.0080 -0.9513
vn 0.9990 0.0448 -0.0025
vn 0.9990 0.0448 -0.0025
vn 0.3087 0.0974 0.9462
vn 0.3083 0.0972 0.9463
vn -0.8084 0.0772 0.5836
vn -0.8082 0.0773 0.5838
vn 0.0000 0.9984 -0.0558
vn 0.0000 -0.9985 0.0554
vn -0.0005 0.9984 -0.0557
vn -0.0001 -0.9985 0.0555
vn 0.0000 0.9985 -0.0550
vn -0.0000 -0.9985 0.0556
vn 0.0005 0.9984 -0.0557
vn 0.0001 -0.9985 0.0555
vn 0.0000 0.9984 -0.0558
vn 0.0000 -0.9985 0.0554
vn -0.8083 0.0773 -0.5837
vn -0.8083 0.0774 -0.5836
vn 0.3092 0.0975 -0.9460
vn 0.3087 0.0977 -0.9461
vn 0.9990 0.0448 0.0025
vn 0.9990 0.0448 0.0025
vn 0.3092 -0.0077 0.9510
vn 0.3087 -0.0079 0.9511
vn -0.8083 0.0122 0.5887
vn -0.8084 0.0122 0.5886
vn -0.0000 0.9985 0.0554
vn 0.0000 -0.9985 -0.0549
vn -0.0001 0.9985 0.0555
vn -0.0000 -0.9985 -0.0549
vn -0.0000 0.9985 0.0556
vn -0.0000 -0.9985 -0.0548
vn 0.0001 0.9985 0.0555
vn 0.0000 -0.9985 -0.0549
vn -0.0000 0.9985 0.0554
vn 0.0000 -0.9985 -0.0549
vn 0.0000 -1.0000 0.0000
vn 0.0000 -1.0000 0.0000
vn 0.0000 0.5547 -0.8321
vn 0.0000 0.5547 -0.8321
vn -0.4076 0.8406 0.3566
vn 0.4076 0.8406 0.3566
vn -0.0000 0.9615 0.2747
vn 0.0000 -0.4472 0.8944

usemtl mat_clothing
f 1//1 9//1 10//1
f 1//2 10//2 2//2
f 2//3 10//3 11//3
f 2//4 11//4 3//4
f 3//5 11//5 12//5
f 3//6 12//6 4//6
f 4//7 12//7 13//7
f 4//8 13//8 5//8
f 5//9 13//9 14//9
f 5//10 14//10 6//10
f 6//11 14//11 15//11
f 6//12 15//12 7//12
f 7//13 15//13 16//13
f 7//14 16//14 8//14
f 8//15 16//15 9//15
f 8//16 9//16 1//16
f 9//17 17//17 18//17
f 9//18 18//18 10//18
f 10//19 18//19 19//19
f 10//20 19//20 11//20
f 11//21 19//21 20//21
f 11//22 20//22 12//22
f 12//23 20//23 21//23
f 12//24 21//24 13//24
f 13//25 21//25 22//25
f 13//26 22//26 14//26
f 14//27 22//27 23//27
f 14//28 23//28 15//28
f 15//29 23//29 24//29
f 15//30 24//30 16//30
f 16//31 24//31 17//31
f 16//32 17//32 9//32
f 17//33 25//33 26//33
f 17//34 26//34 18//34
f 18//35 26//35 27//35
f 18//36 27//36 19//36
f 19//37 27//37 28//37
f 19//38 28//38 20//38
f 20//39 28//39 29//39
f 20//40 29//40 21//40
f 21//41 29//41 30//41
f 21//42 30//42 22//42
f 22//43 30//43 31//43
f 22//44 31//44 23//44
f 23//45 31//45 32//45
f 23//46 32//46 24//46
f 24//47 32//47 25//47
f 24//48 25//48 17//48
f 33//49 34//49 35//49
f 33//50 35//50 36//50
f 362//554 363//554 365//554
f 362//555 365//555 364//555
f 364//556 365//556 367//556
f 364//557 367//557 366//557
f 366//558 367//558 369//558
f 366//559 369//559 368//559
f 368//560 369//560 371//560
f 368//561 371//561 370//561
f 370//562 371//562 363//562
f 370//563 363//563 362//563
f 372//564 364//564 362//564
f 373//565 363//565 365//565
f 372//566 366//566 364//566
f 373//567 365//567 367//567
f 372//568 368//568 366//568
f 373//569 367//569 369//569
f 372//570 370//570 368//570
f 373//571 369//571 371//571
f 372//572 362//572 370//572
f 373//573 371//573 363//573
f 393//602 394//602 396//602
f 393//603 396//603 395//603
f 395//604 396//604 398//604
f 395//605 398//605 397//605
f 397//606 398//606 400//606
f 397//607 400//607 399//607
f 399//608 400//608 402//608
f 399//609 402//609 401//609
f 401//610 402//610 394//610
f 401//611 394//611 393//611
f 403//612 395//612 393//612
f 404//613 394//613 396//613
f 403//614 397//614 395//614
f 404//615 396//615 398//615
f 403//616 399//616 397//616
f 404//617 398//617 400//617
f 403//618 401//618 399//618
f 404//619 400//619 402//619
f 403//620 393//620 401//620
f 404//621 402//621 394//621
usemtl mat_accent
f 37//51 38//51 41//51
f 37//52 41//52 40//52
f 38//53 39//53 42//53
f 38//54 42//54 41//54
f 43//55 44//55 47//55
f 43//56 47//56 46//56
f 44//57 45//57 48//57
f 44//58 48//58 47//58
f 49//59 50//59 51//59
f 49//60 51//60 52//60
f 49//61 52//61 53//61
f 49//62 53//62 50//62
f 51//63 50//63 54//63
f 52//64 51//64 54//64
f 53//65 52//65 54//65
f 50//66 53//66 54//66
f 55//67 56//67 57//67
f 55//68 57//68 58//68
f 55//69 58//69 59//69
f 55//70 59//70 56//70
f 57//71 56//71 60//71
f 58//72 57//72 60//72
f 59//73 58//73 60//73
f 56//74 59//74 60//74
f 61//75 62//75 63//75
f 61//76 63//76 64//76
f 61//77 64//77 65//77
f 61//78 65//78 62//78
f 63//79 62//79 66//79
f 64//80 63//80 66//80
f 65//81 64//81 66//81
f 62//82 65//82 66//82
f 67//83 68//83 69//83
f 67//84 69//84 70//84
f 67//85 70//85 71//85
f 67//86 71//86 68//86
f 69//87 68//87 72//87
f 70//88 69//88 72//88
f 71//89 70//89 72//89
f 68//90 71//90 72//90
f 73//91 74//91 75//91
f 73//92 75//92 76//92
f 73//93 76//93 77//93
f 73//94 77//94 74//94
f 75//95 74//95 78//95
f 76//96 75//96 78//96
f 77//97 76//97 78//97
f 74//98 77//98 78//98
f 144//208 145//208 146//208
f 147//209 148//209 149//209
f 222//326 223//326 225//326
f 222//327 225//327 224//327
f 224//328 225//328 227//328
f 224//329 227//329 226//329
f 226//330 227//330 229//330
f 226//331 229//331 228//331
f 228//332 229//332 231//332
f 228//333 231//333 230//333
f 230//334 231//334 223//334
f 230//335 223//335 222//335
f 232//336 224//336 222//336
f 233//337 223//337 225//337
f 232//338 226//338 224//338
f 233//339 225//339 227//339
f 232//340 228//340 226//340
f 233//341 227//341 229//341
f 232//342 230//342 228//342
f 233//343 229//343 231//343
f 232//344 222//344 230//344
f 233//345 231//345 223//345
f 234//346 235//346 236//346
f 234//347 236//347 237//347
f 234//348 237//348 238//348
f 234//349 238//349 235//349
f 235//350 239//350 240//350
f 235//351 240//351 236//351
f 236//352 240//352 241//352
f 236//353 241//353 237//353
f 237//354 241//354 242//354
f 237//355 242//355 238//355
f 238//356 242//356 239//356
f 238//357 239//357 235//357
f 240//358 239//358 243//358
f 241//359 240//359 243//359
f 242//360 241//360 243//360
f 239//361 242//361 243//361
f 244//362 245//362 246//362
f 244//363 246//363 247//363
f 244//364 247//364 248//364
f 244//365 248//365 245//365
f 245//366 249//366 250//366
f 245//367 250//367 246//367
f 246//368 250//368 251//368
f 246//369 251//369 247//369
f 247//370 251//370 252//370
f 247//371 252//371 248//371
f 248//372 252//372 249//372
f 248//373 249//373 245//373
f 250//374 249//374 253//374
f 251//375 250//375 253//375
f 252//376 251//376 253//376
f 249//377 252//377 253//377
f 266//398 267//398 269//398
f 266//399 269//399 268//399
f 268//400 269//400 271//400
f 268//401 271//401 270//401
f 270//402 271//402 273//402
f 270//403 273//403 272//403
f 272//404 273//404 275//404
f 272//405 275//405 274//405
f 274//406 275//406 267//406
f 274//407 267//407 266//407
f 276//408 268//408 266//408
f 277//409 267//409 269//409
f 276//410 270//410 268//410
f 277//411 269//411 271//411
f 276//412 272//412 270//412
f 277//413 271//413 273//413
f 276//414 274//414 272//414
f 277//415 273//415 275//415
f 276//416 266//416 274//416
f 277//417 275//417 267//417
f 320//486 321//486 323//486
f 320//487 323//487 322//487
f 322//488 323//488 325//488
f 322//489 325//489 324//489
f 324//490 325//490 327//490
f 324//491 327//491 326//491
f 326//492 327//492 329//492
f 326//493 329//493 328//493
f 328//494 329//494 321//494
f 328//495 321//495 320//495
f 330//496 322//496 320//496
f 331//497 321//497 323//497
f 330//498 324//498 322//498
f 331//499 323//499 325//499
f 330//500 326//500 324//500
f 331//501 325//501 327//501
f 330//502 328//502 326//502
f 331//503 327//503 329//503
f 330//504 320//504 328//504
f 331//505 329//505 321//505
usemtl mat_skin
f 79//99 87//99 88//99
f 79//100 88//100 80//100
f 80//101 88//101 89//101
f 80//102 89//102 81//102
f 81//103 89//103 90//103
f 81//104 90//104 82//104
f 82//105 90//105 91//105
f 82//106 91//106 83//106
f 83//107 91//107 92//107
f 83//108 92//108 84//108
f 84//109 92//109 93//109
f 84//110 93//110 85//110
f 85//111 93//111 94//111
f 85//112 94//112 86//112
f 86//113 94//113 87//113
f 86//114 87//114 79//114
f 87//115 95//115 96//115
f 87//116 96//116 88//116
f 88//117 96//117 97//117
f 88//118 97//118 89//118
f 89//119 97//119 98//119
f 89//120 98//120 90//120
f 90//121 98//121 99//121
f 90//122 99//122 91//122
f 91//123 99//123 100//123
f 91//124 100//124 92//124
f 92//125 100//125 101//125
f 92//126 101//126 93//126
f 93//127 101//127 102//127
f 93//128 102//128 94//128
f 94//129 102//129 95//129
f 94//130 95//130 87//130
f 95//131 103//131 104//131
f 95//132 104//132 96//132
f 96//133 104//133 105//133
f 96//134 105//134 97//134
f 97//135 105//135 106//135
f 97//136 106//136 98//136
f 98//137 106//137 107//137
f 98//138 107//138 99//138
f 99//139 107//139 108//139
f 99//140 108//140 100//140
f 100//141 108//141 109//141
f 100//142 109//142 101//142
f 101//143 109//143 110//143
f 101//144 110//144 102//144
f 102//145 110//145 103//145
f 102//146 103//146 95//146
f 103//147 111//147 112//147
f 103//148 112//148 104//148
f 104//149 112//149 113//149
f 104//150 113//150 105//150
f 105//151 113//151 114//151
f 105//152 114//152 106//152
f 106//153 114//153 115//153
f 106//154 115//154 107//154
f 107//155 115//155 116//155
f 107//156 116//156 108//156
f 108//157 116//157 117//157
f 108//158 117//158 109//158
f 109//159 117//159 118//159
f 109//160 118//160 110//160
f 110//161 118//161 111//161
f 110//162 111//162 103//162
f 111//163 119//163 120//163
f 111//164 120//164 112//164
f 112//165 120//165 121//165
f 112//166 121//166 113//166
f 113//167 121//167 122//167
f 113//168 122//168 114//168
f 114//169 122//169 123//169
f 114//170 123//170 115//170
f 115//171 123//171 124//171
f 115//172 124//172 116//172
f 116//173 124//173 125//173
f 116//174 125//174 117//174
f 117//175 125//175 126//175
f 117//176 126//176 118//176
f 118//177 126//177 119//177
f 118//178 119//178 111//178
f 119//179 127//179 128//179
f 119//180 128//180 120//180
f 120//181 128//181 129//181
f 120//182 129//182 121//182
f 121//183 129//183 130//183
f 121//184 130//184 122//184
f 122//185 130//185 131//185
f 122//186 131//186 123//186
f 123//187 131//187 132//187
f 123//188 132//188 124//188
f 124//189 132//189 133//189
f 124//190 133//190 125//190
f 125//191 133//191 134//191
f 125//192 134//192 126//192
f 126//193 134//193 127//193
f 126//194 127//194 119//194
f 135//195 127//195 128//195
f 135//196 128//196 129//196
f 135//197 129//197 130//197
f 135//198 130//198 131//198
f 135//199 131//199 132//199
f 135//200 132//200 133//200
f 135//201 133//201 134//201
f 135//202 134//202 127//202
f 136//203 137//203 138//203
f 136//204 139//204 137//204
f 137//205 139//205 138//205
f 254//378 255//378 257//378
f 254//379 257//379 256//379
f 256//380 257//380 259//380
f 256//381 259//381 258//381
f 258//382 259//382 261//382
f 258//383 261//383 260//383
f 260//384 261//384 263//384
f 260//385 263//385 262//385
f 262//386 263//386 255//386
f 262//387 255//387 254//387
f 264//388 256//388 254//388
f 265//389 255//389 257//389
f 264//390 258//390 256//390
f 265//391 257//391 259//391
f 264//392 260//392 258//392
f 265//393 259//393 261//393
f 264//394 262//394 260//394
f 265//395 261//395 263//395
f 264//396 254//396 262//396
f 265//397 263//397 255//397
f 278//418 279//418 281//418
f 278//419 281//419 280//419
f 280//420 281//420 283//420
f 280//421 283//421 282//421
f 282//422 283//422 285//422
f 282//423 285//423 284//423
f 284//424 285//424 287//424
f 284//425 287//425 286//425
f 286//426 287//426 279//426
f 286//427 279//427 278//427
f 288//428 280//428 278//428
f 289//429 279//429 281//429
f 288//430 282//430 280//430
f 289//431 281//431 283//431
f 288//432 284//432 282//432
f 289//433 283//433 285//433
f 288//434 286//434 284//434
f 289//435 285//435 287//435
f 288//436 278//436 286//436
f 289//437 287//437 279//437
f 290//438 291//438 292//438
f 290//439 292//439 293//439
f 290//440 293//440 294//440
f 290//441 294//441 295//441
f 290//442 295//442 291//442
f 291//443 296//443 297//443
f 291//444 297//444 292//444
f 292//445 297//445 298//445
f 292//446 298//446 293//446
f 293//447 298//447 299//447
f 293//448 299//448 294//448
f 294//449 299//449 300//449
f 294//450 300//450 295//450
f 295//451 300//451 296//451
f 295//452 296//452 291//452
f 297//453 296//453 301//453
f 298//454 297//454 301//454
f 299//455 298//455 301//455
f 300//456 299//456 301//456
f 296//457 300//457 301//457
f 302//458 303//458 304//458
f 302//459 304//459 305//459
f 302//460 305//460 306//460
f 302//461 306//461 303//461
f 304//462 303//462 307//462
f 305//463 304//463 307//463
f 306//464 305//464 307//464
f 303//465 306//465 307//465
f 308//466 309//466 311//466
f 308//467 311//467 310//467
f 310//468 311//468 313//468
f 310//469 313//469 312//469
f 312//470 313//470 315//470
f 312//471 315//471 314//471
f 314//472 315//472 317//472
f 314//473 317//473 316//473
f 316//474 317//474 309//474
f 316//475 309//475 308//475
f 318//476 310//476 308//476
f 319//477 309//477 311//477
f 318//478 312//478 310//478
f 319//479 311//479 313//479
f 318//480 314//480 312//480
f 319//481 313//481 315//481
f 318//482 316//482 314//482
f 319//483 315//483 317//483
f 318//484 308//484 316//484
f 319//485 317//485 309//485
f 332//506 333//506 335//506
f 332//507 335//507 334//507
f 334//508 335//508 337//508
f 334//509 337//509 336//509
f 336//510 337//510 339//510
f 336//511 339//511 338//511
f 338//512 339//512 341//512
f 338//513 341//513 340//513
f 340//514 341//514 333//514
f 340//515 333//515 332//515
f 342//516 334//516 332//516
f 343//517 333//517 335//517
f 342//518 336//518 334//518
f 343//519 335//519 337//519
f 342//520 338//520 336//520
f 343//521 337//521 339//521
f 342//522 340//522 338//522
f 343//523 339//523 341//523
f 342//524 332//524 340//524
f 343//525 341//525 333//525
f 344//526 345//526 346//526
f 344//527 346//527 347//527
f 344//528 347//528 348//528
f 344//529 348//529 349//529
f 344//530 349//530 345//530
f 345//531 350//531 351//531
f 345//532 351//532 346//532
f 346//533 351//533 352//533
f 346//534 352//534 347//534
f 347//535 352//535 353//535
f 347//536 353//536 348//536
f 348//537 353//537 354//537
f 348//538 354//538 349//538
f 349//539 354//539 350//539
f 349//540 350//540 345//540
f 351//541 350//541 355//541
f 352//542 351//542 355//542
f 353//543 352//543 355//543
f 354//544 353//544 355//544
f 350//545 354//545 355//545
f 356//546 357//546 358//546
f 356//547 358//547 359//547
f 356//548 359//548 360//548
f 356//549 360//549 357//549
f 358//550 357//550 361//550
f 359//551 358//551 361//551
f 360//552 359//552 361//552
f 357//553 360//553 361//553
f 374//574 375//574 377//574
f 374//575 377//575 376//575
f 376//576 377//576 379//576
f 376//577 379//577 378//577
f 378//578 379//578 381//578
f 378//579 381//579 380//579
f 380//580 381//580 383//580
f 380//581 383//581 382//581
f 382//582 383//582 375//582
f 382//583 375//583 374//583
f 384//584 376//584 374//584
f 385//585 375//585 377//585
f 384//586 378//586 376//586
f 385//587 377//587 379//587
f 384//588 380//588 378//588
f 385//589 379//589 381//589
f 384//590 382//590 380//590
f 385//591 381//591 383//591
f 384//592 374//592 382//592
f 385//593 383//593 375//593
f 386//594 387//594 388//594
f 386//595 388//595 389//595
f 386//596 390//596 391//596
f 386//597 391//597 387//597
f 390//598 389//598 392//598
f 391//599 392//599 388//599
f 390//600 392//600 391//600
f 389//601 388//601 392//601
f 405//622 406//622 408//622
f 405//623 408//623 407//623
f 407//624 408//624 410//624
f 407//625 410//625 409//625
f 409//626 410//626 412//626
f 409//627 412//627 411//627
f 411//628 412//628 414//628
f 411//629 414//629 413//629
f 413//630 414//630 406//630
f 413//631 406//631 405//631
f 415//632 407//632 405//632
f 416//633 406//633 408//633
f 415//634 409//634 407//634
f 416//635 408//635 410//635
f 415//636 411//636 409//636
f 416//637 410//637 412//637
f 415//638 413//638 411//638
f 416//639 412//639 414//639
f 415//640 405//640 413//640
f 416//641 414//641 406//641
f 417//642 418//642 419//642
f 417//643 419//643 420//643
f 417//644 421//644 422//644
f 417//645 422//645 418//645
f 421//646 420//646 423//646
f 422//647 423//647 419//647
f 421//648 423//648 422//648
f 420//649 419//649 423//649
usemtl mat_hair
f 140//206 141//206 142//206
f 140//207 142//207 143//207
f 198//286 199//286 200//286
f 198//287 200//287 201//287
f 198//288 201//288 202//288
f 198//289 202//289 203//289
f 198//290 203//290 199//290
f 199//291 204//291 205//291
f 199//292 205//292 200//292
f 200//293 205//293 206//293
f 200//294 206//294 201//294
f 201//295 206//295 207//295
f 201//296 207//296 202//296
f 202//297 207//297 208//297
f 202//298 208//298 203//298
f 203//299 208//299 204//299
f 203//300 204//300 199//300
f 205//301 204//301 209//301
f 206//302 205//302 209//302
f 207//303 206//303 209//303
f 208//304 207//304 209//304
f 204//305 208//305 209//305
f 210//306 211//306 212//306
f 210//307 212//307 213//307
f 210//308 213//308 214//308
f 210//309 214//309 215//309
f 210//310 215//310 211//310
f 211//311 216//311 217//311
f 211//312 217//312 212//312
f 212//313 217//313 218//313
f 212//314 218//314 213//314
f 213//315 218//315 219//315
f 213//316 219//316 214//316
f 214//317 219//317 220//317
f 214//318 220//318 215//318
f 215//319 220//319 216//319
f 215//320 216//320 211//320
f 217//321 216//321 221//321
f 218//322 217//322 221//322
f 219//323 218//323 221//323
f 220//324 219//324 221//324
f 216//325 220//325 221//325
usemtl mat_eyes_white
f 150//210 151//210 152//210
f 150//211 152//211 153//211
f 150//212 153//212 154//212
f 150//213 154//213 155//213
f 150//214 155//214 156//214
f 150//215 156//215 151//215
f 151//216 157//216 158//216
f 151//217 158//217 152//217
f 152//218 158//218 159//218
f 152//219 159//219 153//219
f 153//220 159//220 160//220
f 153//221 160//221 154//221
f 154//222 160//222 161//222
f 154//223 161//223 155//223
f 155//224 161//224 162//224
f 155//225 162//225 156//225
f 156//226 162//226 157//226
f 156//227 157//227 151//227
f 157//228 163//228 164//228
f 157//229 164//229 158//229
f 158//230 164//230 165//230
f 158//231 165//231 159//231
f 159//232 165//232 166//232
f 159//233 166//233 160//233
f 160//234 166//234 167//234
f 160//235 167//235 161//235
f 161//236 167//236 168//236
f 161//237 168//237 162//237
f 162//238 168//238 163//238
f 162//239 163//239 157//239
f 164//240 163//240 169//240
f 165//241 164//241 169//241
f 166//242 165//242 169//242
f 167//243 166//243 169//243
f 168//244 167//244 169//244
f 163//245 168//245 169//245
f 174//248 175//248 176//248
f 174//249 176//249 177//249
f 174//250 177//250 178//250
f 174//251 178//251 179//251
f 174//252 179//252 180//252
f 174//253 180//253 175//253
f 175//254 181//254 182//254
f 175//255 182//255 176//255
f 176//256 182//256 183//256
f 176//257 183//257 177//257
f 177//258 183//258 184//258
f 177//259 184//259 178//259
f 178//260 184//260 185//260
f 178//261 185//261 179//261
f 179//262 185//262 186//262
f 179//263 186//263 180//263
f 180//264 186//264 181//264
f 180//265 181//265 175//265
f 181//266 187//266 188//266
f 181//267 188//267 182//267
f 182//268 188//268 189//268
f 182//269 189//269 183//269
f 183//270 189//270 190//270
f 183//271 190//271 184//271
f 184//272 190//272 191//272
f 184//273 191//273 185//273
f 185//274 191//274 192//274
f 185//275 192//275 186//275
f 186//276 192//276 187//276
f 186//277 187//277 181//277
f 188//278 187//278 193//278
f 189//279 188//279 193//279
f 190//280 189//280 193//280
f 191//281 190//281 193//281
f 192//282 191//282 193//282
f 187//283 192//283 193//283
usemtl mat_eyes_pupil
f 170//246 171//246 172//246
f 170//247 172//247 173//247
f 194//284 195//284 196//284
f 194//285 196//285 197//285
