# Prehistoric Weapon Attachment: club_attachments_tier4
o club_attachments_tier4

v 0.1020 0.1375 0.0000
v 0.1020 0.1025 0.0000
v 0.0875 0.1375 0.0447
v 0.0875 0.1025 0.0447
v 0.0495 0.1375 0.0723
v 0.0495 0.1025 0.0723
v 0.0025 0.1375 0.0723
v 0.0025 0.1025 0.0723
v -0.0355 0.1375 0.0447
v -0.0355 0.1025 0.0447
v -0.0500 0.1375 0.0000
v -0.0500 0.1025 0.0000
v -0.0355 0.1375 -0.0447
v -0.0355 0.1025 -0.0447
v 0.0025 0.1375 -0.0723
v 0.0025 0.1025 -0.0723
v 0.0495 0.1375 -0.0723
v 0.0495 0.1025 -0.0723
v 0.0875 0.1375 -0.0447
v 0.0875 0.1025 -0.0447
v 0.1280 0.3800 0.0000
v 0.1280 0.3400 0.0000
v 0.1108 0.3800 0.0529
v 0.1108 0.3400 0.0529
v 0.0658 0.3800 0.0856
v 0.0658 0.3400 0.0856
v 0.0102 0.3800 0.0856
v 0.0102 0.3400 0.0856
v -0.0348 0.3800 0.0529
v -0.0348 0.3400 0.0529
v -0.0520 0.3800 0.0000
v -0.0520 0.3400 0.0000
v -0.0348 0.3800 -0.0529
v -0.0348 0.3400 -0.0529
v 0.0102 0.3800 -0.0856
v 0.0102 0.3400 -0.0856
v 0.0658 0.3800 -0.0856
v 0.0658 0.3400 -0.0856
v 0.1108 0.3800 -0.0529
v 0.1108 0.3400 -0.0529
v 0.1000 0.2500 0.0200
v 0.1000 0.2500 -0.0200
v 0.1000 0.2100 -0.0200
v 0.1000 0.2100 0.0200
v 0.2400 0.2300 0.0000
v 0.0193 0.2941 0.0827
v 0.0488 0.2941 0.0771
v 0.0507 0.2659 0.0873
v 0.0212 0.2659 0.0929
v 0.0500 0.3100 0.1650
v 0.0488 0.2941 -0.0771
v 0.0193 0.2941 -0.0827
v 0.0212 0.2659 -0.0929
v 0.0507 0.2659 -0.0873
v 0.0500 0.3100 -0.1650
v 0.0570 0.4090 -0.0190
v 0.0570 0.4090 0.0190
v 0.0190 0.4110 0.0190
v 0.0190 0.4110 -0.0190
v 0.0450 0.5400 0.0000
v -0.0397 0.2951 -0.0160
v -0.0397 0.2951 0.0160
v -0.0503 0.2649 0.0160
v -0.0503 0.2649 -0.0160
v -0.1300 0.3100 0.0000

vn 0.9512 -0.0000 0.3086
vn 0.9512 0.0000 0.3086
vn 0.5877 -0.0000 0.8091
vn 0.5877 0.0000 0.8091
vn 0.0000 -0.0000 1.0000
vn 0.0000 0.0000 1.0000
vn -0.5877 0.0000 0.8091
vn -0.5877 0.0000 0.8091
vn -0.9512 0.0000 0.3086
vn -0.9512 0.0000 0.3086
vn -0.9512 0.0000 -0.3086
vn -0.9512 0.0000 -0.3086
vn -0.5877 0.0000 -0.8091
vn -0.5877 0.0000 -0.8091
vn 0.0000 0.0000 -1.0000
vn 0.0000 0.0000 -1.0000
vn 0.5877 0.0000 -0.8091
vn 0.5877 0.0000 -0.8091
vn 0.9512 0.0000 -0.3086
vn 0.9512 0.0000 -0.3086
vn 0.9510 -0.0000 0.3092
vn 0.9510 0.0000 0.3092
vn 0.5879 -0.0000 0.8090
vn 0.5879 0.0000 0.8090
vn 0.0000 -0.0000 1.0000
vn 0.0000 0.0000 1.0000
vn -0.5879 0.0000 0.8090
vn -0.5879 0.0000 0.8090
vn -0.9510 0.0000 0.3092
vn -0.9510 0.0000 0.3092
vn -0.9510 0.0000 -0.3092
vn -0.9510 0.0000 -0.3092
vn -0.5879 0.0000 -0.8090
vn -0.5879 0.0000 -0.8090
vn 0.0000 0.0000 -1.0000
vn 0.0000 0.0000 -1.0000
vn 0.5879 0.0000 -0.8090
vn 0.5879 0.0000 -0.8090
vn 0.9510 0.0000 -0.3092
vn 0.9510 0.0000 -0.3092
vn 1.0000 0.0000 0.0000
vn 1.0000 -0.0000 0.0000
vn -0.1414 -0.9899 -0.0000
vn -0.1414 0.0000 0.9899
vn -0.1414 0.9899 0.0000
vn -0.1414 0.0000 -0.9899
vn 0.1750 0.3453 0.9220
vn 0.1750 0.3453 0.9220
vn 0.0337 -0.9836 0.1775
vn -0.9980 -0.0585 0.0242
vn -0.0934 0.8655 -0.4921
vn 0.9390 -0.0593 -0.3388
vn 0.1750 0.3453 -0.9220
vn 0.1750 0.3453 -0.9220
vn 0.0337 -0.9836 -0.1775
vn 0.9390 -0.0593 0.3388
vn -0.0934 0.8655 0.4921
vn -0.9980 -0.0585 -0.0242
vn 0.0526 0.9986 -0.0000
vn 0.0526 0.9986 0.0000
vn -0.9958 -0.0912 0.0000
vn -0.0076 -0.1442 -0.9895
vn 0.9803 -0.1976 0.0000
vn -0.0076 -0.1442 0.9895
vn -0.9436 0.3312 0.0000
vn -0.9436 0.3312 0.0000
vn -0.1628 -0.9867 0.0000
vn 0.1649 -0.0579 -0.9846
vn 0.4925 0.8703 0.0000
vn 0.1649 -0.0579 0.9846

usemtl mat_bone
s 1
f 2//1 1//1 3//1
f 2//2 3//2 4//2
f 4//3 3//3 5//3
f 4//4 5//4 6//4
f 6//5 5//5 7//5
f 6//6 7//6 8//6
f 8//7 7//7 9//7
f 8//8 9//8 10//8
f 10//9 9//9 11//9
f 10//10 11//10 12//10
f 12//11 11//11 13//11
f 12//12 13//12 14//12
f 14//13 13//13 15//13
f 14//14 15//14 16//14
f 16//15 15//15 17//15
f 16//16 17//16 18//16
f 18//17 17//17 19//17
f 18//18 19//18 20//18
f 20//19 19//19 1//19
f 20//20 1//20 2//20
f 22//21 21//21 23//21
f 22//22 23//22 24//22
f 24//23 23//23 25//23
f 24//24 25//24 26//24
f 26//25 25//25 27//25
f 26//26 27//26 28//26
f 28//27 27//27 29//27
f 28//28 29//28 30//28
f 30//29 29//29 31//29
f 30//30 31//30 32//30
f 32//31 31//31 33//31
f 32//32 33//32 34//32
f 34//33 33//33 35//33
f 34//34 35//34 36//34
f 36//35 35//35 37//35
f 36//36 37//36 38//36
f 38//37 37//37 39//37
f 38//38 39//38 40//38
f 40//39 39//39 21//39
f 40//40 21//40 22//40

usemtl mat_volcanic
s 1
f 44//41 43//41 42//41
f 44//42 42//42 41//42
f 41//43 42//43 45//43
f 42//44 43//44 45//44
f 43//45 44//45 45//45
f 44//46 41//46 45//46
f 49//47 48//47 47//47
f 49//48 47//48 46//48
f 46//49 47//49 50//49
f 47//50 48//50 50//50
f 48//51 49//51 50//51
f 49//52 46//52 50//52
f 54//53 53//53 52//53
f 54//54 52//54 51//54
f 51//55 52//55 55//55
f 52//56 53//56 55//56
f 53//57 54//57 55//57
f 54//58 51//58 55//58
f 59//59 58//59 57//59
f 59//60 57//60 56//60
f 56//61 57//61 60//61
f 57//62 58//62 60//62
f 58//63 59//63 60//63
f 59//64 56//64 60//64
f 64//65 63//65 62//65
f 64//66 62//66 61//66
f 61//67 62//67 65//67
f 62//68 63//68 65//68
f 63//69 64//69 65//69
f 64//70 61//70 65//70

