# Prehistoric Weapon Attachment: club_attachments_tier2
o club_attachments_tier2

v -0.0403 0.2310 -0.0120
v -0.0403 0.2310 0.0120
v -0.0497 0.2090 0.0120
v -0.0497 0.2090 -0.0120
v -0.1150 0.2500 0.0000
v -0.0345 0.3296 -0.0110
v -0.0345 0.3296 0.0110
v -0.0455 0.3104 0.0110
v -0.0455 0.3104 -0.0110
v -0.1100 0.3600 0.0000
v 0.0234 0.2500 0.0791
v 0.0451 0.2500 0.0757
v 0.0466 0.2300 0.0849
v 0.0249 0.2300 0.0883
v 0.0450 0.2700 0.1450
v 0.0243 0.3177 0.0728
v 0.0442 0.3177 0.0705
v 0.0457 0.3023 0.0832
v 0.0258 0.3023 0.0855
v 0.0420 0.3600 0.1380
v 0.0451 0.2500 -0.0757
v 0.0234 0.2500 -0.0791
v 0.0249 0.2300 -0.0883
v 0.0466 0.2300 -0.0849
v 0.0450 0.2700 -0.1450
v 0.0442 0.3177 -0.0705
v 0.0243 0.3177 -0.0728
v 0.0258 0.3023 -0.0855
v 0.0457 0.3023 -0.0832
v 0.0420 0.3600 -0.1380
v 0.0480 0.4091 -0.0130
v 0.0480 0.4091 0.0130
v 0.0220 0.4109 0.0130
v 0.0220 0.4109 -0.0130
v 0.0400 0.4800 0.0000
v 0.0540 -0.0850 0.0000
v 0.0540 -0.1150 0.0000
v 0.0320 -0.0850 0.0381
v 0.0320 -0.1150 0.0381
v -0.0120 -0.0850 0.0381
v -0.0120 -0.1150 0.0381
v -0.0340 -0.0850 0.0000
v -0.0340 -0.1150 0.0000
v -0.0120 -0.0850 -0.0381
v -0.0120 -0.1150 -0.0381
v 0.0320 -0.0850 -0.0381
v 0.0320 -0.1150 -0.0381
v 0.0540 -0.0050 0.0000
v 0.0540 -0.0350 0.0000
v 0.0320 -0.0050 0.0381
v 0.0320 -0.0350 0.0381
v -0.0120 -0.0050 0.0381
v -0.0120 -0.0350 0.0381
v -0.0340 -0.0050 0.0000
v -0.0340 -0.0350 0.0000
v -0.0120 -0.0050 -0.0381
v -0.0120 -0.0350 -0.0381
v 0.0320 -0.0050 -0.0381
v 0.0320 -0.0350 -0.0381
v 0.0540 0.0650 0.0000
v 0.0540 0.0350 0.0000
v 0.0320 0.0650 0.0381
v 0.0320 0.0350 0.0381
v -0.0120 0.0650 0.0381
v -0.0120 0.0350 0.0381
v -0.0340 0.0650 0.0000
v -0.0340 0.0350 0.0000
v -0.0120 0.0650 -0.0381
v -0.0120 0.0350 -0.0381
v 0.0320 0.0650 -0.0381
v 0.0320 0.0350 -0.0381

vn -0.9196 0.3929 0.0000
vn -0.9196 0.3929 0.0000
vn -0.2465 -0.9691 0.0000
vn 0.1431 -0.0612 -0.9878
vn 0.5317 0.8469 0.0000
vn 0.1431 -0.0612 0.9878
vn -0.8677 0.4971 0.0000
vn -0.8677 0.4971 0.0000
vn -0.3735 -0.9276 0.0000
vn 0.1173 -0.0672 -0.9908
vn 0.6096 0.7927 0.0000
vn 0.1173 -0.0672 0.9908
vn 0.1403 0.4224 0.8955
vn 0.1403 0.4224 0.8955
vn 0.0434 -0.9599 0.2771
vn -0.9976 -0.0666 0.0178
vn -0.0867 0.8283 -0.5536
vn 0.9539 -0.0634 -0.2934
vn 0.0883 0.6389 0.7642
vn 0.0883 0.6389 0.7642
vn 0.0614 -0.8449 0.5314
vn -0.9965 -0.0816 0.0187
vn -0.0838 0.6834 -0.7252
vn 0.9739 -0.0802 -0.2123
vn 0.1403 0.4224 -0.8955
vn 0.1403 0.4224 -0.8955
vn 0.0434 -0.9599 -0.2771
vn 0.9539 -0.0634 0.2934
vn -0.0867 0.8283 0.5536
vn -0.9976 -0.0666 -0.0178
vn 0.0883 0.6389 -0.7642
vn 0.0883 0.6389 -0.7642
vn 0.0614 -0.8449 -0.5314
vn 0.9739 -0.0802 0.2123
vn -0.0838 0.6834 0.7252
vn -0.9965 -0.0816 -0.0187
vn 0.0691 0.9976 -0.0000
vn 0.0691 0.9976 0.0000
vn -0.9937 -0.1121 0.0000
vn -0.0126 -0.1817 -0.9833
vn 0.9677 -0.2521 0.0000
vn -0.0126 -0.1817 0.9833
vn 0.8660 0.0000 0.5001
vn 0.8660 0.0000 0.5001
vn 0.0000 0.0000 1.0000
vn 0.0000 0.0000 1.0000
vn -0.8660 0.0000 0.5001
vn -0.8660 0.0000 0.5001
vn -0.8660 0.0000 -0.5001
vn -0.8660 -0.0000 -0.5001
vn 0.0000 0.0000 -1.0000
vn 0.0000 0.0000 -1.0000
vn 0.8660 0.0000 -0.5001
vn 0.8660 0.0000 -0.5001
vn 0.8660 0.0000 0.5001
vn 0.8660 0.0000 0.5001
vn 0.0000 0.0000 1.0000
vn 0.0000 0.0000 1.0000
vn -0.8660 0.0000 0.5001
vn -0.8660 0.0000 0.5001
vn -0.8660 0.0000 -0.5001
vn -0.8660 -0.0000 -0.5001
vn 0.0000 0.0000 -1.0000
vn 0.0000 0.0000 -1.0000
vn 0.8660 0.0000 -0.5001
vn 0.8660 0.0000 -0.5001
vn 0.8660 0.0000 0.5001
vn 0.8660 0.0000 0.5001
vn 0.0000 0.0000 1.0000
vn 0.0000 0.0000 1.0000
vn -0.8660 0.0000 0.5001
vn -0.8660 0.0000 0.5001
vn -0.8660 0.0000 -0.5001
vn -0.8660 -0.0000 -0.5001
vn 0.0000 0.0000 -1.0000
vn 0.0000 0.0000 -1.0000
vn 0.8660 0.0000 -0.5001
vn 0.8660 0.0000 -0.5001

usemtl mat_bone
s 1
f 4//1 3//1 2//1
f 4//2 2//2 1//2
f 1//3 2//3 5//3
f 2//4 3//4 5//4
f 3//5 4//5 5//5
f 4//6 1//6 5//6
f 9//7 8//7 7//7
f 9//8 7//8 6//8
f 6//9 7//9 10//9
f 7//10 8//10 10//10
f 8//11 9//11 10//11
f 9//12 6//12 10//12
f 14//13 13//13 12//13
f 14//14 12//14 11//14
f 11//15 12//15 15//15
f 12//16 13//16 15//16
f 13//17 14//17 15//17
f 14//18 11//18 15//18
f 19//19 18//19 17//19
f 19//20 17//20 16//20
f 16//21 17//21 20//21
f 17//22 18//22 20//22
f 18//23 19//23 20//23
f 19//24 16//24 20//24
f 24//25 23//25 22//25
f 24//26 22//26 21//26
f 21//27 22//27 25//27
f 22//28 23//28 25//28
f 23//29 24//29 25//29
f 24//30 21//30 25//30
f 29//31 28//31 27//31
f 29//32 27//32 26//32
f 26//33 27//33 30//33
f 27//34 28//34 30//34
f 28//35 29//35 30//35
f 29//36 26//36 30//36
f 34//37 33//37 32//37
f 34//38 32//38 31//38
f 31//39 32//39 35//39
f 32//40 33//40 35//40
f 33//41 34//41 35//41
f 34//42 31//42 35//42

usemtl mat_clothing
s 1
f 36//43 38//43 39//43
f 36//44 39//44 37//44
f 38//45 40//45 41//45
f 38//46 41//46 39//46
f 40//47 42//47 43//47
f 40//48 43//48 41//48
f 42//49 44//49 45//49
f 42//50 45//50 43//50
f 44//51 46//51 47//51
f 44//52 47//52 45//52
f 46//53 36//53 37//53
f 46//54 37//54 47//54
f 48//55 50//55 51//55
f 48//56 51//56 49//56
f 50//57 52//57 53//57
f 50//58 53//58 51//58
f 52//59 54//59 55//59
f 52//60 55//60 53//60
f 54//61 56//61 57//61
f 54//62 57//62 55//62
f 56//63 58//63 59//63
f 56//64 59//64 57//64
f 58//65 48//65 49//65
f 58//66 49//66 59//66
f 60//67 62//67 63//67
f 60//68 63//68 61//68
f 62//69 64//69 65//69
f 62//70 65//70 63//70
f 64//71 66//71 67//71
f 64//72 67//72 65//72
f 66//73 68//73 69//73
f 66//74 69//74 67//74
f 68//75 70//75 71//75
f 68//76 71//76 69//76
f 70//77 60//77 61//77
f 70//78 61//78 71//78

