# Prehistoric Weapon Attachment: club_attachments_tier3
o club_attachments_tier3

v 0.0150 0.1180 0.0760
v 0.0550 0.1180 0.0760
v 0.0550 0.1620 0.0760
v 0.0150 0.1620 0.0760
v 0.0250 0.1240 0.1380
v 0.0450 0.1560 0.1380
v 0.0150 0.1180 -0.0760
v 0.0550 0.1180 -0.0760
v 0.0550 0.1620 -0.0760
v 0.0150 0.1620 -0.0760
v 0.0250 0.1240 -0.1380
v 0.0450 0.1560 -0.1380
v 0.0150 0.1780 0.0760
v 0.0550 0.1780 0.0760
v 0.0550 0.2220 0.0760
v 0.0150 0.2220 0.0760
v 0.0250 0.1840 0.1380
v 0.0450 0.2160 0.1380
v 0.0150 0.1780 -0.0760
v 0.0550 0.1780 -0.0760
v 0.0550 0.2220 -0.0760
v 0.0150 0.2220 -0.0760
v 0.0250 0.1840 -0.1380
v 0.0450 0.2160 -0.1380
v 0.0150 0.2380 0.0760
v 0.0550 0.2380 0.0760
v 0.0550 0.2820 0.0760
v 0.0150 0.2820 0.0760
v 0.0250 0.2440 0.1380
v 0.0450 0.2760 0.1380
v 0.0150 0.2380 -0.0760
v 0.0550 0.2380 -0.0760
v 0.0550 0.2820 -0.0760
v 0.0150 0.2820 -0.0760
v 0.0250 0.2440 -0.1380
v 0.0450 0.2760 -0.1380
v 0.0150 0.2980 0.0760
v 0.0550 0.2980 0.0760
v 0.0550 0.3420 0.0760
v 0.0150 0.3420 0.0760
v 0.0250 0.3040 0.1380
v 0.0450 0.3360 0.1380
v 0.0150 0.2980 -0.0760
v 0.0550 0.2980 -0.0760
v 0.0550 0.3420 -0.0760
v 0.0150 0.3420 -0.0760
v 0.0250 0.3040 -0.1380
v 0.0450 0.3360 -0.1380
v 0.0150 0.3580 0.0760
v 0.0550 0.3580 0.0760
v 0.0550 0.4020 0.0760
v 0.0150 0.4020 0.0760
v 0.0250 0.3640 0.1380
v 0.0450 0.3960 0.1380
v 0.0150 0.3580 -0.0760
v 0.0550 0.3580 -0.0760
v 0.0550 0.4020 -0.0760
v 0.0150 0.4020 -0.0760
v 0.0250 0.3640 -0.1380
v 0.0450 0.3960 -0.1380
v 0.0510 0.4088 -0.0160
v 0.0510 0.4088 0.0160
v 0.0190 0.4112 0.0160
v 0.0190 0.4112 -0.0160
v 0.0420 0.5000 0.0000
v 0.1010 0.1220 0.0000
v 0.1010 0.0980 0.0000
v 0.0787 0.1220 0.0537
v 0.0787 0.0980 0.0537
v 0.0250 0.1220 0.0760
v 0.0250 0.0980 0.0760
v -0.0287 0.1220 0.0537
v -0.0287 0.0980 0.0537
v -0.0510 0.1220 0.0000
v -0.0510 0.0980 0.0000
v -0.0287 0.1220 -0.0537
v -0.0287 0.0980 -0.0537
v 0.0250 0.1220 -0.0760
v 0.0250 0.0980 -0.0760
v 0.0787 0.1220 -0.0537
v 0.0787 0.0980 -0.0537
v 0.1100 0.4120 0.0000
v 0.1100 0.3880 0.0000
v 0.0889 0.4120 0.0509
v 0.0889 0.3880 0.0509
v 0.0380 0.4120 0.0720
v 0.0380 0.3880 0.0720
v -0.0129 0.4120 0.0509
v -0.0129 0.3880 0.0509
v -0.0340 0.4120 0.0000
v -0.0340 0.3880 0.0000
v -0.0129 0.4120 -0.0509
v -0.0129 0.3880 -0.0509
v 0.0380 0.4120 -0.0720
v 0.0380 0.3880 -0.0720
v 0.0889 0.4120 -0.0509
v 0.0889 0.3880 -0.0509

vn 0.0000 -0.8526 0.5226
vn 0.8449 -0.5281 -0.0852
vn 0.9872 -0.0000 0.1592
vn 0.0000 1.0000 0.0000
vn 0.0000 0.8526 0.5226
vn -0.8449 0.5281 -0.0852
vn -0.9872 0.0000 0.1592
vn 0.0000 1.0000 0.0000
vn -0.7699 0.4812 -0.4191
vn -0.0000 -0.9954 -0.0963
vn 0.7699 -0.4812 -0.4191
vn 0.9872 0.0000 -0.1592
vn 0.0000 1.0000 0.0000
vn 0.0000 0.9954 -0.0963
vn -0.7699 0.4812 -0.4191
vn -0.9872 0.0000 -0.1592
vn 0.0000 1.0000 0.0000
vn -0.7699 0.4812 0.4191
vn 0.0000 -0.8526 0.5226
vn 0.8449 -0.5281 -0.0852
vn 0.9872 -0.0000 0.1592
vn 0.0000 1.0000 0.0000
vn 0.0000 0.8526 0.5226
vn -0.8449 0.5281 -0.0852
vn -0.9872 0.0000 0.1592
vn 0.0000 1.0000 0.0000
vn -0.7699 0.4812 -0.4191
vn -0.0000 -0.9954 -0.0963
vn 0.7699 -0.4812 -0.4191
vn 0.9872 0.0000 -0.1592
vn 0.0000 1.0000 0.0000
vn 0.0000 0.9954 -0.0963
vn -0.7699 0.4812 -0.4191
vn -0.9872 0.0000 -0.1592
vn 0.0000 1.0000 0.0000
vn -0.7699 0.4812 0.4191
vn 0.0000 -0.8526 0.5226
vn 0.8449 -0.5281 -0.0852
vn 0.9872 -0.0000 0.1592
vn 0.0000 1.0000 0.0000
vn 0.0000 0.8526 0.5226
vn -0.8449 0.5281 -0.0852
vn -0.9872 0.0000 0.1592
vn 0.0000 1.0000 0.0000
vn -0.7699 0.4812 -0.4191
vn -0.0000 -0.9954 -0.0963
vn 0.7699 -0.4812 -0.4191
vn 0.9872 0.0000 -0.1592
vn 0.0000 1.0000 0.0000
vn 0.0000 0.9954 -0.0963
vn -0.7699 0.4812 -0.4191
vn -0.9872 0.0000 -0.1592
vn 0.0000 1.0000 0.0000
vn -0.7699 0.4812 0.4191
vn 0.0000 -0.8526 0.5226
vn 0.8449 -0.5281 -0.0852
vn 0.9872 -0.0000 0.1592
vn 0.0000 1.0000 0.0000
vn 0.0000 0.8526 0.5226
vn -0.8449 0.5281 -0.0852
vn -0.9872 0.0000 0.1592
vn 0.0000 1.0000 0.0000
vn -0.7699 0.4812 -0.4191
vn -0.0000 -0.9954 -0.0963
vn 0.7699 -0.4812 -0.4191
vn 0.9872 0.0000 -0.1592
vn 0.0000 1.0000 0.0000
vn 0.0000 0.9954 -0.0963
vn -0.7699 0.4812 -0.4191
vn -0.9872 0.0000 -0.1592
vn 0.0000 1.0000 0.0000
vn -0.7699 0.4812 0.4191
vn 0.0000 -0.8526 0.5226
vn 0.8449 -0.5281 -0.0852
vn 0.9872 -0.0000 0.1592
vn 0.0000 1.0000 0.0000
vn 0.0000 0.8526 0.5226
vn -0.8449 0.5281 -0.0852
vn -0.9872 0.0000 0.1592
vn 0.0000 1.0000 0.0000
vn -0.7699 0.4812 -0.4191
vn -0.0000 -0.9954 -0.0963
vn 0.7699 -0.4812 -0.4191
vn 0.9872 0.0000 -0.1592
vn 0.0000 1.0000 0.0000
vn 0.0000 0.9954 -0.0963
vn -0.7699 0.4812 -0.4191
vn -0.9872 0.0000 -0.1592
vn 0.0000 1.0000 0.0000
vn -0.7699 0.4812 0.4191
vn 0.0748 0.9972 -0.0000
vn 0.0748 0.9972 0.0000
vn -0.9952 -0.0982 0.0000
vn -0.0131 -0.1740 -0.9847
vn 0.9681 -0.2507 0.0000
vn -0.0131 -0.1740 0.9847
vn 0.9235 -0.0000 0.3835
vn 0.9235 0.0000 0.3835
vn 0.3835 -0.0000 0.9235
vn 0.3835 0.0000 0.9235
vn -0.3835 0.0000 0.9235
vn -0.3835 0.0000 0.9235
vn -0.9235 0.0000 0.3835
vn -0.9235 0.0000 0.3835
vn -0.9235 0.0000 -0.3835
vn -0.9235 0.0000 -0.3835
vn -0.3835 0.0000 -0.9235
vn -0.3835 0.0000 -0.9235
vn 0.3835 0.0000 -0.9235
vn 0.3835 0.0000 -0.9235
vn 0.9235 0.0000 -0.3835
vn 0.9235 0.0000 -0.3835
vn 0.9238 -0.0000 0.3829
vn 0.9238 0.0000 0.3829
vn 0.3829 -0.0000 0.9238
vn 0.3829 0.0000 0.9238
vn -0.3829 0.0000 0.9238
vn -0.3829 0.0000 0.9238
vn -0.9238 0.0000 0.3829
vn -0.9238 0.0000 0.3829
vn -0.9238 0.0000 -0.3829
vn -0.9238 0.0000 -0.3829
vn -0.3829 0.0000 -0.9238
vn -0.3829 0.0000 -0.9238
vn 0.3829 0.0000 -0.9238
vn 0.3829 0.0000 -0.9238
vn 0.9238 0.0000 -0.3829
vn 0.9238 0.0000 -0.3829

usemtl mat_obsidian
s 1
f 1//1 2//1 6//1
f 1//2 6//2 5//2
f 2//3 3//3 6//3
f 2//4 6//4 6//4
f 3//5 4//5 5//5
f 3//6 5//6 6//6
f 4//7 1//7 5//7
f 4//8 5//8 5//8
f 5//9 6//9 2//9
f 8//10 7//10 11//10
f 8//11 11//11 12//11
f 9//12 8//12 12//12
f 9//13 12//13 12//13
f 10//14 9//14 12//14
f 10//15 12//15 11//15
f 7//16 10//16 11//16
f 7//17 11//17 11//17
f 12//18 11//18 8//18
f 13//19 14//19 18//19
f 13//20 18//20 17//20
f 14//21 15//21 18//21
f 14//22 18//22 18//22
f 15//23 16//23 17//23
f 15//24 17//24 18//24
f 16//25 13//25 17//25
f 16//26 17//26 17//26
f 17//27 18//27 14//27
f 20//28 19//28 23//28
f 20//29 23//29 24//29
f 21//30 20//30 24//30
f 21//31 24//31 24//31
f 22//32 21//32 24//32
f 22//33 24//33 23//33
f 19//34 22//34 23//34
f 19//35 23//35 23//35
f 24//36 23//36 20//36
f 25//37 26//37 30//37
f 25//38 30//38 29//38
f 26//39 27//39 30//39
f 26//40 30//40 30//40
f 27//41 28//41 29//41
f 27//42 29//42 30//42
f 28//43 25//43 29//43
f 28//44 29//44 29//44
f 29//45 30//45 26//45
f 32//46 31//46 35//46
f 32//47 35//47 36//47
f 33//48 32//48 36//48
f 33//49 36//49 36//49
f 34//50 33//50 36//50
f 34//51 36//51 35//51
f 31//52 34//52 35//52
f 31//53 35//53 35//53
f 36//54 35//54 32//54
f 37//55 38//55 42//55
f 37//56 42//56 41//56
f 38//57 39//57 42//57
f 38//58 42//58 42//58
f 39//59 40//59 41//59
f 39//60 41//60 42//60
f 40//61 37//61 41//61
f 40//62 41//62 41//62
f 41//63 42//63 38//63
f 44//64 43//64 47//64
f 44//65 47//65 48//65
f 45//66 44//66 48//66
f 45//67 48//67 48//67
f 46//68 45//68 48//68
f 46//69 48//69 47//69
f 43//70 46//70 47//70
f 43//71 47//71 47//71
f 48//72 47//72 44//72
f 49//73 50//73 54//73
f 49//74 54//74 53//74
f 50//75 51//75 54//75
f 50//76 54//76 54//76
f 51//77 52//77 53//77
f 51//78 53//78 54//78
f 52//79 49//79 53//79
f 52//80 53//80 53//80
f 53//81 54//81 50//81
f 56//82 55//82 59//82
f 56//83 59//83 60//83
f 57//84 56//84 60//84
f 57//85 60//85 60//85
f 58//86 57//86 60//86
f 58//87 60//87 59//87
f 55//88 58//88 59//88
f 55//89 59//89 59//89
f 60//90 59//90 56//90
f 64//91 63//91 62//91
f 64//92 62//92 61//92
f 61//93 62//93 65//93
f 62//94 63//94 65//94
f 63//95 64//95 65//95
f 64//96 61//96 65//96

usemtl mat_clothing
s 1
f 67//97 66//97 68//97
f 67//98 68//98 69//98
f 69//99 68//99 70//99
f 69//100 70//100 71//100
f 71//101 70//101 72//101
f 71//102 72//102 73//102
f 73//103 72//103 74//103
f 73//104 74//104 75//104
f 75//105 74//105 76//105
f 75//106 76//106 77//106
f 77//107 76//107 78//107
f 77//108 78//108 79//108
f 79//109 78//109 80//109
f 79//110 80//110 81//110
f 81//111 80//111 66//111
f 81//112 66//112 67//112
f 83//113 82//113 84//113
f 83//114 84//114 85//114
f 85//115 84//115 86//115
f 85//116 86//116 87//116
f 87//117 86//117 88//117
f 87//118 88//118 89//118
f 89//119 88//119 90//119
f 89//120 90//120 91//120
f 91//121 90//121 92//121
f 91//122 92//122 93//122
f 93//123 92//123 94//123
f 93//124 94//124 95//124
f 95//125 94//125 96//125
f 95//126 96//126 97//126
f 97//127 96//127 82//127
f 97//128 82//128 83//128

