# How to Fish Style Low-Poly Caveman
mtllib caveman.mtl
o CavemanArmR

v 0.1087 0.0172 0.0000
v 0.1489 -0.3660 0.0200
v 0.0327 0.0107 0.1045
v 0.0868 -0.3713 0.1055
v -0.0884 -0.0106 0.0646
v -0.0123 -0.3886 0.0728
v -0.0874 -0.0172 -0.0646
v -0.0115 -0.3941 -0.0328
v 0.0344 -0.0001 -0.1045
v 0.0882 -0.3801 -0.0655
v 0.0000 0.0000 0.0000
v 0.0600 -0.3800 0.0200
v 0.1491 -0.1451 0.0100
v 0.1591 -0.2251 0.0100
v 0.0668 -0.1554 0.1241
v 0.0768 -0.2354 0.1241
v -0.0663 -0.1720 0.0805
v -0.0563 -0.2520 0.0805
v -0.0663 -0.1720 -0.0605
v -0.0563 -0.2520 -0.0605
v 0.0668 -0.1554 -0.1041
v 0.0768 -0.2354 -0.1041
v 0.0300 -0.1600 0.0100
v 0.0400 -0.2400 0.0100
v 0.1498 -0.3747 0.0200
v 0.1599 -0.7153 0.0600
v 0.0872 -0.3684 0.1050
v 0.1042 -0.7097 0.1356
v -0.0130 -0.3781 0.0725
v 0.0151 -0.7183 0.1067
v -0.0123 -0.3904 -0.0325
v 0.0157 -0.7293 0.0133
v 0.0883 -0.3883 -0.0650
v 0.1052 -0.7274 -0.0156
v 0.0600 -0.3800 0.0200
v 0.0800 -0.7200 0.0600
v 0.0900 -0.7400 0.0800
v 0.0900 -0.7900 0.1666
v 0.1724 -0.7900 0.1068
v 0.1409 -0.7900 0.0099
v 0.0391 -0.7900 0.0099
v 0.0076 -0.7900 0.1068
v 0.0900 -0.8900 0.1666
v 0.1724 -0.8900 0.1068
v 0.1409 -0.8900 0.0099
v 0.0391 -0.8900 0.0099
v 0.0076 -0.8900 0.1068
v 0.0900 -0.9400 0.0800
v 0.1500 -0.7650 0.1300
v 0.1500 -0.8100 0.1750
v 0.1950 -0.8100 0.1300
v 0.1500 -0.8100 0.0850
v 0.1050 -0.8100 0.1300
v 0.1500 -0.8550 0.1300

vn -0.8004 -0.1147 -0.5884
vn -0.8000 -0.1148 -0.5889
vn 0.3066 0.0409 -0.9509
vn 0.3062 0.0410 -0.9511
vn 0.9803 0.1973 -0.0028
vn 0.9804 0.1972 -0.0025
vn 0.2910 0.1385 0.9466
vn 0.2907 0.1383 0.9468
vn -0.8099 -0.0547 0.5840
vn -0.8095 -0.0544 0.5846
vn -0.1561 0.9864 -0.0522
vn 0.1554 -0.9865 0.0517
vn -0.1563 0.9863 -0.0521
vn 0.1551 -0.9865 0.0518
vn -0.1560 0.9864 -0.0516
vn 0.1557 -0.9864 0.0526
vn -0.1556 0.9864 -0.0522
vn 0.1557 -0.9864 0.0525
vn -0.1561 0.9864 -0.0523
vn 0.1553 -0.9865 0.0524
vn -0.8026 -0.1003 -0.5880
vn -0.8026 -0.1003 -0.5880
vn 0.3067 0.0383 -0.9510
vn 0.3067 0.0383 -0.9510
vn 0.9923 0.1240 0.0000
vn 0.9923 0.1240 0.0000
vn 0.3067 0.0383 0.9510
vn 0.3067 0.0383 0.9510
vn -0.8026 -0.1003 0.5880
vn -0.8026 -0.1003 0.5880
vn -0.1241 0.9923 0.0000
vn 0.1241 -0.9923 -0.0000
vn -0.1237 0.9923 -0.0001
vn 0.1237 -0.9923 0.0001
vn -0.1237 0.9923 0.0000
vn 0.1237 -0.9923 0.0000
vn -0.1237 0.9923 0.0001
vn 0.1237 -0.9923 -0.0001
vn -0.1241 0.9923 -0.0000
vn 0.1241 -0.9923 0.0000
vn -0.8049 -0.0927 -0.5861
vn -0.8050 -0.0926 -0.5860
vn 0.3138 -0.0693 -0.9469
vn 0.3138 -0.0693 -0.9469
vn 0.9966 0.0820 -0.0033
vn 0.9966 0.0819 -0.0030
vn 0.3008 0.1521 0.9415
vn 0.3010 0.1521 0.9414
vn -0.8127 0.0441 0.5810
vn -0.8127 0.0441 0.5810
vn -0.0585 0.9915 -0.1166
vn 0.0583 -0.9915 0.1164
vn -0.0581 0.9915 -0.1167
vn 0.0579 -0.9915 0.1166
vn -0.0580 0.9915 -0.1165
vn 0.0583 -0.9914 0.1171
vn -0.0582 0.9915 -0.1162
vn 0.0587 -0.9914 0.1166
vn -0.0585 0.9915 -0.1163
vn 0.0583 -0.9915 0.1165
vn 0.3411 0.8141 0.4700
vn 0.5524 0.8140 -0.1796
vn 0.0000 0.8141 -0.5807
vn -0.5524 0.8140 -0.1796
vn -0.3411 0.8141 0.4700
vn 0.5874 0.0000 0.8093
vn 0.5874 0.0000 0.8093
vn 0.9510 0.0000 -0.3092
vn 0.9510 0.0000 -0.3092
vn 0.0000 -0.0000 -1.0000
vn -0.0000 0.0000 -1.0000
vn -0.9510 -0.0000 -0.3092
vn -0.9510 0.0000 -0.3092
vn -0.5874 0.0000 0.8093
vn -0.5874 0.0000 0.8093
vn 0.3411 -0.8141 0.4700
vn 0.5524 -0.8140 -0.1796
vn 0.0000 -0.8141 -0.5807
vn -0.5524 -0.8140 -0.1796
vn -0.3411 -0.8141 0.4700
vn 0.5774 0.5774 0.5774
vn 0.5774 0.5774 -0.5774
vn -0.5774 0.5774 -0.5774
vn -0.5774 0.5774 0.5774
vn 0.5774 -0.5774 0.5774
vn 0.5774 -0.5774 -0.5774
vn -0.5774 -0.5774 -0.5774
vn -0.5774 -0.5774 0.5774

usemtl mat_skin
f 1//1 2//1 4//1
f 1//2 4//2 3//2
f 3//3 4//3 6//3
f 3//4 6//4 5//4
f 5//5 6//5 8//5
f 5//6 8//6 7//6
f 7//7 8//7 10//7
f 7//8 10//8 9//8
f 9//9 10//9 2//9
f 9//10 2//10 1//10
f 11//11 3//11 1//11
f 12//12 2//12 4//12
f 11//13 5//13 3//13
f 12//14 4//14 6//14
f 11//15 7//15 5//15
f 12//16 6//16 8//16
f 11//17 9//17 7//17
f 12//18 8//18 10//18
f 11//19 1//19 9//19
f 12//20 10//20 2//20
f 25//41 26//41 28//41
f 25//42 28//42 27//42
f 27//43 28//43 30//43
f 27//44 30//44 29//44
f 29//45 30//45 32//45
f 29//46 32//46 31//46
f 31//47 32//47 34//47
f 31//48 34//48 33//48
f 33//49 34//49 26//49
f 33//50 26//50 25//50
f 35//51 27//51 25//51
f 36//52 26//52 28//52
f 35//53 29//53 27//53
f 36//54 28//54 30//54
f 35//55 31//55 29//55
f 36//56 30//56 32//56
f 35//57 33//57 31//57
f 36//58 32//58 34//58
f 35//59 25//59 33//59
f 36//60 34//60 26//60
f 37//61 38//61 39//61
f 37//62 39//62 40//62
f 37//63 40//63 41//63
f 37//64 41//64 42//64
f 37//65 42//65 38//65
f 38//66 43//66 44//66
f 38//67 44//67 39//67
f 39//68 44//68 45//68
f 39//69 45//69 40//69
f 40//70 45//70 46//70
f 40//71 46//71 41//71
f 41//72 46//72 47//72
f 41//73 47//73 42//73
f 42//74 47//74 43//74
f 42//75 43//75 38//75
f 44//76 43//76 48//76
f 45//77 44//77 48//77
f 46//78 45//78 48//78
f 47//79 46//79 48//79
f 43//80 47//80 48//80
f 49//81 50//81 51//81
f 49//82 51//82 52//82
f 49//83 52//83 53//83
f 49//84 53//84 50//84
f 51//85 50//85 54//85
f 52//86 51//86 54//86
f 53//87 52//87 54//87
f 50//88 53//88 54//88
usemtl mat_accent
f 13//21 14//21 16//21
f 13//22 16//22 15//22
f 15//23 16//23 18//23
f 15//24 18//24 17//24
f 17//25 18//25 20//25
f 17//26 20//26 19//26
f 19//27 20//27 22//27
f 19//28 22//28 21//28
f 21//29 22//29 14//29
f 21//30 14//30 13//30
f 23//31 15//31 13//31
f 24//32 14//32 16//32
f 23//33 17//33 15//33
f 24//34 16//34 18//34
f 23//35 19//35 17//35
f 24//36 18//36 20//36
f 23//37 21//37 19//37
f 24//38 20//38 22//38
f 23//39 13//39 21//39
f 24//40 22//40 14//40
