# How to Fish Style Low-Poly Caveman
mtllib caveman.mtl
o CavemanHead

v 0.0000 0.0000 0.1800
v 0.1273 0.0000 0.1273
v 0.1800 0.0000 0.0000
v 0.1273 0.0000 -0.1273
v 0.0000 0.0000 -0.1800
v -0.1273 0.0000 -0.1273
v -0.1800 0.0000 -0.0000
v -0.1273 0.0000 0.1273
v 0.0000 0.2000 0.1800
v 0.1202 0.2000 0.1302
v 0.1700 0.2000 0.0100
v 0.1202 0.2000 -0.1102
v 0.0000 0.2000 -0.1600
v -0.1202 0.2000 -0.1102
v -0.1700 0.2000 0.0100
v -0.1202 0.2000 0.1302
v 0.0000 0.4000 0.2500
v 0.1414 0.4000 0.1856
v 0.2000 0.4000 0.0300
v 0.1414 0.4000 -0.1256
v 0.0000 0.4000 -0.1900
v -0.1414 0.4000 -0.1256
v -0.2000 0.4000 0.0300
v -0.1414 0.4000 0.1856
v 0.0000 0.6000 0.3100
v 0.1768 0.6000 0.2338
v 0.2500 0.6000 0.0500
v 0.1768 0.6000 -0.1338
v 0.0000 0.6000 -0.2100
v -0.1768 0.6000 -0.1338
v -0.2500 0.6000 0.0500
v -0.1768 0.6000 0.2338
v 0.0000 0.7600 0.3000
v 0.1838 0.7600 0.2238
v 0.2600 0.7600 0.0400
v 0.1838 0.7600 -0.1438
v 0.0000 0.7600 -0.2200
v -0.1838 0.7600 -0.1438
v -0.2600 0.7600 0.0400
v -0.1838 0.7600 0.2238
v 0.0000 0.9200 0.2700
v 0.1768 0.9200 0.1968
v 0.2500 0.9200 0.0200
v 0.1768 0.9200 -0.1568
v 0.0000 0.9200 -0.2300
v -0.1768 0.9200 -0.1568
v -0.2500 0.9200 0.0200
v -0.1768 0.9200 0.1968
v 0.0000 1.0500 0.2000
v 0.1414 1.0500 0.1414
v 0.2000 1.0500 0.0000
v 0.1414 1.0500 -0.1414
v 0.0000 1.0500 -0.2000
v -0.1414 1.0500 -0.1414
v -0.2000 1.0500 -0.0000
v -0.1414 1.0500 0.1414
v 0.0000 1.1300 0.0000
v 0.0000 0.7600 0.3100
v 0.0000 0.6900 0.3700
v -0.0600 0.6600 0.2900
v 0.0600 0.6600 0.2900
v -0.1100 0.5300 0.2700
v 0.1100 0.5300 0.2700
v 0.1000 0.5000 0.2600
v -0.1000 0.5000 0.2600
v -0.0700 0.5100 0.2800
v -0.0700 0.5700 0.3000
v -0.0950 0.5100 0.2750
v 0.0700 0.5100 0.2800
v 0.0700 0.5700 0.3000
v 0.0950 0.5100 0.2750
v -0.1400 0.8650 0.2600
v -0.1400 0.8372 0.3272
v -0.0818 0.8372 0.2936
v -0.0818 0.8372 0.2264
v -0.1400 0.8372 0.1928
v -0.1982 0.8372 0.2264
v -0.1982 0.8372 0.2936
v -0.1400 0.7700 0.3550
v -0.0577 0.7700 0.3075
v -0.0577 0.7700 0.2125
v -0.1400 0.7700 0.1650
v -0.2223 0.7700 0.2125
v -0.2223 0.7700 0.3075
v -0.1400 0.7028 0.3272
v -0.0818 0.7028 0.2936
v -0.0818 0.7028 0.2264
v -0.1400 0.7028 0.1928
v -0.1982 0.7028 0.2264
v -0.1982 0.7028 0.2936
v -0.1400 0.6750 0.2600
v -0.1900 0.8050 0.3531
v -0.1200 0.8050 0.3531
v -0.1200 0.7350 0.3531
v -0.1900 0.7350 0.3531
v 0.1400 0.8650 0.2600
v 0.1400 0.8372 0.3272
v 0.1982 0.8372 0.2936
v 0.1982 0.8372 0.2264
v 0.1400 0.8372 0.1928
v 0.0818 0.8372 0.2264
v 0.0818 0.8372 0.2936
v 0.1400 0.7700 0.3550
v 0.2223 0.7700 0.3075
v 0.2223 0.7700 0.2125
v 0.1400 0.7700 0.1650
v 0.0577 0.7700 0.2125
v 0.0577 0.7700 0.3075
v 0.1400 0.7028 0.3272
v 0.1982 0.7028 0.2936
v 0.1982 0.7028 0.2264
v 0.1400 0.7028 0.1928
v 0.0818 0.7028 0.2264
v 0.0818 0.7028 0.2936
v 0.1400 0.6750 0.2600
v 0.1200 0.8050 0.3531
v 0.1900 0.8050 0.3531
v 0.1900 0.7350 0.3531
v 0.1200 0.7350 0.3531
v 0.0000 1.2800 -0.0200
v 0.0000 1.2000 0.1186
v 0.1318 1.2000 0.0228
v 0.0814 1.2000 -0.1321
v -0.0814 1.2000 -0.1321
v -0.1318 1.2000 0.0228
v 0.0000 1.0400 0.1186
v 0.1318 1.0400 0.0228
v 0.0814 1.0400 -0.1321
v -0.0814 1.0400 -0.1321
v -0.1318 1.0400 0.0228
v 0.0000 0.9600 -0.0200
v 0.0000 1.3300 -0.0300
v 0.0000 1.2750 0.0653
v 0.0906 1.2750 -0.0006
v 0.0560 1.2750 -0.1071
v -0.0560 1.2750 -0.1071
v -0.0906 1.2750 -0.0006
v 0.0000 1.1650 0.0653
v 0.0906 1.1650 -0.0006
v 0.0560 1.1650 -0.1071
v -0.0560 1.1650 -0.1071
v -0.0906 1.1650 -0.0006
v 0.0000 1.1100 -0.0300
v -0.2400 1.2000 -0.0600
v 0.2400 1.2000 -0.0600
v -0.2400 1.2285 -0.0393
v 0.2400 1.2285 -0.0393
v -0.2400 1.2176 -0.0057
v 0.2400 1.2176 -0.0057
v -0.2400 1.1824 -0.0057
v 0.2400 1.1824 -0.0057
v -0.2400 1.1715 -0.0393
v 0.2400 1.1715 -0.0393
v -0.2400 1.2000 -0.0300
v 0.2400 1.2000 -0.0300
v -0.2400 1.2500 -0.0300
v -0.2400 1.2250 0.0133
v -0.1967 1.2250 -0.0300
v -0.2400 1.2250 -0.0733
v -0.2833 1.2250 -0.0300
v -0.2400 1.1750 0.0133
v -0.1967 1.1750 -0.0300
v -0.2400 1.1750 -0.0733
v -0.2833 1.1750 -0.0300
v -0.2400 1.1500 -0.0300
v 0.2400 1.2500 -0.0300
v 0.2400 1.2250 0.0133
v 0.2833 1.2250 -0.0300
v 0.2400 1.2250 -0.0733
v 0.1967 1.2250 -0.0300
v 0.2400 1.1750 0.0133
v 0.2833 1.1750 -0.0300
v 0.2400 1.1750 -0.0733
v 0.1967 1.1750 -0.0300
v 0.2400 1.1500 -0.0300

vn -0.3828 0.0000 -0.9238
vn -0.3825 -0.0002 -0.9240
vn -0.9235 -0.0272 -0.3826
vn -0.9236 -0.0271 -0.3824
vn -0.9219 -0.0652 0.3819
vn -0.9220 -0.0654 0.3817
vn -0.3811 -0.0922 0.9199
vn -0.3809 -0.0920 0.9200
vn 0.3811 -0.0920 0.9199
vn 0.3809 -0.0922 0.9200
vn 0.9219 -0.0654 0.3819
vn 0.9220 -0.0652 0.3817
vn 0.9235 -0.0270 -0.3826
vn 0.9236 -0.0272 -0.3824
vn 0.3828 -0.0002 -0.9238
vn 0.3825 0.0000 -0.9240
vn -0.3949 0.3035 -0.8671
vn -0.3670 0.2842 -0.8857
vn -0.9182 0.1931 -0.3458
vn -0.9097 0.1742 -0.3769
vn -0.9307 0.1046 0.3505
vn -0.9164 0.1264 0.3797
vn -0.4118 0.1133 0.9042
vn -0.3791 0.1373 0.9151
vn 0.4107 0.1353 0.9017
vn 0.3804 0.1110 0.9181
vn 0.9285 0.1253 0.3497
vn 0.9192 0.0998 0.3808
vn 0.9217 0.1730 -0.3471
vn 0.9052 0.1998 -0.3750
vn 0.3974 0.2838 -0.8726
vn 0.3642 0.3077 -0.8790
vn -0.3816 0.2656 -0.8854
vn -0.3978 0.2809 -0.8734
vn -0.9005 0.2458 -0.3586
vn -0.9037 0.2599 -0.3403
vn -0.9118 0.1916 0.3631
vn -0.9210 0.1772 0.3469
vn -0.3935 0.1071 0.9131
vn -0.4128 0.0906 0.9063
vn 0.3941 0.0914 0.9145
vn 0.4120 0.1100 0.9045
vn 0.9144 0.1768 0.3642
vn 0.9179 0.1949 0.3457
vn 0.8971 0.2600 -0.3573
vn 0.9078 0.2431 -0.3419
vn 0.3800 0.2797 -0.8817
vn 0.3998 0.2634 -0.8779
vn -0.3823 -0.0576 -0.9222
vn -0.3955 -0.0400 -0.9176
vn -0.9236 0.0165 -0.3829
vn -0.9285 0.0349 -0.3698
vn -0.9207 0.0814 0.3817
vn -0.9272 0.0636 0.3692
vn -0.3819 0.0743 0.9212
vn -0.3951 0.0573 0.9168
vn 0.3823 0.0576 0.9222
vn 0.3947 0.0745 0.9158
vn 0.9219 0.0642 0.3822
vn 0.9260 0.0809 0.3688
vn 0.9232 0.0338 -0.3828
vn 0.9289 0.0175 -0.3699
vn 0.3827 -0.0409 -0.9230
vn 0.3951 -0.0573 -0.9168
vn -0.3769 -0.1707 -0.9104
vn -0.3774 -0.1701 -0.9103
vn -0.9189 -0.1044 -0.3804
vn -0.9187 -0.1050 -0.3809
vn -0.9239 -0.0099 0.3825
vn -0.9237 -0.0093 0.3830
vn -0.3819 0.0582 0.9224
vn -0.3823 0.0576 0.9222
vn 0.3819 0.0577 0.9224
vn 0.3823 0.0582 0.9222
vn 0.9239 -0.0093 0.3825
vn 0.9237 -0.0099 0.3830
vn 0.9188 -0.1050 -0.3804
vn 0.9187 -0.1045 -0.3809
vn 0.3770 -0.1701 -0.9105
vn 0.3774 -0.1707 -0.9102
vn -0.3428 -0.4454 -0.8271
vn -0.3424 -0.4457 -0.8271
vn -0.8533 -0.3831 -0.3536
vn -0.8536 -0.3827 -0.3534
vn -0.8857 -0.2842 0.3671
vn -0.8857 -0.2846 0.3667
vn -0.3744 -0.2090 0.9034
vn -0.3741 -0.2085 0.9036
vn 0.3744 -0.2085 0.9035
vn 0.3741 -0.2089 0.9036
vn 0.8856 -0.2846 0.3670
vn 0.8858 -0.2843 0.3668
vn 0.8535 -0.3827 -0.3537
vn 0.8535 -0.3830 -0.3534
vn 0.3427 -0.4457 -0.8270
vn 0.3425 -0.4454 -0.8272
vn 0.1521 0.9177 0.3671
vn 0.3671 0.9177 0.1521
vn 0.3671 0.9177 -0.1521
vn 0.1521 0.9177 -0.3671
vn -0.1521 0.9177 -0.3671
vn -0.3671 0.9177 -0.1521
vn -0.3671 0.9177 0.1521
vn -0.1521 0.9177 0.3671
vn 0.8009 -0.3897 -0.4546
vn -0.8009 -0.3897 -0.4546
vn 0.0000 0.9363 -0.3511
vn 0.0000 0.3162 -0.9487
vn 0.0000 0.3162 -0.9487
vn -0.1864 -0.3107 0.9321
vn -0.1864 0.3107 -0.9321
vn 0.2155 0.9023 0.3733
vn 0.4310 0.9023 0.0000
vn 0.2155 0.9023 -0.3733
vn -0.2155 0.9023 -0.3733
vn -0.4310 0.9023 0.0000
vn -0.2155 0.9023 0.3733
vn 0.4706 0.3373 0.8153
vn 0.4707 0.3374 0.8152
vn 0.9413 0.3376 0.0000
vn 0.9413 0.3376 0.0000
vn 0.4706 0.3374 -0.8153
vn 0.4707 0.3373 -0.8153
vn -0.4706 0.3373 -0.8153
vn -0.4707 0.3374 -0.8152
vn -0.9413 0.3376 0.0000
vn -0.9413 0.3376 0.0000
vn -0.4706 0.3374 0.8153
vn -0.4707 0.3373 0.8153
vn 0.4707 -0.3373 0.8153
vn 0.4706 -0.3374 0.8153
vn 0.9413 -0.3376 0.0000
vn 0.9413 -0.3376 0.0000
vn 0.4707 -0.3374 -0.8152
vn 0.4706 -0.3373 -0.8153
vn -0.4707 -0.3373 -0.8153
vn -0.4706 -0.3374 -0.8153
vn -0.9413 -0.3376 0.0000
vn -0.9413 -0.3376 0.0000
vn -0.4707 -0.3374 0.8152
vn -0.4706 -0.3373 0.8153
vn 0.2155 -0.9023 0.3733
vn 0.4310 -0.9023 0.0000
vn 0.2155 -0.9023 -0.3733
vn -0.2155 -0.9023 -0.3733
vn -0.4310 -0.9023 -0.0000
vn -0.2155 -0.9023 0.3733
vn 0.0000 0.0000 -1.0000
vn 0.0000 0.0000 -1.0000
vn 0.2155 0.9023 0.3733
vn 0.4310 0.9023 0.0000
vn 0.2155 0.9023 -0.3733
vn -0.2155 0.9023 -0.3733
vn -0.4310 0.9023 0.0000
vn -0.2155 0.9023 0.3733
vn 0.4706 0.3373 0.8153
vn 0.4707 0.3374 0.8152
vn 0.9413 0.3376 0.0000
vn 0.9413 0.3376 0.0000
vn 0.4706 0.3374 -0.8153
vn 0.4707 0.3373 -0.8153
vn -0.4706 0.3373 -0.8153
vn -0.4707 0.3374 -0.8152
vn -0.9413 0.3376 0.0000
vn -0.9413 0.3376 0.0000
vn -0.4706 0.3374 0.8153
vn -0.4707 0.3373 0.8153
vn 0.4707 -0.3373 0.8153
vn 0.4706 -0.3374 0.8153
vn 0.9413 -0.3376 0.0000
vn 0.9413 -0.3376 0.0000
vn 0.4707 -0.3374 -0.8152
vn 0.4706 -0.3373 -0.8153
vn -0.4707 -0.3373 -0.8153
vn -0.4706 -0.3374 -0.8153
vn -0.9413 -0.3376 0.0000
vn -0.9413 -0.3376 0.0000
vn -0.4707 -0.3374 0.8152
vn -0.4706 -0.3373 0.8153
vn 0.2155 -0.9023 0.3733
vn 0.4310 -0.9023 0.0000
vn 0.2155 -0.9023 -0.3733
vn -0.2155 -0.9023 -0.3733
vn -0.4310 -0.9023 -0.0000
vn -0.2155 -0.9023 0.3733
vn 0.0000 0.0000 -1.0000
vn 0.0000 0.0000 -1.0000
vn 0.3415 0.8140 0.4698
vn 0.5524 0.8140 -0.1797
vn 0.0000 0.8140 -0.5809
vn -0.5524 0.8140 -0.1797
vn -0.3415 0.8140 0.4698
vn 0.5880 0.0000 0.8089
vn 0.5880 0.0000 0.8089
vn 0.9509 0.0000 -0.3094
vn 0.9509 0.0000 -0.3094
vn 0.0000 -0.0000 -1.0000
vn -0.0000 0.0000 -1.0000
vn -0.9509 -0.0000 -0.3094
vn -0.9509 0.0000 -0.3094
vn -0.5880 0.0000 0.8089
vn -0.5880 0.0000 0.8089
vn 0.3415 -0.8140 0.4698
vn 0.5524 -0.8140 -0.1797
vn 0.0000 -0.8140 -0.5809
vn -0.5524 -0.8140 -0.1797
vn -0.3415 -0.8140 0.4698
vn 0.3417 0.8140 0.4698
vn 0.5524 0.8140 -0.1795
vn 0.0000 0.8141 -0.5807
vn -0.5524 0.8140 -0.1795
vn -0.3417 0.8140 0.4698
vn 0.5882 0.0000 0.8087
vn 0.5882 0.0000 0.8087
vn 0.9511 0.0000 -0.3090
vn 0.9511 0.0000 -0.3090
vn 0.0000 -0.0000 -1.0000
vn -0.0000 0.0000 -1.0000
vn -0.9511 -0.0000 -0.3090
vn -0.9511 0.0000 -0.3090
vn -0.5882 0.0000 0.8087
vn -0.5882 0.0000 0.8087
vn 0.3417 -0.8140 0.4698
vn 0.5524 -0.8140 -0.1795
vn 0.0000 -0.8141 -0.5807
vn -0.5524 -0.8140 -0.1795
vn -0.3417 -0.8140 0.4698
vn 0.0000 -0.5877 0.8091
vn 0.0000 -0.5877 0.8091
vn 0.0000 -0.9512 -0.3086
vn 0.0000 -0.9512 -0.3086
vn 0.0000 0.0000 -1.0000
vn 0.0000 0.0000 -1.0000
vn 0.0000 0.9512 -0.3086
vn 0.0000 0.9512 -0.3086
vn -0.0000 0.5877 0.8091
vn 0.0000 0.5877 0.8091
vn -1.0000 0.0000 0.0000
vn 1.0000 0.0000 0.0000
vn -1.0000 0.0000 0.0000
vn 1.0000 -0.0000 0.0000
vn -1.0000 0.0000 0.0000
vn 1.0000 0.0000 -0.0000
vn -1.0000 -0.0000 0.0000
vn 1.0000 0.0000 0.0000
vn -1.0000 0.0000 -0.0000
vn 1.0000 0.0000 0.0000
vn 0.4472 0.7746 0.4472
vn 0.4472 0.7746 -0.4472
vn -0.4472 0.7746 -0.4472
vn -0.4472 0.7746 0.4472
vn 0.7071 0.0000 0.7071
vn 0.7071 0.0000 0.7071
vn 0.7071 0.0000 -0.7071
vn 0.7071 0.0000 -0.7071
vn -0.7071 -0.0000 -0.7071
vn -0.7071 0.0000 -0.7071
vn -0.7071 0.0000 0.7071
vn -0.7071 0.0000 0.7071
vn 0.4472 -0.7746 0.4472
vn 0.4472 -0.7746 -0.4472
vn -0.4472 -0.7746 -0.4472
vn -0.4472 -0.7746 0.4472
vn 0.4472 0.7746 0.4472
vn 0.4472 0.7746 -0.4472
vn -0.4472 0.7746 -0.4472
vn -0.4472 0.7746 0.4472
vn 0.7071 0.0000 0.7071
vn 0.7071 0.0000 0.7071
vn 0.7071 0.0000 -0.7071
vn 0.7071 0.0000 -0.7071
vn -0.7071 -0.0000 -0.7071
vn -0.7071 0.0000 -0.7071
vn -0.7071 0.0000 0.7071
vn -0.7071 0.0000 0.7071
vn 0.4472 -0.7746 0.4472
vn 0.4472 -0.7746 -0.4472
vn -0.4472 -0.7746 -0.4472
vn -0.4472 -0.7746 0.4472

usemtl mat_skin
f 1//1 9//1 10//1
f 1//2 10//2 2//2
f 2//3 10//3 11//3
f 2//4 11//4 3//4
f 3//5 11//5 12//5
f 3//6 12//6 4//6
f 4//7 12//7 13//7
f 4//8 13//8 5//8
f 5//9 13//9 14//9
f 5//10 14//10 6//10
f 6//11 14//11 15//11
f 6//12 15//12 7//12
f 7//13 15//13 16//13
f 7//14 16//14 8//14
f 8//15 16//15 9//15
f 8//16 9//16 1//16
f 9//17 17//17 18//17
f 9//18 18//18 10//18
f 10//19 18//19 19//19
f 10//20 19//20 11//20
f 11//21 19//21 20//21
f 11//22 20//22 12//22
f 12//23 20//23 21//23
f 12//24 21//24 13//24
f 13//25 21//25 22//25
f 13//26 22//26 14//26
f 14//27 22//27 23//27
f 14//28 23//28 15//28
f 15//29 23//29 24//29
f 15//30 24//30 16//30
f 16//31 24//31 17//31
f 16//32 17//32 9//32
f 17//33 25//33 26//33
f 17//34 26//34 18//34
f 18//35 26//35 27//35
f 18//36 27//36 19//36
f 19//37 27//37 28//37
f 19//38 28//38 20//38
f 20//39 28//39 29//39
f 20//40 29//40 21//40
f 21//41 29//41 30//41
f 21//42 30//42 22//42
f 22//43 30//43 31//43
f 22//44 31//44 23//44
f 23//45 31//45 32//45
f 23//46 32//46 24//46
f 24//47 32//47 25//47
f 24//48 25//48 17//48
f 25//49 33//49 34//49
f 25//50 34//50 26//50
f 26//51 34//51 35//51
f 26//52 35//52 27//52
f 27//53 35//53 36//53
f 27//54 36//54 28//54
f 28//55 36//55 37//55
f 28//56 37//56 29//56
f 29//57 37//57 38//57
f 29//58 38//58 30//58
f 30//59 38//59 39//59
f 30//60 39//60 31//60
f 31//61 39//61 40//61
f 31//62 40//62 32//62
f 32//63 40//63 33//63
f 32//64 33//64 25//64
f 33//65 41//65 42//65
f 33//66 42//66 34//66
f 34//67 42//67 43//67
f 34//68 43//68 35//68
f 35//69 43//69 44//69
f 35//70 44//70 36//70
f 36//71 44//71 45//71
f 36//72 45//72 37//72
f 37//73 45//73 46//73
f 37//74 46//74 38//74
f 38//75 46//75 47//75
f 38//76 47//76 39//76
f 39//77 47//77 48//77
f 39//78 48//78 40//78
f 40//79 48//79 41//79
f 40//80 41//80 33//80
f 41//81 49//81 50//81
f 41//82 50//82 42//82
f 42//83 50//83 51//83
f 42//84 51//84 43//84
f 43//85 51//85 52//85
f 43//86 52//86 44//86
f 44//87 52//87 53//87
f 44//88 53//88 45//88
f 45//89 53//89 54//89
f 45//90 54//90 46//90
f 46//91 54//91 55//91
f 46//92 55//92 47//92
f 47//93 55//93 56//93
f 47//94 56//94 48//94
f 48//95 56//95 49//95
f 48//96 49//96 41//96
f 57//97 49//97 50//97
f 57//98 50//98 51//98
f 57//99 51//99 52//99
f 57//100 52//100 53//100
f 57//101 53//101 54//101
f 57//102 54//102 55//102
f 57//103 55//103 56//103
f 57//104 56//104 49//104
f 58//105 59//105 60//105
f 58//106 61//106 59//106
f 59//107 61//107 60//107
usemtl mat_hair
f 62//108 63//108 64//108
f 62//109 64//109 65//109
f 120//188 121//188 122//188
f 120//189 122//189 123//189
f 120//190 123//190 124//190
f 120//191 124//191 125//191
f 120//192 125//192 121//192
f 121//193 126//193 127//193
f 121//194 127//194 122//194
f 122//195 127//195 128//195
f 122//196 128//196 123//196
f 123//197 128//197 129//197
f 123//198 129//198 124//198
f 124//199 129//199 130//199
f 124//200 130//200 125//200
f 125//201 130//201 126//201
f 125//202 126//202 121//202
f 127//203 126//203 131//203
f 128//204 127//204 131//204
f 129//205 128//205 131//205
f 130//206 129//206 131//206
f 126//207 130//207 131//207
f 132//208 133//208 134//208
f 132//209 134//209 135//209
f 132//210 135//210 136//210
f 132//211 136//211 137//211
f 132//212 137//212 133//212
f 133//213 138//213 139//213
f 133//214 139//214 134//214
f 134//215 139//215 140//215
f 134//216 140//216 135//216
f 135//217 140//217 141//217
f 135//218 141//218 136//218
f 136//219 141//219 142//219
f 136//220 142//220 137//220
f 137//221 142//221 138//221
f 137//222 138//222 133//222
f 139//223 138//223 143//223
f 140//224 139//224 143//224
f 141//225 140//225 143//225
f 142//226 141//226 143//226
f 138//227 142//227 143//227
usemtl mat_accent
f 66//110 67//110 68//110
f 69//111 70//111 71//111
f 144//228 145//228 147//228
f 144//229 147//229 146//229
f 146//230 147//230 149//230
f 146//231 149//231 148//231
f 148//232 149//232 151//232
f 148//233 151//233 150//233
f 150//234 151//234 153//234
f 150//235 153//235 152//235
f 152//236 153//236 145//236
f 152//237 145//237 144//237
f 154//238 146//238 144//238
f 155//239 145//239 147//239
f 154//240 148//240 146//240
f 155//241 147//241 149//241
f 154//242 150//242 148//242
f 155//243 149//243 151//243
f 154//244 152//244 150//244
f 155//245 151//245 153//245
f 154//246 144//246 152//246
f 155//247 153//247 145//247
f 156//248 157//248 158//248
f 156//249 158//249 159//249
f 156//250 159//250 160//250
f 156//251 160//251 157//251
f 157//252 161//252 162//252
f 157//253 162//253 158//253
f 158//254 162//254 163//254
f 158//255 163//255 159//255
f 159//256 163//256 164//256
f 159//257 164//257 160//257
f 160//258 164//258 161//258
f 160//259 161//259 157//259
f 162//260 161//260 165//260
f 163//261 162//261 165//261
f 164//262 163//262 165//262
f 161//263 164//263 165//263
f 166//264 167//264 168//264
f 166//265 168//265 169//265
f 166//266 169//266 170//266
f 166//267 170//267 167//267
f 167//268 171//268 172//268
f 167//269 172//269 168//269
f 168//270 172//270 173//270
f 168//271 173//271 169//271
f 169//272 173//272 174//272
f 169//273 174//273 170//273
f 170//274 174//274 171//274
f 170//275 171//275 167//275
f 172//276 171//276 175//276
f 173//277 172//277 175//277
f 174//278 173//278 175//278
f 171//279 174//279 175//279
usemtl mat_eyes_white
f 72//112 73//112 74//112
f 72//113 74//113 75//113
f 72//114 75//114 76//114
f 72//115 76//115 77//115
f 72//116 77//116 78//116
f 72//117 78//117 73//117
f 73//118 79//118 80//118
f 73//119 80//119 74//119
f 74//120 80//120 81//120
f 74//121 81//121 75//121
f 75//122 81//122 82//122
f 75//123 82//123 76//123
f 76//124 82//124 83//124
f 76//125 83//125 77//125
f 77//126 83//126 84//126
f 77//127 84//127 78//127
f 78//128 84//128 79//128
f 78//129 79//129 73//129
f 79//130 85//130 86//130
f 79//131 86//131 80//131
f 80//132 86//132 87//132
f 80//133 87//133 81//133
f 81//134 87//134 88//134
f 81//135 88//135 82//135
f 82//136 88//136 89//136
f 82//137 89//137 83//137
f 83//138 89//138 90//138
f 83//139 90//139 84//139
f 84//140 90//140 85//140
f 84//141 85//141 79//141
f 86//142 85//142 91//142
f 87//143 86//143 91//143
f 88//144 87//144 91//144
f 89//145 88//145 91//145
f 90//146 89//146 91//146
f 85//147 90//147 91//147
f 96//150 97//150 98//150
f 96//151 98//151 99//151
f 96//152 99//152 100//152
f 96//153 100//153 101//153
f 96//154 101//154 102//154
f 96//155 102//155 97//155
f 97//156 103//156 104//156
f 97//157 104//157 98//157
f 98//158 104//158 105//158
f 98//159 105//159 99//159
f 99//160 105//160 106//160
f 99//161 106//161 100//161
f 100//162 106//162 107//162
f 100//163 107//163 101//163
f 101//164 107//164 108//164
f 101//165 108//165 102//165
f 102//166 108//166 103//166
f 102//167 103//167 97//167
f 103//168 109//168 110//168
f 103//169 110//169 104//169
f 104//170 110//170 111//170
f 104//171 111//171 105//171
f 105//172 111//172 112//172
f 105//173 112//173 106//173
f 106//174 112//174 113//174
f 106//175 113//175 107//175
f 107//176 113//176 114//176
f 107//177 114//177 108//177
f 108//178 114//178 109//178
f 108//179 109//179 103//179
f 110//180 109//180 115//180
f 111//181 110//181 115//181
f 112//182 111//182 115//182
f 113//183 112//183 115//183
f 114//184 113//184 115//184
f 109//185 114//185 115//185
usemtl mat_eyes_pupil
f 92//148 93//148 94//148
f 92//149 94//149 95//149
f 116//186 117//186 118//186
f 116//187 118//187 119//187
