# How to Fish Style Low-Poly Caveman
mtllib caveman.mtl
o CavemanTorso

v 0.0000 0.3500 0.2200
v 0.2546 0.3500 0.1556
v 0.3600 0.3500 0.0000
v 0.2546 0.3500 -0.1556
v 0.0000 0.3500 -0.2200
v -0.2546 0.3500 -0.1556
v -0.3600 0.3500 -0.0000
v -0.2546 0.3500 0.1556
v 0.0000 0.1500 0.2400
v 0.2687 0.1500 0.1697
v 0.3800 0.1500 0.0000
v 0.2687 0.1500 -0.1697
v 0.0000 0.1500 -0.2400
v -0.2687 0.1500 -0.1697
v -0.3800 0.1500 -0.0000
v -0.2687 0.1500 0.1697
v 0.0000 -0.1000 0.2100
v 0.2333 -0.1000 0.1485
v 0.3300 -0.1000 0.0000
v 0.2333 -0.1000 -0.1485
v 0.0000 -0.1000 -0.2100
v -0.2333 -0.1000 -0.1485
v -0.3300 -0.1000 -0.0000
v -0.2333 -0.1000 0.1485
v 0.0000 -0.3000 0.2200
v 0.2404 -0.3000 0.1556
v 0.3400 -0.3000 0.0000
v 0.2404 -0.3000 -0.1556
v 0.0000 -0.3000 -0.2200
v -0.2404 -0.3000 -0.1556
v -0.3400 -0.3000 -0.0000
v -0.2404 -0.3000 0.1556
v -0.1800 -0.3000 0.2200
v 0.1800 -0.3000 0.2200
v 0.1500 -0.6200 0.2500
v -0.1500 -0.6200 0.2500
v -0.1800 0.2000 0.2400
v -0.1800 0.3600 0.1000
v -0.1800 0.1800 -0.2200
v -0.2300 0.2000 0.2400
v -0.2300 0.3600 0.1000
v -0.2300 0.1800 -0.2200
v 0.1800 0.2000 0.2400
v 0.1800 0.3600 0.1000
v 0.1800 0.1800 -0.2200
v 0.2300 0.2000 0.2400
v 0.2300 0.3600 0.1000
v 0.2300 0.1800 -0.2200
v -0.1468 0.2320 0.2381
v -0.1468 0.2020 0.2681
v -0.1168 0.2020 0.2381
v -0.1468 0.2020 0.2081
v -0.1768 0.2020 0.2381
v -0.1468 0.1720 0.2381
v -0.0768 0.2560 0.2693
v -0.0768 0.2260 0.2993
v -0.0468 0.2260 0.2693
v -0.0768 0.2260 0.2393
v -0.1068 0.2260 0.2693
v -0.0768 0.1960 0.2693
v 0.0000 0.2800 0.2800
v 0.0000 0.2500 0.3100
v 0.0300 0.2500 0.2800
v 0.0000 0.2500 0.2500
v -0.0300 0.2500 0.2800
v 0.0000 0.2200 0.2800
v 0.0768 0.2560 0.2693
v 0.0768 0.2260 0.2993
v 0.1068 0.2260 0.2693
v 0.0768 0.2260 0.2393
v 0.0468 0.2260 0.2693
v 0.0768 0.1960 0.2693
v 0.1468 0.2320 0.2381
v 0.1468 0.2020 0.2681
v 0.1768 0.2020 0.2381
v 0.1468 0.2020 0.2081
v 0.1168 0.2020 0.2381
v 0.1468 0.1720 0.2381

vn 0.2519 0.0963 0.9629
vn 0.2443 0.0853 0.9659
vn 0.8322 0.0972 0.5458
vn 0.8251 0.0825 0.5589
vn 0.8333 0.0833 -0.5465
vn 0.8240 0.0974 -0.5582
vn 0.2522 0.0857 -0.9639
vn 0.2441 0.0965 -0.9649
vn -0.2519 0.0963 -0.9629
vn -0.2443 0.0853 -0.9659
vn -0.8322 0.0972 -0.5458
vn -0.8251 0.0825 -0.5589
vn -0.8333 0.0833 0.5465
vn -0.8240 0.0974 0.5582
vn -0.2522 0.0857 0.9639
vn -0.2441 0.0965 0.9649
vn 0.2532 -0.1153 0.9605
vn 0.2514 -0.1171 0.9608
vn 0.8268 -0.1627 0.5384
vn 0.8247 -0.1649 0.5409
vn 0.8265 -0.1653 -0.5382
vn 0.8251 -0.1627 -0.5411
vn 0.2531 -0.1173 -0.9603
vn 0.2514 -0.1153 -0.9610
vn -0.2532 -0.1153 -0.9605
vn -0.2514 -0.1171 -0.9608
vn -0.8268 -0.1627 -0.5384
vn -0.8247 -0.1649 -0.5409
vn -0.8265 -0.1653 0.5382
vn -0.8251 -0.1627 0.5411
vn -0.2531 -0.1173 0.9603
vn -0.2514 -0.1153 0.9610
vn 0.2585 0.0482 0.9648
vn 0.2547 0.0433 0.9661
vn 0.8412 0.0490 0.5385
vn 0.8373 0.0419 0.5452
vn 0.8415 0.0421 -0.5386
vn 0.8370 0.0491 -0.5450
vn 0.2585 0.0434 -0.9650
vn 0.2546 0.0483 -0.9658
vn -0.2585 0.0482 -0.9648
vn -0.2547 0.0433 -0.9661
vn -0.8412 0.0490 -0.5385
vn -0.8373 0.0419 -0.5452
vn -0.8415 0.0421 0.5386
vn -0.8370 0.0491 0.5450
vn -0.2585 0.0434 0.9650
vn -0.2546 0.0483 0.9658
vn 0.0000 -0.0933 -0.9956
vn 0.0000 -0.0933 -0.9956
vn 0.0000 0.6585 0.7526
vn 0.0000 0.6585 0.7526
vn 0.0000 0.8716 -0.4903
vn 0.0000 0.8716 -0.4903
vn 0.0000 -0.6585 -0.7526
vn 0.0000 -0.6585 -0.7526
vn 0.0000 -0.8716 0.4903
vn 0.0000 -0.8716 0.4903
vn 0.5774 0.5774 0.5774
vn 0.5774 0.5774 -0.5774
vn -0.5774 0.5774 -0.5774
vn -0.5774 0.5774 0.5774
vn 0.5774 -0.5774 0.5774
vn 0.5774 -0.5774 -0.5774
vn -0.5774 -0.5774 -0.5774
vn -0.5774 -0.5774 0.5774
vn 0.5774 0.5774 0.5774
vn 0.5774 0.5774 -0.5774
vn -0.5774 0.5774 -0.5774
vn -0.5774 0.5774 0.5774
vn 0.5774 -0.5774 0.5774
vn 0.5774 -0.5774 -0.5774
vn -0.5774 -0.5774 -0.5774
vn -0.5774 -0.5774 0.5774
vn 0.5774 0.5774 0.5774
vn 0.5774 0.5774 -0.5774
vn -0.5774 0.5774 -0.5774
vn -0.5774 0.5774 0.5774
vn 0.5774 -0.5774 0.5774
vn 0.5774 -0.5774 -0.5774
vn -0.5774 -0.5774 -0.5774
vn -0.5774 -0.5774 0.5774
vn 0.5774 0.5774 0.5774
vn 0.5774 0.5774 -0.5774
vn -0.5774 0.5774 -0.5774
vn -0.5774 0.5774 0.5774
vn 0.5774 -0.5774 0.5774
vn 0.5774 -0.5774 -0.5774
vn -0.5774 -0.5774 -0.5774
vn -0.5774 -0.5774 0.5774
vn 0.5774 0.5774 0.5774
vn 0.5774 0.5774 -0.5774
vn -0.5774 0.5774 -0.5774
vn -0.5774 0.5774 0.5774
vn 0.5774 -0.5774 0.5774
vn 0.5774 -0.5774 -0.5774
vn -0.5774 -0.5774 -0.5774
vn -0.5774 -0.5774 0.5774

usemtl mat_clothing
f 1//1 9//1 10//1
f 1//2 10//2 2//2
f 2//3 10//3 11//3
f 2//4 11//4 3//4
f 3//5 11//5 12//5
f 3//6 12//6 4//6
f 4//7 12//7 13//7
f 4//8 13//8 5//8
f 5//9 13//9 14//9
f 5//10 14//10 6//10
f 6//11 14//11 15//11
f 6//12 15//12 7//12
f 7//13 15//13 16//13
f 7//14 16//14 8//14
f 8//15 16//15 9//15
f 8//16 9//16 1//16
f 9//17 17//17 18//17
f 9//18 18//18 10//18
f 10//19 18//19 19//19
f 10//20 19//20 11//20
f 11//21 19//21 20//21
f 11//22 20//22 12//22
f 12//23 20//23 21//23
f 12//24 21//24 13//24
f 13//25 21//25 22//25
f 13//26 22//26 14//26
f 14//27 22//27 23//27
f 14//28 23//28 15//28
f 15//29 23//29 24//29
f 15//30 24//30 16//30
f 16//31 24//31 17//31
f 16//32 17//32 9//32
f 17//33 25//33 26//33
f 17//34 26//34 18//34
f 18//35 26//35 27//35
f 18//36 27//36 19//36
f 19//37 27//37 28//37
f 19//38 28//38 20//38
f 20//39 28//39 29//39
f 20//40 29//40 21//40
f 21//41 29//41 30//41
f 21//42 30//42 22//42
f 22//43 30//43 31//43
f 22//44 31//44 23//44
f 23//45 31//45 32//45
f 23//46 32//46 24//46
f 24//47 32//47 25//47
f 24//48 25//48 17//48
f 33//49 34//49 35//49
f 33//50 35//50 36//50
usemtl mat_accent
f 37//51 38//51 41//51
f 37//52 41//52 40//52
f 38//53 39//53 42//53
f 38//54 42//54 41//54
f 43//55 44//55 47//55
f 43//56 47//56 46//56
f 44//57 45//57 48//57
f 44//58 48//58 47//58
f 49//59 50//59 51//59
f 49//60 51//60 52//60
f 49//61 52//61 53//61
f 49//62 53//62 50//62
f 51//63 50//63 54//63
f 52//64 51//64 54//64
f 53//65 52//65 54//65
f 50//66 53//66 54//66
f 55//67 56//67 57//67
f 55//68 57//68 58//68
f 55//69 58//69 59//69
f 55//70 59//70 56//70
f 57//71 56//71 60//71
f 58//72 57//72 60//72
f 59//73 58//73 60//73
f 56//74 59//74 60//74
f 61//75 62//75 63//75
f 61//76 63//76 64//76
f 61//77 64//77 65//77
f 61//78 65//78 62//78
f 63//79 62//79 66//79
f 64//80 63//80 66//80
f 65//81 64//81 66//81
f 62//82 65//82 66//82
f 67//83 68//83 69//83
f 67//84 69//84 70//84
f 67//85 70//85 71//85
f 67//86 71//86 68//86
f 69//87 68//87 72//87
f 70//88 69//88 72//88
f 71//89 70//89 72//89
f 68//90 71//90 72//90
f 73//91 74//91 75//91
f 73//92 75//92 76//92
f 73//93 76//93 77//93
f 73//94 77//94 74//94
f 75//95 74//95 78//95
f 76//96 75//96 78//96
f 77//97 76//97 78//97
f 74//98 77//98 78//98
