# How to Fish Style Low-Poly Caveman
mtllib caveman.mtl
o CavemanLegR

v 0.1300 0.0000 0.0000
v 0.1100 -0.3600 0.0200
v 0.0402 0.0069 0.1234
v 0.0340 -0.3542 0.1245
v -0.1052 0.0042 0.0763
v -0.0890 -0.3564 0.0846
v -0.1052 -0.0042 -0.0763
v -0.0890 -0.3636 -0.0446
v 0.0402 -0.0069 -0.1234
v 0.0340 -0.3658 -0.0845
v 0.0000 0.0000 0.0000
v 0.0000 -0.3600 0.0200
v 0.1100 -0.3600 0.0200
v 0.0900 -0.7200 0.0000
v 0.0340 -0.3658 0.1245
v 0.0278 -0.7247 0.0855
v -0.0890 -0.3636 0.0846
v -0.0728 -0.7229 0.0528
v -0.0890 -0.3564 -0.0446
v -0.0728 -0.7171 -0.0528
v 0.0340 -0.3542 -0.0845
v 0.0278 -0.7153 -0.0855
v 0.0000 -0.3600 0.0200
v 0.0000 -0.7200 0.0000
v -0.1000 -0.8000 -0.0800
v 0.1000 -0.8000 -0.0800
v 0.1000 -0.8000 0.2600
v -0.1000 -0.8000 0.2600
v -0.0800 -0.6800 0.0000
v 0.0800 -0.6800 0.0000
v 0.0000 -0.7600 0.2800

vn -0.8084 0.0122 -0.5886
vn -0.8082 0.0121 -0.5888
vn 0.3087 -0.0082 -0.9511
vn 0.3083 -0.0080 -0.9513
vn 0.9990 0.0448 -0.0025
vn 0.9990 0.0448 -0.0025
vn 0.3087 0.0974 0.9462
vn 0.3083 0.0972 0.9463
vn -0.8084 0.0772 0.5836
vn -0.8082 0.0773 0.5838
vn 0.0000 0.9984 -0.0558
vn 0.0000 -0.9985 0.0554
vn -0.0005 0.9984 -0.0557
vn -0.0001 -0.9985 0.0555
vn 0.0000 0.9985 -0.0550
vn -0.0000 -0.9985 0.0556
vn 0.0005 0.9984 -0.0557
vn 0.0001 -0.9985 0.0555
vn 0.0000 0.9984 -0.0558
vn 0.0000 -0.9985 0.0554
vn -0.8083 0.0773 -0.5837
vn -0.8083 0.0774 -0.5836
vn 0.3092 0.0975 -0.9460
vn 0.3087 0.0977 -0.9461
vn 0.9990 0.0448 0.0025
vn 0.9990 0.0448 0.0025
vn 0.3092 -0.0077 0.9510
vn 0.3087 -0.0079 0.9511
vn -0.8083 0.0122 0.5887
vn -0.8084 0.0122 0.5886
vn -0.0000 0.9985 0.0554
vn 0.0000 -0.9985 -0.0549
vn -0.0001 0.9985 0.0555
vn -0.0000 -0.9985 -0.0549
vn -0.0000 0.9985 0.0556
vn 0.0000 -0.9985 -0.0548
vn 0.0001 0.9985 0.0555
vn 0.0000 -0.9985 -0.0549
vn -0.0000 0.9985 0.0554
vn 0.0000 -0.9985 -0.0549
vn 0.0000 -1.0000 0.0000
vn 0.0000 -1.0000 0.0000
vn 0.0000 0.5547 -0.8321
vn 0.0000 0.5547 -0.8321
vn -0.4076 0.8406 0.3566
vn 0.4076 0.8406 0.3566
vn -0.0000 0.9615 0.2747
vn 0.0000 -0.4472 0.8944

usemtl mat_clothing
f 1//1 2//1 4//1
f 1//2 4//2 3//2
f 3//3 4//3 6//3
f 3//4 6//4 5//4
f 5//5 6//5 8//5
f 5//6 8//6 7//6
f 7//7 8//7 10//7
f 7//8 10//8 9//8
f 9//9 10//9 2//9
f 9//10 2//10 1//10
f 11//11 3//11 1//11
f 12//12 2//12 4//12
f 11//13 5//13 3//13
f 12//14 4//14 6//14
f 11//15 7//15 5//15
f 12//16 6//16 8//16
f 11//17 9//17 7//17
f 12//18 8//18 10//18
f 11//19 1//19 9//19
f 12//20 10//20 2//20
usemtl mat_skin
f 13//21 14//21 16//21
f 13//22 16//22 15//22
f 15//23 16//23 18//23
f 15//24 18//24 17//24
f 17//25 18//25 20//25
f 17//26 20//26 19//26
f 19//27 20//27 22//27
f 19//28 22//28 21//28
f 21//29 22//29 14//29
f 21//30 14//30 13//30
f 23//31 15//31 13//31
f 24//32 14//32 16//32
f 23//33 17//33 15//33
f 24//34 16//34 18//34
f 23//35 19//35 17//35
f 24//36 18//36 20//36
f 23//37 21//37 19//37
f 24//38 20//38 22//38
f 23//39 13//39 21//39
f 24//40 22//40 14//40
f 25//41 26//41 27//41
f 25//42 27//42 28//42
f 25//43 29//43 30//43
f 25//44 30//44 26//44
f 29//45 28//45 31//45
f 30//46 31//46 27//46
f 29//47 31//47 30//47
f 28//48 27//48 31//48
