# Prehistoric Pickaxe Low-Poly
mtllib tool_pickaxe.mtl
o pickaxe

v 0.0260 -0.3600 -0.0150
v 0.0130 -0.3600 0.0075
v -0.0130 -0.3600 0.0075
v -0.0260 -0.3600 -0.0150
v -0.0130 -0.3600 -0.0375
v 0.0130 -0.3600 -0.0375
v 0.0220 -0.3400 -0.0100
v 0.0110 -0.3400 0.0091
v -0.0110 -0.3400 0.0091
v -0.0220 -0.3400 -0.0100
v -0.0110 -0.3400 -0.0291
v 0.0110 -0.3400 -0.0291
v 0.0210 -0.2500 -0.0050
v 0.0115 -0.2500 0.0115
v -0.0075 -0.2500 0.0115
v -0.0170 -0.2500 -0.0050
v -0.0075 -0.2500 -0.0215
v 0.0115 -0.2500 -0.0215
v 0.0210 -0.1000 0.0000
v 0.0120 -0.1000 0.0156
v -0.0060 -0.1000 0.0156
v -0.0150 -0.1000 0.0000
v -0.0060 -0.1000 -0.0156
v 0.0120 -0.1000 -0.0156
v 0.0210 0.0500 0.0050
v 0.0115 0.0500 0.0215
v -0.0075 0.0500 0.0215
v -0.0170 0.0500 0.0050
v -0.0075 0.0500 -0.0115
v 0.0115 0.0500 -0.0115
v 0.0210 0.1800 0.0100
v 0.0105 0.1800 0.0282
v -0.0105 0.1800 0.0282
v -0.0210 0.1800 0.0100
v -0.0105 0.1800 -0.0082
v 0.0105 0.1800 -0.0082
v 0.0220 0.2400 0.0120
v 0.0105 0.2400 0.0319
v -0.0125 0.2400 0.0319
v -0.0240 0.2400 0.0120
v -0.0125 0.2400 -0.0079
v 0.0105 0.2400 -0.0079
v 0.0180 0.2800 0.0120
v 0.0080 0.2800 0.0293
v -0.0120 0.2800 0.0293
v -0.0220 0.2800 0.0120
v -0.0120 0.2800 -0.0053
v 0.0080 0.2800 -0.0053
v 0.0000 -0.3700 -0.0150
v -0.0020 0.2900 0.0120
v 0.0000 0.2400 0.1600
v 0.0220 0.2200 0.1600
v 0.0000 0.2000 0.1600
v -0.0220 0.2200 0.1600
v 0.0000 0.2480 0.1200
v 0.0300 0.2200 0.1200
v 0.0000 0.1920 0.1200
v -0.0300 0.2200 0.1200
v 0.0000 0.2520 0.0400
v 0.0340 0.2200 0.0400
v 0.0000 0.1880 0.0400
v -0.0340 0.2200 0.0400
v 0.0000 0.2480 -0.0600
v 0.0320 0.2190 -0.0600
v 0.0000 0.1900 -0.0600
v -0.0320 0.2190 -0.0600
v 0.0000 0.2380 -0.1600
v 0.0260 0.2115 -0.1600
v 0.0000 0.1850 -0.1600
v -0.0260 0.2115 -0.1600
v 0.0000 0.2200 -0.2600
v 0.0180 0.1975 -0.2600
v 0.0000 0.1750 -0.2600
v -0.0180 0.1975 -0.2600
v 0.0000 0.1950 -0.3400
v 0.0080 0.1800 -0.3400
v 0.0000 0.1650 -0.3400
v -0.0080 0.1800 -0.3400
v 0.0000 0.2200 0.1700
v 0.0000 0.1700 -0.3650
v 0.0380 0.2000 0.0000
v 0.0380 0.2400 0.0000
v 0.0190 0.2000 0.0329
v 0.0190 0.2400 0.0329
v -0.0190 0.2000 0.0329
v -0.0190 0.2400 0.0329
v -0.0380 0.2000 0.0000
v -0.0380 0.2400 0.0000
v -0.0190 0.2000 -0.0329
v -0.0190 0.2400 -0.0329
v 0.0190 0.2000 -0.0329
v 0.0190 0.2400 -0.0329

vn 0.8655 0.0485 0.4985
vn 0.8649 0.0465 0.4997
vn 0.0000 -0.0797 0.9968
vn 0.0000 -0.0797 0.9968
vn -0.8656 0.0467 0.4985
vn -0.8649 0.0480 0.4997
vn -0.8305 0.2857 -0.4783
vn -0.8301 0.2844 -0.4796
vn 0.0000 0.3872 -0.9220
vn 0.0000 0.3872 -0.9220
vn 0.8309 0.2841 -0.4785
vn 0.8297 0.2858 -0.4794
vn 0.8665 -0.0181 0.4989
vn 0.8664 -0.0181 0.4990
vn 0.0000 -0.0267 0.9996
vn 0.0000 -0.0267 0.9996
vn -0.8664 0.0204 0.4989
vn -0.8664 0.0204 0.4990
vn -0.8641 0.0756 -0.4975
vn -0.8641 0.0756 -0.4976
vn 0.0000 0.0841 -0.9965
vn 0.0000 0.0841 -0.9965
vn 0.8660 0.0373 -0.4986
vn 0.8660 0.0373 -0.4987
vn 0.8661 -0.0167 0.4997
vn 0.8665 -0.0165 0.4989
vn 0.0000 -0.0273 0.9996
vn 0.0000 -0.0273 0.9996
vn -0.8662 -0.0050 0.4997
vn -0.8666 -0.0051 0.4990
vn -0.8658 0.0282 -0.4995
vn -0.8663 0.0283 -0.4988
vn 0.0000 0.0393 -0.9992
vn 0.0000 0.0393 -0.9992
vn 0.8661 0.0168 -0.4997
vn 0.8665 0.0166 -0.4989
vn 0.8665 -0.0166 0.4989
vn 0.8661 -0.0168 0.4997
vn 0.0000 -0.0393 0.9992
vn 0.0000 -0.0393 0.9992
vn -0.8663 -0.0283 0.4988
vn -0.8658 -0.0282 0.4995
vn -0.8666 0.0051 -0.4990
vn -0.8662 0.0050 -0.4997
vn 0.0000 0.0273 -0.9996
vn 0.0000 0.0273 -0.9996
vn 0.8665 0.0165 -0.4989
vn 0.8661 0.0167 -0.4997
vn 0.8660 -0.0192 0.4996
vn 0.8665 -0.0190 0.4989
vn 0.0000 -0.0515 0.9987
vn 0.0000 -0.0515 0.9987
vn -0.8653 -0.0457 0.4992
vn -0.8657 -0.0458 0.4984
vn -0.8662 -0.0074 -0.4997
vn -0.8666 -0.0073 -0.4990
vn 0.0000 0.0254 -0.9997
vn 0.0000 0.0254 -0.9997
vn 0.8660 0.0193 -0.4996
vn 0.8665 0.0192 -0.4989
vn 0.8654 -0.0311 0.5001
vn 0.8658 -0.0308 0.4995
vn 0.0000 -0.0615 0.9981
vn 0.0000 -0.0615 0.9981
vn -0.8643 -0.0596 0.4995
vn -0.8646 -0.0599 0.4988
vn -0.8655 -0.0266 -0.5002
vn -0.8659 -0.0264 -0.4995
vn 0.0000 0.0050 -1.0000
vn 0.0000 0.0050 -1.0000
vn 0.8658 0.0025 -0.5003
vn 0.8662 0.0022 -0.4997
vn 0.8625 0.0863 0.4986
vn 0.8626 0.0863 0.4985
vn 0.0000 0.0649 0.9979
vn 0.0000 0.0649 0.9979
vn -0.8650 0.0433 0.5000
vn -0.8650 0.0433 0.4999
vn -0.8650 0.0432 -0.5000
vn -0.8650 0.0433 -0.4999
vn 0.0000 0.0649 -0.9979
vn 0.0000 0.0649 -0.9979
vn 0.8625 0.0863 -0.4986
vn 0.8626 0.0863 -0.4985
vn 0.3515 -0.9139 0.2031
vn 0.0000 -0.9138 0.4061
vn -0.3515 -0.9139 0.2031
vn -0.3515 -0.9139 -0.2031
vn 0.0000 -0.9138 -0.4061
vn 0.3515 -0.9139 -0.2031
vn 0.4330 0.8660 0.2503
vn 0.0000 0.8658 0.5004
vn -0.4330 0.8660 0.2503
vn -0.4330 0.8660 -0.2503
vn 0.0000 0.8658 -0.5004
vn 0.4330 0.8660 -0.2503
vn -0.6751 -0.7234 -0.1447
vn -0.6667 -0.7333 -0.1333
vn -0.6761 0.7243 -0.1352
vn -0.6654 0.7320 -0.1464
vn 0.6751 0.7234 -0.1447
vn 0.6667 0.7333 -0.1333
vn 0.6761 -0.7243 -0.1352
vn 0.6654 -0.7320 -0.1464
vn -0.6849 -0.7277 -0.0364
vn -0.6819 -0.7306 -0.0341
vn -0.6850 0.7278 -0.0342
vn -0.6819 0.7306 -0.0365
vn 0.6849 0.7277 -0.0364
vn 0.6819 0.7306 -0.0341
vn 0.6850 -0.7278 -0.0342
vn 0.6819 -0.7306 -0.0365
vn -0.6712 -0.7407 0.0296
vn -0.6852 -0.7280 0.0210
vn -0.6715 0.7410 0.0060
vn -0.6853 0.7281 0.0146
vn 0.6714 0.7409 0.0148
vn 0.6854 0.7282 0.0064
vn 0.6714 -0.7408 0.0208
vn 0.6851 -0.7279 0.0291
vn -0.7121 -0.6986 0.0699
vn -0.6685 -0.7376 0.0954
vn -0.7138 0.7003 -0.0097
vn -0.6711 0.7405 -0.0370
vn 0.7134 0.6999 -0.0350
vn 0.6714 0.7409 -0.0153
vn 0.7106 -0.6972 0.0949
vn 0.6697 -0.7390 0.0739
vn -0.7760 -0.6208 0.1117
vn -0.7054 -0.6921 0.1533
vn -0.7806 0.6245 -0.0250
vn -0.7121 0.6986 -0.0699
vn 0.7793 0.6235 -0.0623
vn 0.7132 0.6998 -0.0409
vn 0.7722 -0.6178 0.1483
vn 0.7082 -0.6948 0.1251
vn -0.8730 -0.4656 0.1455
vn -0.7603 -0.6082 0.2281
vn -0.8823 0.4706 0.0074
vn -0.7785 0.6228 -0.0778
vn 0.8808 0.4698 -0.0587
vn 0.7803 0.6242 -0.0390
vn 0.8630 -0.4602 0.2085
vn 0.7664 -0.6131 0.1916
vn -0.3766 -0.4143 -0.8286
vn -0.3766 0.4143 -0.8286
vn 0.3766 0.4143 -0.8286
vn 0.3766 -0.4143 -0.8286
vn -0.7984 -0.4258 0.4258
vn -0.8785 0.4685 0.0937
vn 0.8785 0.4685 0.0937
vn 0.7984 -0.4258 0.4258
vn 0.8660 -0.0000 0.5001
vn 0.8660 0.0000 0.5001
vn 0.0000 -0.0000 1.0000
vn 0.0000 0.0000 1.0000
vn -0.8660 0.0000 0.5001
vn -0.8660 0.0000 0.5001
vn -0.8660 0.0000 -0.5001
vn -0.8660 0.0000 -0.5001
vn 0.0000 0.0000 -1.0000
vn 0.0000 0.0000 -1.0000
vn 0.8660 0.0000 -0.5001
vn 0.8660 0.0000 -0.5001

usemtl mat_wood
s 1
f 1//1 7//1 8//1
f 1//2 8//2 2//2
f 2//3 8//3 9//3
f 2//4 9//4 3//4
f 3//5 9//5 10//5
f 3//6 10//6 4//6
f 4//7 10//7 11//7
f 4//8 11//8 5//8
f 5//9 11//9 12//9
f 5//10 12//10 6//10
f 6//11 12//11 7//11
f 6//12 7//12 1//12
f 7//13 13//13 14//13
f 7//14 14//14 8//14
f 8//15 14//15 15//15
f 8//16 15//16 9//16
f 9//17 15//17 16//17
f 9//18 16//18 10//18
f 10//19 16//19 17//19
f 10//20 17//20 11//20
f 11//21 17//21 18//21
f 11//22 18//22 12//22
f 12//23 18//23 13//23
f 12//24 13//24 7//24
f 13//25 19//25 20//25
f 13//26 20//26 14//26
f 14//27 20//27 21//27
f 14//28 21//28 15//28
f 15//29 21//29 22//29
f 15//30 22//30 16//30
f 16//31 22//31 23//31
f 16//32 23//32 17//32
f 17//33 23//33 24//33
f 17//34 24//34 18//34
f 18//35 24//35 19//35
f 18//36 19//36 13//36
f 19//37 25//37 26//37
f 19//38 26//38 20//38
f 20//39 26//39 27//39
f 20//40 27//40 21//40
f 21//41 27//41 28//41
f 21//42 28//42 22//42
f 22//43 28//43 29//43
f 22//44 29//44 23//44
f 23//45 29//45 30//45
f 23//46 30//46 24//46
f 24//47 30//47 25//47
f 24//48 25//48 19//48
f 25//49 31//49 32//49
f 25//50 32//50 26//50
f 26//51 32//51 33//51
f 26//52 33//52 27//52
f 27//53 33//53 34//53
f 27//54 34//54 28//54
f 28//55 34//55 35//55
f 28//56 35//56 29//56
f 29//57 35//57 36//57
f 29//58 36//58 30//58
f 30//59 36//59 31//59
f 30//60 31//60 25//60
f 31//61 37//61 38//61
f 31//62 38//62 32//62
f 32//63 38//63 39//63
f 32//64 39//64 33//64
f 33//65 39//65 40//65
f 33//66 40//66 34//66
f 34//67 40//67 41//67
f 34//68 41//68 35//68
f 35//69 41//69 42//69
f 35//70 42//70 36//70
f 36//71 42//71 37//71
f 36//72 37//72 31//72
f 37//73 43//73 44//73
f 37//74 44//74 38//74
f 38//75 44//75 45//75
f 38//76 45//76 39//76
f 39//77 45//77 46//77
f 39//78 46//78 40//78
f 40//79 46//79 47//79
f 40//80 47//80 41//80
f 41//81 47//81 48//81
f 41//82 48//82 42//82
f 42//83 48//83 43//83
f 42//84 43//84 37//84
f 49//85 1//85 2//85
f 49//86 2//86 3//86
f 49//87 3//87 4//87
f 49//88 4//88 5//88
f 49//89 5//89 6//89
f 49//90 6//90 1//90
f 50//91 44//91 43//91
f 50//92 45//92 44//92
f 50//93 46//93 45//93
f 50//94 47//94 46//94
f 50//95 48//95 47//95
f 50//96 43//96 48//96

usemtl mat_stone
s 1
f 51//97 55//97 56//97
f 51//98 56//98 52//98
f 52//99 56//99 57//99
f 52//100 57//100 53//100
f 53//101 57//101 58//101
f 53//102 58//102 54//102
f 54//103 58//103 55//103
f 54//104 55//104 51//104
f 55//105 59//105 60//105
f 55//106 60//106 56//106
f 56//107 60//107 61//107
f 56//108 61//108 57//108
f 57//109 61//109 62//109
f 57//110 62//110 58//110
f 58//111 62//111 59//111
f 58//112 59//112 55//112
f 59//113 63//113 64//113
f 59//114 64//114 60//114
f 60//115 64//115 65//115
f 60//116 65//116 61//116
f 61//117 65//117 66//117
f 61//118 66//118 62//118
f 62//119 66//119 63//119
f 62//120 63//120 59//120
f 63//121 67//121 68//121
f 63//122 68//122 64//122
f 64//123 68//123 69//123
f 64//124 69//124 65//124
f 65//125 69//125 70//125
f 65//126 70//126 66//126
f 66//127 70//127 67//127
f 66//128 67//128 63//128
f 67//129 71//129 72//129
f 67//130 72//130 68//130
f 68//131 72//131 73//131
f 68//132 73//132 69//132
f 69//133 73//133 74//133
f 69//134 74//134 70//134
f 70//135 74//135 71//135
f 70//136 71//136 67//136
f 71//137 75//137 76//137
f 71//138 76//138 72//138
f 72//139 76//139 77//139
f 72//140 77//140 73//140
f 73//141 77//141 78//141
f 73//142 78//142 74//142
f 74//143 78//143 75//143
f 74//144 75//144 71//144
f 79//145 51//145 52//145
f 79//146 52//146 53//146
f 79//147 53//147 54//147
f 79//148 54//148 51//148
f 80//149 76//149 75//149
f 80//150 77//150 76//150
f 80//151 78//151 77//151
f 80//152 75//152 78//152

usemtl mat_clothing
s 1
f 81//153 82//153 84//153
f 81//154 84//154 83//154
f 83//155 84//155 86//155
f 83//156 86//156 85//156
f 85//157 86//157 88//157
f 85//158 88//158 87//158
f 87//159 88//159 90//159
f 87//160 90//160 89//160
f 89//161 90//161 92//161
f 89//162 92//162 91//162
f 91//163 92//163 82//163
f 91//164 82//164 81//164

