# Prehistoric Asset: tool_torch
mtllib tools.mtl
o tool_torch

v 0.0240 -0.4500 0.0000
v 0.0120 -0.4500 0.0208
v -0.0120 -0.4500 0.0208
v -0.0240 -0.4500 0.0000
v -0.0120 -0.4500 -0.0208
v 0.0120 -0.4500 -0.0208
v 0.0260 -0.2000 0.0000
v 0.0130 -0.2000 0.0225
v -0.0130 -0.2000 0.0225
v -0.0260 -0.2000 0.0000
v -0.0130 -0.2000 -0.0225
v 0.0130 -0.2000 -0.0225
v 0.0280 0.0000 0.0000
v 0.0140 0.0000 0.0242
v -0.0140 0.0000 0.0242
v -0.0280 0.0000 0.0000
v -0.0140 0.0000 -0.0242
v 0.0140 0.0000 -0.0242
v 0.0300 0.1200 0.0000
v 0.0150 0.1200 0.0260
v -0.0150 0.1200 0.0260
v -0.0300 0.1200 0.0000
v -0.0150 0.1200 -0.0260
v 0.0150 0.1200 -0.0260
v 0.0000 -0.4700 0.0000
v 0.0380 0.1000 0.0000
v 0.0190 0.1000 0.0329
v -0.0190 0.1000 0.0329
v -0.0380 0.1000 0.0000
v -0.0190 0.1000 -0.0329
v 0.0190 0.1000 -0.0329
v 0.0620 0.1800 0.0000
v 0.0310 0.1800 0.0537
v -0.0310 0.1800 0.0537
v -0.0620 0.1800 0.0000
v -0.0310 0.1800 -0.0537
v 0.0310 0.1800 -0.0537
v 0.0580 0.2600 0.0000
v 0.0290 0.2600 0.0502
v -0.0290 0.2600 0.0502
v -0.0580 0.2600 0.0000
v -0.0290 0.2600 -0.0502
v 0.0290 0.2600 -0.0502
v 0.0480 0.3200 0.0000
v 0.0240 0.3200 0.0416
v -0.0240 0.3200 0.0416
v -0.0480 0.3200 0.0000
v -0.0240 0.3200 -0.0416
v 0.0240 0.3200 -0.0416
v 0.0420 0.2800 0.0000
v 0.0210 0.2800 0.0364
v -0.0210 0.2800 0.0364
v -0.0420 0.2800 0.0000
v -0.0210 0.2800 -0.0364
v 0.0210 0.2800 -0.0364
v 0.0520 0.3600 0.0000
v 0.0260 0.3600 0.0450
v -0.0260 0.3600 0.0450
v -0.0520 0.3600 0.0000
v -0.0260 0.3600 -0.0450
v 0.0260 0.3600 -0.0450
v 0.0320 0.4200 0.0000
v 0.0160 0.4200 0.0277
v -0.0160 0.4200 0.0277
v -0.0320 0.4200 0.0000
v -0.0160 0.4200 -0.0277
v 0.0160 0.4200 -0.0277
v 0.0000 0.4800 0.0000

vn -0.8662 0.0069 -0.4997
vn -0.8658 0.0069 -0.5003
vn 0.0000 0.0068 -1.0000
vn 0.0000 0.0068 -1.0000
vn 0.8662 0.0069 -0.4997
vn 0.8658 0.0069 -0.5003
vn 0.8662 0.0069 0.4997
vn 0.8658 0.0069 0.5003
vn -0.0000 0.0068 1.0000
vn 0.0000 0.0068 1.0000
vn -0.8662 0.0069 0.4997
vn -0.8658 0.0069 0.5003
vn -0.8658 0.0086 -0.5003
vn -0.8656 0.0087 -0.5007
vn 0.0000 0.0085 -1.0000
vn 0.0000 0.0085 -1.0000
vn 0.8658 0.0087 -0.5003
vn 0.8656 0.0086 -0.5007
vn 0.8658 0.0086 0.5003
vn 0.8656 0.0087 0.5007
vn -0.0000 0.0085 1.0000
vn 0.0000 0.0085 1.0000
vn -0.8658 0.0087 0.5003
vn -0.8656 0.0086 0.5007
vn -0.8655 0.0147 -0.5007
vn -0.8661 0.0144 -0.4997
vn 0.0000 0.0150 -0.9999
vn 0.0000 0.0150 -0.9999
vn 0.8655 0.0144 -0.5007
vn 0.8661 0.0147 -0.4997
vn 0.8655 0.0147 0.5007
vn 0.8661 0.0144 0.4997
vn -0.0000 0.0150 0.9999
vn 0.0000 0.0150 0.9999
vn -0.8655 0.0144 0.5007
vn -0.8661 0.0147 0.4997
vn -0.6005 0.7206 -0.3465
vn 0.0000 0.7208 -0.6931
vn 0.6005 0.7206 -0.3465
vn 0.6005 0.7206 0.3465
vn 0.0000 0.7208 0.6931
vn -0.6005 0.7206 0.3465
vn -0.8381 0.2516 -0.4840
vn -0.8382 0.2515 -0.4839
vn 0.0000 0.2516 -0.9678
vn 0.0000 0.2516 -0.9678
vn 0.8381 0.2514 -0.4840
vn 0.8382 0.2515 -0.4839
vn 0.8381 0.2516 0.4840
vn 0.8382 0.2515 0.4839
vn -0.0000 0.2516 0.9678
vn 0.0000 0.2516 0.9678
vn -0.8381 0.2514 0.4840
vn -0.8382 0.2515 0.4839
vn -0.8652 -0.0435 -0.4995
vn -0.8651 -0.0433 -0.4998
vn -0.0000 -0.0437 -0.9990
vn 0.0000 -0.0437 -0.9990
vn 0.8652 -0.0433 -0.4995
vn 0.8651 -0.0435 -0.4997
vn 0.8652 -0.0435 0.4995
vn 0.8651 -0.0433 0.4998
vn 0.0000 -0.0437 0.9990
vn 0.0000 -0.0437 0.9990
vn -0.8652 -0.0433 0.4995
vn -0.8651 -0.0435 0.4997
vn -0.8571 -0.1424 -0.4951
vn -0.8573 -0.1429 -0.4946
vn -0.0000 -0.1419 -0.9899
vn 0.0000 -0.1419 -0.9899
vn 0.8570 -0.1428 -0.4951
vn 0.8574 -0.1423 -0.4946
vn 0.8571 -0.1424 0.4951
vn 0.8573 -0.1429 0.4946
vn 0.0000 -0.1419 0.9899
vn 0.0000 -0.1419 0.9899
vn -0.8570 -0.1428 0.4951
vn -0.8574 -0.1423 0.4946
vn -0.8612 0.1072 -0.4968
vn -0.8608 0.1076 -0.4974
vn 0.0000 0.1069 -0.9943
vn 0.0000 0.1069 -0.9943
vn 0.8612 0.1076 -0.4968
vn 0.8609 0.1073 -0.4974
vn 0.8612 0.1072 0.4968
vn 0.8608 0.1076 0.4974
vn -0.0000 0.1069 0.9943
vn 0.0000 0.1069 0.9943
vn -0.8612 0.1076 0.4968
vn -0.8609 0.1073 0.4974
vn -0.8319 -0.2772 -0.4807
vn -0.8320 -0.2773 -0.4806
vn -0.0000 -0.2770 -0.9609
vn 0.0000 -0.2770 -0.9609
vn 0.8319 -0.2773 -0.4807
vn 0.8320 -0.2772 -0.4806
vn 0.8319 -0.2772 0.4807
vn 0.8320 -0.2773 0.4806
vn 0.0000 -0.2770 0.9609
vn 0.0000 -0.2770 0.9609
vn -0.8319 -0.2773 0.4807
vn -0.8320 -0.2772 0.4806
vn -0.7861 -0.4193 -0.4541
vn -0.0000 -0.4192 -0.9079
vn 0.7861 -0.4193 -0.4541
vn 0.7861 -0.4193 0.4541
vn 0.0000 -0.4192 0.9079
vn -0.7861 -0.4193 0.4541

usemtl mat_wood
s 1
f 1//1 2//1 8//1
f 1//2 8//2 7//2
f 2//3 3//3 9//3
f 2//4 9//4 8//4
f 3//5 4//5 10//5
f 3//6 10//6 9//6
f 4//7 5//7 11//7
f 4//8 11//8 10//8
f 5//9 6//9 12//9
f 5//10 12//10 11//10
f 6//11 1//11 7//11
f 6//12 7//12 12//12
f 7//13 8//13 14//13
f 7//14 14//14 13//14
f 8//15 9//15 15//15
f 8//16 15//16 14//16
f 9//17 10//17 16//17
f 9//18 16//18 15//18
f 10//19 11//19 17//19
f 10//20 17//20 16//20
f 11//21 12//21 18//21
f 11//22 18//22 17//22
f 12//23 7//23 13//23
f 12//24 13//24 18//24
f 13//25 14//25 20//25
f 13//26 20//26 19//26
f 14//27 15//27 21//27
f 14//28 21//28 20//28
f 15//29 16//29 22//29
f 15//30 22//30 21//30
f 16//31 17//31 23//31
f 16//32 23//32 22//32
f 17//33 18//33 24//33
f 17//34 24//34 23//34
f 18//35 13//35 19//35
f 18//36 19//36 24//36
f 25//37 2//37 1//37
f 25//38 3//38 2//38
f 25//39 4//39 3//39
f 25//40 5//40 4//40
f 25//41 6//41 5//41
f 25//42 1//42 6//42

usemtl mat_clothing
s 1
f 26//43 27//43 33//43
f 26//44 33//44 32//44
f 27//45 28//45 34//45
f 27//46 34//46 33//46
f 28//47 29//47 35//47
f 28//48 35//48 34//48
f 29//49 30//49 36//49
f 29//50 36//50 35//50
f 30//51 31//51 37//51
f 30//52 37//52 36//52
f 31//53 26//53 32//53
f 31//54 32//54 37//54
f 32//55 33//55 39//55
f 32//56 39//56 38//56
f 33//57 34//57 40//57
f 33//58 40//58 39//58
f 34//59 35//59 41//59
f 34//60 41//60 40//60
f 35//61 36//61 42//61
f 35//62 42//62 41//62
f 36//63 37//63 43//63
f 36//64 43//64 42//64
f 37//65 32//65 38//65
f 37//66 38//66 43//66
f 38//67 39//67 45//67
f 38//68 45//68 44//68
f 39//69 40//69 46//69
f 39//70 46//70 45//70
f 40//71 41//71 47//71
f 40//72 47//72 46//72
f 41//73 42//73 48//73
f 41//74 48//74 47//74
f 42//75 43//75 49//75
f 42//76 49//76 48//76
f 43//77 38//77 44//77
f 43//78 44//78 49//78

usemtl mat_fire
s 1
f 50//79 51//79 57//79
f 50//80 57//80 56//80
f 51//81 52//81 58//81
f 51//82 58//82 57//82
f 52//83 53//83 59//83
f 52//84 59//84 58//84
f 53//85 54//85 60//85
f 53//86 60//86 59//86
f 54//87 55//87 61//87
f 54//88 61//88 60//88
f 55//89 50//89 56//89
f 55//90 56//90 61//90
f 56//91 57//91 63//91
f 56//92 63//92 62//92
f 57//93 58//93 64//93
f 57//94 64//94 63//94
f 58//95 59//95 65//95
f 58//96 65//96 64//96
f 59//97 60//97 66//97
f 59//98 66//98 65//98
f 60//99 61//99 67//99
f 60//100 67//100 66//100
f 61//101 56//101 62//101
f 61//102 62//102 67//102
f 62//103 63//103 68//103
f 63//104 64//104 68//104
f 64//105 65//105 68//105
f 65//106 66//106 68//106
f 66//107 67//107 68//107
f 67//108 62//108 68//108

