# Prehistoric Asset: tool_club
mtllib tools.mtl
o tool_club

v 0.0320 -0.4500 0.0000
v 0.0160 -0.4500 0.0277
v -0.0160 -0.4500 0.0277
v -0.0320 -0.4500 0.0000
v -0.0160 -0.4500 -0.0277
v 0.0160 -0.4500 -0.0277
v 0.0390 -0.2500 0.0000
v 0.0220 -0.2500 0.0294
v -0.0120 -0.2500 0.0294
v -0.0290 -0.2500 0.0000
v -0.0120 -0.2500 -0.0294
v 0.0220 -0.2500 -0.0294
v 0.0500 -0.0500 0.0000
v 0.0310 -0.0500 0.0329
v -0.0070 -0.0500 0.0329
v -0.0260 -0.0500 0.0000
v -0.0070 -0.0500 -0.0329
v 0.0310 -0.0500 -0.0329
v 0.0770 0.0800 0.0000
v 0.0495 0.0800 0.0476
v -0.0055 0.0800 0.0476
v -0.0330 0.0800 0.0000
v -0.0055 0.0800 -0.0476
v 0.0495 0.0800 -0.0476
v 0.1130 0.2000 0.0000
v 0.0740 0.2000 0.0675
v -0.0040 0.2000 0.0675
v -0.0430 0.2000 0.0000
v -0.0040 0.2000 -0.0675
v 0.0740 0.2000 -0.0675
v 0.1250 0.3200 0.0000
v 0.0825 0.3200 0.0736
v -0.0025 0.3200 0.0736
v -0.0450 0.3200 0.0000
v -0.0025 0.3200 -0.0736
v 0.0825 0.3200 -0.0736
v 0.1000 0.4000 0.0000
v 0.0675 0.4000 0.0563
v 0.0025 0.4000 0.0563
v -0.0300 0.4000 0.0000
v 0.0025 0.4000 -0.0563
v 0.0675 0.4000 -0.0563
v 0.0000 -0.4700 0.0000
v 0.0400 0.4200 0.0000
v 0.1000 0.2800 0.0300
v 0.1000 0.2800 -0.0300
v 0.1000 0.1800 -0.0250
v 0.1000 0.1800 0.0250
v 0.1800 0.2300 0.0000
v 0.0380 -0.3500 0.0000
v 0.0190 -0.3500 0.0329
v -0.0190 -0.3500 0.0329
v -0.0380 -0.3500 0.0000
v -0.0190 -0.3500 -0.0329
v 0.0190 -0.3500 -0.0329
v 0.0380 -0.2000 0.0000
v 0.0190 -0.2000 0.0329
v -0.0190 -0.2000 0.0329
v -0.0380 -0.2000 0.0000
v -0.0190 -0.2000 -0.0329
v 0.0190 -0.2000 -0.0329
v 0.0380 -0.0500 0.0000
v 0.0190 -0.0500 0.0329
v -0.0190 -0.0500 0.0329
v -0.0380 -0.0500 0.0000
v -0.0190 -0.0500 -0.0329
v 0.0190 -0.0500 -0.0329

vn 0.8653 -0.0303 0.5003
vn 0.8655 -0.0302 0.4999
vn 0.0000 -0.0085 1.0000
vn 0.0000 -0.0085 1.0000
vn -0.8656 0.0131 0.5005
vn -0.8659 0.0130 0.5001
vn -0.8656 0.0130 -0.5005
vn -0.8659 0.0131 -0.5001
vn 0.0000 -0.0085 -1.0000
vn 0.0000 -0.0085 -1.0000
vn 0.8653 -0.0302 -0.5003
vn 0.8655 -0.0303 -0.4999
vn 0.8650 -0.0476 0.4995
vn 0.8647 -0.0477 0.5000
vn 0.0000 -0.0175 0.9998
vn 0.0000 -0.0175 0.9998
vn -0.8659 0.0129 0.5001
vn -0.8656 0.0130 0.5005
vn -0.8659 0.0130 -0.5001
vn -0.8656 0.0129 -0.5005
vn 0.0000 -0.0175 -0.9998
vn 0.0000 -0.0175 -0.9998
vn 0.8650 -0.0477 -0.4995
vn 0.8647 -0.0476 -0.5000
vn 0.8522 -0.1770 0.4923
vn 0.8523 -0.1769 0.4922
vn 0.0000 -0.1124 0.9937
vn 0.0000 -0.1124 0.9937
vn -0.8649 -0.0465 0.4997
vn -0.8650 -0.0466 0.4996
vn -0.8649 -0.0466 -0.4997
vn -0.8650 -0.0465 -0.4996
vn 0.0000 -0.1124 -0.9937
vn 0.0000 -0.1124 -0.9937
vn 0.8522 -0.1770 -0.4924
vn 0.8523 -0.1770 -0.4922
vn 0.8381 -0.2514 0.4842
vn 0.8381 -0.2514 0.4842
vn 0.0000 -0.1636 0.9865
vn 0.0000 -0.1636 0.9865
vn -0.8636 -0.0720 0.4990
vn -0.8636 -0.0720 0.4990
vn -0.8636 -0.0720 -0.4990
vn -0.8636 -0.0719 -0.4990
vn 0.0000 -0.1636 -0.9865
vn 0.0000 -0.1636 -0.9865
vn 0.8381 -0.2514 -0.4842
vn 0.8381 -0.2514 -0.4842
vn 0.8628 -0.0863 0.4982
vn 0.8626 -0.0864 0.4984
vn 0.0000 -0.0508 0.9987
vn 0.0000 -0.0508 0.9987
vn -0.8659 -0.0146 0.5000
vn -0.8658 -0.0144 0.5002
vn -0.8659 -0.0144 -0.5000
vn -0.8658 -0.0146 -0.5002
vn 0.0000 -0.0508 -0.9987
vn 0.0000 -0.0508 -0.9987
vn 0.8627 -0.0864 -0.4982
vn 0.8626 -0.0863 -0.4984
vn 0.8360 0.2612 0.4826
vn 0.8359 0.2611 0.4827
vn 0.0000 0.2114 0.9774
vn 0.0000 0.2114 0.9774
vn -0.8549 0.1601 0.4935
vn -0.8548 0.1603 0.4936
vn -0.8549 0.1603 -0.4935
vn -0.8548 0.1602 -0.4936
vn 0.0000 0.2114 -0.9774
vn 0.0000 0.2114 -0.9774
vn 0.8360 0.2611 -0.4826
vn 0.8359 0.2612 -0.4827
vn 0.5068 -0.8109 0.2927
vn 0.0000 -0.8108 0.5854
vn -0.5068 -0.8109 0.2927
vn -0.5068 -0.8109 -0.2927
vn 0.0000 -0.8108 -0.5854
vn 0.5068 -0.8109 -0.2927
vn 0.3111 0.9333 0.1796
vn 0.0000 0.9423 0.3347
vn -0.2713 0.9497 0.1566
vn -0.2713 0.9497 -0.1566
vn 0.0000 0.9423 -0.3347
vn 0.3111 0.9333 -0.1796
vn 1.0000 0.0000 0.0000
vn 1.0000 -0.0000 0.0000
vn -0.5300 -0.8480 -0.0000
vn -0.3247 0.0472 0.9446
vn -0.5300 0.8480 0.0000
vn -0.3247 0.0472 -0.9446
vn 0.8660 -0.0000 0.5001
vn 0.8660 0.0000 0.5001
vn 0.0000 -0.0000 1.0000
vn 0.0000 0.0000 1.0000
vn -0.8660 0.0000 0.5001
vn -0.8660 0.0000 0.5001
vn -0.8660 0.0000 -0.5001
vn -0.8660 0.0000 -0.5001
vn 0.0000 0.0000 -1.0000
vn 0.0000 0.0000 -1.0000
vn 0.8660 0.0000 -0.5001
vn 0.8660 0.0000 -0.5001
vn 0.8660 -0.0000 0.5001
vn 0.8660 0.0000 0.5001
vn 0.0000 -0.0000 1.0000
vn 0.0000 0.0000 1.0000
vn -0.8660 0.0000 0.5001
vn -0.8660 0.0000 0.5001
vn -0.8660 0.0000 -0.5001
vn -0.8660 0.0000 -0.5001
vn 0.0000 0.0000 -1.0000
vn 0.0000 0.0000 -1.0000
vn 0.8660 0.0000 -0.5001
vn 0.8660 0.0000 -0.5001

usemtl mat_wood
s 1
f 1//1 7//1 8//1
f 1//2 8//2 2//2
f 2//3 8//3 9//3
f 2//4 9//4 3//4
f 3//5 9//5 10//5
f 3//6 10//6 4//6
f 4//7 10//7 11//7
f 4//8 11//8 5//8
f 5//9 11//9 12//9
f 5//10 12//10 6//10
f 6//11 12//11 7//11
f 6//12 7//12 1//12
f 7//13 13//13 14//13
f 7//14 14//14 8//14
f 8//15 14//15 15//15
f 8//16 15//16 9//16
f 9//17 15//17 16//17
f 9//18 16//18 10//18
f 10//19 16//19 17//19
f 10//20 17//20 11//20
f 11//21 17//21 18//21
f 11//22 18//22 12//22
f 12//23 18//23 13//23
f 12//24 13//24 7//24
f 13//25 19//25 20//25
f 13//26 20//26 14//26
f 14//27 20//27 21//27
f 14//28 21//28 15//28
f 15//29 21//29 22//29
f 15//30 22//30 16//30
f 16//31 22//31 23//31
f 16//32 23//32 17//32
f 17//33 23//33 24//33
f 17//34 24//34 18//34
f 18//35 24//35 19//35
f 18//36 19//36 13//36
f 19//37 25//37 26//37
f 19//38 26//38 20//38
f 20//39 26//39 27//39
f 20//40 27//40 21//40
f 21//41 27//41 28//41
f 21//42 28//42 22//42
f 22//43 28//43 29//43
f 22//44 29//44 23//44
f 23//45 29//45 30//45
f 23//46 30//46 24//46
f 24//47 30//47 25//47
f 24//48 25//48 19//48
f 25//49 31//49 32//49
f 25//50 32//50 26//50
f 26//51 32//51 33//51
f 26//52 33//52 27//52
f 27//53 33//53 34//53
f 27//54 34//54 28//54
f 28//55 34//55 35//55
f 28//56 35//56 29//56
f 29//57 35//57 36//57
f 29//58 36//58 30//58
f 30//59 36//59 31//59
f 30//60 31//60 25//60
f 31//61 37//61 38//61
f 31//62 38//62 32//62
f 32//63 38//63 39//63
f 32//64 39//64 33//64
f 33//65 39//65 40//65
f 33//66 40//66 34//66
f 34//67 40//67 41//67
f 34//68 41//68 35//68
f 35//69 41//69 42//69
f 35//70 42//70 36//70
f 36//71 42//71 37//71
f 36//72 37//72 31//72
f 43//73 1//73 2//73
f 43//74 2//74 3//74
f 43//75 3//75 4//75
f 43//76 4//76 5//76
f 43//77 5//77 6//77
f 43//78 6//78 1//78
f 44//79 38//79 37//79
f 44//80 39//80 38//80
f 44//81 40//81 39//81
f 44//82 41//82 40//82
f 44//83 42//83 41//83
f 44//84 37//84 42//84

usemtl mat_stone
s 1
f 48//85 47//85 46//85
f 48//86 46//86 45//86
f 45//87 46//87 49//87
f 46//88 47//88 49//88
f 47//89 48//89 49//89
f 48//90 45//90 49//90

usemtl mat_clothing
s 1
f 50//91 56//91 57//91
f 50//92 57//92 51//92
f 51//93 57//93 58//93
f 51//94 58//94 52//94
f 52//95 58//95 59//95
f 52//96 59//96 53//96
f 53//97 59//97 60//97
f 53//98 60//98 54//98
f 54//99 60//99 61//99
f 54//100 61//100 55//100
f 55//101 61//101 56//101
f 55//102 56//102 50//102
f 56//103 62//103 63//103
f 56//104 63//104 57//104
f 57//105 63//105 64//105
f 57//106 64//106 58//106
f 58//107 64//107 65//107
f 58//108 65//108 59//108
f 59//109 65//109 66//109
f 59//110 66//110 60//110
f 60//111 66//111 67//111
f 60//112 67//112 61//112
f 61//113 67//113 62//113
f 61//114 62//114 56//114

