# Prehistoric Pickaxe Low-Poly
mtllib tool_pickaxe.mtl
o axe

v 0.0260 -0.3600 -0.0120
v 0.0130 -0.3600 0.0105
v -0.0130 -0.3600 0.0105
v -0.0260 -0.3600 -0.0120
v -0.0130 -0.3600 -0.0345
v 0.0130 -0.3600 -0.0345
v 0.0220 -0.3300 -0.0080
v 0.0110 -0.3300 0.0111
v -0.0110 -0.3300 0.0111
v -0.0220 -0.3300 -0.0080
v -0.0110 -0.3300 -0.0271
v 0.0110 -0.3300 -0.0271
v 0.0210 -0.2400 -0.0040
v 0.0115 -0.2400 0.0125
v -0.0075 -0.2400 0.0125
v -0.0170 -0.2400 -0.0040
v -0.0075 -0.2400 -0.0205
v 0.0115 -0.2400 -0.0205
v 0.0200 -0.1000 0.0000
v 0.0110 -0.1000 0.0156
v -0.0070 -0.1000 0.0156
v -0.0160 -0.1000 0.0000
v -0.0070 -0.1000 -0.0156
v 0.0110 -0.1000 -0.0156
v 0.0200 0.0600 0.0050
v 0.0105 0.0600 0.0215
v -0.0085 0.0600 0.0215
v -0.0180 0.0600 0.0050
v -0.0085 0.0600 -0.0115
v 0.0105 0.0600 -0.0115
v 0.0210 0.1600 0.0090
v 0.0105 0.1600 0.0272
v -0.0105 0.1600 0.0272
v -0.0210 0.1600 0.0090
v -0.0105 0.1600 -0.0092
v 0.0105 0.1600 -0.0092
v 0.0220 0.2200 0.0120
v 0.0105 0.2200 0.0319
v -0.0125 0.2200 0.0319
v -0.0240 0.2200 0.0120
v -0.0125 0.2200 -0.0079
v 0.0105 0.2200 -0.0079
v 0.0180 0.2600 0.0120
v 0.0080 0.2600 0.0293
v -0.0120 0.2600 0.0293
v -0.0220 0.2600 0.0120
v -0.0120 0.2600 -0.0053
v 0.0080 0.2600 -0.0053
v 0.0000 -0.3700 -0.0120
v -0.0020 0.2700 0.0120
v 0.0000 0.2400 0.0800
v 0.0240 0.2000 0.0800
v 0.0000 0.1600 0.0800
v -0.0240 0.2000 0.0800
v 0.0000 0.2500 0.0400
v 0.0300 0.2000 0.0400
v 0.0000 0.1500 0.0400
v -0.0300 0.2000 0.0400
v 0.0000 0.2600 -0.0200
v 0.0320 0.2000 -0.0200
v 0.0000 0.1400 -0.0200
v -0.0320 0.2000 -0.0200
v 0.0000 0.2750 -0.0800
v 0.0220 0.2000 -0.0800
v 0.0000 0.1250 -0.0800
v -0.0220 0.2000 -0.0800
v 0.0000 0.2950 -0.1400
v 0.0120 0.2000 -0.1400
v 0.0000 0.1050 -0.1400
v -0.0120 0.2000 -0.1400
v 0.0000 0.3150 -0.1900
v 0.0030 0.2000 -0.1900
v 0.0000 0.0850 -0.1900
v -0.0030 0.2000 -0.1900
v 0.0000 0.2000 0.0900
v 0.0000 0.2000 -0.2000
v 0.0360 0.1700 0.0000
v 0.0180 0.1700 0.0312
v -0.0180 0.1700 0.0312
v -0.0360 0.1700 0.0000
v -0.0180 0.1700 -0.0312
v 0.0180 0.1700 -0.0312
v 0.0360 0.2000 0.0000
v 0.0180 0.2000 0.0312
v -0.0180 0.2000 0.0312
v -0.0360 0.2000 0.0000
v -0.0180 0.2000 -0.0312
v 0.0180 0.2000 -0.0312
v 0.0360 0.2300 0.0000
v 0.0180 0.2300 0.0312
v -0.0180 0.2300 0.0312
v -0.0360 0.2300 0.0000
v -0.0180 0.2300 -0.0312
v 0.0180 0.2300 -0.0312

vn 0.8655 0.0489 0.4985
vn 0.8649 0.0477 0.4997
vn 0.0000 -0.0200 0.9998
vn 0.0000 -0.0200 0.9998
vn -0.8656 0.0477 0.4985
vn -0.8648 0.0487 0.4997
vn -0.8525 0.1791 -0.4910
vn -0.8520 0.1782 -0.4923
vn 0.0000 0.2395 -0.9709
vn 0.0000 0.2395 -0.9709
vn 0.8527 0.1780 -0.4911
vn 0.8518 0.1792 -0.4922
vn 0.8666 -0.0125 0.4989
vn 0.8665 -0.0126 0.4990
vn 0.0000 -0.0156 0.9999
vn 0.0000 -0.0156 0.9999
vn -0.8663 0.0259 0.4988
vn -0.8663 0.0260 0.4989
vn -0.8645 0.0701 -0.4977
vn -0.8644 0.0701 -0.4978
vn 0.0000 0.0731 -0.9973
vn 0.0000 0.0731 -0.9973
vn 0.8662 0.0318 -0.4987
vn 0.8661 0.0318 -0.4988
vn 0.8662 -0.0081 0.4997
vn 0.8666 -0.0080 0.4989
vn 0.0000 -0.0221 0.9998
vn 0.0000 -0.0221 0.9998
vn -0.8662 -0.0080 0.4997
vn -0.8666 -0.0081 0.4989
vn -0.8660 0.0205 -0.4996
vn -0.8664 0.0206 -0.4989
vn 0.0000 0.0350 -0.9994
vn 0.0000 0.0350 -0.9994
vn 0.8660 0.0206 -0.4996
vn 0.8664 0.0204 -0.4989
vn 0.8665 -0.0156 0.4989
vn 0.8661 -0.0157 0.4997
vn 0.0000 -0.0368 0.9993
vn 0.0000 -0.0368 0.9993
vn -0.8663 -0.0265 0.4988
vn -0.8659 -0.0264 0.4995
vn -0.8666 0.0048 -0.4990
vn -0.8662 0.0047 -0.4997
vn 0.0000 0.0256 -0.9997
vn 0.0000 0.0256 -0.9997
vn 0.8665 0.0155 -0.4989
vn 0.8661 0.0156 -0.4997
vn 0.8658 -0.0286 0.4995
vn 0.8663 -0.0284 0.4988
vn 0.0000 -0.0569 0.9984
vn 0.0000 -0.0569 0.9984
vn -0.8653 -0.0458 0.4992
vn -0.8657 -0.0459 0.4984
vn -0.8662 -0.0060 -0.4997
vn -0.8666 -0.0059 -0.4990
vn 0.0000 0.0230 -0.9997
vn 0.0000 0.0230 -0.9997
vn 0.8661 0.0115 -0.4997
vn 0.8666 0.0113 -0.4989
vn 0.8652 -0.0394 0.5000
vn 0.8655 -0.0391 0.4993
vn 0.0000 -0.0781 0.9969
vn 0.0000 -0.0781 0.9969
vn -0.8638 -0.0679 0.4992
vn -0.8642 -0.0681 0.4986
vn -0.8657 -0.0183 -0.5003
vn -0.8660 -0.0180 -0.4996
vn 0.0000 0.0217 -0.9998
vn 0.0000 0.0217 -0.9998
vn 0.8658 0.0108 -0.5003
vn 0.8661 0.0105 -0.4997
vn 0.8625 0.0863 0.4986
vn 0.8626 0.0863 0.4985
vn 0.0000 0.0649 0.9979
vn 0.0000 0.0649 0.9979
vn -0.8650 0.0433 0.5000
vn -0.8650 0.0433 0.4999
vn -0.8650 0.0432 -0.5000
vn -0.8650 0.0433 -0.4999
vn 0.0000 0.0649 -0.9979
vn 0.0000 0.0649 -0.9979
vn 0.8625 0.0863 -0.4986
vn 0.8626 0.0863 -0.4985
vn 0.3515 -0.9139 0.2031
vn 0.0000 -0.9138 0.4061
vn -0.3515 -0.9139 0.2031
vn -0.3515 -0.9139 -0.2031
vn 0.0000 -0.9138 -0.4061
vn 0.3515 -0.9139 -0.2031
vn 0.4330 0.8660 0.2503
vn 0.0000 0.8658 0.5004
vn -0.4330 0.8660 0.2503
vn -0.4330 0.8660 -0.2503
vn 0.0000 0.8658 -0.5004
vn 0.4330 0.8660 -0.2503
vn -0.8505 -0.5103 -0.1276
vn -0.8505 -0.5103 -0.1276
vn -0.8505 0.5103 -0.1276
vn -0.8505 0.5103 -0.1276
vn 0.8505 0.5103 -0.1276
vn 0.8505 0.5103 -0.1276
vn 0.8505 -0.5103 -0.1276
vn 0.8505 -0.5103 -0.1276
vn -0.8797 -0.4691 -0.0782
vn -0.8571 -0.5143 -0.0286
vn -0.8820 0.4704 -0.0294
vn -0.8544 0.5126 -0.0854
vn 0.8797 0.4691 -0.0782
vn 0.8571 0.5143 -0.0286
vn 0.8820 -0.4704 -0.0294
vn 0.8544 -0.5126 -0.0854
vn -0.9572 -0.2808 -0.0702
vn -0.8730 -0.4656 0.1455
vn -0.9475 0.2779 0.1579
vn -0.8763 0.4674 -0.1168
vn 0.9572 0.2808 -0.0702
vn 0.8730 0.4656 0.1455
vn 0.9475 -0.2779 0.1579
vn 0.8763 -0.4674 -0.1168
vn -0.9913 -0.1252 -0.0417
vn -0.9475 -0.2779 0.1579
vn -0.9788 0.1236 0.1631
vn -0.9554 0.2802 -0.0934
vn 0.9913 0.1252 -0.0417
vn 0.9475 0.2779 0.1579
vn 0.9788 -0.1236 0.1631
vn 0.9554 -0.2802 -0.0934
vn -0.9996 -0.0261 -0.0104
vn -0.9767 -0.1234 0.1758
vn -0.9839 0.0257 0.1771
vn -0.9909 0.1252 -0.0501
vn 0.9996 0.0261 -0.0104
vn 0.9767 0.1234 0.1758
vn 0.9839 -0.0257 0.1771
vn 0.9909 -0.1252 -0.0501
vn -0.3748 -0.2249 -0.8994
vn -0.3748 0.2249 -0.8994
vn 0.3748 0.2249 -0.8994
vn 0.3748 -0.2249 -0.8994
vn -0.9575 -0.0250 0.2873
vn -0.9575 0.0250 0.2873
vn 0.9575 0.0250 0.2873
vn 0.9575 -0.0250 0.2873
vn 0.8662 -0.0000 0.4997
vn 0.8662 0.0000 0.4997
vn 0.0000 -0.0000 1.0000
vn 0.0000 0.0000 1.0000
vn -0.8662 0.0000 0.4997
vn -0.8662 0.0000 0.4997
vn -0.8662 0.0000 -0.4997
vn -0.8662 0.0000 -0.4997
vn 0.0000 0.0000 -1.0000
vn 0.0000 0.0000 -1.0000
vn 0.8662 0.0000 -0.4997
vn 0.8662 0.0000 -0.4997
vn 0.8662 -0.0000 0.4997
vn 0.8662 0.0000 0.4997
vn 0.0000 -0.0000 1.0000
vn 0.0000 0.0000 1.0000
vn -0.8662 0.0000 0.4997
vn -0.8662 0.0000 0.4997
vn -0.8662 0.0000 -0.4997
vn -0.8662 0.0000 -0.4997
vn 0.0000 0.0000 -1.0000
vn 0.0000 0.0000 -1.0000
vn 0.8662 0.0000 -0.4997
vn 0.8662 0.0000 -0.4997

usemtl mat_wood
s 1
f 1//1 7//1 8//1
f 1//2 8//2 2//2
f 2//3 8//3 9//3
f 2//4 9//4 3//4
f 3//5 9//5 10//5
f 3//6 10//6 4//6
f 4//7 10//7 11//7
f 4//8 11//8 5//8
f 5//9 11//9 12//9
f 5//10 12//10 6//10
f 6//11 12//11 7//11
f 6//12 7//12 1//12
f 7//13 13//13 14//13
f 7//14 14//14 8//14
f 8//15 14//15 15//15
f 8//16 15//16 9//16
f 9//17 15//17 16//17
f 9//18 16//18 10//18
f 10//19 16//19 17//19
f 10//20 17//20 11//20
f 11//21 17//21 18//21
f 11//22 18//22 12//22
f 12//23 18//23 13//23
f 12//24 13//24 7//24
f 13//25 19//25 20//25
f 13//26 20//26 14//26
f 14//27 20//27 21//27
f 14//28 21//28 15//28
f 15//29 21//29 22//29
f 15//30 22//30 16//30
f 16//31 22//31 23//31
f 16//32 23//32 17//32
f 17//33 23//33 24//33
f 17//34 24//34 18//34
f 18//35 24//35 19//35
f 18//36 19//36 13//36
f 19//37 25//37 26//37
f 19//38 26//38 20//38
f 20//39 26//39 27//39
f 20//40 27//40 21//40
f 21//41 27//41 28//41
f 21//42 28//42 22//42
f 22//43 28//43 29//43
f 22//44 29//44 23//44
f 23//45 29//45 30//45
f 23//46 30//46 24//46
f 24//47 30//47 25//47
f 24//48 25//48 19//48
f 25//49 31//49 32//49
f 25//50 32//50 26//50
f 26//51 32//51 33//51
f 26//52 33//52 27//52
f 27//53 33//53 34//53
f 27//54 34//54 28//54
f 28//55 34//55 35//55
f 28//56 35//56 29//56
f 29//57 35//57 36//57
f 29//58 36//58 30//58
f 30//59 36//59 31//59
f 30//60 31//60 25//60
f 31//61 37//61 38//61
f 31//62 38//62 32//62
f 32//63 38//63 39//63
f 32//64 39//64 33//64
f 33//65 39//65 40//65
f 33//66 40//66 34//66
f 34//67 40//67 41//67
f 34//68 41//68 35//68
f 35//69 41//69 42//69
f 35//70 42//70 36//70
f 36//71 42//71 37//71
f 36//72 37//72 31//72
f 37//73 43//73 44//73
f 37//74 44//74 38//74
f 38//75 44//75 45//75
f 38//76 45//76 39//76
f 39//77 45//77 46//77
f 39//78 46//78 40//78
f 40//79 46//79 47//79
f 40//80 47//80 41//80
f 41//81 47//81 48//81
f 41//82 48//82 42//82
f 42//83 48//83 43//83
f 42//84 43//84 37//84
f 49//85 1//85 2//85
f 49//86 2//86 3//86
f 49//87 3//87 4//87
f 49//88 4//88 5//88
f 49//89 5//89 6//89
f 49//90 6//90 1//90
f 50//91 44//91 43//91
f 50//92 45//92 44//92
f 50//93 46//93 45//93
f 50//94 47//94 46//94
f 50//95 48//95 47//95
f 50//96 43//96 48//96

usemtl mat_stone
s 1
f 51//97 55//97 56//97
f 51//98 56//98 52//98
f 52//99 56//99 57//99
f 52//100 57//100 53//100
f 53//101 57//101 58//101
f 53//102 58//102 54//102
f 54//103 58//103 55//103
f 54//104 55//104 51//104
f 55//105 59//105 60//105
f 55//106 60//106 56//106
f 56//107 60//107 61//107
f 56//108 61//108 57//108
f 57//109 61//109 62//109
f 57//110 62//110 58//110
f 58//111 62//111 59//111
f 58//112 59//112 55//112
f 59//113 63//113 64//113
f 59//114 64//114 60//114
f 60//115 64//115 65//115
f 60//116 65//116 61//116
f 61//117 65//117 66//117
f 61//118 66//118 62//118
f 62//119 66//119 63//119
f 62//120 63//120 59//120
f 63//121 67//121 68//121
f 63//122 68//122 64//122
f 64//123 68//123 69//123
f 64//124 69//124 65//124
f 65//125 69//125 70//125
f 65//126 70//126 66//126
f 66//127 70//127 67//127
f 66//128 67//128 63//128
f 67//129 71//129 72//129
f 67//130 72//130 68//130
f 68//131 72//131 73//131
f 68//132 73//132 69//132
f 69//133 73//133 74//133
f 69//134 74//134 70//134
f 70//135 74//135 71//135
f 70//136 71//136 67//136
f 75//137 51//137 52//137
f 75//138 52//138 53//138
f 75//139 53//139 54//139
f 75//140 54//140 51//140
f 76//141 72//141 71//141
f 76//142 73//142 72//142
f 76//143 74//143 73//143
f 76//144 71//144 74//144

usemtl mat_clothing
s 1
f 77//145 83//145 84//145
f 77//146 84//146 78//146
f 78//147 84//147 85//147
f 78//148 85//148 79//148
f 79//149 85//149 86//149
f 79//150 86//150 80//150
f 80//151 86//151 87//151
f 80//152 87//152 81//152
f 81//153 87//153 88//153
f 81//154 88//154 82//154
f 82//155 88//155 83//155
f 82//156 83//156 77//156
f 83//157 89//157 90//157
f 83//158 90//158 84//158
f 84//159 90//159 91//159
f 84//160 91//160 85//160
f 85//161 91//161 92//161
f 85//162 92//162 86//162
f 86//163 92//163 93//163
f 86//164 93//164 87//164
f 87//165 93//165 94//165
f 87//166 94//166 88//166
f 88//167 94//167 89//167
f 88//168 89//168 83//168

