# Prehistoric Asset: tool_spear
mtllib tools.mtl
o tool_spear

v 0.0220 -1.0000 0.0000
v 0.0110 -1.0000 0.0191
v -0.0110 -1.0000 0.0191
v -0.0220 -1.0000 0.0000
v -0.0110 -1.0000 -0.0191
v 0.0110 -1.0000 -0.0191
v 0.0240 -0.6000 0.0000
v 0.0120 -0.6000 0.0208
v -0.0120 -0.6000 0.0208
v -0.0240 -0.6000 0.0000
v -0.0120 -0.6000 -0.0208
v 0.0120 -0.6000 -0.0208
v 0.0250 -0.1000 0.0000
v 0.0125 -0.1000 0.0217
v -0.0125 -0.1000 0.0217
v -0.0250 -0.1000 0.0000
v -0.0125 -0.1000 -0.0217
v 0.0125 -0.1000 -0.0217
v 0.0240 0.3000 0.0000
v 0.0120 0.3000 0.0208
v -0.0120 0.3000 0.0208
v -0.0240 0.3000 0.0000
v -0.0120 0.3000 -0.0208
v 0.0120 0.3000 -0.0208
v 0.0210 0.5200 0.0000
v 0.0105 0.5200 0.0182
v -0.0105 0.5200 0.0182
v -0.0210 0.5200 0.0000
v -0.0105 0.5200 -0.0182
v 0.0105 0.5200 -0.0182
v 0.0000 -1.0200 0.0000
v 0.0280 0.4600 0.0000
v 0.0140 0.4600 0.0242
v -0.0140 0.4600 0.0242
v -0.0280 0.4600 0.0000
v -0.0140 0.4600 -0.0242
v 0.0140 0.4600 -0.0242
v 0.0280 0.5100 0.0000
v 0.0140 0.5100 0.0242
v -0.0140 0.5100 0.0242
v -0.0280 0.5100 0.0000
v -0.0140 0.5100 -0.0242
v 0.0140 0.5100 -0.0242
v 0.0280 0.5600 0.0000
v 0.0140 0.5600 0.0242
v -0.0140 0.5600 0.0242
v -0.0280 0.5600 0.0000
v -0.0140 0.5600 -0.0242
v 0.0140 0.5600 -0.0242
v 0.0280 0.5400 0.0000
v 0.0000 0.5400 -0.0140
v -0.0280 0.5400 0.0000
v 0.0000 0.5400 0.0140
v 0.0480 0.6400 0.0000
v 0.0000 0.6400 -0.0160
v -0.0480 0.6400 0.0000
v 0.0000 0.6400 0.0160
v 0.0380 0.7400 0.0000
v 0.0000 0.7400 -0.0120
v -0.0380 0.7400 0.0000
v 0.0000 0.7400 0.0120
v 0.0200 0.8200 0.0000
v 0.0000 0.8200 -0.0080
v -0.0200 0.8200 0.0000
v 0.0000 0.8200 0.0080
v 0.0000 0.8800 0.0000

vn 0.8662 -0.0043 0.4997
vn 0.8666 -0.0043 0.4991
vn 0.0000 -0.0042 1.0000
vn 0.0000 -0.0042 1.0000
vn -0.8662 -0.0043 0.4997
vn -0.8666 -0.0043 0.4991
vn -0.8662 -0.0043 -0.4997
vn -0.8666 -0.0043 -0.4991
vn 0.0000 -0.0042 -1.0000
vn 0.0000 -0.0042 -1.0000
vn 0.8662 -0.0043 -0.4997
vn 0.8666 -0.0043 -0.4991
vn 0.8665 -0.0017 0.4991
vn 0.8662 -0.0018 0.4997
vn 0.0000 -0.0018 1.0000
vn 0.0000 -0.0018 1.0000
vn -0.8665 -0.0018 0.4991
vn -0.8662 -0.0017 0.4997
vn -0.8665 -0.0017 -0.4991
vn -0.8662 -0.0018 -0.4997
vn 0.0000 -0.0018 -1.0000
vn 0.0000 -0.0018 -1.0000
vn 0.8665 -0.0018 -0.4991
vn 0.8662 -0.0017 -0.4997
vn 0.8662 0.0022 0.4997
vn 0.8665 0.0022 0.4991
vn 0.0000 0.0022 1.0000
vn 0.0000 0.0022 1.0000
vn -0.8662 0.0022 0.4997
vn -0.8665 0.0022 0.4991
vn -0.8662 0.0022 -0.4997
vn -0.8665 0.0022 -0.4991
vn 0.0000 0.0022 -1.0000
vn 0.0000 0.0022 -1.0000
vn 0.8662 0.0022 -0.4997
vn 0.8665 0.0022 -0.4991
vn 0.8661 0.0118 0.4997
vn 0.8661 0.0118 0.4997
vn 0.0000 0.0118 0.9999
vn 0.0000 0.0118 0.9999
vn -0.8661 0.0118 0.4997
vn -0.8661 0.0118 0.4997
vn -0.8661 0.0118 -0.4997
vn -0.8661 0.0118 -0.4997
vn 0.0000 0.0118 -0.9999
vn 0.0000 0.0118 -0.9999
vn 0.8661 0.0118 -0.4997
vn 0.8661 0.0118 -0.4997
vn 0.6272 -0.6900 0.3612
vn 0.0000 -0.6906 0.7232
vn -0.6272 -0.6900 0.3612
vn -0.6272 -0.6900 -0.3612
vn 0.0000 -0.6906 -0.7232
vn 0.6272 -0.6900 -0.3612
vn 0.8656 -0.0000 0.5008
vn 0.8656 0.0000 0.5008
vn 0.0000 -0.0000 1.0000
vn 0.0000 0.0000 1.0000
vn -0.8656 0.0000 0.5008
vn -0.8656 0.0000 0.5008
vn -0.8656 0.0000 -0.5008
vn -0.8656 0.0000 -0.5008
vn 0.0000 0.0000 -1.0000
vn 0.0000 0.0000 -1.0000
vn 0.8656 0.0000 -0.5008
vn 0.8656 0.0000 -0.5008
vn 0.8656 -0.0000 0.5008
vn 0.8656 0.0000 0.5008
vn 0.0000 -0.0000 1.0000
vn 0.0000 0.0000 1.0000
vn -0.8656 0.0000 0.5008
vn -0.8656 0.0000 0.5008
vn -0.8656 0.0000 -0.5008
vn -0.8656 0.0000 -0.5008
vn 0.0000 0.0000 -1.0000
vn 0.0000 0.0000 -1.0000
vn 0.8656 0.0000 -0.5008
vn 0.8656 0.0000 -0.5008
vn -0.3156 0.0631 0.9468
vn -0.4471 0.0179 0.8943
vn 0.3162 0.0190 0.9485
vn 0.4454 0.0891 0.8909
vn 0.3156 0.0631 -0.9468
vn 0.4471 0.0179 -0.8943
vn -0.3162 0.0190 -0.9485
vn -0.4454 0.0891 -0.8909
vn -0.3010 -0.0301 0.9532
vn -0.3160 -0.0379 0.9480
vn 0.3009 -0.0381 0.9529
vn 0.3161 -0.0316 0.9482
vn 0.3010 -0.0301 -0.9532
vn 0.3160 -0.0379 -0.9480
vn -0.3009 -0.0381 -0.9529
vn -0.3161 -0.0316 -0.9482
vn -0.3701 -0.0833 0.9253
vn -0.3008 -0.0476 0.9525
vn 0.3710 -0.0464 0.9275
vn 0.3004 -0.0676 0.9514
vn 0.3701 -0.0833 -0.9253
vn 0.3008 -0.0476 -0.9525
vn -0.3710 -0.0464 -0.9275
vn -0.3004 -0.0676 -0.9514
vn 0.3686 0.1229 -0.9214
vn -0.3686 0.1229 -0.9214
vn -0.3686 0.1229 0.9214
vn 0.3686 0.1229 0.9214

usemtl mat_wood
s 1
f 1//1 7//1 8//1
f 1//2 8//2 2//2
f 2//3 8//3 9//3
f 2//4 9//4 3//4
f 3//5 9//5 10//5
f 3//6 10//6 4//6
f 4//7 10//7 11//7
f 4//8 11//8 5//8
f 5//9 11//9 12//9
f 5//10 12//10 6//10
f 6//11 12//11 7//11
f 6//12 7//12 1//12
f 7//13 13//13 14//13
f 7//14 14//14 8//14
f 8//15 14//15 15//15
f 8//16 15//16 9//16
f 9//17 15//17 16//17
f 9//18 16//18 10//18
f 10//19 16//19 17//19
f 10//20 17//20 11//20
f 11//21 17//21 18//21
f 11//22 18//22 12//22
f 12//23 18//23 13//23
f 12//24 13//24 7//24
f 13//25 19//25 20//25
f 13//26 20//26 14//26
f 14//27 20//27 21//27
f 14//28 21//28 15//28
f 15//29 21//29 22//29
f 15//30 22//30 16//30
f 16//31 22//31 23//31
f 16//32 23//32 17//32
f 17//33 23//33 24//33
f 17//34 24//34 18//34
f 18//35 24//35 19//35
f 18//36 19//36 13//36
f 19//37 25//37 26//37
f 19//38 26//38 20//38
f 20//39 26//39 27//39
f 20//40 27//40 21//40
f 21//41 27//41 28//41
f 21//42 28//42 22//42
f 22//43 28//43 29//43
f 22//44 29//44 23//44
f 23//45 29//45 30//45
f 23//46 30//46 24//46
f 24//47 30//47 25//47
f 24//48 25//48 19//48
f 31//49 1//49 2//49
f 31//50 2//50 3//50
f 31//51 3//51 4//51
f 31//52 4//52 5//52
f 31//53 5//53 6//53
f 31//54 6//54 1//54

usemtl mat_clothing
s 1
f 32//55 38//55 39//55
f 32//56 39//56 33//56
f 33//57 39//57 40//57
f 33//58 40//58 34//58
f 34//59 40//59 41//59
f 34//60 41//60 35//60
f 35//61 41//61 42//61
f 35//62 42//62 36//62
f 36//63 42//63 43//63
f 36//64 43//64 37//64
f 37//65 43//65 38//65
f 37//66 38//66 32//66
f 38//67 44//67 45//67
f 38//68 45//68 39//68
f 39//69 45//69 46//69
f 39//70 46//70 40//70
f 40//71 46//71 47//71
f 40//72 47//72 41//72
f 41//73 47//73 48//73
f 41//74 48//74 42//74
f 42//75 48//75 49//75
f 42//76 49//76 43//76
f 43//77 49//77 44//77
f 43//78 44//78 38//78

usemtl mat_stone
s 1
f 50//79 54//79 55//79
f 50//80 55//80 51//80
f 51//81 55//81 56//81
f 51//82 56//82 52//82
f 52//83 56//83 57//83
f 52//84 57//84 53//84
f 53//85 57//85 54//85
f 53//86 54//86 50//86
f 54//87 58//87 59//87
f 54//88 59//88 55//88
f 55//89 59//89 60//89
f 55//90 60//90 56//90
f 56//91 60//91 61//91
f 56//92 61//92 57//92
f 57//93 61//93 58//93
f 57//94 58//94 54//94
f 58//95 62//95 63//95
f 58//96 63//96 59//96
f 59//97 63//97 64//97
f 59//98 64//98 60//98
f 60//99 64//99 65//99
f 60//100 65//100 61//100
f 61//101 65//101 62//101
f 61//102 62//102 58//102
f 66//103 62//103 63//103
f 66//104 63//104 64//104
f 66//105 64//105 65//105
f 66//106 65//106 62//106

