# Prehistoric Pickaxe Low-Poly
mtllib tool_pickaxe.mtl
o viewmodel_arm

v 0.3300 -0.4200 0.2200
v 0.2950 -0.3637 0.2373
v 0.2250 -0.3637 0.2373
v 0.1900 -0.4200 0.2200
v 0.2250 -0.4763 0.2027
v 0.2950 -0.4763 0.2027
v 0.2500 -0.3200 0.1600
v 0.2200 -0.2724 0.1773
v 0.1600 -0.2724 0.1773
v 0.1300 -0.3200 0.1600
v 0.1600 -0.3676 0.1427
v 0.2200 -0.3676 0.1427
v 0.1700 -0.2200 0.1000
v 0.1450 -0.1810 0.1173
v 0.0950 -0.1810 0.1173
v 0.0700 -0.2200 0.1000
v 0.0950 -0.2590 0.0827
v 0.1450 -0.2590 0.0827
v 0.1120 -0.1500 0.0500
v 0.0910 -0.1154 0.0673
v 0.0490 -0.1154 0.0673
v 0.0280 -0.1500 0.0500
v 0.0490 -0.1846 0.0327
v 0.0910 -0.1846 0.0327
v -0.0450 -0.1500 -0.0450
v 0.0550 -0.1500 -0.0450
v 0.0550 -0.0500 -0.0450
v -0.0450 -0.0500 -0.0450
v -0.0450 -0.1500 0.0450
v 0.0550 -0.1500 0.0450
v 0.0550 -0.0500 0.0450
v -0.0450 -0.0500 0.0450
v -0.0300 -0.0500 -0.0300
v 0.0200 -0.0500 -0.0300
v 0.0200 -0.0200 -0.0100
v -0.0300 -0.0200 -0.0100

vn 0.8130 0.5644 -0.1432
vn 0.8131 0.5572 -0.1684
vn 0.0000 0.5492 0.8357
vn 0.0000 0.5492 0.8357
vn -0.6027 0.0918 0.7926
vn -0.5917 0.1230 0.7967
vn -0.8500 -0.5260 -0.0267
vn -0.8523 -0.5226 -0.0235
vn 0.0000 -0.4832 -0.8755
vn 0.0000 -0.4832 -0.8755
vn 0.5688 -0.0603 -0.8203
vn 0.5364 -0.0752 -0.8406
vn 0.8097 0.5737 -0.1233
vn 0.8105 0.5658 -0.1512
vn 0.0000 0.5488 0.8360
vn 0.0000 0.5488 0.8360
vn -0.6299 0.0603 0.7743
vn -0.6134 0.1019 0.7832
vn -0.8481 -0.5288 -0.0333
vn -0.8504 -0.5253 -0.0295
vn 0.0000 -0.4836 -0.8753
vn 0.0000 -0.4836 -0.8753
vn 0.5987 -0.0287 -0.8004
vn 0.5580 -0.0506 -0.8283
vn 0.8109 0.5662 -0.1480
vn 0.8100 0.5735 -0.1224
vn 0.0000 0.6062 0.7953
vn 0.0000 0.6062 0.7953
vn -0.6930 0.0615 0.7183
vn -0.6779 0.1122 0.7266
vn -0.8559 -0.5171 -0.0049
vn -0.8452 -0.5342 -0.0172
vn 0.0000 -0.5578 -0.8300
vn 0.0000 -0.5578 -0.8300
vn 0.6602 -0.0253 -0.7507
vn 0.6182 -0.0482 -0.7846
vn 0.0000 0.0000 -1.0000
vn 0.0000 0.0000 -1.0000
vn 0.0000 -0.0000 1.0000
vn 0.0000 0.0000 1.0000
vn -1.0000 0.0000 0.0000
vn -1.0000 0.0000 0.0000
vn 1.0000 0.0000 0.0000
vn 1.0000 0.0000 0.0000
vn 0.0000 1.0000 0.0000
vn 0.0000 1.0000 0.0000
vn 0.0000 -1.0000 0.0000
vn 0.0000 -1.0000 0.0000
vn 0.0000 -0.5547 0.8321
vn 0.0000 -0.5547 0.8321

usemtl mat_skin
s 1
f 1//1 7//1 8//1
f 1//2 8//2 2//2
f 2//3 8//3 9//3
f 2//4 9//4 3//4
f 3//5 9//5 10//5
f 3//6 10//6 4//6
f 4//7 10//7 11//7
f 4//8 11//8 5//8
f 5//9 11//9 12//9
f 5//10 12//10 6//10
f 6//11 12//11 7//11
f 6//12 7//12 1//12
f 7//13 13//13 14//13
f 7//14 14//14 8//14
f 8//15 14//15 15//15
f 8//16 15//16 9//16
f 9//17 15//17 16//17
f 9//18 16//18 10//18
f 10//19 16//19 17//19
f 10//20 17//20 11//20
f 11//21 17//21 18//21
f 11//22 18//22 12//22
f 12//23 18//23 13//23
f 12//24 13//24 7//24
f 13//25 19//25 20//25
f 13//26 20//26 14//26
f 14//27 20//27 21//27
f 14//28 21//28 15//28
f 15//29 21//29 22//29
f 15//30 22//30 16//30
f 16//31 22//31 23//31
f 16//32 23//32 17//32
f 17//33 23//33 24//33
f 17//34 24//34 18//34
f 18//35 24//35 19//35
f 18//36 19//36 13//36
f 25//37 28//37 27//37
f 25//38 27//38 26//38
f 30//39 31//39 32//39
f 30//40 32//40 29//40
f 29//41 32//41 28//41
f 29//42 28//42 25//42
f 26//43 27//43 31//43
f 26//44 31//44 30//44
f 28//45 32//45 31//45
f 28//46 31//46 27//46
f 25//47 26//47 30//47
f 25//48 30//48 29//48
f 33//49 34//49 35//49
f 33//50 35//50 36//50

